<?xml version="1.0" encoding="utf-8"?>
<!-- Generator: Adobe Illustrator 16.0.0, SVG Export Plug-In . SVG Version: 6.00 Build 0)  -->
<!DOCTYPE svg PUBLIC "-//W3C//DTD SVG 1.1//EN" "http://www.w3.org/Graphics/SVG/1.1/DTD/svg11.dtd">
<svg version="1.1" id="Layer_1" xmlns="http://www.w3.org/2000/svg" xmlns:xlink="http://www.w3.org/1999/xlink" x="0px" y="0px"
	 width="720px" height="503.999px" viewBox="0 0 720 503.999" enable-background="new 0 0 720 503.999" xml:space="preserve">
<symbol  id="New_Symbol" viewBox="-0.763 -0.763 1.526 1.525">
	<path fill="#FFFFFF" d="M0.763,0c0-0.421-0.342-0.762-0.763-0.762S-0.763-0.421-0.763,0S-0.421,0.763,0,0.763S0.763,0.42,0.763,0z"
		/>
</symbol>
<linearGradient id="SVGID_1_" gradientUnits="userSpaceOnUse" x1="360.0005" y1="503.999" x2="360.0005" y2="4.882812e-04">
	<stop  offset="0.0148" style="stop-color:#699573"/>
	<stop  offset="0.2452" style="stop-color:#8EAB87"/>
	<stop  offset="0.6116" style="stop-color:#D1D2AA"/>
	<stop  offset="0.9264" style="stop-color:#EFE199"/>
</linearGradient>
<rect x="0" fill="url(#SVGID_1_)" width="720" height="503.999"/>
<polygon opacity="0.3" fill="#5B7768" points="389.006,409.789 419.582,396.624 554.16,438.266 461.777,427.163 "/>
<path opacity="0.5" fill="#F2E9E4" d="M-0.445,212.083c0,0,84.68,76.171,147.45,58.512c0,0,3.18,12.456-38.615,22.507
	c-40.877,9.83-109.085-12.154-109.085-12.154L-0.445,212.083z"/>
<polygon opacity="0.4" fill="#5B7768" points="256.983,418.334 317,393.182 546.045,446.009 260.361,457.131 "/>
<polygon opacity="0.2" fill="#FFFADE" points="464.718,417.925 561.734,384.688 616.526,447.992 354.607,450.072 "/>
<path opacity="0.4" fill="#F2E9E4" d="M0,127.671c6.349,3,110.081,90.478,276.095,58.979s81.206-75.692,83.905-86.192
	s-41.035-67.432,97.566-53.857s262.311,0,262.311,0v76.57c0,0-69.517-37.498-126.306,6c-56.79,43.498-122.926-47.997-147.22,47.998
	c-24.295,95.995-134.971,101.994-184.909,82.495c-49.939-19.499-167.363-55.496-191.658-64.496S0,166.669,0,166.669
	C0,140.084,0,140.084,0,127.671z"/>
<g>
	<g>
		<polygon fill="#0B1110" points="242.218,325.688 220.458,456.493 242.34,452.68 263.119,458.617 253.115,392.933 		"/>
		<polygon fill="#495A58" points="242.185,325.508 242.185,383.286 257.202,405.897 251.202,373.776 245.374,362.212 
			250.477,368.017 		"/>
		<polygon fill="#495A58" points="242.185,386.086 257.205,408.38 261.529,440.558 242.185,394.486 		"/>
		<polygon fill="#495A58" points="242.948,400.472 262.015,443.686 262.447,450.821 242.948,437.708 		"/>
		<polygon fill="#495A58" points="242.948,440.558 242.948,450.821 263.119,455.84 262.447,452.419 		"/>
		<polygon fill="#1A231F" points="241.76,328.648 241.76,382.607 230.9,391.431 234.802,368.876 240.271,360.04 235.756,363.357 		
			"/>
		<polygon fill="#1A231F" points="241.76,385.154 241.76,395.334 226.998,410.436 230.9,394.315 		"/>
		<path fill="#1A231F" d="M242.185,400.472l-15.842,13.654c0,0-1.315,7.31-2.791,15.645c-0.128,0.724,14.283-13.117,14.283-13.117
			l-15.412,19.526c-1.758,9.987-3.063,17.612-2.892,17.529c0.339-0.172,22.653-3.207,22.653-3.207V400.472z"/>
	</g>
	<path opacity="0.4" fill="#CEC8B2" d="M263.119,455.84l-0.672-3.421l-0.3-0.182l-0.274-1.804l0.574,0.388l-0.432-7.136
		l-1.788-4.054l-0.519-3.413l1.821,4.339l-4.324-32.178l-2.245-3.333l-0.5-3.277l2.742,4.128l-6-32.121l-1.756-3.483l-0.685-4.227
		l1.716,1.95l-8.292-42.509v0.384l-1.33,7.994l-5.099,29.472l0.223-0.164l-0.86,5.172l-0.317,0.511l-3.902,22.555l0.441-0.357
		l-0.757,4.546l-3.587,14.816l1.353-1.383l-0.649,3.903l-1.358,1.17c0,0-1.315,7.31-2.791,15.645
		c-0.026,0.15,0.579-0.333,1.549-1.186l-0.886,5.323l-1.792,2.271c-1.758,9.987-3.063,17.612-2.892,17.529
		c0.049-0.027,0.579-0.114,1.431-0.242l-0.503,3.026l21.882-3.813l20.778,5.938l-0.439-2.888L263.119,455.84z"/>
</g>
<g>
	<rect x="87.959" y="-0.906" fill="#ACB18E" width="10.339" height="436.885"/>
	<polygon fill="#ACB18E" points="98.298,47.801 113.168,34.189 119.695,-1.125 120.949,-1.125 115.936,37.338 98.298,56.344 	"/>
	<path fill="#ACB18E" d="M87.959,27.609L75.829-1.125h-1.88c0,0,14.01,36.935,14.01,38.34S87.959,27.609,87.959,27.609z"/>
</g>
<g>
	<rect x="606.993" y="-0.906" fill="#ACB18E" width="10.339" height="436.885"/>
	<polygon fill="#ACB18E" points="606.993,47.801 592.123,34.189 585.596,-1.125 584.343,-1.125 589.355,37.338 606.993,56.344 	"/>
	<path fill="#ACB18E" d="M617.332,27.609l12.13-28.735h1.881c0,0-14.011,36.935-14.011,38.34S617.332,27.609,617.332,27.609z"/>
</g>
<rect x="14.91" y="0" fill="#ACB18E" width="9.461" height="436.884"/>
<g>
	<path fill="#5B7768" d="M299.336,503.999l228.83-0.646l0.002-21.64l-51.735-25.015l14.419,14.419l-20.306-12.948
		c0,0-40.905-24.133-42.081-24.426c-1.178-0.294,5.59,10.595,5.59,10.595l-71.952-26.34l-35.314,26.487l18.393-6.622l-33.548,28.84
		l38.258-13.538l-47.676,29.431L299.336,503.999z"/>
	<polygon fill="#ACB18E" points="191.832,503.999 349.083,417.999 343.345,426.828 362.621,417.999 327.307,444.486 
		345.086,438.086 312.151,466.704 350.407,453.166 302.733,482.597 299.336,503.999 	"/>
	<path fill="#ACB18E" d="M428.465,433.744l5.59,10.595l-26.846-9.826"/>
	<polygon opacity="0.2" fill="#FFFADE" points="469.588,457.605 476.433,456.699 490.852,471.118 	"/>
	<polygon fill="#5B7768" points="362.103,417.999 348.565,417.999 342.826,426.828 	"/>
</g>
<g>
	<g>
		<polygon fill="#0B1110" points="527.93,276.296 498.205,454.977 528.097,449.767 556.479,457.877 542.814,368.151 		"/>
		<polygon fill="#495A58" points="527.883,276.052 527.883,354.977 548.397,385.863 540.202,341.985 532.238,326.188 
			539.211,334.117 		"/>
		<polygon fill="#495A58" points="527.883,358.801 548.402,389.255 554.307,433.207 527.883,370.275 		"/>
		<polygon fill="#495A58" points="528.928,378.451 554.971,437.481 555.561,447.229 528.928,429.314 		"/>
		<polygon fill="#495A58" points="528.928,433.207 528.928,447.229 556.479,454.082 555.561,449.411 		"/>
		<polygon fill="#1A231F" points="527.303,280.342 527.303,354.05 512.469,366.102 517.802,335.292 525.271,323.221 
			519.104,327.754 		"/>
		<polygon fill="#1A231F" points="527.303,357.526 527.303,371.434 507.137,392.062 512.469,370.042 		"/>
		<path fill="#1A231F" d="M527.883,378.451l-21.639,18.65c0,0-1.799,9.987-3.812,21.372c-0.177,0.989,19.511-17.919,19.511-17.919
			l-21.054,26.672c-2.401,13.643-4.186,24.061-3.95,23.947c0.464-0.236,30.943-4.383,30.943-4.383V378.451z"/>
	</g>
	<path opacity="0.4" fill="#CEC8B2" d="M556.479,454.082l-0.918-4.671l-0.408-0.249l-0.375-2.462l0.783,0.528l-0.59-9.747
		l-2.441-5.538l-0.71-4.663l2.487,5.927l-5.904-43.952l-3.067-4.554l-0.683-4.478l3.745,5.64l-8.195-43.878l-2.4-4.757l-0.935-5.777
		l2.344,2.666l-11.328-58.065v0.524l-1.816,10.919l-6.963,40.259l0.302-0.224l-1.174,7.063l-0.43,0.698l-5.333,30.81l0.602-0.488
		l-1.034,6.21l-4.899,20.239l1.85-1.89l-0.888,5.332l-1.854,1.597c0,0-1.799,9.987-3.812,21.372
		c-0.039,0.204,0.79-0.456,2.114-1.622l-1.211,7.275l-2.446,3.1c-2.401,13.643-4.186,24.061-3.95,23.947
		c0.066-0.04,0.792-0.157,1.953-0.332l-0.688,4.135l29.892-5.21l28.382,8.11l-0.599-3.944L556.479,454.082z"/>
</g>
<g>
	<g>
		<polygon fill="#0B1110" points="612.395,303.998 596.636,398.731 612.483,395.97 627.531,400.27 620.287,352.698 		"/>
		<polygon fill="#495A58" points="612.37,303.868 612.37,345.714 623.246,362.089 618.901,338.825 614.68,330.45 618.376,334.654 		
			"/>
		<polygon fill="#495A58" points="612.37,347.74 623.249,363.887 626.379,387.189 612.37,353.824 		"/>
		<polygon fill="#495A58" points="612.924,358.159 626.731,389.456 627.045,394.624 612.924,385.127 		"/>
		<polygon fill="#495A58" points="612.924,387.189 612.924,394.624 627.531,398.258 627.045,395.781 		"/>
		<polygon fill="#1A231F" points="612.062,306.143 612.062,345.222 604.198,351.611 607.024,335.277 610.985,328.877 
			607.715,331.28 		"/>
		<polygon fill="#1A231F" points="612.062,347.065 612.062,354.438 601.371,365.376 604.198,353.7 		"/>
		<path fill="#1A231F" d="M612.37,358.159l-11.473,9.889c0,0-0.954,5.294-2.021,11.331c-0.094,0.523,10.344-9.5,10.344-9.5
			l-11.162,14.141c-1.273,7.233-2.219,12.756-2.095,12.695c0.246-0.124,16.406-2.323,16.406-2.323V358.159z"/>
	</g>
	<path opacity="0.4" fill="#CEC8B2" d="M627.531,398.258l-0.486-2.477l-0.217-0.132l-0.199-1.306l0.416,0.28l-0.313-5.168
		l-1.294-2.937l-0.377-2.472l1.318,3.142l-3.13-23.303l-1.626-2.414l-0.362-2.374l1.985,2.99l-4.345-23.264l-1.272-2.521
		l-0.496-3.062l1.243,1.413l-6.006-30.786v0.278l-0.963,5.789l-3.692,21.345l0.16-0.119l-0.622,3.745l-0.229,0.371l-2.826,16.334
		l0.318-0.259l-0.548,3.292l-2.598,10.731l0.98-1.002l-0.471,2.826l-0.983,0.848c0,0-0.954,5.294-2.021,11.331
		c-0.021,0.108,0.419-0.242,1.121-0.86l-0.643,3.856l-1.297,1.645c-1.273,7.233-2.219,12.756-2.095,12.695
		c0.036-0.021,0.421-0.083,1.035-0.176l-0.363,2.192l15.848-2.762l15.048,4.3l-0.317-2.091L627.531,398.258z"/>
</g>
<g>
	<g>
		<polygon fill="#0B1110" points="486.562,341.033 468.308,450.768 486.665,447.567 504.096,452.549 495.704,397.444 		"/>
		<polygon fill="#495A58" points="486.534,340.883 486.534,389.354 499.133,408.322 494.1,381.375 489.209,371.674 493.49,376.544 
					"/>
		<polygon fill="#495A58" points="486.534,391.702 499.136,410.405 502.762,437.397 486.534,398.749 		"/>
		<polygon fill="#495A58" points="487.176,403.771 503.17,440.023 503.531,446.009 487.176,435.008 		"/>
		<polygon fill="#495A58" points="487.176,437.397 487.176,446.009 504.096,450.219 503.531,447.35 		"/>
		<polygon fill="#1A231F" points="486.178,343.518 486.178,388.784 477.067,396.186 480.342,377.265 484.93,369.851 
			481.142,372.636 		"/>
		<polygon fill="#1A231F" points="486.178,390.92 486.178,399.46 473.793,412.13 477.067,398.605 		"/>
		<path fill="#1A231F" d="M486.534,403.771l-13.29,11.454c0,0-1.104,6.133-2.341,13.125c-0.108,0.607,11.982-11.004,11.982-11.004
			l-12.929,16.38c-1.476,8.379-2.571,14.775-2.428,14.706c0.285-0.145,19.005-2.691,19.005-2.691V403.771z"/>
	</g>
	<path opacity="0.4" fill="#CEC8B2" d="M504.096,450.219l-0.564-2.869l-0.25-0.153l-0.23-1.512l0.48,0.324l-0.361-5.985l-1.5-3.402
		l-0.436-2.863l1.527,3.64l-3.626-26.992l-1.884-2.797l-0.42-2.75l2.301,3.464l-5.033-26.947l-1.475-2.921l-0.574-3.548l1.439,1.638
		l-6.956-35.661v0.322l-1.116,6.706l-4.276,24.725l0.186-0.139l-0.722,4.339l-0.264,0.429l-3.274,18.921l0.37-0.3l-0.636,3.813
		l-3.009,12.431l1.136-1.161l-0.545,3.274l-1.14,0.981c0,0-1.104,6.133-2.341,13.125c-0.023,0.126,0.485-0.28,1.299-0.996
		l-0.743,4.468l-1.502,1.904c-1.476,8.379-2.571,14.775-2.428,14.706c0.042-0.023,0.487-0.097,1.199-0.203l-0.421,2.539l18.357-3.2
		l17.431,4.981l-0.368-2.422L504.096,450.219z"/>
</g>
<g>
	<g>
		<polygon fill="#0B1110" points="273.833,370.56 260.387,451.385 273.909,449.027 286.747,452.696 280.566,412.109 		"/>
		<polygon fill="#495A58" points="273.812,370.451 273.812,406.151 283.091,420.121 279.384,400.274 275.782,393.129 
			278.936,396.716 		"/>
		<polygon fill="#495A58" points="273.812,407.88 283.093,421.655 285.764,441.537 273.812,413.07 		"/>
		<polygon fill="#495A58" points="274.285,416.77 286.064,443.47 286.331,447.88 274.285,439.776 		"/>
		<polygon fill="#495A58" points="274.285,441.537 274.285,447.88 286.747,450.98 286.331,448.866 		"/>
		<polygon fill="#1A231F" points="273.55,372.391 273.55,405.73 266.84,411.184 269.251,397.247 272.63,391.786 269.841,393.837 		
			"/>
		<polygon fill="#1A231F" points="273.55,407.305 273.55,413.595 264.428,422.927 266.84,412.965 		"/>
		<path fill="#1A231F" d="M273.812,416.77l-9.789,8.437c0,0-0.813,4.518-1.724,9.667c-0.081,0.447,8.826-8.106,8.826-8.106
			l-9.523,12.065c-1.086,6.171-1.893,10.883-1.787,10.831c0.209-0.105,13.998-1.98,13.998-1.98V416.77z"/>
	</g>
	<path opacity="0.4" fill="#CEC8B2" d="M286.747,450.98l-0.416-2.114l-0.185-0.112l-0.169-1.113l0.354,0.239l-0.267-4.41
		l-1.104-2.505l-0.322-2.107l1.125,2.68l-2.671-19.882l-1.387-2.059l-0.31-2.025l1.694,2.55l-3.708-19.847l-1.085-2.151
		l-0.423-2.613l1.061,1.206l-5.124-26.265v0.236l-0.823,4.938l-3.149,18.211l0.137-0.101l-0.532,3.194l-0.194,0.316l-2.412,13.937
		l0.272-0.222l-0.468,2.81l-2.216,9.155l0.837-0.855l-0.402,2.412l-0.839,0.723c0,0-0.813,4.518-1.724,9.667
		c-0.018,0.092,0.357-0.206,0.957-0.734l-0.548,3.291l-1.106,1.402c-1.086,6.171-1.893,10.883-1.787,10.831
		c0.03-0.017,0.358-0.07,0.884-0.149l-0.312,1.871l13.521-2.357l12.838,3.669l-0.271-1.784L286.747,450.98z"/>
</g>
<g>
	<g>
		<polygon fill="#0B1110" points="301.561,415.312 292.689,468.644 301.611,467.088 310.082,469.509 306.003,442.728 		"/>
		<polygon fill="#495A58" points="301.547,415.239 301.547,438.796 307.67,448.015 305.224,434.918 302.847,430.203 304.928,432.57 
					"/>
		<polygon fill="#495A58" points="301.547,439.937 307.671,449.026 309.434,462.146 301.547,443.361 		"/>
		<polygon fill="#495A58" points="301.859,445.803 309.632,463.421 309.808,466.331 301.859,460.983 		"/>
		<polygon fill="#495A58" points="301.859,462.146 301.859,466.331 310.082,468.377 309.808,466.981 		"/>
		<polygon fill="#1A231F" points="301.374,416.52 301.374,438.519 296.946,442.117 298.538,432.921 300.767,429.317 298.927,430.67 
					"/>
		<polygon fill="#1A231F" points="301.374,439.558 301.374,443.708 295.355,449.865 296.946,443.292 		"/>
		<path fill="#1A231F" d="M301.547,445.803l-6.459,5.566c0,0-0.536,2.98-1.137,6.379c-0.053,0.295,5.823-5.349,5.823-5.349
			l-6.284,7.961c-0.717,4.072-1.249,7.181-1.179,7.146c0.138-0.069,9.236-1.307,9.236-1.307V445.803z"/>
	</g>
	<path opacity="0.4" fill="#CEC8B2" d="M310.082,468.377l-0.274-1.396l-0.122-0.074l-0.112-0.734l0.233,0.158l-0.176-2.91
		l-0.728-1.653l-0.212-1.391l0.742,1.769l-1.763-13.119l-0.915-1.358l-0.204-1.337l1.118,1.684l-2.446-13.097l-0.716-1.42
		l-0.28-1.724l0.7,0.796l-3.381-17.331v0.156l-0.543,3.259l-2.078,12.016l0.09-0.066l-0.351,2.108l-0.128,0.209l-1.591,9.196
		l0.18-0.146l-0.309,1.854l-1.462,6.041l0.552-0.564l-0.265,1.592l-0.554,0.477c0,0-0.536,2.98-1.137,6.379
		c-0.012,0.061,0.236-0.136,0.631-0.484l-0.362,2.172l-0.73,0.925c-0.717,4.072-1.249,7.181-1.179,7.146
		c0.02-0.011,0.237-0.046,0.583-0.099l-0.205,1.235l8.922-1.556l8.471,2.421l-0.179-1.178L310.082,468.377z"/>
</g>
<g>
	<g>
		<polygon fill="#0B1110" points="418.693,431.627 410.088,483.357 418.742,481.848 426.959,484.197 423.003,458.22 		"/>
		<polygon fill="#495A58" points="418.68,431.557 418.68,454.406 424.619,463.348 422.246,450.646 419.941,446.071 421.959,448.368 
					"/>
		<polygon fill="#495A58" points="418.68,455.513 424.62,464.33 426.33,477.054 418.68,458.834 		"/>
		<polygon fill="#495A58" points="418.982,461.202 426.521,478.291 426.692,481.114 418.982,475.928 		"/>
		<polygon fill="#495A58" points="418.982,477.054 418.982,481.114 426.959,483.1 426.692,481.746 		"/>
		<polygon fill="#1A231F" points="418.512,432.798 418.512,454.137 414.218,457.627 415.761,448.707 417.924,445.213 
			416.139,446.524 		"/>
		<polygon fill="#1A231F" points="418.512,455.146 418.512,459.171 412.674,465.143 414.218,458.767 		"/>
		<path fill="#1A231F" d="M418.68,461.202l-6.265,5.399c0,0-0.521,2.893-1.104,6.188c-0.052,0.286,5.649-5.188,5.649-5.188
			l-6.096,7.722c-0.695,3.949-1.212,6.965-1.145,6.932c0.135-0.067,8.959-1.268,8.959-1.268V461.202z"/>
	</g>
	<path opacity="0.4" fill="#CEC8B2" d="M426.959,483.1l-0.267-1.354l-0.118-0.072l-0.108-0.712l0.227,0.152l-0.171-2.823
		l-0.705-1.603l-0.207-1.35l0.721,1.715l-1.71-12.724l-0.888-1.317l-0.197-1.298l1.084,1.633l-2.373-12.702l-0.695-1.377
		l-0.27-1.674l0.678,0.773l-3.279-16.812v0.152l-0.525,3.159l-2.016,11.656l0.087-0.064l-0.341,2.044l-0.124,0.203l-1.543,8.92
		l0.174-0.141l-0.3,1.797l-1.418,5.859l0.535-0.546l-0.257,1.543l-0.537,0.462c0,0-0.521,2.893-1.104,6.188
		c-0.011,0.059,0.229-0.133,0.612-0.471l-0.351,2.106l-0.708,0.897c-0.695,3.949-1.212,6.965-1.145,6.932
		c0.02-0.01,0.23-0.045,0.565-0.095l-0.198,1.197l8.654-1.51l8.217,2.35l-0.174-1.143L426.959,483.1z"/>
</g>
<g>
	<g>
		<polygon fill="#0B1110" points="453.993,373.482 436.418,479.129 454.092,476.048 470.873,480.844 462.794,427.792 		"/>
		<polygon fill="#495A58" points="453.966,373.338 453.966,420.003 466.095,438.266 461.249,412.321 456.541,402.981 
			460.663,407.67 		"/>
		<polygon fill="#495A58" points="453.966,422.264 466.098,440.271 469.589,466.257 453.966,429.049 		"/>
		<polygon fill="#495A58" points="454.583,433.883 469.981,468.785 470.33,474.548 454.583,463.956 		"/>
		<polygon fill="#495A58" points="454.583,466.257 454.583,474.548 470.873,478.601 470.33,475.838 		"/>
		<polygon fill="#1A231F" points="453.623,375.874 453.623,419.454 444.852,426.581 448.004,408.364 452.421,401.227 
			448.774,403.907 		"/>
		<polygon fill="#1A231F" points="453.623,421.511 453.623,429.733 441.699,441.931 444.852,428.91 		"/>
		<path fill="#1A231F" d="M453.966,433.883l-12.795,11.027c0,0-1.063,5.904-2.253,12.636c-0.104,0.585,11.535-10.594,11.535-10.594
			l-12.447,15.77c-1.421,8.066-2.475,14.226-2.336,14.158c0.273-0.139,18.296-2.591,18.296-2.591V433.883z"/>
	</g>
	<path opacity="0.4" fill="#CEC8B2" d="M470.873,478.601l-0.543-2.763l-0.241-0.146l-0.222-1.457l0.463,0.313l-0.349-5.763
		l-1.443-3.275l-0.42-2.757l1.471,3.504l-3.491-25.986l-1.813-2.692l-0.404-2.648l2.215,3.336l-4.846-25.944l-1.419-2.812
		l-0.553-3.415l1.386,1.576l-6.697-34.332v0.311l-1.075,6.455l-4.116,23.804l0.179-0.133l-0.694,4.177l-0.255,0.413l-3.152,18.217
		l0.356-0.289l-0.612,3.671l-2.896,11.968l1.094-1.117l-0.524,3.151l-1.098,0.945c0,0-1.063,5.904-2.253,12.636
		c-0.023,0.122,0.467-0.27,1.25-0.959l-0.716,4.302l-1.446,1.833c-1.421,8.066-2.475,14.226-2.336,14.158
		c0.039-0.022,0.468-0.093,1.154-0.196l-0.406,2.445l17.674-3.081l16.781,4.796l-0.354-2.332L470.873,478.601z"/>
</g>
<polygon fill="#3E5348" points="0,360.085 87.104,405.667 262.595,431.001 360,503.999 0,503.999 "/>
<g>
	<g>
		<polygon fill="#0B1110" points="13.732,346.779 0.096,262.629 0.096,433.693 28.193,441.723 		"/>
		<polygon fill="#495A58" points="10.966,319.089 2.543,302.374 9.919,310.764 0.096,260.409 0.096,336.093 19.64,365.519 		"/>
		<polygon fill="#495A58" points="19.645,369.106 0.096,340.094 0.096,354.176 25.894,415.615 		"/>
		<polygon fill="#495A58" points="26.598,420.138 0.096,360.077 0.096,412.213 27.222,430.454 		"/>
		<polygon fill="#495A58" points="27.222,432.764 0.096,416.26 0.096,430.718 28.193,437.708 		"/>
	</g>
	<polygon opacity="0.3" fill="#CEC8B2" points="27.557,437.55 28.193,437.708 27.222,432.764 26.788,432.5 26.392,429.896 
		27.222,430.454 26.598,420.138 24.013,414.279 23.262,409.347 25.894,415.615 19.645,369.106 16.399,364.29 15.678,359.553 
		19.64,365.519 10.966,319.089 8.43,314.055 7.439,307.942 9.919,310.764 0.096,260.409 0.096,433.693 28.193,441.723 	"/>
</g>
<g>
	<polygon fill="#0B1110" points="32.911,249.579 1.458,438.652 33.087,433.14 63.123,441.723 48.662,346.779 	"/>
	<polygon fill="#495A58" points="32.862,249.318 32.862,332.835 54.57,365.519 45.896,319.089 37.473,302.374 44.849,310.764 	"/>
	<polygon fill="#495A58" points="32.862,336.883 54.574,369.106 60.824,415.615 32.862,349.023 	"/>
	<polygon fill="#495A58" points="33.966,357.676 61.528,420.138 62.151,430.454 33.966,411.5 	"/>
	<polygon fill="#495A58" points="33.966,415.615 33.966,430.454 63.123,437.708 62.151,432.764 	"/>
	<polygon fill="#1A231F" points="32.25,253.857 32.25,331.854 16.552,344.608 22.192,312.006 30.098,299.232 23.571,304.029 	"/>
	<polygon fill="#1A231F" points="32.25,335.534 32.25,350.25 10.911,372.079 16.552,348.778 	"/>
	<path fill="#1A231F" d="M32.862,357.676L9.964,377.413c0,0-1.901,10.564-4.034,22.613c-0.185,1.045,20.646-18.96,20.646-18.96
		L4.298,409.29c-2.541,14.437-4.427,25.459-4.18,25.336c0.491-0.246,32.744-4.634,32.744-4.634V357.676z"/>
</g>
<g>
	<g>
		<polygon fill="#0B1110" points="81.601,275.23 53.919,441.64 81.756,436.788 108.191,444.342 95.464,360.779 		"/>
		<polygon fill="#495A58" points="81.558,275.002 81.558,348.507 100.664,377.272 93.029,336.408 85.616,321.697 92.108,329.081 		
			"/>
		<polygon fill="#495A58" points="81.558,352.069 100.667,380.431 106.167,421.364 81.558,362.755 		"/>
		<polygon fill="#495A58" points="82.53,370.37 106.787,425.345 107.336,434.424 82.53,417.742 		"/>
		<polygon fill="#495A58" points="82.53,421.364 82.53,434.424 108.191,440.809 107.336,436.457 		"/>
		<polygon fill="#1A231F" points="81.019,278.997 81.019,347.644 67.203,358.869 72.167,330.175 79.125,318.933 73.38,323.154 		"/>
		<polygon fill="#1A231F" points="81.019,350.883 81.019,363.834 62.238,383.047 67.203,362.539 		"/>
		<path fill="#1A231F" d="M81.558,370.37l-20.153,17.371c0,0-1.673,9.298-3.55,19.902c-0.163,0.92,18.171-16.687,18.171-16.687
			l-19.607,24.84c-2.236,12.706-3.896,22.407-3.679,22.299c0.432-0.217,28.819-4.078,28.819-4.078V370.37z"/>
	</g>
	<path opacity="0.2" fill="#CEC8B2" d="M108.191,440.809l-0.855-4.352l-0.381-0.232l-0.349-2.292l0.73,0.491l-0.549-9.079
		l-2.275-5.156l-0.661-4.342l2.316,5.518l-5.5-40.934l-2.856-4.239l-0.635-4.17l3.488,5.251l-7.634-40.864l-2.232-4.431
		l-0.872-5.379l2.183,2.482l-10.55-54.079v0.487l-1.691,10.169l-6.486,37.496l0.283-0.208l-1.094,6.578l-0.402,0.65l-4.964,28.694
		l0.561-0.456l-0.962,5.783l-4.563,18.851l1.721-1.761l-0.826,4.966l-1.728,1.489c0,0-1.673,9.298-3.55,19.902
		c-0.034,0.191,0.738-0.425,1.97-1.509l-1.126,6.773l-2.28,2.889c-2.236,12.706-3.896,22.407-3.679,22.299
		c0.063-0.031,0.737-0.143,1.82-0.307l-0.641,3.851l27.837-4.852l26.435,7.554l-0.56-3.673L108.191,440.809z"/>
</g>
<g>
	<rect x="42.106" fill="#564B3B" width="16.499" height="436.886"/>
	<polygon fill="#564B3B" points="58.605,48.707 82.333,35.095 92.75,-0.22 94.75,-0.22 86.75,38.244 58.605,57.25 	"/>
	<path fill="#564B3B" d="M42.106,28.515L22.75-0.22h-3c0,0,22.356,36.935,22.356,38.34S42.106,28.515,42.106,28.515z"/>
</g>
<path opacity="0.5" fill="#F2E9E4" d="M720,156.576c0,0-84.68,76.171-147.45,58.512c0,0-3.18,12.456,38.615,22.506
	c40.877,9.83,109.085-12.154,109.085-12.154L720,156.576z"/>
<g>
	<rect x="687.877" y="-0.906" fill="#564B3B" width="13.285" height="436.886"/>
	<polygon fill="#564B3B" points="687.877,47.801 687.877,56.344 677.066,49.966 681.962,43.587 	"/>
	<path fill="#564B3B" d="M701.162,27.609l15.586-28.735h2.416c0,0-18.002,36.935-18.002,38.34S701.162,27.609,701.162,27.609z"/>
</g>
<path fill="#58745C" d="M87.104,405.667c3.007,1.285,175.491,25.334,175.491,25.334L104,418.334L87.104,405.667z"/>
<g>
	<g>
		<polygon fill="#0B1110" points="181.146,278.994 153.463,445.403 181.3,440.552 207.735,448.105 195.008,364.543 		"/>
		<polygon fill="#495A58" points="181.103,278.766 181.103,352.271 200.208,381.036 192.574,340.172 185.161,325.461 
			191.652,332.845 		"/>
		<polygon fill="#495A58" points="181.103,355.833 200.212,384.194 205.712,425.128 181.103,366.519 		"/>
		<polygon fill="#495A58" points="182.074,374.134 206.332,429.108 206.88,438.188 182.074,421.506 		"/>
		<polygon fill="#495A58" points="182.074,425.128 182.074,438.188 207.735,444.572 206.88,440.221 		"/>
		<polygon fill="#1A231F" points="180.563,282.761 180.563,351.407 166.747,362.633 171.711,333.938 178.669,322.696 
			172.925,326.918 		"/>
		<polygon fill="#1A231F" points="180.563,354.646 180.563,367.598 161.782,386.811 166.747,366.303 		"/>
		<path fill="#1A231F" d="M181.103,374.134l-20.153,17.371c0,0-1.673,9.298-3.55,19.902c-0.163,0.92,18.171-16.687,18.171-16.687
			l-19.607,24.84c-2.236,12.706-3.896,22.407-3.679,22.299c0.432-0.217,28.819-4.078,28.819-4.078V374.134z"/>
	</g>
	<path opacity="0.4" fill="#CEC8B2" d="M207.735,444.572l-0.855-4.352l-0.381-0.232l-0.349-2.292l0.73,0.491l-0.549-9.079
		l-2.275-5.156l-0.661-4.342l2.316,5.518l-5.5-40.934l-2.856-4.239l-0.635-4.17l3.488,5.251l-7.634-40.864l-2.232-4.431
		l-0.872-5.379l2.183,2.482l-10.55-54.079v0.487l-1.691,10.169l-6.486,37.496l0.283-0.208l-1.094,6.578l-0.402,0.65l-4.964,28.694
		l0.561-0.456l-0.962,5.783l-4.563,18.851l1.721-1.761l-0.826,4.966l-1.728,1.489c0,0-1.673,9.298-3.55,19.902
		c-0.034,0.191,0.738-0.425,1.97-1.509l-1.126,6.773l-2.28,2.889c-2.236,12.706-3.896,22.407-3.679,22.299
		c0.063-0.031,0.737-0.143,1.82-0.307l-0.641,3.851l27.837-4.852l26.435,7.554l-0.56-3.673L207.735,444.572z"/>
</g>
<g opacity="0.8">
	<rect x="138.366" y="-0.192" fill="#2E1808" width="16" height="431.193"/>
	<polygon fill="#B26D3E" points="154.366,186.65 144.032,164.789 144.032,-0.192 154.366,-0.192 	"/>
</g>
<g opacity="0.8">
	<rect x="249.695" y="-1.618" fill="#425648" width="10.667" height="458.749"/>
	<polygon fill="#869B7B" points="260.361,197.166 253.473,173.907 253.473,-1.618 260.361,-1.618 	"/>
</g>
<g>
	<rect x="555.292" fill="#ACB18E" width="10.667" height="458.748"/>
	<polygon fill="#BEC19F" points="555.292,198.783 562.181,175.524 562.181,0 555.292,0 	"/>
</g>
<polygon fill="#3E5348" points="720,284.714 617.667,367.308 589.002,417.506 501.083,427.2 424.586,460.782 372.089,503.999 
	720,503.999 "/>
<g>
	<polygon fill="#0B1110" points="652.204,227.756 691.648,464.874 651.983,457.96 614.315,468.725 632.451,349.655 	"/>
	<polygon fill="#495A58" points="652.134,225.44 652.266,330.162 625.496,368.033 634.063,322.177 646.983,305.787 635.09,316.682 
		639.201,294.671 649.817,279.329 640.87,285.734 	"/>
	<polygon fill="#495A58" points="652.266,337.244 624.858,374.622 617.021,432.949 652.266,352.47 	"/>
	<polygon fill="#495A58" points="650.881,366.163 615.533,444.496 615.533,454.593 650.881,430.822 	"/>
	<polygon fill="#495A58" points="650.881,430.822 650.881,454.593 614.315,463.689 615.533,452.606 	"/>
	<polygon fill="#1A231F" points="653.033,233.122 653.033,330.938 672.721,346.934 	"/>
	<polygon fill="#1A231F" points="653.033,335.553 653.033,354.009 679.795,381.385 672.721,352.163 	"/>
	<path fill="#1A231F" d="M652.266,363.321l28.717,24.752c0,0,1.988,11.074,4.151,23.248l-20.4-10.409l22.352,21.438
		c3.267,18.53,6.562,37.633,6.245,37.475c-0.615-0.309-41.064-5.811-41.064-5.811V363.321z"/>
</g>
<g>
	<g>
		<polygon fill="#0B1110" points="704.287,217.427 684.534,339.326 666.398,458.396 704.066,447.631 720.25,450.452 720.25,313.388 
					"/>
		<polygon fill="#495A58" points="704.217,215.111 704.349,319.833 677.579,357.704 686.146,311.848 699.066,295.458 
			687.173,306.353 691.284,284.342 701.9,269 692.953,275.405 		"/>
		<polygon fill="#495A58" points="704.349,326.915 676.941,364.293 669.104,422.62 704.349,342.141 		"/>
		<polygon fill="#495A58" points="702.964,355.834 667.616,434.167 667.616,444.264 702.964,420.493 		"/>
		<polygon fill="#495A58" points="702.964,420.493 702.964,444.264 666.398,453.36 667.616,442.277 		"/>
		<polygon fill="#1A231F" points="705.116,222.793 705.116,320.609 720.25,332.905 720.25,310.28 		"/>
		<polygon fill="#1A231F" points="705.116,325.224 705.116,343.68 720.25,359.161 720.25,337.992 		"/>
		<path fill="#1A231F" d="M716.816,390.583l3.434,1.752v-25.637l-15.901-13.706v90.692c0,0,7.391,1.005,15.901,2.181v-51.989
			L716.816,390.583z"/>
	</g>
	<polygon opacity="0.5" fill="#1E0F04" points="706.815,232.338 704.331,217.404 704.264,217.816 704.261,215.088 692.997,275.382 
		695.19,273.812 694.148,280.242 691.328,284.318 687.217,306.329 690.393,303.42 689.766,307.289 686.19,311.824 677.623,357.681 
		682.92,350.187 681.77,357.745 676.985,364.27 669.148,422.597 673.354,412.993 671.393,425.872 667.66,434.144 667.66,442.254 
		666.442,453.337 667.239,453.139 666.442,458.372 704.11,447.607 720.25,450.421 720.25,310.002 	"/>
</g>
<path opacity="0.3" fill="#1E0F04" d="M687.085,422.35l-2.987-2.865l-1.58-9.498l2.616,1.335
	c-2.163-12.174-4.151-23.248-4.151-23.248l-2.463-2.123l-1.177-7.074l2.452,2.509l-6.504-26.867l-1.37-8.233l0.8,0.649
	l-18.032-104.242l-2.484-14.935l-0.067,0.413l-0.003-2.729l-11.264,60.294l2.193-1.57l-1.042,6.431l-2.82,4.076l-4.111,22.011
	l3.176-2.909l-0.627,3.869l-3.575,4.535l-8.567,45.856l5.297-7.494l-1.15,7.559l-4.784,6.524l-7.837,58.327l4.206-9.604
	l-1.962,12.879l-3.732,8.271v8.11l-1.218,11.083l0.797-0.198l-0.797,5.233l37.668-10.765l39.665,6.914l-0.913-5.488
	c1.552,0.235,2.505,0.394,2.595,0.438C693.647,459.982,690.352,440.88,687.085,422.35z"/>
<g>
	<rect x="205.405" y="0.004" fill="#2E1808" width="12.52" height="440.732"/>
	<polygon fill="#B26D3E" points="228.304,440.736 217.925,440.736 217.925,0.003 228.304,-0.192 	"/>
	<polygon fill="#2E1808" points="227.151,416.751 232.093,427.17 234.399,445.653 236.047,445.653 236.047,427.17 226.807,397.354 	
		"/>
	<polygon fill="#2E1808" points="217.102,304.963 228.304,348.979 228.635,368.255 224.35,353.356 226.883,398.727 226.883,402.805 
		228.358,419.684 228.804,440.736 217.102,440.736 	"/>
	<polygon fill="#2E1808" points="217.925,195.402 216.854,219.01 228.196,265.979 228.304,244.402 	"/>
	<polygon fill="#2E1808" points="217.925,103.654 223.691,111.216 217.925,79.457 	"/>
	<polygon fill="#2E1808" points="217.925,27.534 223.691,48.707 217.925,40.641 	"/>
	<polygon fill="#1E0F04" points="205.405,350.333 194.862,390.324 194.862,436.03 198.487,436.03 200.134,393.182 205.405,370.161 	
		"/>
	<path fill="#1E0F04" d="M206.667,295.206l8.458,37.314c0,0,2.965,105.191,2.965,105.527s-11.423-6.059-11.423-6.059V295.206z"/>
	<polygon fill="#2E1808" points="205.405,39.091 194.862,32.071 140.996,-0.192 132.594,-0.192 156.002,15.916 194.862,42.657 
		205.405,70.383 	"/>
	<polygon fill="#2E1808" points="129.135,10.898 116.903,-0.192 112.208,-0.192 129.135,16.443 164.522,21.779 155.853,13.616 	"/>
	<polygon fill="#B26D3E" points="228.304,35.095 250.213,-0.192 254.331,-0.192 228.304,47.53 	"/>
</g>
<polygon fill="#1E0F04" points="197.504,426.025 157.007,434 113.642,452 90.5,459.607 0,445.653 0,474.28 57.142,465.012 
	89.642,487 169.642,465.012 249.142,469.5 220.731,438.648 207.883,426.025 "/>
<polygon fill="#341E0A" points="0,434.732 205.241,426.025 205.259,427.668 228.804,436.886 354,503.999 0,503.999 "/>
<polygon fill="#341E0A" points="720,389.536 664.575,453.081 559.111,469.745 430.587,480.079 397.589,503.999 720,503.999 "/>
<g>
	<polygon fill="#2E1808" points="641.166,462.444 669.166,462.444 669.166,329.426 669.166,0 641.166,0 	"/>
	<polygon fill="#1E0F04" points="683.999,372.554 682.125,439.875 677.25,444.125 675.999,372.554 668.499,363.721 668.499,329.426 
			"/>
	<polygon fill="#B26D3E" points="656.5,43.995 641.167,57.676 641.167,156.921 656.5,136.83 	"/>
	<polygon fill="#B26D3E" points="653.833,159.692 641.167,171.469 641.167,405.667 653.833,329.426 	"/>
	<polygon fill="#B26D3E" points="653.833,0 653.833,23.211 641.167,40.53 641.167,0 	"/>
</g>
<polygon fill="#2E1808" points="662.083,60.706 662.083,60.706 699.916,-0.22 705.916,-0.22 662.082,81.28 "/>
<polygon fill="#B26D3E" points="643.001,22.333 625.49,0 617.667,0 643.001,37 "/>
<polygon fill="#1E0F04" points="246.5,476 251.783,476.054 354,503.999 312,502.885 222.579,503.999 88,503.999 0,503.999 
	0,459.607 50.356,472 87,492.5 154.366,465.012 "/>
<polygon fill="#2E1808" points="669.166,294.375 674.889,313.362 674.667,317.791 669.166,310.963 "/>
<polygon fill="#1E0F04" points="641.167,431.001 669.592,332.467 669.166,462.444 641.166,462.444 "/>
<polygon fill="#1E0F04" points="720,417.67 695.791,437.369 695.791,451.67 681.695,438.839 668.761,448.807 668.761,460.337 
	641.485,462.444 612.218,480.337 589.667,493.67 623.494,487.67 599.616,504.224 676.471,504.224 720,504.224 "/>
<path fill="#341E0A" d="M720,257l-0.123,0.594c0.041-0.027,0.082-0.056,0.123-0.083V257z"/>
<polygon fill="#58745C" points="618.917,366.133 597.192,418.787 516.25,440.736 502.333,426.025 590.252,410.179 "/>
<polygon fill="#58745C" points="426.586,459.607 508.775,432.042 503.083,426.025 "/>
<g>
	<polygon fill="#0B1110" points="112.278,199.768 72.833,436.886 112.499,429.972 150.167,440.736 132.032,321.667 	"/>
	<polygon fill="#495A58" points="112.217,199.441 112.217,304.18 139.44,345.168 128.563,286.941 118,265.979 127.25,276.5 	"/>
	<polygon fill="#495A58" points="112.217,309.256 139.446,349.668 147.284,407.995 112.217,324.481 	"/>
	<polygon fill="#495A58" points="113.602,335.333 148.167,413.667 148.949,426.604 113.602,402.834 	"/>
	<polygon fill="#495A58" points="113.602,407.995 113.602,426.604 150.167,435.701 148.949,429.501 	"/>
	<polygon fill="#1A231F" points="111.449,205.134 111.449,302.95 91.762,318.945 98.835,278.058 108.75,262.039 100.565,268.055 	
		"/>
	<polygon fill="#1A231F" points="111.449,307.564 111.449,326.021 84.688,353.396 91.762,324.175 	"/>
	<path fill="#1A231F" d="M112.217,335.333L83.5,360.085c0,0-2.384,13.249-5.058,28.36c-0.232,1.31,25.892-23.778,25.892-23.778
		l-27.939,35.396c-3.186,18.104-5.552,31.928-5.242,31.773c0.615-0.309,41.064-5.811,41.064-5.811V335.333z"/>
</g>
<polygon opacity="0.6" fill="#0B1110" points="71.132,435.701 0.096,453.25 0,503.999 65.665,502.885 146.366,438.417 
	112.499,429.972 "/>
<g>
	<polygon fill="#0B1110" points="571.721,237.594 611.165,474.712 571.5,467.798 533.832,478.562 551.968,359.493 	"/>
	<polygon fill="#495A58" points="571.65,235.278 571.782,340 545.013,377.871 553.58,332.015 566.5,315.625 554.606,326.52 
		558.718,304.509 569.334,289.167 560.387,295.572 	"/>
	<polygon fill="#495A58" points="571.782,347.082 544.375,384.46 536.538,442.787 571.782,362.308 	"/>
	<polygon fill="#495A58" points="570.397,376.001 535.05,454.334 535.05,464.431 570.397,440.66 	"/>
	<polygon fill="#495A58" points="570.397,440.66 570.397,464.431 533.832,473.527 535.05,462.444 	"/>
	<polygon fill="#1A231F" points="572.55,242.96 572.55,340.776 592.237,356.771 	"/>
	<polygon fill="#1A231F" points="572.55,345.391 572.55,363.847 599.312,391.223 592.237,362.001 	"/>
	<path fill="#1A231F" d="M571.782,373.159l28.717,24.752c0,0,1.988,11.074,4.151,23.248l-20.4-10.409l22.352,21.438
		c3.267,18.53,6.562,37.633,6.245,37.475c-0.615-0.309-41.064-5.811-41.064-5.811V373.159z"/>
</g>
<polygon opacity="0.6" fill="#0B1110" points="612.847,469.662 712.5,504.224 683.999,503.999 573.787,503.999 533.832,478.562 
	571.5,466.673 "/>
<g>
	<g opacity="0.4">
		<polygon opacity="0.2" fill="#FFFADE" points="481.617,0 541.271,-0.001 354,503.999 286,503.999 		"/>
		<polygon opacity="0.2" fill="#FFFADE" points="689.168,-0.22 719.877,0 720,41.178 552.291,503.999 495.685,503.999 		"/>
		<polygon opacity="0.2" fill="#FFFADE" points="285,-0.192 337.25,-0.192 141.686,503.552 84.688,503.552 		"/>
	</g>
	<g opacity="0.8">
		<polygon opacity="0.2" fill="#FFFADE" points="372.089,0.447 436.086,0.447 249.119,503.552 171.173,503.552 		"/>
		<polygon opacity="0.2" fill="#FFFADE" points="583.543,0 629.418,0 447.084,503.999 390.336,503.999 		"/>
		<polygon opacity="0.2" fill="#FFFADE" points="177.917,0 230.25,0 34.342,504.538 0,503.999 0,447.519 		"/>
	</g>
</g>
<g opacity="0.7">
	<path fill="#3E5348" d="M453.475,257.593c0,0,1.424,2.334,1.883,2.375s0.359-1.741,1.75-2.375
		C458.75,256.844,453.475,257.593,453.475,257.593z"/>
	<path fill="#3E5348" d="M464.435,259.67c-0.458-1.35-4.358-2.994-8.233-1.869s3.75-3.25,7.375-1.5s1.092,3.401,1.092,3.401
		L464.435,259.67z"/>
	<path fill="#3E5348" d="M443.475,255.674c0,0,8-0.456,10,1.919c0.805,0.956,2.122,0.857,1.737,0.199
		c-0.639-1.091-2.727-3.362-4.987-3.699C448.105,253.776,444.566,254.763,443.475,255.674z"/>
</g>
<g opacity="0.7">
	<path fill="#3E5348" d="M585.506,168.582c0,0,0.591,0.964,0.78,0.981c0.188,0.017,0.146-0.719,0.724-0.981
		C587.687,168.272,585.506,168.582,585.506,168.582z"/>
	<path fill="#3E5348" d="M590.036,169.439c-0.189-0.558-1.802-1.237-3.403-0.771c-1.601,0.464,1.551-1.343,3.049-0.621
		c1.497,0.723,0.45,1.405,0.45,1.405L590.036,169.439z"/>
	<path fill="#3E5348" d="M581.375,167.788c0,0,3.305-0.188,4.131,0.794c0.334,0.394,0.878,0.354,0.72,0.082
		c-0.265-0.45-1.127-1.389-2.062-1.528C583.288,167.004,581.825,167.411,581.375,167.788z"/>
</g>
<g opacity="0.7">
	<path fill="#3E5348" d="M476.324,235.684c0,0,0.973,1.594,1.286,1.622c0.313,0.028,0.246-1.189,1.195-1.622
		C479.928,235.172,476.324,235.684,476.324,235.684z"/>
	<path fill="#3E5348" d="M483.811,237.102c-0.312-0.922-2.977-2.045-5.624-1.277c-2.646,0.769,2.562-2.22,5.038-1.024
		c2.476,1.195,0.745,2.323,0.745,2.323L483.811,237.102z"/>
	<path fill="#3E5348" d="M469.494,234.373c0,0,5.465-0.312,6.83,1.311c0.55,0.653,1.45,0.585,1.188,0.136
		c-0.437-0.745-1.863-2.296-3.407-2.527C472.657,233.077,470.24,233.75,469.494,234.373z"/>
</g>
<g opacity="0.7">
	<path fill="#3E5348" d="M519.184,148.28c0,0,0.973,1.594,1.286,1.622c0.313,0.028,0.246-1.189,1.195-1.622
		C522.787,147.768,519.184,148.28,519.184,148.28z"/>
	<path fill="#3E5348" d="M526.67,149.698c-0.312-0.922-2.977-2.045-5.624-1.277c-2.646,0.769,2.562-2.22,5.038-1.024
		c2.476,1.195,0.745,2.323,0.745,2.323L526.67,149.698z"/>
	<path fill="#3E5348" d="M512.354,146.969c0,0,5.465-0.312,6.83,1.311c0.55,0.653,1.45,0.585,1.188,0.136
		c-0.437-0.745-1.863-2.296-3.407-2.527C515.517,145.673,513.1,146.346,512.354,146.969z"/>
</g>
<g opacity="0.7">
	<path fill="#3E5348" d="M299.803,154.451c0,0,1.685,0.805,1.963,0.657c0.278-0.147-0.443-1.131,0.116-2.011
		C302.543,152.055,299.803,154.451,299.803,154.451z"/>
	<path fill="#3E5348" d="M306.85,151.554c-0.765-0.602-3.61-0.089-5.409,2c-1.798,2.088,0.935-3.258,3.663-3.608
		c2.727-0.35,1.892,1.54,1.892,1.54L306.85,151.554z"/>
	<path fill="#3E5348" d="M293.364,157.08c0,0,4.409-3.243,6.438-2.629c0.817,0.247,1.535-0.301,1.069-0.534
		c-0.772-0.386-2.814-0.907-4.234-0.258C295.308,154.268,293.65,156.151,293.364,157.08z"/>
</g>
<g opacity="0.7">
	<path fill="#3E5348" d="M190.218,105.006c0,0,1.685,0.805,1.963,0.657c0.278-0.147-0.443-1.131,0.116-2.011
		C192.958,102.611,190.218,105.006,190.218,105.006z"/>
	<path fill="#3E5348" d="M197.265,102.109c-0.765-0.602-3.61-0.089-5.409,2c-1.798,2.088,0.935-3.258,3.663-3.608
		c2.727-0.35,1.892,1.54,1.892,1.54L197.265,102.109z"/>
	<path fill="#3E5348" d="M183.779,107.635c0,0,4.409-3.243,6.438-2.629c0.817,0.247,1.535-0.301,1.069-0.534
		c-0.772-0.386-2.814-0.907-4.234-0.258C185.723,104.823,184.065,106.707,183.779,107.635z"/>
</g>
</svg>
