<?xml version="1.0" encoding="utf-8"?>
<!-- Generator: Adobe Illustrator 18.0.0, SVG Export Plug-In . SVG Version: 6.00 Build 0)  -->
<!DOCTYPE svg PUBLIC "-//W3C//DTD SVG 1.1//EN" "http://www.w3.org/Graphics/SVG/1.1/DTD/svg11.dtd">
<svg version="1.1" id="Layer_1" xmlns="http://www.w3.org/2000/svg" xmlns:xlink="http://www.w3.org/1999/xlink" x="0px" y="0px"
	 viewBox="0 0 1400 980" enable-background="new 0 0 1400 980" xml:space="preserve">
<g>
	<g>
		<g>
			<g>
				<rect fill="#7C3E29" width="1400" height="980"/>
			</g>
		</g>
	</g>
	<path fill="#5B291B" d="M1359.5,749.4c0.7-1.2,1.4-2.4,1.9-3.7c1-2.6,1.1-5.2,1.3-7.6c0.3-5.3,0.8-10.6,1.2-15.7
		c0.8-9.5,1.7-19.3,1.7-29.2c0-4.6,0.4-10,0.7-15.6c1.5-22.4,3.3-50.3-14.8-64.2c-1.7-1.3-3.5-1.7-5.1-2l-1.4-0.3l4.7-1
		c2.3-0.5,7.8-1.7,9.4-6.5c0.8-2.4,0.3-4.7-0.2-6.6c-0.3-1.3-0.6-2.7-0.2-3.3c0.2-0.2,0.6-0.6,1.1-0.9c0.5-0.3,1.1-0.7,1.7-1.3
		c6.8-6.3,5.6-21.8,4.6-34.3c-0.3-3.3-0.5-6.1-0.5-8.1l0-2.6c0-19,0-36.9-4.5-55.2c-0.3-1.3-0.8-2.3-1.2-3.4
		c-0.2-0.4-0.3-0.8-0.5-1.2c-2.1-5.2-1.6-11.5,1.1-16.5c0.4-0.6,0.7-1.3,1.1-1.9c0.7-1.1,1.4-2.2,1.9-3.4
		c4.8-10.1,3.7-24.8,2.7-37.8c-0.4-4.8-0.7-9.3-0.7-13.1v-81.4c0-2.1,0.2-4.8,0.5-7.8c0.8-9.2,1.8-20.6-2.7-26.8
		c-2.3-3.3-6.9-5.4-11.9-6.5c0.5-0.5,0.8-1.1,1-1.6c0.1-0.3,0.3-0.5,0.4-0.6c0.4-0.6,1.6-0.8,2.9-1.1c1.6-0.4,3.4-0.8,5.1-2
		c5-3.7,5.1-13.4,4.7-23c0-1.2-0.1-2.2-0.1-3v-31.9c0-0.5,0.1-1.5,0.1-2.8c0.7-14.8,0.8-32.3-4.2-40c2.8-1.3,3.5-3.7,4-9.1
		c0.4-4.5,0.3-9.1,0.2-13.6c-0.1-2.2-0.1-4.3-0.1-6.4c0-4.3,0.2-9,0.5-14c0.9-16.3,1.8-34.9-5.3-47.8c-0.6-1-1.3-2.2-2.6-3
		c-1.6-1.1-3.4-1.1-4.7-1.1c-0.5,0-1.3,0-1.5-0.1c-0.2-0.1-0.6-0.5-0.9-0.9c-0.4-0.5-1-1.1-1.6-1.7c-1.8-1.4-4-1.8-5.6-2.1
		l-13.2-2.1c-1.9-0.3-4-0.7-4.8-1.8l-0.7-1.1l-1.3-0.2c-11.5-2.2-23.2-2.4-36.1-2.4l-5.4,0c-1.7,0-3.7-0.1-5.8-0.3
		c-2.5-0.2-5-0.4-7.6-0.4c-3.9,0-6.8,0.4-9.2,1.4c-2.2,0.9-3.9,2.1-5.5,3.4c-2.1,1.5-3.8,2.9-6.5,3.4l-25.5,5.4
		c-8.5,1.8-13.7,5-15.7,9.7c-2.4-0.3-4.8-0.4-7.5-0.4c-5.2,0-10.4,0.5-15.5,1c-4.9,0.5-10,0.9-14.9,0.9c-2.9,0-5.5-0.2-8-0.5
		c-9.7-1.3-18.1-6.6-26.3-11.6c-9.5-5.9-19.3-12-31.3-12c-8.4,0-16.8,0-25.2,0l-50.4,0c-3.1,0-6.4-0.1-9.8-0.3
		c-3.6-0.2-7.3-0.3-10.9-0.3c-8.3,0-14.7,0.9-20.1,2.9c-2.8,1-5,3.6-6,6.8c-6-8.5-14.9-9.6-22-9.6c-2.5,0-5.1,0.1-7.6,0.3
		c-2.4,0.1-4.9,0.3-7.3,0.3H808.7c-3.2,0-6.6-0.1-9.8-0.2c-3.3-0.1-6.8-0.2-10.2-0.2c-3.8,0-7.1,0.1-10,0.4c-2.6,0.3-7.5,2.7-15,6.9
		c-0.5,0.3-1.1,0.6-1.5,0.8l-3.5-1.7l1.3,13c0,0.1,0,0.3,0,0.5c-0.2,0.1-0.5,0.3-0.7,0.3c-2.8,1.3-5.5,3-6.8,6
		c-0.8,1.9-0.7,3.9-0.3,5.6c-0.1-0.1-0.2-0.3-0.3-0.4c-0.7-0.9-1.5-1.8-1.7-2.7c-0.4-1.1-0.3-2.7-0.1-4.4c0.2-2.9,0.5-6.4-2.1-9.2
		c-0.5-0.5-0.9-0.9-1.3-1.2c-0.3-0.2-0.6-0.5-0.7-0.6c0-0.1-0.1-0.6-0.1-0.9c0-0.4,0-0.7-0.1-1.1c-1.2-11.6-16.4-11.6-21.4-11.6
		c-3.2,0-6.5,0.2-9,0.4c-1.8,0.1-3.4,0.2-4.6,0.2H578.5c-7,0-16.1,0.1-25.6,1c-0.8,0.1-1.8,0.1-2.8,0.1c-3.1,0-6.9,0-10,2.6
		c-0.3,0.2-1.1,0.9-2.7,4.5c-0.1,0.2-0.1,0.3-0.2,0.4c-0.2-0.3-0.4-0.6-0.5-0.8c-0.3-0.4-0.5-0.9-0.8-1.2
		c-4.2-6.1-12.1-6.9-17.6-6.9c-2,0-3.9,0.1-5.7,0.2c-1.6,0.1-3,0.1-4.3,0.1h-83.3c-3.2,0-6.4-0.1-9.6-0.2c-3.2-0.1-6.5-0.2-9.7-0.2
		c-8.4,0-18.2,0.7-27.3,6c-1.2,0.7-3.1,2-5,3.7l0.2-0.6l-2.3-1.1c-13.9-6.7-29.5-10.2-45.1-10.2c-7.1,0-14.2,0.7-21.1,2.2
		c-2.2,0.5-4.7,1.1-6.7,2.8c-0.9,0.8-1.6,1.7-2.2,2.5c-0.4,0.6-0.9,1.1-1.3,1.5c-1,0.9-2.4,1.3-4.4,1.3c-1.6,0-3.3-0.3-4.8-0.5
		l-2.5-0.4l-2.4,6.3c-0.2,0.1-0.4,0.1-0.6,0.1c-2.3,0-5.7-2.7-7.6-4.2c-10.2-8-21.9-9.2-33-9.2c-2.3,0-4.7,0-7.1,0.1
		c-2.3,0-4.7,0.1-7,0.1c-3.3,0-6.8-0.2-10.5-0.3c-4-0.2-8.1-0.4-12.3-0.4c-8.6,0-19.6,0.7-28.2,6.4c-0.6,0.4-1.3,0.9-1.9,1.3
		c-1.7,1.2-3.3,2.4-5,2.9c-1.3,0.4-2.7,0.4-4.2,0.5c-0.5,0-1,0-1.4,0.1c-4.7,0.3-9.2,1.4-13.5,3.3l-0.4,0.2l-0.3,0.2
		c-3.5,2.8-3.4,7.2-3.4,10.7c0,1.1,0,2,0,2.9c0,0.3-0.1,0.6-0.1,0.8c-0.1-0.9-0.1-1.8-0.1-2.7c0-0.4,0-0.9,0-1.3
		c0-3-0.1-6.1-1.2-9.1c-0.6-1.6-1.4-3-2.2-4.4c-1.6-2.6-2.5-4.3-2-5.8l0.8-2.8l-2.8-0.9c-4.1-1.3-9.2-2-16-2c-3.3,0-6.6,0.1-9.7,0.3
		c-3,0.1-5.7,0.2-8.3,0.2c-0.4,0-1.4,0-1.4,0c-1.6,0-3.1,0-4.6,0c-6.4,0-11.6,0.4-17.6,2.7c-2.9,1.1-4.9,1.8-6.7,1.8
		c-1.5,0-3.3-0.5-5.9-1.6c-0.1,0-8.9-3.8-13.3-3.8c-3.2,0-4.5,2-4.6,3.7c-0.2,2.9-0.2,5.9-0.1,8.7c0,1.4,0.1,2.7,0.1,4.1
		c0,1.4-0.1,3-0.2,4.7c-0.3,4.1-0.6,8.8,0.6,12.7c0.7,2.5,2.3,4.4,3.7,6.2c1.4,1.8,2.7,3.4,2.8,4.9c0,0.2-0.1,0.5-0.3,0.7l-7.2-2.7
		l3.8,7.1c2.7,5,1.5,8.5-0.3,13.6c-0.4,1.2-0.8,2.4-1.2,3.7c-1.9,6-1.8,12.3-1.7,18.5c0,1.3,0,2.6,0,3.9v104.9
		c0,15.6,2.7,27.8,7.2,43.7l1.6,5.7c0.4,1.5,1,3.3,2.1,5c1.3,1.9,3.3,3.3,6,4.4c5.3,2.2,10.9,2.4,16.4,2.7l0.4,0c9,0.4,18,1,27,1.8
		c-3.9,0.7-7.8,1.3-11.6,1.9l-8.2,1.3c-5,0.8-10.1,1.6-15.2,1.7c-0.5,0-1,0-1.5,0c-2.7,0-5.5,0.1-8.3,1c-4.4,1.4-7.6,4.7-8.1,8.6
		c-0.3,2.3-1.1,2.8-2.7,4c-1.5,1.1-3.4,2.4-4.8,5.2c-2.1,4.2-1.5,10.9-0.9,16.8c0.2,2.1,0.4,4.2,0.4,5.6v132.2
		c0,5.1-0.4,11-0.8,17.2c-1.2,19.4-2.6,41.4,5.8,56.4l0.3,0.5c0.6,1.1,1.2,2.2,1.2,2.9c0,0.4-0.3,0.9-0.5,1.5
		c-0.2,0.4-0.3,0.7-0.5,1.1c-1.2,3.2-1,6.9,0.7,10.2c1.1,2.2,2.8,4.1,4.8,5.3c-0.5,0.6-1.1,1.2-1.7,1.8c-1.7,1.7-3.7,3.6-4.3,6.4
		c-0.6,2.8,0.4,5.3,1.3,7.4c0.5,1.2,0.9,2.3,1,3.1c-10.1,5.7-8.9,15.5-7.9,23.4c0.3,2.6,0.6,5,0.6,7.2v145c0,1.9-0.1,3.9-0.2,5.9
		c-0.2,5.8-0.4,11.7,0.9,17.2c0.7,2.9,2.1,5.5,3.4,7.9c1.2,2.3,2.4,4.5,2.9,6.8c0.4,1.6,0.2,3.6,0,5.7c-0.3,3.7-0.7,7.9,1.8,11.6
		c1.7,2.5,4.2,3.8,6.4,4.9c1.7,0.9,3.3,1.7,4.1,2.9c1.5,2,1.1,5.3,0.6,8.7c-0.6,4.5-1.3,9.7,2.4,13.6c0.8,0.8,1.6,1.4,2.4,2
		c0.4,0.3,0.9,0.6,1.2,0.9c3.5,3.1,3,9.3,2,15l-0.5,2.7l2.6,0.7c2.7,0.7,5.3,2.1,8.1,3.5c2.8,1.5,5.8,3,8.9,3.8
		c1.4,0.4,3.1,0.6,5.1,0.6c1.7,0,3.5-0.1,5.1-0.3c1.5-0.1,2.9-0.2,4.1-0.2c2.7,0,5.3,0.2,8.2,0.3c2.8,0.2,5.7,0.3,8.6,0.3
		c2.6,0,4.9-0.1,6.9-0.4c6.4-0.9,12.9-3.2,19.2-5.4c3.1-1.1,6-2.1,8.8-2.9c2.2-0.7,6.4-1.9,8.1-5.6c0.5-1.1,0.7-2.1,0.9-3
		c0.1-0.7,0.2-1.3,0.4-1.6c0.6-1.1,3.2-1.5,5.4-1.9c3.5-0.6,8.8-1.5,9.3-6.8c0.1-1.6-0.3-2.9-0.7-4c-0.2-0.5-0.3-0.9-0.4-1.3
		c-0.1-0.9,0.2-2.1,0.6-3.4c0.1-0.3,0.2-0.6,0.3-0.9c1.4-4.9,1.5-9.9,1.6-14.7l0.2-13.4c0.6,2.3,1.4,4.6,2.2,6.7
		c0.5,1.2,0.9,2.4,1.3,3.6c2,6.2,2.5,13,1.5,19.5l-0.5,3.3l3.3,0.2c4.5,0.3,7.8,4.4,9.3,7.7c1.9,4.5,2.1,9.6,2.4,14.6l0.1,2.2
		l2.1,0.6c2.3,0.7,4.6,1.4,7.1,2.3c5.8,1.9,11.8,3.9,17.7,4.5c1.6,0.1,3.3,0.2,5.2,0.2c3.2,0,6.4-0.2,9.6-0.4c3.2-0.2,6.1-0.4,9-0.4
		h125.7c2,0,4.4,0.1,6.9,0.2c3,0.1,6.2,0.3,9.4,0.3c6.1,0,14.9-0.5,20.9-4.7c0.2-0.1,0.3-0.3,0.5-0.4c0.3-0.2,0.7-0.5,0.9-0.6
		c0,0,0.2,0,0.4,0c0.3,0,0.7,0,1,0.1c0.5,0,1,0.1,1.5,0.1c0.8,0,1.4-0.1,2.1-0.3c1.5-0.4,2.8-1.3,3.7-2.7c2.1,8.1,9.5,8.1,12.9,8.1
		c1.1,0,2.1,0,3.3-0.1c1.1,0,2.2-0.1,3.3-0.1h125.2c7.1,0,14.5,0.2,21.7,0.4c7.3,0.2,14.8,0.5,22.2,0.5c6.9,0,12.9-0.2,18.4-0.6
		c6.2-0.5,12.5-2.1,18.6-3.6c3.5-0.9,6.8-1.7,10-2.4c0.8-0.2,3.4-0.4,6.1-0.8c20.2-2.3,23.2-3.2,24.2-5.7c1.7-3.9,4.3-6.9,6.1-6.9
		c0.3,0,0.5,0.1,0.8,0.2c1,0.5,1.7,1.8,2.5,3.3c0.6,1.1,1.2,2.2,2.1,3.3c2.7,3.4,6.9,5.1,12.4,5.1c2.8,0,6-0.4,9.9-1.4
		c2.4-0.6,5.1-1.2,7.5-2.8c0.6-0.4,1.1-0.8,1.6-1.2c0.7-0.6,1.4-1.1,2-1.3c0.3-0.1,0.5-0.1,0.8-0.1c1.5,0,3.5,1.4,5.4,2.8
		c1.3,0.9,2.6,1.9,4.1,2.7c2.5,1.3,5.3,1.9,8.8,1.9c2.3,0,4.5-0.3,6.8-0.5c2.2-0.2,4.2-0.5,6.2-0.5c1.3,0,2.5,0.1,3.5,0.3
		c1.9,0.4,3.2,1.5,4.7,3c1.4,1.3,2.9,2.7,5.1,3.6c1.7,0.7,3.7,1,6.4,1c1.3,0,2.7-0.1,3.9-0.2c1.1-0.1,2.2-0.1,3.1-0.1h175
		c1.4,0,3.2,0.1,5.1,0.3c2.3,0.2,5,0.4,7.5,0.4c4.1,0,7-0.5,9.2-1.7c0.9-0.5,1.7-1,2.4-1.5c0.9-0.6,1.7-1.1,2.4-1.5
		c0.8-0.3,1.8-0.5,3-0.5c1.1,0,2.4,0.1,3.7,0.3l2.8,0.4l1.1-6.1c2.6-0.9,4.7-3,5.6-5.6c0.8,0.9,1.7,1.5,2.7,2
		c0.5,0.2,0.9,0.3,1.3,0.5c0.2,0.1,0.5,0.2,0.6,0.2c0,0.5-0.2,1.6-0.3,2.2c-0.4,1.9-0.9,4.3,0.1,6.7l0.4,0.8l0.7,0.5
		c3.8,2.5,8.9,3.7,16.1,3.7c3.7,0,7.4-0.3,10.9-0.6c3-0.2,5.9-0.5,8.3-0.5h166.8c20.4,0,43.6,0,65.2-2.5c10.9-1.3,21.8-3.7,32.3-7.1
		l1.6-0.5l0.4-1.6c0.5-1.9,1.1-3.8,1.9-5.7c0.1,0,0.1,0,0.2,0c2.6,0,5.2-0.7,7.4-2l1.5-0.9l0-1.7c0-2.3-0.1-8-2.9-12l0.7,0.3
		c3,1.2,6,2.4,9.2,2.4c1,0,2.1-0.1,3-0.4c6.8-1.7,10-9.1,10.3-15.5c0.1-2.7-0.2-5.3-0.4-7.8c-0.3-2.8-0.6-5.5-0.3-8.1
		c0.4-4.1,2.9-8.6,6.6-8.9l2.7-0.2l0-2.7c0-4.8,0.2-9.6,0.3-14.3c0.2-6.7,0.3-13.6,0.3-20.5c-0.1-7.9-0.6-19-4.1-24.4
		c-0.6-0.9-1.3-1.5-1.9-2c-0.2-0.2-0.4-0.4-0.6-0.6c-0.8-0.8-1.2-2.2-1.6-3.8c-0.2-0.9-0.5-1.8-0.8-2.7c-0.8-2-2.4-4.1-4.4-5.2
		c0.2-0.2,0.4-0.3,0.6-0.5c1.5-1.2,3.2-2.5,4.2-4.5c1.2-2.3,1-4.6,0.9-6.6c-0.1-1-0.1-2,0-2.8
		C1357.9,752.1,1358.6,750.8,1359.5,749.4z M755.1,121.2c0,0.6,0,1.2,0,1.9C755,122.5,755,121.9,755.1,121.2z M1318.7,875.5
		c1.3,0.9,2.8,1.7,4.2,2.4c-0.6,0-1.2-0.1-1.8-0.3C1320.1,877.3,1319.3,876.5,1318.7,875.5z"/>
	<g>
		<g>
			<g>
				<g>
					<g>
						<path fill="#8E6439" d="M1032.7,910.3c-7.2,0-12.3-1.2-16.1-3.7l-0.7-0.5l-0.4-0.8c-1-2.3-0.5-4.7-0.1-6.7
							c0.1-0.7,0.4-1.8,0.3-2.2c-0.1-0.1-0.4-0.1-0.6-0.2c-0.4-0.1-0.8-0.3-1.3-0.5c-1-0.5-1.9-1.1-2.7-2c-1,2.6-3.1,4.6-5.6,5.6
							l-1.1,6.1l-2.8-0.4c-1.4-0.2-2.6-0.3-3.7-0.3c-1.2,0-2.2,0.2-3,0.5c-0.8,0.3-1.6,0.9-2.4,1.5c-0.8,0.5-1.5,1.1-2.4,1.5
							c-2.2,1.2-5.1,1.7-9.2,1.7c-2.5,0-5.2-0.2-7.5-0.4c-1.9-0.2-3.7-0.3-5.1-0.3h-175c-0.9,0-2,0.1-3.1,0.1
							c-1.3,0.1-2.6,0.2-3.9,0.2c-2.6,0-4.7-0.3-6.4-1c-2.1-0.9-3.7-2.3-5.1-3.6c-1.6-1.4-2.8-2.6-4.7-3c-1.1-0.2-2.2-0.3-3.5-0.3
							c-2,0-4,0.2-6.2,0.5c-2.2,0.3-4.5,0.5-6.8,0.5c-3.5,0-6.3-0.6-8.8-1.9c-1.5-0.8-2.8-1.7-4.1-2.7c-1.9-1.4-3.9-2.8-5.4-2.8
							c-0.3,0-0.5,0-0.8,0.1c-0.6,0.2-1.3,0.8-2,1.3c-0.5,0.4-1,0.8-1.6,1.2c-2.4,1.6-5.1,2.2-7.5,2.8c-3.9,0.9-7.1,1.4-9.9,1.4
							c-5.5,0-9.7-1.7-12.4-5.1c-0.9-1.1-1.5-2.2-2.1-3.3c-0.8-1.5-1.6-2.8-2.5-3.3c-0.3-0.1-0.5-0.2-0.8-0.2c-1.8,0-4.5,3-6.1,6.9
							c-1.1,2.5-4,3.5-24.2,5.7c-2.7,0.3-5.3,0.6-6.1,0.8c-3.3,0.6-6.6,1.5-10,2.4c-6.1,1.6-12.4,3.2-18.6,3.6
							c-5.5,0.4-11.5,0.6-18.4,0.6c-7.4,0-14.9-0.2-22.2-0.5c-7.2-0.2-14.6-0.4-21.7-0.4H443c-1.1,0-2.2,0-3.3,0.1
							c-1.1,0-2.2,0.1-3.3,0.1c-3.4,0-10.8,0-12.9-8.1c-0.9,1.3-2.2,2.2-3.7,2.7c-0.6,0.2-1.3,0.3-2.1,0.3c-0.5,0-1,0-1.5-0.1
							c-0.3,0-0.7-0.1-1-0.1c-0.3,0-0.4,0-0.4,0c-0.2,0.1-0.6,0.3-0.9,0.6c-0.2,0.1-0.3,0.3-0.5,0.4c-5.9,4.2-14.8,4.7-20.9,4.7
							c-3.2,0-6.4-0.1-9.4-0.3c-2.5-0.1-4.9-0.2-6.9-0.2H250.5c-2.9,0-5.9,0.2-9,0.4c-3.2,0.2-6.4,0.4-9.6,0.4
							c-1.9,0-3.6-0.1-5.2-0.2c-5.9-0.5-11.9-2.5-17.7-4.5c-2.5-0.8-4.8-1.6-7.1-2.3l-2.1-0.6l-0.1-2.2c-0.2-5-0.4-10.2-2.4-14.6
							c-1.5-3.4-4.8-7.4-9.3-7.7l-3.3-0.2l0.5-3.3c1.1-6.5,0.6-13.2-1.5-19.5c-0.4-1.2-0.8-2.4-1.3-3.6c-0.8-2.1-1.6-4.3-2.2-6.7
							l-0.2,13.4c-0.1,4.8-0.2,9.8-1.6,14.7c-0.1,0.3-0.2,0.6-0.3,0.9c-0.4,1.3-0.7,2.5-0.6,3.4c0.1,0.3,0.2,0.8,0.4,1.3
							c0.4,1.1,0.8,2.4,0.7,4c-0.4,5.4-5.8,6.2-9.3,6.8c-2.2,0.4-4.7,0.8-5.4,1.9c-0.2,0.3-0.3,1-0.4,1.6c-0.2,0.9-0.4,1.9-0.9,3
							c-1.8,3.7-5.9,4.9-8.1,5.6c-2.8,0.8-5.7,1.9-8.8,2.9c-6.3,2.2-12.8,4.5-19.2,5.4c-2.1,0.3-4.4,0.4-6.9,0.4
							c-2.9,0-5.8-0.2-8.6-0.3c-2.8-0.2-5.5-0.3-8.2-0.3c-1.2,0-2.6,0.1-4.1,0.2c-1.7,0.1-3.4,0.3-5.1,0.3c-2,0-3.7-0.2-5.1-0.6
							c-3.2-0.8-6.1-2.4-8.9-3.8c-2.7-1.4-5.3-2.8-8.1-3.5l-2.6-0.7l0.5-2.7c1-5.7,1.5-11.9-2-15c-0.3-0.3-0.8-0.6-1.2-0.9
							c-0.8-0.5-1.6-1.1-2.4-2c-3.7-3.9-3-9-2.4-13.6c0.4-3.4,0.9-6.7-0.6-8.7c-0.9-1.2-2.4-2-4.1-2.9c-2.2-1.1-4.7-2.4-6.4-4.9
							c-2.4-3.6-2.1-7.8-1.8-11.6c0.2-2.1,0.3-4.1,0-5.7c-0.5-2.3-1.7-4.4-2.9-6.8c-1.3-2.5-2.7-5-3.4-7.9
							c-1.4-5.5-1.1-11.5-0.9-17.2c0.1-2.1,0.2-4,0.2-5.9v-145c0-2.3-0.3-4.7-0.6-7.2c-1-7.9-2.3-17.7,7.9-23.4
							c-0.1-0.9-0.5-2-1-3.1c-0.9-2.2-1.9-4.6-1.3-7.4c0.6-2.8,2.5-4.7,4.3-6.4c0.6-0.6,1.2-1.2,1.7-1.8c-2-1.2-3.7-3.1-4.8-5.3
							c-1.6-3.3-1.9-7-0.7-10.2c0.1-0.4,0.3-0.7,0.5-1.1c0.3-0.6,0.5-1.1,0.5-1.5c0.1-0.7-0.6-1.8-1.2-2.9l-0.3-0.5
							c-8.3-15.1-7-37-5.8-56.4c0.4-6.2,0.8-12.1,0.8-17.2V373.8c0-1.5-0.2-3.5-0.4-5.6c-0.5-5.9-1.2-12.6,0.9-16.8
							c1.4-2.8,3.3-4.2,4.8-5.2c1.6-1.2,2.3-1.7,2.7-4c0.5-3.8,3.7-7.2,8.1-8.6c2.8-0.9,5.6-0.9,8.3-1c0.5,0,1,0,1.5,0
							c5-0.1,10.2-0.9,15.2-1.7l8.2-1.3c3.8-0.6,7.7-1.2,11.6-1.9c-9-0.8-18.1-1.4-27-1.8l-0.4,0c-5.4-0.2-11.1-0.5-16.4-2.7
							c-2.8-1.1-4.7-2.6-6-4.4c-1.1-1.6-1.7-3.5-2.1-5l-1.6-5.7c-4.6-15.9-7.2-28.1-7.2-43.7V159.5c0-1.3,0-2.6,0-3.9
							c-0.1-6.1-0.2-12.5,1.7-18.5c0.4-1.3,0.8-2.5,1.2-3.7c1.8-5.2,3.1-8.6,0.3-13.6l-3.8-7.1l7.2,2.7c0.2-0.2,0.3-0.5,0.3-0.7
							c-0.1-1.6-1.3-3.1-2.8-4.9c-1.4-1.8-3-3.7-3.7-6.2c-1.2-3.9-0.9-8.6-0.6-12.7c0.1-1.7,0.2-3.2,0.2-4.7c0-1.3,0-2.7-0.1-4.1
							c-0.1-2.8-0.1-5.8,0.1-8.7c0.1-1.7,1.4-3.7,4.6-3.7c4.4,0,13.2,3.8,13.3,3.8c2.6,1.1,4.3,1.6,5.9,1.6c1.8,0,3.7-0.7,6.7-1.8
							c5.9-2.2,11.1-2.7,17.6-2.7c1.5,0,3,0,4.6,0c0,0,1.1,0,1.4,0c2.6,0,5.4-0.1,8.3-0.2c3.2-0.1,6.5-0.3,9.7-0.3
							c6.7,0,11.8,0.6,16,2l2.8,0.9l-0.8,2.8c-0.4,1.5,0.5,3.2,2,5.8c0.8,1.4,1.6,2.8,2.2,4.4c1.2,3.1,1.2,6.2,1.2,9.1
							c0,0.4,0,0.9,0,1.3c0,0.9,0.1,1.8,0.1,2.7c0-0.3,0.1-0.6,0.1-0.8c0.1-0.9,0.1-1.9,0-2.9c-0.1-3.5-0.1-7.9,3.4-10.7l0.3-0.2
							l0.4-0.2c4.3-1.9,8.8-3,13.5-3.3c0.5,0,1-0.1,1.4-0.1c1.5-0.1,3-0.2,4.2-0.5c1.7-0.5,3.3-1.7,5-2.9c0.6-0.4,1.3-0.9,1.9-1.3
							c8.6-5.7,19.6-6.4,28.2-6.4c4.2,0,8.3,0.2,12.3,0.4c3.7,0.2,7.2,0.3,10.5,0.3c2.3,0,4.7,0,7-0.1c2.3,0,4.7-0.1,7.1-0.1
							c11.1,0,22.8,1.1,33,9.2c1.8,1.5,5.3,4.2,7.6,4.2c0.2,0,0.4,0,0.6-0.1l2.4-6.3l2.5,0.4c1.5,0.3,3.2,0.5,4.8,0.5
							c2,0,3.4-0.4,4.4-1.3c0.4-0.4,0.8-0.9,1.3-1.5c0.6-0.8,1.3-1.7,2.2-2.5c2-1.7,4.5-2.3,6.7-2.8c6.9-1.4,14-2.2,21.1-2.2
							c15.6,0,31.2,3.5,45.1,10.2l2.3,1.1l-0.2,0.6c1.8-1.8,3.8-3.1,5-3.7c9.1-5.3,18.9-6,27.3-6c3.2,0,6.5,0.1,9.7,0.2
							c3.2,0.1,6.4,0.2,9.6,0.2h83.3c1.3,0,2.7-0.1,4.3-0.1c1.8-0.1,3.8-0.2,5.7-0.2c5.6,0,13.4,0.7,17.6,6.9
							c0.3,0.4,0.5,0.8,0.8,1.2c0.1,0.2,0.3,0.5,0.5,0.8c0.1-0.1,0.1-0.3,0.2-0.4c1.6-3.6,2.5-4.2,2.7-4.5c3.1-2.6,6.9-2.6,10-2.6
							c1,0,1.9,0,2.8-0.1c9.4-0.9,18.6-1,25.6-1h132.2c1.1,0,2.7-0.1,4.6-0.2c2.6-0.2,5.8-0.4,9-0.4c5,0,20.1,0,21.4,11.6
							c0,0.4,0.1,0.7,0.1,1.1c0,0.3,0,0.8,0.1,0.9c0.1,0.1,0.4,0.4,0.7,0.6c0.4,0.3,0.9,0.7,1.3,1.2c2.6,2.8,2.3,6.3,2.1,9.2
							c-0.1,1.7-0.3,3.2,0.1,4.4c0.3,0.8,1,1.7,1.7,2.7c0.1,0.1,0.2,0.3,0.3,0.4c-0.4-1.8-0.5-3.7,0.3-5.6c1.3-3.1,4-4.7,6.8-6
							c0.2-0.1,0.5-0.2,0.7-0.3c0-0.2,0-0.4,0-0.5l-1.3-13l3.5,1.7c0.5-0.3,1-0.6,1.5-0.8c7.5-4.2,12.3-6.6,15-6.9
							c3-0.3,6.3-0.4,10-0.4c3.4,0,6.9,0.1,10.2,0.2c3.2,0.1,6.6,0.2,9.8,0.2h135.1c2.4,0,4.9-0.1,7.3-0.3c2.5-0.1,5.1-0.3,7.6-0.3
							c7.1,0,16,1.1,22,9.6c0.9-3.2,3.1-5.8,6-6.8c5.4-2,11.8-2.9,20.1-2.9c3.7,0,7.4,0.2,10.9,0.3c3.5,0.2,6.7,0.3,9.8,0.3l50.4,0
							c8.4,0,16.8,0,25.2,0c12,0,21.8,6.1,31.3,12c8.1,5.1,16.6,10.3,26.3,11.6c2.5,0.3,5.1,0.5,8,0.5c4.9,0,10-0.5,14.9-0.9
							c5.1-0.5,10.3-1,15.5-1c2.7,0,5.1,0.1,7.5,0.4c2-4.6,7.2-7.9,15.7-9.7l25.5-5.4c2.6-0.6,4.4-1.9,6.5-3.4
							c1.6-1.2,3.3-2.5,5.5-3.4c2.4-1,5.3-1.4,9.2-1.4c2.5,0,5.1,0.2,7.6,0.4c2.1,0.2,4.1,0.3,5.8,0.3l5.4,0
							c12.9,0,24.5,0.2,36.1,2.4l1.3,0.2l0.7,1.1c0.7,1.1,2.8,1.5,4.8,1.8l13.2,2.1c1.6,0.3,3.8,0.6,5.6,2.1
							c0.7,0.5,1.2,1.1,1.6,1.7c0.3,0.4,0.7,0.8,0.9,0.9c0.2,0.1,1,0.1,1.5,0.1c1.3,0,3,0.1,4.7,1.1c1.3,0.8,2,2,2.6,3
							c7.2,13,6.2,31.5,5.3,47.8c-0.3,5-0.5,9.7-0.5,14c0,2.1,0.1,4.2,0.1,6.4c0.1,4.5,0.3,9.1-0.2,13.6c-0.5,5.4-1.2,7.9-4,9.1
							c5,7.7,4.9,25.2,4.2,40c-0.1,1.3-0.1,2.4-0.1,2.8v31.9c0,0.8,0,1.8,0.1,3c0.3,9.6,0.2,19.3-4.7,23c-1.6,1.2-3.5,1.6-5.1,2
							c-1.3,0.3-2.5,0.6-2.9,1.1c-0.1,0.1-0.2,0.4-0.4,0.6c-0.3,0.5-0.6,1-1,1.6c5,1.2,9.5,3.2,11.9,6.5c4.4,6.2,3.4,17.6,2.7,26.8
							c-0.3,2.9-0.5,5.7-0.5,7.8V407c0,3.8,0.3,8.3,0.7,13.1c1,13,2.1,27.7-2.7,37.8c-0.6,1.2-1.3,2.3-1.9,3.4
							c-0.4,0.6-0.8,1.2-1.1,1.9c-2.7,4.9-3.2,11.2-1.1,16.5c0.2,0.4,0.3,0.8,0.5,1.2c0.5,1.1,0.9,2.1,1.2,3.4
							c4.5,18.3,4.5,36.2,4.5,55.2l0,2.6c0,2,0.2,4.8,0.5,8.1c1,12.5,2.3,28-4.6,34.3c-0.6,0.5-1.2,0.9-1.7,1.3
							c-0.5,0.3-0.9,0.6-1.1,0.9c-0.4,0.5-0.1,1.9,0.2,3.3c0.4,1.9,1,4.3,0.2,6.6c-1.6,4.8-7.1,6-9.4,6.5l-4.7,1l1.4,0.3
							c1.5,0.3,3.4,0.8,5.1,2c18.1,13.9,16.3,41.8,14.8,64.2c-0.4,5.7-0.7,11-0.7,15.6c0,10-0.8,19.8-1.7,29.2
							c-0.4,5.1-0.9,10.4-1.2,15.7c-0.1,2.3-0.3,5-1.3,7.6c-0.5,1.4-1.2,2.6-1.9,3.7c-0.8,1.4-1.6,2.7-1.8,3.9
							c-0.1,0.8-0.1,1.8,0,2.8c0.1,2,0.3,4.4-0.9,6.6c-1,1.9-2.7,3.3-4.2,4.5c-0.2,0.1-0.4,0.3-0.6,0.5c2,1.1,3.6,3.2,4.4,5.2
							c0.3,0.9,0.6,1.8,0.8,2.7c0.4,1.6,0.8,3,1.6,3.8c0.2,0.2,0.4,0.4,0.6,0.6c0.6,0.5,1.3,1.1,1.9,2c3.5,5.3,4,16.5,4.1,24.4
							c0.1,6.9-0.1,13.8-0.3,20.5c-0.1,4.7-0.2,9.6-0.3,14.3l0,2.7l-2.7,0.2c-3.6,0.3-6.2,4.8-6.6,8.9c-0.2,2.6,0,5.3,0.3,8.1
							c0.3,2.5,0.5,5.1,0.4,7.8c-0.2,6.5-3.5,13.8-10.3,15.5c-1,0.2-2,0.4-3,0.4c-3.2,0-6.2-1.1-9.2-2.4l-0.7-0.3
							c2.8,4,2.9,9.7,2.9,12l0,1.7l-1.5,0.9c-2.2,1.3-4.8,2-7.4,2c-0.1,0-0.1,0-0.2,0c-0.8,1.8-1.5,3.7-1.9,5.7l-0.4,1.6l-1.6,0.5
							c-10.5,3.4-21.3,5.8-32.3,7.1c-21.6,2.5-44.8,2.5-65.2,2.5h-166.8c-2.4,0-5.2,0.2-8.3,0.5
							C1040.1,910,1036.4,910.3,1032.7,910.3z M1311.7,868.5c0.6,1,1.4,1.8,2.5,2.1c0.5,0.2,1.1,0.2,1.8,0.3
							C1314.4,870.2,1313,869.4,1311.7,868.5z M748.1,114.2c0,0.6-0.1,1.3,0,1.9C748,115.5,748,114.9,748.1,114.2z"/>
					</g>
				</g>
				<g>
					<path fill="#EECB90" d="M72.5,898.9c6,1.6,11.2,5.8,17,7.3c3.9,1,9.5,0,13.6,0c7.7,0,15.8,1.3,23.3,0.3
						c9.1-1.3,18.7-5.6,27.6-8.2c2.5-0.7,5.2-1.7,6.3-4c0.7-1.5,0.6-3.3,1.4-4.8c2.9-5,13.8-1.8,14.3-7.5c0.1-1.5-0.8-3-1.1-4.5
						c-0.3-1.9,0.4-3.7,0.9-5.5c1.3-4.5,1.4-9.3,1.4-14c0.3-17.4,0.6-34.7,1-52.1c3,7.4,4.5,15.3,4.6,23.2c0,4.7-0.5,9.5,0.5,14.1
						c0.8,3.7,2.4,7.2,3.6,10.9c2.2,6.7,2.7,13.9,1.6,20.9c5.3,0.4,9.7,4.6,11.9,9.5c2.1,4.9,2.4,10.4,2.6,15.7
						c7.7,2.2,16.2,5.9,24.2,6.6c7.5,0.6,15.9-0.5,23.5-0.5c27.9,0,55.9,0,83.8,0c14,0,27.9,0,41.9,0c10,0,26.7,2.6,35.5-3.6
						c0.7-0.5,1.3-1.1,2.1-1.3c1.6-0.6,3.5,0.2,5.2-0.2c2.6-0.7,3.4-4.1,3.3-6.8c-0.1-2.7-0.4-5.8,1.4-7.8c2.4,2.9,2.1,7,2.2,10.8
						c0.4,11,8.6,9,17.1,9c41.7,0,83.5,0,125.2,0c20.4,0,41.8,1.8,62.1,0.3c9.4-0.7,19-4.1,28.3-6c3.3-0.7,27.3-2.6,28.2-4.7
						c2-4.7,6.3-10.4,11-8.3c2.9,1.3,3.7,5,5.7,7.5c4.3,5.4,12.6,4.3,19.2,2.7c2.3-0.5,4.6-1.1,6.6-2.4c1.4-1,2.7-2.3,4.3-2.9
						c4.5-1.6,8.4,3.3,12.7,5.5c7.4,3.8,16.4-0.7,24.5,1c4.8,1,6.5,5.2,10.3,6.7c3.5,1.4,8.5,0.5,12.3,0.5c10.3,0,20.6,0,30.9,0
						c21.2,0,42.4,0,63.6,0c17.7,0,35.3,0,53,0c9.1,0,18.3,0,27.4,0c5.4,0,15.5,2,20.4-0.7c1.8-1,3.3-2.4,5.2-3.1
						c2.6-1,5.4-0.7,8.2-0.4c0.3-1.7,0.6-3.5,0.9-5.2c2.8-0.2,5.3-2.5,5.7-5.3c0.2-1.4-0.1-2.8-0.3-4.2c-2-11.8-2.1-23.9-2.2-35.8
						c1.3,6.3,2.7,12.7,4,19c0.8,3.6,1.5,7.2,1.5,10.8c0,2.2-0.3,4.3,0,6.5c0.3,2.1,1.4,4.3,3.4,5.2c0.9,0.4,1.9,0.5,2.6,1.1
						c2.7,2.2-0.9,6.8,0.5,10c8.4,5.5,24,2.1,33.7,2.1c13.4,0,26.7,0,40.1,0c29,0,58,0,86.9,0c12.8,0,25.6,0,38.4,0
						c21.7,0,44.6,0,66.3-2.5c10.8-1.3,21.4-3.6,31.7-6.9c0.7-2.8,1.7-5.6,3.1-8.1c2.7,0.5,5.5,0,7.8-1.4c-0.1-5-0.9-11.1-5.6-12.8
						c-2.3-0.8-4.9-0.3-7.3-1c-5.5-1.7-6.5-9.1-5.7-14.8c1.4,5.7,7.5,8.7,12.9,11c2.5,1,5,2.1,7.5,3.1c3.3,1.4,6.9,2.7,10.3,1.9
						c5.2-1.3,7.8-7.3,8-12.7c0.2-5.4-1.2-10.8-0.7-16.1c0.5-5.4,3.9-11.2,9.3-11.6c0.1-11.5,0.7-23.1,0.5-34.7
						c-0.1-5.8-0.4-17.8-3.6-22.8c-0.6-0.9-1.5-1.4-2.2-2.1c-1.9-2-2.1-5-3.1-7.5c-1-2.6-3.8-5-6.2-3.8c-0.8-3.8,4.9-5.4,6.7-8.8
						c1.3-2.6,0.2-5.7,0.6-8.6c0.5-3,2.7-5.4,3.8-8.2c0.8-2.1,1-4.4,1.1-6.7c0.9-15.1,2.9-29.6,2.9-44.7c0-22.9,8.3-61.1-12.9-77.5
						c-1.1-0.9-2.5-1.2-3.9-1.5c-4.9-1.1-9.7-2.2-14.6-3.2c5.9-1.3,11.9-2.6,17.8-4c2.9-0.6,6.3-1.7,7.2-4.5c1.2-3.5-2.2-7.8,0-10.7
						c0.8-1.1,2.2-1.6,3.2-2.6c7.5-6.9,3.1-31.2,3.1-40.2c0-19.9,0.2-38.3-4.4-57.1c-0.4-1.5-1-2.8-1.6-4.2
						c-2.4-6.1-1.9-13.3,1.3-19c1-1.7,2.1-3.3,3-5.1c6.1-13,1.7-35.5,1.7-49.6c0-27.1,0-54.3,0-81.4c0-8.4,3.5-25.7-1.6-32.9
						c-4.5-6.3-20.7-7.3-27.4-5.9c4-0.9,8.1-1.8,12.1-2.7c1.3-0.3,2.6-0.6,3.5-1.5c0.6-0.7,0.9-1.5,1.5-2.2c2-2.5,6-1.8,8.6-3.7
						c4.9-3.6,3.4-18.4,3.4-23.6c0-10.6,0-21.3,0-31.9c0-4.7,3.9-48.3-10-43.7c8.3-2.8,9.1,0.6,10-8.6c0.6-6.5,0-13.3,0-19.8
						c0-18.1,4.4-44.3-4.5-60.3c-0.4-0.8-0.9-1.5-1.6-2c-1.7-1.1-4.1-0.2-5.9-1.1c-1.2-0.6-1.9-2-3-2.9c-1.2-0.9-2.7-1.2-4.2-1.4
						c-4.4-0.7-8.8-1.4-13.2-2.1c-2.5-0.4-5.4-1-6.8-3.2c-13.2-2.5-26.9-2.4-41-2.4c-6.2,0-15.7-1.8-21.4,0.5
						c-4.4,1.8-6.8,5.8-12.5,7c-8.5,1.8-17,3.6-25.5,5.4c-6.1,1.3-13.4,3.9-14.1,10c-16-2.6-32.4,2.8-48.5,0.7
						c-21.9-3-36.1-23.6-57.2-23.6c-25.2,0-50.4,0-75.6,0c-12.7,0-27.8-2.3-39.9,2.1c-2.8,1-4.3,4.1-4.5,7c-0.2,2.9,0.8,5.8,1.8,8.6
						c-2.2-3.2-4.4-6.4-6.6-9.7c-8-11.7-21.9-8-34.5-8c-15.2,0-30.4,0-45.7,0c-29.8,0-59.7,0-89.5,0c-9.8,0-20.1-1-29.8,0
						c-3.6,0.4-16.5,8.2-16.8,8.1c0.3,2.5,0.5,5.1,0.8,7.6c0.1,0.7,0.1,1.5-0.2,2.1c-0.4,0.8-1.3,1.3-2.2,1.7
						c-2.1,1-4.4,2.3-5.3,4.5c-1.4,3.3,1,6.9,2.1,10.3c1.9,6.2-0.8,13.3,2,19.2c1.4,2.9,4.1,5.1,4.9,8.2c1.6,5.9-3.9,11.3-5.5,17.3
						c1.8-7.9,3.5-16.6-0.4-23.7c-2-3.7-5.4-6.8-6.2-10.9c-0.7-3.7,0.8-7.7-0.7-11.1c-1-2.5-3.4-4.2-4.3-6.7
						c-1.4-4.1,1.4-9.4-1.6-12.5c-0.8-0.9-2-1.5-2.6-2.6c-0.4-0.9-0.3-2-0.4-3c-1.3-12.2-24.5-8.3-32-8.3c-15.1,0-30.2,0-45.3,0
						c-29,0-57.9,0-86.9,0c-8.6,0-16.8,0.2-25.3,1c-3.7,0.3-8.1-0.6-11.2,2c-0.7,0.6-4.2,7.7-2.8,7.3c-2.7,0.7-4.3-2.8-5.9-5.1
						c-5.1-7.5-17.6-5.2-25.2-5.2c-10.7,0-21.4,0-32.1,0c-17.1,0-34.1,0-51.2,0c-15.6,0-31.4-2.8-45.1,5.1
						c-4.3,2.5-9.3,7.3-6.7,11.6c-2-2.8-4.1-6.1-3.2-9.4c-19.8-9.5-42.7-12.3-64.2-7.8c-1.9,0.4-3.9,0.9-5.4,2.2
						c-1.3,1.1-2.2,2.8-3.5,3.9c-3.1,2.7-7.7,2.2-11.8,1.5c-0.6,1.7-1.3,3.4-1.9,5.1c-3.8,2.8-8.7-0.9-12.4-3.8
						c-13.4-10.5-29.3-8.3-45.2-8.3c-15.4,0-36.1-3.6-49.4,5.2c-2.5,1.7-4.8,3.7-7.7,4.6c-2,0.6-4.2,0.6-6.3,0.7
						c-4.3,0.3-8.5,1.3-12.5,3.1c-3.2,2.5-2,7.4-2.3,11.5c-0.5,6-4.8,11.8-2.9,17.4c-2-6.3-3.1-12.9-3.3-19.5
						c-0.1-3.2,0.1-6.5-1.1-9.4c-1.6-4.1-5.6-7.9-4.4-12.1c-10-3.2-23.9-1.2-34.2-1.3c-8.3-0.1-14.3-0.2-21.4,2.4
						c-6,2.3-8.4,2.9-14.8,0.1c-1.1-0.5-13.5-5.6-13.8-2.7c-0.3,4.1,0,8.4,0,12.5c0,5-1.2,11.6,0.3,16.5c1.3,4.3,6.4,7.3,6.6,11.8
						c0.1,2.2-2,4.6-4,3.8c4.1,7.5,0.8,12.6-1.4,19.6c-2.1,6.7-1.5,14.1-1.5,21.5c0,17.6,0,35.2,0,52.8c0,17.4,0,34.7,0,52.1
						c0,15.6,2.8,27.8,7.1,42.9c0.5,1.9,1.1,3.8,1.6,5.7c0.4,1.4,0.8,2.9,1.7,4.1c1.1,1.6,2.9,2.6,4.7,3.4c5,2,10.4,2.2,15.8,2.4
						c14.9,0.6,29.8,1.8,44.7,3.5c-9.4,3-19.1,4.6-28.9,6.1c-2.7,0.4-5.5,0.9-8.2,1.3c-5.2,0.8-10.3,1.6-15.6,1.7
						c-3,0.1-6.1-0.1-9,0.8c-2.9,0.9-5.6,3.1-6,6.1c-0.9,6.3-5.2,5.1-7.7,10.1c-2.4,4.9-0.2,15.7-0.2,21.1c0,16,0,32.1,0,48.1
						c0,28,0,56,0,84.1c0,20.9-5.9,53.1,4.6,72.2c0.9,1.6,2,3.3,1.8,5.2c-0.1,1.2-0.7,2.2-1.2,3.3c-1.9,5,1.3,11.3,6.4,12.8
						c0,4.2-5.9,6.2-6.8,10.4c-0.8,4,3.6,8.1,2,12c-12.7,6-6.9,18.3-6.9,28.6c0,33.7,0,67.5,0,101.2c0,14.6,0,29.2,0,43.8
						c0,7.2-1.1,15.5,0.7,22.5c1.3,5.2,5.2,9.6,6.3,14.8c1.1,5.1-1.7,11.7,1.4,16.2c2.4,3.6,7.8,4.2,10.4,7.7
						c4.5,6.1-2.5,16.4,2.8,22c1,1,2.3,1.7,3.4,2.7C74.2,885.3,73.6,892.7,72.5,898.9z"/>
				</g>
				<g opacity="0.5">
					<g>
						<path fill="#DDB171" d="M697.7,887.6c2.9,1.3,3.7,5,5.7,7.5c4.3,5.4,12.6,4.3,19.2,2.7c2.3-0.5,4.6-1.1,6.6-2.4
							c1.4-1,2.7-2.3,4.3-2.9c4.5-1.6,8.4,3.3,12.7,5.5c7.4,3.8,16.4-0.7,24.5,1c4.8,1,6.5,5.2,10.3,6.7c3.5,1.4,8.5,0.5,12.3,0.5
							c10.3,0,20.6,0,30.9,0c21.2,0,42.4,0,63.6,0c17.7,0,35.3,0,53,0c9.1,0,18.3,0,27.4,0c5.4,0,15.5,2,20.4-0.7
							c1.8-1,3.3-2.4,5.2-3.1c2.6-1,5.4-0.7,8.2-0.4c0.3-1.7,0.6-3.5,0.9-5.2c2.8-0.2,5.3-2.5,5.7-5.3c0.2-1.4-0.1-2.8-0.3-4.2
							c-1.3-7.8-1.8-15.7-2-23.6l-9.5,1l-87-33l-45,45l-81-15l-69-39l-45,30l-84,36l-69-21l-89.1,35.6c2.9,3.9,9,2.8,15.3,2.8
							c41.7,0,83.5,0,125.2,0c20.4,0,41.8,1.8,62.1,0.3c9.4-0.7,19-4.1,28.3-6c3.3-0.7,27.3-2.6,28.2-4.7
							C688.7,891.1,693,885.4,697.7,887.6z"/>
						<path fill="#DDB171" d="M1197.9,816.9l-63,33l-126.2,13.7c0.5,2.3,1,4.7,1.5,7c0.8,3.6,1.5,7.2,1.5,10.8c0,2.2-0.3,4.3,0,6.5
							s1.4,4.3,3.4,5.2c0.9,0.4,1.9,0.5,2.6,1.1c2.7,2.2-0.9,6.8,0.5,10c8.4,5.5,24,2.1,33.7,2.1c13.4,0,26.7,0,40.1,0
							c29,0,58,0,86.9,0c12.8,0,25.6,0,38.4,0c21.7,0,44.6,0,66.3-2.5c10.8-1.3,21.4-3.6,31.7-6.9c0.7-2.8,1.7-5.6,3.1-8.1
							c2.7,0.5,5.5,0,7.8-1.4c-0.1-5-0.9-11.1-5.6-12.8c-2.3-0.8-4.9-0.3-7.3-1c-5.5-1.7-6.5-9.1-5.7-14.8c1.4,5.7,7.5,8.7,12.9,11
							c2.5,1,5,2.1,7.5,3.1c3.3,1.4,6.9,2.7,10.3,1.9c5.2-1.3,7.8-7.3,8-12.7c0.2-5.4-1.2-10.8-0.7-16.1c0.5-5.4,3.9-11.2,9.3-11.6
							c0-2.9,0.1-5.9,0.1-8.8l-67.2,12.5L1197.9,816.9z"/>
					</g>
				</g>
				<g opacity="0.41">
					<path fill="#F6DEBC" d="M177.4,771.3l63.9-57.1l-79.9-36.5l16-54.8l-82.2-29.7l9.1-66.2L44.5,479c0,9,0,17.9,0,26.9
						c0,20.9-5.9,53.1,4.6,72.2c0.9,1.6,2,3.3,1.8,5.2c-0.1,1.2-0.7,2.2-1.2,3.3c-1.9,5,1.3,11.3,6.4,12.8c0,4.2-5.9,6.2-6.8,10.4
						c-0.8,4,3.6,8.1,2,12c-12.7,6-6.9,18.3-6.9,28.6c0,18.8,0,37.6,0,56.3l41.6,12l50.2,45.7l-45.7,79.9l86.7,10.1
						c0.3-16.2,0.6-32.4,0.9-48.6c3,7.4,4.5,15.3,4.6,23.2c0,4.7-0.5,9.5,0.5,14.1c0.8,3.7,2.4,7.2,3.6,10.9
						c0.2,0.5,0.3,1.1,0.5,1.6l118,13.8l-7.1,36.8c12,0,24.1,0,36.1,0c2.1,0,4.2,0,6.3,0l42.3-59.6L177.4,771.3z"/>
				</g>
				<path opacity="0.53" fill="#DDB171" d="M1353.9,292.7c-4.5-6.3-20.7-7.3-27.4-5.9c4-0.9,8.1-1.8,12.1-2.7
					c1.3-0.3,2.6-0.6,3.5-1.5c0.6-0.7,0.9-1.5,1.5-2.2c2-2.5,6-1.8,8.6-3.7c4.9-3.6,3.4-18.4,3.4-23.6c0-2.6,0-5.2,0-7.8l-81.8,12.7
					l-100.6-21.1l-43.4,61.7l-123.3-25.1l-42.2,54.3l71.9-26.9l29.7,77.6l86.8-25.1l48-59.4l35.1,71.7l119.9,10.7
					c0-16.9,0-33.8,0-50.8C1355.5,317.2,1359,299.9,1353.9,292.7z"/>
				<g>
					<polygon fill="#F6DEBC" points="581.6,428.7 444.3,437.4 476.6,499.5 551.9,497.2 460.6,581.7 657,627.4 718,699.1 
						741.5,650.2 					"/>
					<path fill="#F6DEBC" d="M202.5,172.9l-65.2-63.2c-0.5,2.2-0.7,4.3,0,6.5c-0.9-2.8-1.6-5.6-2.1-8.5l-34.9-33.9
						c-2,0.1-4,0.1-5.8,0.1c-8.3-0.1-14.3-0.2-21.4,2.4c-6,2.3-8.4,2.9-14.8,0.1c-1.1-0.5-13.5-5.6-13.8-2.7c-0.3,4.1,0,8.4,0,12.5
						c0,5-1.2,11.6,0.3,16.5c1.3,4.3,6.4,7.3,6.6,11.8c0.1,2.2-2,4.6-4,3.8c0.5,0.9,0.9,1.8,1.2,2.7l55.8,15.3l11.4,59.4l118.7,25.1
						l9.1,77.6l39.8,8.5l-3.3-56.5L202.5,172.9z"/>
					<polygon fill="#F6DEBC" points="339.6,319.1 283.5,307.1 291.6,447 444.3,437.4 414.9,380.8 					"/>
					<polygon fill="#F6DEBC" points="880.8,716.4 762,750.7 718,699.1 686.7,764.4 928.7,800.9 939.2,795.5 880.8,782.7 					"/>
					<path fill="#F6DEBC" d="M1112.6,906.2l-19.5-36.8l61.7-89.1l-150.7-18.3l-64.9,33.4l55.7,12.3l54.8,41.1l1.2,57.4
						c0.3,0,0.6,0,0.9,0c13.4,0,26.7,0,40.1,0C1098.9,906.2,1105.7,906.2,1112.6,906.2z"/>
				</g>
				<g>
					<path fill="#DDB171" d="M749.9,106.6c0.2,0.5,0.3,0.9,0.5,1.4c1.9,6.2-0.8,13.3,2,19.2c1.4,2.9,4.1,5.1,4.9,8.2
						c0.7,2.7,0,5.3-1.2,7.8h17.7l-9.4-34.3L749.9,106.6z"/>
					<polygon fill="#DDB171" points="773.8,143.3 782.6,175.2 812.5,145.6 796.3,143.3 					"/>
					<g opacity="0.41">
						<path fill="#F6DEBC" d="M1351,88.8c-0.4-0.8-0.9-1.5-1.6-2c-1.7-1.1-4.1-0.2-5.9-1.1c-1.2-0.6-1.9-2-3-2.9
							c-1.2-0.9-2.7-1.2-4.2-1.4c-4.4-0.7-8.8-1.4-13.2-2.1c-2.5-0.4-5.4-1-6.8-3.2c-13.2-2.5-26.9-2.4-41-2.4
							c-6.2,0-15.7-1.8-21.4,0.5c-4.4,1.8-6.8,5.8-12.5,7c-8.5,1.8-17,3.6-25.5,5.4c-6.1,1.3-13.4,3.9-14.1,10
							c-16-2.6-32.4,2.8-48.5,0.7c-10.7-1.5-19.6-7.1-28.3-12.6l-22.8,21.9l-66.2,13.7l27.4,102.8l-169-4.6l-0.8-22.5L830.5,214
							l48,27.4l150.7,6.9l172.7-13.1l-54-71.4l102.8-48l104.9,38.9c-0.1-1.9-0.1-3.8-0.1-5.7C1355.5,131,1359.9,104.8,1351,88.8z"/>
					</g>
					<polygon fill="#DDB171" points="944.7,154.7 926.4,109 846.6,111.7 812.5,145.6 892.2,157 893.6,196.1 1011.3,162.8 					"/>
					<path fill="#DDB171" d="M700.4,143.3h53.2c0.5-5,0.3-10-2.1-14.3c-2-3.7-5.4-6.8-6.2-10.9c-0.7-3.7,0.8-7.7-0.7-11.1
						c-0.2-0.4-0.4-0.8-0.6-1.2L666.1,93l-42.5,51.4l-46.5-42.3l-116.5,16l94.2,24.8l113.6,66.6L700.4,143.3z"/>
				</g>
				<path opacity="0.53" fill="#DDB171" d="M995.8,73.2c-5.3,0.2-10.4,0.9-15.1,2.6c-2.8,1-4.3,4.1-4.5,7c-0.2,2.9,0.8,5.8,1.8,8.6
					c-2.2-3.2-4.4-6.4-6.6-9.7c-8-11.7-21.9-8-34.5-8c-15.2,0-30.4,0-45.7,0c-29.8,0-59.7,0-89.5,0c-9.8,0-20.1-1-29.8,0
					c-3.6,0.4-16.5,8.2-16.8,8.1c0.3,2.5,0.5,5.1,0.8,7.6c0.1,0.7,0.1,1.5-0.2,2.1c-0.4,0.8-1.3,1.3-2.2,1.7c-2.1,1-4.4,2.3-5.3,4.5
					c-1.4,3.3,1,6.9,2.1,10.3c1.9,6.2-0.8,13.3,2,19.2c1.4,2.9,4.1,5.1,4.9,8.2c1.6,5.9-3.9,11.3-5.5,17.3
					c1.8-7.9,3.5-16.6-0.4-23.7c-2-3.7-5.4-6.8-6.2-10.9c-0.7-3.7,0.8-7.7-0.7-11.1c-1-2.5-3.4-4.2-4.3-6.7
					c-1.4-4.1,1.4-9.4-1.6-12.5c-0.8-0.9-2-1.5-2.6-2.6c-0.4-0.9-0.3-2-0.4-3c-1.3-12.2-24.5-8.3-32-8.3c-15.1,0-30.2,0-45.3,0
					c-15.6,0-31.2,0-46.7,0l45.3,87.8l-25.1,61.7l93.6,45.7l-20.6,77.6l86.8,68.5l-22.8,105l54.8,32l59.4-70.8L842,380.8L949.3,310
					l-84.5-91.3l123.3-60.9L995.8,73.2z"/>
				<g>
					<path fill="#F6DEBC" d="M828.3,118.1l-29.6-44.4c-8.9-0.2-18-0.8-26.8,0c-3.6,0.4-16.5,8.2-16.8,8.1c0.3,2.5,0.5,5.1,0.8,7.6
						c0.1,0.7,0.1,1.5-0.2,2.1c-0.4,0.8-1.3,1.3-2.2,1.7c-2.1,1-4.4,2.3-5.3,4.5c-1.4,3.3,1,6.9,2.1,10.3c1.9,6.2-0.8,13.3,2,19.2
						c1.4,2.9,4.1,5.1,4.9,8.2c1.6,5.9-3.9,11.3-5.5,17.3c1.8-7.9,3.5-16.6-0.4-23.7c-2-3.7-5.4-6.8-6.2-10.9
						c-0.7-3.7,0.8-7.7-0.7-11.1c-1-2.5-3.4-4.2-4.3-6.7c-1.4-4.1,1.4-9.4-1.6-12.5c-0.8-0.9-2-1.5-2.6-2.6c-0.4-0.9-0.3-2-0.4-3
						c-1.3-12.2-24.5-8.3-32-8.3c-15.1,0-30.2,0-45.3,0c-4.2,0-8.5,0-12.7,0l43.2,44.4l54.8,22.8l43.4,77.6l92.5,35.6l-28.6-58.4
						L828.3,118.1z"/>
					<polygon fill="#F6DEBC" points="1038.3,280.3 972.4,291.5 1175.4,415 					"/>
					<polygon fill="#F6DEBC" points="879.7,254.2 903.6,303.1 972.4,291.5 965.3,287.1 					"/>
				</g>
				<g opacity="0.41">
					<g>
						<path fill="#F6DEBC" d="M327.7,781.8l-89.5-19.9l53.7,55.7h49.7l-4,37.8H234.2l43.7,23.9c0,0,93.5,0,95.4-6
							s-13.9-79.5-13.9-79.5l56.3,13.5l-5.3-49.9L377.4,744L327.7,781.8z"/>
						<polygon fill="#F6DEBC" points="450.9,815.6 415.7,807.2 419.1,839.5 						"/>
						<path fill="#F6DEBC" d="M402.7,906c3.3-0.6,6.3-1.6,8.7-3.2L402.7,906z"/>
						<polygon fill="#F6DEBC" points="407.2,726.1 410.5,757.3 484.2,786.8 502.6,730.1 						"/>
						<path fill="#F6DEBC" d="M643.8,863.3l-85.5-2l55.7-35.8l-73.6-19.9l43.7-37.8l-69.6-39.8l-27.8,59.7l-2.5-1l-7.4,22.9
							l47.7,25.9l-75.6,19.9l41.8,17.9l-64.8,24.1c0.5,10.9,8.6,8.9,17,8.9c41.7,0,83.5,0,125.2,0c20.4,0,41.8,1.8,62.1,0.3
							c9.4-0.7,19-4.1,28.3-6c2.5-0.5,16.8-1.7,24-3.2L643.8,863.3z"/>
						<path fill="#F6DEBC" d="M421.3,899.1l-5.4,2c1,0.1,2.1,0.2,3,0C420,900.8,420.8,900,421.3,899.1z"/>
					</g>
				</g>
				<g opacity="0.5">
					<g>
						<path fill="#DDB171" d="M44.5,465c0,13.7,0,27.3,0,41c0,7.2-0.7,15.7-1.2,24.5l47.7,8.8l15.9-37.8l20.4,2.5l-22.4-30.3
							L44.5,465z"/>
						<polygon fill="#DDB171" points="234.4,526.6 190.4,573 246.1,573 345.5,521.3 311.1,502.6 279.9,539.2 						"/>
						<polygon fill="#DDB171" points="138.7,519.3 143.1,505.8 127.3,503.9 						"/>
						<polygon fill="#DDB171" points="395.3,493.5 415.4,470.2 385.7,470.7 						"/>
						<polygon fill="#DDB171" points="256.1,429.8 251.9,451.1 212.3,443.8 156.6,463.6 143.1,505.8 172.6,509.4 234.4,526.6 
							275.4,483.3 311.1,502.6 337.6,471.6 385.7,470.7 369.4,431.8 						"/>
						<polygon fill="#DDB171" points="415.4,470.2 447,469.6 526.5,481.5 536.4,433.8 539.8,434.2 482.8,392.1 						"/>
						<polygon fill="#DDB171" points="568.4,437 539.8,434.2 566.3,453.7 						"/>
						<polygon fill="#DDB171" points="727.3,410 643.8,380.1 574.2,390.1 568.4,437 629.6,443.2 						"/>
					</g>
				</g>
				<g>
					<path opacity="0.53" fill="#DDB171" d="M232.2,773.8l-179.4,75c0,0,0,0,0,0.1c1.1,1.6,2.8,2.6,4.5,3.6l120.7-40.6
						c0-2,0.1-4,0.1-6c0.7,1.7,1.3,3.5,1.9,5.3l22.3-7.5l105.4-8l41.4-88.9l-43.4,11.3L232.2,773.8z"/>
					<path opacity="0.53" fill="#DDB171" d="M1340.8,83l-251.6,183.8l23.9,13.9l-55.7,39.8l6,45.7L781,417.9l-11.9,53.7l-99.4,41.8
						l-6,53.7l-63.8,17.4l-125.2,34.3l-16.4,27.1c34.5-2.1,67.3-4.3,70.1-5.2c6-2,129.3-61.6,135.2-61.6c6,0,65.6-23.9,65.6-23.9
						s-6-31.8,6-35.8c11.9-4,63.6-25.9,71.6-29.8c8-4,37.8-65.6,37.8-65.6l157.1-19.9H1127c0,0-13.9-85.5-4-93.5
						s93.5-77.6,93.5-77.6s29.8-67.6,37.8-73.6c5.4-4,55.9-46.9,88.3-74.4C1342,84.4,1341.4,83.6,1340.8,83z"/>
					<path opacity="0.53" fill="#DDB171" d="M349.2,706.8l85.9-22.5l23.4-38.6c-40.3,2.4-83,4.7-83,4.7L349.2,706.8z"/>
				</g>
				<g opacity="0.41">
					<path fill="#F6DEBC" d="M1035.5,839.5l41.8-31.8l-17.9-43.7l51.7-27.8l-99.4-111.4l-71.6,31.8l43.7,47.7
						c0,0-87.5,23.9-83.5,29.8s41.8,41.8,41.8,41.8l-77.6,17.9l-2,57.7c0,0-103.4-6-97.4-11.9c6-6,55.7-65.6,41.8-69.6
						c-13.9-4-101.4-21.9-101.4-21.9l22.6-81.9l-60.3-73.2l2,55.7l-45.7,65.6l81.5,75.6l-39.8,11.9l95.4,91.5l3,5.6
						c2.2-0.1,4.4-0.1,6.5,0.3c4.8,1,6.5,5.2,10.3,6.7c3.5,1.4,8.5,0.5,12.3,0.5c10.3,0,20.6,0,30.9,0c21.2,0,42.4,0,63.6,0
						c17.7,0,35.3,0,53,0c9.1,0,18.3,0,27.4,0c5.4,0,15.5,2,20.4-0.7c1.8-1,3.3-2.4,5.2-3.1c2.6-1,5.4-0.7,8.2-0.4
						c0.3-1.7,0.6-3.5,0.9-5.2c2.8-0.2,5.3-2.5,5.7-5.3c0.2-1.4-0.1-2.8-0.3-4.2c-2-11.8-2.1-23.9-2.2-35.8c1.3,6.3,2.7,12.7,4,19
						c0.8,3.6,1.5,7.2,1.5,10.8c0,2.2-0.3,4.3,0,6.5s1.4,4.3,3.4,5.2c0.9,0.4,1.9,0.5,2.6,1.1c2.7,2.2-0.9,6.8,0.5,10
						c8.4,5.5,24,2.1,33.7,2.1c13.2,0,26.4,0,39.6,0C1065,873.7,1035.5,839.5,1035.5,839.5z"/>
				</g>
				<g opacity="0.41">
					<path fill="#F6DEBC" d="M1342.6,608.7c-1.1-0.9-2.5-1.2-3.9-1.5c-4.9-1.1-9.7-2.2-14.6-3.2c5.9-1.3,11.9-2.6,17.8-4
						c2.9-0.6,6.3-1.7,7.2-4.5c1.2-3.5-2.2-7.8,0-10.7c0.8-1.1,2.2-1.6,3.2-2.6c7.5-6.9,3.1-31.2,3.1-40.2c0-19.9,0.2-38.3-4.4-57.1
						c-0.4-1.5-1-2.8-1.6-4.2c-2.4-6.1-1.9-13.3,1.3-19c1-1.7,2.1-3.3,3-5.1c5.2-11.1,2.8-29.1,2-42.9l-43.8,4.2l-45.7,29.8h-65.6
						l-9.9,45.7l-65.6,15.9l-87.5,4l-2,33.8l-59.7,9.9l-9.9,35.8l-37.8,4l2,35.8l47.7,9.9v31.8l75.6,11.9l9.9-59.7l67.6,4l-9.9,45.7
						l75.6,39.8L1221,630l75-15.2l33.8,47.7c0,0,11.6,0.5,26.8,1.2C1357.8,643.2,1357.8,620.4,1342.6,608.7z"/>
				</g>
				<g>
					<g>
						<path fill="#CB9951" d="M1338.7,608.5c0.1-0.4,0.1-0.8,0.1-1.2c-0.1,0-0.1,0-0.2,0c-2.6-0.6-5.3-1.2-7.9-1.8
							c0.1,0,0.2,0.1,0.3,0.1C1333.5,606.9,1336.1,607.9,1338.7,608.5z"/>
					</g>
					<g>
						<path fill="#CB9951" d="M1283.9,589.1c0.2,2.3,2,4.1,4,5.1c2,1,4.2,1.5,6.2,2.4c2.1,1,3.9,2.5,6,3.3s4.9,0.7,6.3-1.1
							c1.4-1.8,1.2-4.6,3-6c0.5-0.3,1-0.6,1.4-1c0.3-0.4,0.4-0.9,0.7-1.3c1.1-1.8,3.9-1.1,5.4,0.4c1.5,1.5,2.4,3.6,4.3,4.6
							c1.6,0.9,3.9,0.9,4.7,2.6c0.4,0.8,0.3,1.7,0.4,2.6c0.2,1,0.7,1.9,1.4,2.7c2.8-0.6,5.7-1.3,8.5-1.9c-0.3-0.1-0.7-0.3-1-0.4
							c-2.9-1.5-3.8-5.2-5.9-7.7c-2.1-2.5-5.5-4-6.7-7.1c-1.2-3.2,0.5-7.6-1.9-9.9c-0.5-0.5-1.1-0.8-1.5-1.3c-1.1-1.3-1-3.2-1.9-4.6
							c-1.2-1.8-3.5-2.1-5.6-2.3c-4.2-0.5-8.5-1.4-12.2-3.5c-2.6-1.5-5-3.5-7.6-5c-2.6-1.5-5.8-2.4-8.6-1.3
							c-0.5,0.2-0.9,0.4-1.3,0.8c-0.5,0.5-0.8,1.2-1.3,1.7c-1,1-2.6,1.1-3.8,1.7c-1.1,0.6-1.8,1.6-2.7,2.4s-2.1,1.4-3.3,1
							c-1-0.4-1.6-1.5-1.7-2.6c-0.1-1.1,0.1-2.2,0.1-3.3c0-0.3,0-0.6,0-0.9c0.5-0.6,0.9-1.4,0.7-2.1c-0.6-0.4-1.4-0.9-1.5-1.7
							c0-0.2,0-0.5-0.1-0.7c-0.1-0.4-0.5-0.6-0.8-0.7c-1.3-0.6-2.7-1.3-4.2-1.1c-0.7,0.1-1.4,0.4-2.2,0.3c-0.1,0.1-0.1,0.2-0.2,0.3
							c-1,0.2-1.9,0.5-2.7,0.9c-0.2,0-0.3,0.1-0.5,0.1c-0.7,0.3-2.1,2.4-2.5,2.4c-0.8,0-3.2,1-1.6,2c0.1,0.1,0.2,0.1,0.4,0.1
							c2.7,0.1,4.5,1.4,7.3,1.5c0.1,0,0.3,0,0.4,0.1c0.1,0.1,0.2,0.3,0.2,0.4c0.3,0.9,0.6,1.8,0.9,2.7c-0.8-0.1-1.5,0.6-1.9,1.3
							c-0.5,0.7-1,1.5-1.8,1.6c0,0.7,0,1.4,0,2.1c0-0.2,3.7,2,4.2,2.1c2.2,0.5,4.4-0.4,6.6,0.6c1.3,0.6,2.4,1.7,3.8,2.2
							c1.5,0.5,3.3,0.3,4.6,1.3c2,1.7,1.1,5.5,3.1,7.1c0.5,0.4,1.2,0.6,1.7,1C1284.8,584.3,1283.7,587,1283.9,589.1z"/>
					</g>
				</g>
				<g opacity="0.5">
					<polygon fill="#DDB171" points="319.7,229.1 305.8,191.2 356.6,163.5 367,166.4 353.5,129.6 302.5,153.4 283.9,219.1 
						294.2,238.1 258.1,250.9 274.8,273.7 311.2,269.4 321.7,288.7 254.1,350.3 302.9,407.3 369.4,370.2 327.7,312.5 414.3,296.1 
						384.5,234.7 325.7,227 					"/>
					<path opacity="0.53" fill="#DDB171" d="M128.8,175.3l44.8-18.3l34.5-14.1l10.5,48.7L188.3,202l13.5,35.7l62.2-66.3l38.4-17.9
						l7.3-25.8l-54.2-50.4c-11.5-4.9-24.2-3.4-37-3.4c-15.4,0-36.1-3.6-49.4,5.2c-2.5,1.7-4.8,3.7-7.7,4.6c-2,0.6-4.2,0.6-6.3,0.7
						c-4.3,0.3-8.5,1.3-12.5,3.1c-3.2,2.5-2,7.4-2.3,11.5c-0.5,6-4.8,11.8-2.9,17.4c-2-6.3-3.1-12.9-3.3-19.5
						c-0.1-3.2,0.1-6.5-1.1-9.4c-1.6-4.1-5.6-7.9-4.4-12.1c-10-3.2-23.9-1.2-34.2-1.3c-8.3-0.1-14.3-0.2-21.4,2.4
						c-6,2.3-8.4,2.9-14.8,0.1c-1.1-0.5-13.5-5.6-13.8-2.7c-0.3,4.1,0,8.4,0,12.5c0,5-1.2,11.6,0.3,16.5c1.3,4.3,6.4,7.3,6.6,11.8
						c0.1,2.2-2,4.6-4,3.8c4.1,7.5,0.8,12.6-1.4,19.6c-2.1,6.7-1.5,14.1-1.5,21.5c0,17.6,0,35.2,0,52.8c0,5.2,0,10.4,0,15.6l26.6,19
						l55.7,8l9.1,6.7l9.9-23.8L128.8,175.3z"/>
					<polygon fill="#DDB171" points="118.9,302.6 173.2,289 135.9,261.5 					"/>
					<polygon fill="#DDB171" points="173.2,289 194.4,304.6 279.9,280.7 274.8,273.7 198.4,282.7 					"/>
					<path fill="#DDB171" d="M548.4,117.7l-61-43.9c-6.1,0-12.2,0-18.2,0c-17.1,0-34.1,0-51.2,0c-0.8,0-1.5,0-2.3,0l-12.4,24
						l-67.6,2l90.2,59.4l-22.8,17l-36-9.8l10.6,28.8l-9,6.7l15.9,32.8l13.2,1.7l16-23.3l59.2,17.9l29.2-29.2l-36.5-44.4L548.4,117.7
						z"/>
					<polygon fill="#DDB171" points="898.3,105.7 900,102.3 828.7,95.8 789,141.5 824.8,163.4 842.4,156.7 846.6,111.7 					"/>
					<path fill="#DDB171" d="M970.3,80.3c-8.1-9.9-21.3-6.5-33.4-6.5c-7.9,0-15.7,0-23.6,0L900,102.3l60,5.5L970.3,80.3z"/>
					<polygon opacity="0.53" fill="#DDB171" points="691.5,213.1 703.5,300.6 590.1,270.8 623.9,225 528.5,175.3 502,201.8 
						526.3,231.3 550.4,248.9 482.8,286.7 437,344.3 506.6,356.3 556.3,318.5 648.3,323 647.1,360.4 681.6,415.9 635.1,440.3 
						629.9,429.8 641.8,398 550.4,419.9 629.6,443.2 589.1,464.4 649.8,469.6 637.8,445.5 733.3,473.6 735.3,392.1 842.7,342.3 
						928.2,294.6 820.8,231 891.5,183.4 866.5,147.5 842.4,156.7 840.7,175.3 					"/>
				</g>
				<g>
					<polygon opacity="0.5" fill="#DDB171" points="329.6,384.1 333.2,445.4 385.3,443.8 405.2,408 393.3,392.1 421.9,374.6 
						391.3,358.3 					"/>
					<polygon opacity="0.5" fill="#DDB171" points="439,364.2 421.9,374.6 447,388.1 524.5,386.1 489.3,332.6 468.8,376.2 					"/>
					<path opacity="0.53" fill="#DDB171" d="M612.9,141l44.5-67.2c-28.6,0-57.2,0-85.8,0c-8.6,0-16.8,0.2-25.3,1
						c-3.7,0.3-8.1-0.6-11.2,2c-0.7,0.6-4.2,7.7-2.8,7.3c-2.7,0.7-4.3-2.8-5.9-5.1c-5.1-7.5-17.6-5.2-25.2-5.2
						c-10.7,0-21.4,0-32.1,0c-14.6,0-29.2,0-43.8,0l1.8,35.9l29.8,25.9l-46.8,26.6L518.5,237l-47.7,67.6l18.5,28.1l27.2-57.9
						l105.4-57.7l-17.1-24.4l29-15.4L612.9,141z"/>
				</g>
				<path opacity="0.5" fill="#DDB171" d="M147.4,578.5l35.1,25l61.4-3.8l46.3,16.3l-22.5,35.1l125.2,61.4L523,693.7l121.5-53.8
					l-101.4-12.5l42.6-48.8l-75.1-46.3L465.4,566l-93.9-51.3c0,0-41.3,68.9-48.8,65.1c-7.5-3.8-76.4-28.8-76.4-28.8L205,571
					L147.4,578.5z"/>
				<g opacity="0.5">
					<path fill="#DDB171" d="M267.8,585.8l-48-78l-69-12L44.5,375.1c0,15.6,0,31.2,0,46.8c0,28,0,56,0,84.1
						c0,20.9-5.9,53.1,4.6,72.2c0.9,1.6,2,3.3,1.8,5.2c-0.1,1.2-0.7,2.2-1.2,3.3c-1.9,5,1.3,11.3,6.4,12.8c0,4.2-5.9,6.2-6.8,10.4
						c-0.8,4,3.6,8.1,2,12c-12.7,6-6.9,18.3-6.9,28.6c0,33.7,0,67.5,0,101.2c0,5,0,10.1,0,15.1l28.3-0.8l24-63l132,42l81-33l-9-54
						l78-33L267.8,585.8z"/>
				</g>
				<g opacity="0.41">
					<path fill="#F6DEBC" d="M43.6,630.8l31,3.4l41.1-57.1l114.2-13.7l15.3-14.3l-10.9-17.8l-63.7,27.5l-75.4-34.3l-50.8,39.7
						c1,5,2.5,9.7,4.7,13.7c0.9,1.6,2,3.3,1.8,5.2c-0.1,1.2-0.7,2.2-1.2,3.3c-1.9,5,1.3,11.3,6.4,12.8c0,4.2-5.9,6.2-6.8,10.4
						c-0.8,4,3.6,8.1,2,12C46.6,624,44.5,627.2,43.6,630.8z"/>
				</g>
			</g>
		</g>
		<g>
			<path fill="#CB9951" d="M252.5,187.5c5.2,0.6,10.3,1.2,15.5,1.8c7,0.8,14.1,1.7,20.9,3.7c4,1.2,8.7,3.8,8.5,8.2
				c3.6-1.6,7.7-0.2,11.6,0.6c3.9,0.8,8.6,0.7,10.8-2.7c0.5-0.8,0.9-1.8,1.6-2.3c1.3-1,3.1-0.2,4.6,0.5c4.6,2.2,9.4,4,14.3,4.7
				c4.6,0.7,9.3,0.6,14,0.4c4.7-0.2,9.5-0.3,14.2-0.5c-0.4-3-1.8-5.9-3.9-8c4.5,1,8.3-5.7,5.3-9.3c3.8-1.5,7.8-2.2,11.8-2.3
				c0-1.5,0.1-3.1,0.1-4.6c2,1.5,4.3-2.6,2.6-4.5s-4.6-1.7-7.1-1.3c-0.2-1.1-0.4-2.3-0.6-3.4c-3.8-3-8.2,4.6-12.9,4
				c-2.5-0.3-4.4-2.8-6.9-2.7c-1.9,0.1-3.4,1.7-5.1,2.4c-2.8,1.2-5.9,0.1-8.9,0.2c-3,0-6.6,2.3-5.8,5.3c-4.6-2.6-9.1-5.3-13.7-7.9
				c1.3-1.8-1.2-4.1-3.3-4.2c-2.2-0.2-4.7,0.3-6.2-1.3c7.7-2.5,15.7-3.9,23.8-4.3c1.1-0.1,2.2-0.1,3.1,0.6s1.2,2.2,0.3,2.8
				c2.8,1.2,6,1.4,9,0.6c0.1-2.2,0.3-4.3,0.4-6.5c4.4,0,8.8-0.1,13.3-0.1c-1.5,2.2-4.5,3.2-6.9,2.4c0,1.2,0,2.5,0,3.7
				c4,1.1,8.2,1.4,12.3,0.9c0.1-1.3,0.2-2.6,0.4-3.9c5.5,1.4,11.1,2.3,16.8,2.8c0.8-3.9-3.9-7.7-7.3-6c0.8-3.6,4.8-6,8.2-5
				c3.4,1,5.5,5.3,4.4,8.7c3,0,6.1,0,9.1,0.1c-0.2-1.5-1.9-2.5-3.2-2c-0.1-1.1-0.3-2.2-0.4-3.3c5-2.8,12.2,0.6,13.4,6.3
				c5.2-1,10.5-2,15.7-3c-5.5-1.6-11-3.2-16.5-4.7c0-1.6,0-3.2,0-4.7c7.2-2.7,15.3-3,22.7-0.8c-1-1.2-1.9-2.4-2.9-3.5
				c28.4-4.1,57.2-5.5,85.9-4.1c13.2,0.7,26.6,1.2,39.8,1.6c1.7,0,3.4,0.1,4.9,0.6c3.9,1.2,7.9,5.1,11.5,3c-0.2-2.1-0.9-4.2-2.1-6
				c12-0.5,24.1-0.5,36.1-0.2c2.6,0.1,5.1,0.2,7.6,0.7c3.7,0.7,7.1,2.3,10.7,3.5c8.6,2.8,17.9,3.3,26.8,1.4c1.1,1.8-0.4,4.2-2.3,5
				c-1.9,0.8-4,0.4-6,0.3c-7.9-0.7-15.9,1.2-22.7,5.4c1.9,2.3,3.8,4.6,5.7,6.9c-3.3,0.4-6.6,0.9-9.8,1.3c0.5,2.3,1,4.5,1.5,6.8
				c-4.2-0.5-8.6-0.1-12.7,1.3c1.9,2.3,2.9,5.3,2.8,8.3c-1.5,0.3-2.9,0.5-4.4,0.8c-0.9,3.6,2.5,7.1,2.4,10.8
				c-0.2,4.7-5.8,7.1-10.3,6.8c-4.5-0.4-9-2.3-13.5-1.7c-5.7,0.8-10.1,5.5-15.4,8c-4.3,2-9.1,2.4-13.6,4.1s-8.9,5-9.5,9.8
				c-3.1-2.2-7.5-0.8-10.2,1.9s-4.1,6.4-6.1,9.7c-4,6.9-10.4,12.2-17.8,14.9c0.4-3.4,0.8-6.7,1.3-10.1c-4.5-2.4-9-4.8-13.5-7.2
				c-0.5-4.1-1-8.3,0-12.3c1-4,4-7.7,8-8.3c-2.6-3.5-3.7-8.1-3-12.4c3.4,0.1,6.9,0.3,10.3,0.4c0.8-2.3,0.6-5-0.7-7.1
				c-2.5-0.1-5.1-0.2-7.6-0.4c2.1-7.6,1.1-16-2.7-22.9c-4.5-1.4-9.3-0.1-13.9-0.4c-4.7-0.2-10-3.3-9.9-8.1c2.6,0.4,5.3,0.8,7.8,0
				c2.5-0.8,4.7-3.2,4.5-5.9c5.5,1,11.3,0.1,16.3-2.6c-12.9-4.8-25.9,8-39.6,8.5c-2.9,0.1-6.2-0.3-8.4,1.6c-1,0.8-1.6,1.9-2.6,2.7
				c-1.3,1.1-3,1.4-4.7,1.8c-9,2.1-17.4,7-23.8,13.8c2.6,1.1,4.1,4.4,3.3,7.2c6.3,0.4,12.8-2.2,17.1-7c-0.8,3.1,2.6,5.6,5.7,6.3
				c3,0.6,6.5,0.6,8.8,2.8c3.6,3.6,1.3,9.8-1.2,14.2c5.2,1.4,10.2,3.8,14.4,7.3c-7.8,4-16.8,8.1-24.9,4.9c2.7,3.4,0.8,8.9-2.8,11.2
				c-3.6,2.4-8,2.5-12.3,2.5c-9.2-3.8-18.4-7.5-27.6-11.3c5.6-4.5,13.3-6,20-3.8c1.4-5.4,2.7-11,1.5-16.4c-1.2-5.4-6-10.3-11.4-9.6
				c-0.1,6-8.1,9.9-12.7,6.2c-1.8,6.9-9.8,11.4-16.4,9.2c0.5-3.8,4.6-6.7,8.3-5.9c-1.4-2.9-2.9-5.8-4.3-8.7
				c-2.3-3.5-7.9,0.1-8.8,4.2c-0.9,4.1,0,8.8-2.2,12.4c4.8,3,10.5,4.1,16,3.2c0,1.5,0,2.9-0.1,4.4c-3.7,3.8-11.8-1.5-14.7,3
				c-0.7,1.1-0.8,2.5-1.5,3.5c-0.8,1.2-2.3,1.7-3.6,2.1c-6.3,2.1-12.7,4.2-19,6.2c-4.6,1.5-9.4,3.2-12.8,6.7
				c-3.7,3.9-6.1,10.2-11.4,10.8c2.7,1.2,5.4,2.5,8.2,3.7c-0.1,2.1-0.8,4.1-2,5.7c6.3,0.3,11.9,4,17.1,7.7c2.5,1.7,5,3.5,7.5,5.2
				c-1.5,4.7-2.9,9.3-4.4,14c1.9,1.8,4.5,2.9,7.1,2.9c-0.2,0-1.9-7.7-2-8.5c-0.8-8.3,10.1-10.3,16-13.1c1.3-0.6,2.8-1.4,3.2-2.9
				c0.3-1.2-0.2-2.4-0.4-3.7c-0.6-6,7.8-8.2,11-13.3c1-1.5,1.5-3.4,3-4.3c1.2-0.8,2.6-0.8,4-0.9c6.3-0.3,12.5-2.6,17.6-6.4
				c3.3,3.2,3.4,8.5,4.7,13c1.3,4.5,5.9,9.1,9.8,6.7c-1.2-5.7,2.3-12,7.7-13.7c-0.9,8.5,0.2,17.2,3.3,25.2c0.7,1.9,1.7,3.9,3.3,5.1
				c2.1,1.5,4.8,1.5,7.1,2.6c2.3,1.1,4,4.5,2,6.2c0,2.4,0.2,4,0.2,6.5c0,1.4,0,2.9-0.7,4.1s-2.2,2.1-3.4,1.5c2,3.3,5.1,5.8,8.6,7
				c-2.1,4.3-3.5,8.9-4.1,13.6c-2.8,0.3-3.6-4.2-6.2-5.3c-0.9-0.4-1.9-0.3-2.8-0.2c-2.7,0.3-5.4,0.5-8.1,0.8
				c-1.2,0.1-2.4,0.2-3.5-0.2c-1.1-0.5-2-1.7-1.7-2.9c0.3-1.2,1.7-1.8,2.8-2.3c3.9-2,6.6-6.3,6.7-10.7c-6.1,1.5-12.4,1.9-18.6,1.2
				c-0.5,1.7-0.3,3.5,0.5,5c-4.3,0.8-8.5,2.1-12.5,3.9c-0.4,2.9-0.9,5.9-1.3,8.8c4.2-0.3,8.5,0.1,12.6,1.2c1.5,0.4,3.4,1.8,2.6,3.2
				c-3.5,0.6-7.1,1.1-10.6,1.7c-0.9,0.1-1.8,0.3-2.5,0.8c-0.9,0.7-1.4,1.8-1.9,2.8c-3.1,6.4-10.2,10.4-17.1,9.9
				c1.9-3,3.8-6.1,5.8-9.1c-3-1.3-6.5,0.3-9,2.4c-2.5,2.1-4.6,4.8-7.4,6.5c-2.6,1.5-5.6,2-8.5,1.3c0.1,2.6-1.6,4.9-3.8,6.1
				c-2.2,1.2-4.8,1.4-7.3,1.1c-1-0.1-2.1-0.3-3,0.3c-0.8,0.5-1.2,1.5-1.9,2.1c-0.7,0.6-2.2,0.6-2.3-0.4c-1.5,2.3,1.1,5.5,0,8.1
				c-0.8,1.8-3,2.3-4.4,3.7c-2.3,2.4-1.3,6.9-3.5,9.4c-2.1,2.4-6.4,2-8,4.8c-0.4,0.8-0.6,1.7-1,2.4c-2.4,4.3-10.4,1.3-12.8,5.7
				c-0.5,0.9-0.6,1.9-1.1,2.7c-1.8,2.9-6.6,1.4-8.9,3.9c-0.9,1-1.2,2.4-1.5,3.7c-0.4,1.9-0.8,3.8-1.2,5.7c-1,5-2,10.1-1.6,15.3
				c0.2,2.3,0.7,4.6,0.5,6.9c-0.2,2.3-1.4,4.7-3.5,5.5c-1.1,0.4-2.4,0.3-3.6,0.5c-2.1,0.4-4.1,1.8-5.2,3.7c-2.7-2-0.7-6.2-0.1-9.6
				c1-5.6-3.8-11.5-9.3-11.5c-4.3,0-9.3,2.9-12.6-0.1c0.5,1.9-1.4,3.7-3.3,3.8c-1.9,0.2-3.7-0.7-5.5-1.3c-8-2.6-16.6,0.4-24.4,3.3
				c-1.6,0.6-3.4,1.4-4,3c-0.5,1.2-0.2,2.6-0.1,3.9c0.1,3.6-1.8,7.1-4.8,8.9c-2.1,1.2-1.3,3.5-0.5,5.8c0.8,2.3,2,4.7,1.3,7.1
				c-0.3,1-1,1.9-1.4,2.9c-0.6,1.7-0.4,3.6,0,5.4c1.7,6.5,6.8,11.9,13,13.7c3.1-3.1,8-4.3,12.1-3c-1-2.3-0.4-5.2,1.4-6.9
				c1-0.9,2.4-1.4,3.4-2.4c1-0.9,1.6-2.7,0.8-3.8c4.2,0.3,8.2-1.5,12.1-3.3c0.4,1.7,0.9,3.4,1.3,5.1c-3.2,1-4.3,5-5,8.4
				c-1.2,6.3-2.3,12.7-3.5,19c2.4,0.8,4.7-2.7,7.1-1.8c0.8,0.3,1.4,1.1,2.1,1.6c2.7,2.2,6.6,0.7,10,1.2c0.8,0.1,1.7,0.4,2.1,1.2
				c0.5,0.8,0.3,1.7,0.2,2.6c-1,5.8-1.9,11.5-2.9,17.3c-0.8,4.8-1.2,10.8,2.8,13.5c4.1,2.7,9.4-0.2,13.4-3.1c1-0.7,2-1.4,3.2-1.4
				c2.4,0,3.8,2.7,5.4,4.7c2.3,2.8,6,4.3,9.5,3.7c0-3,0-6.1,0-9.1c4.1-0.8,7.9-3.4,10.2-7c3.3,0,6.6-0.1,9.9-0.1
				c0.8-1.6,1.6-3.2,2.5-4.8c5,4.3,11.5,8.9,17.5,6.4c0.7-0.3,1.5-0.7,2.3-0.6c1.2,0.3,1.7,1.7,2.7,2.5c2.2,2,5.6,0,8.5,0.5
				c2.6,0.4,4.5,2.8,6.4,4.7c3.4,3.4,7.6,5.6,11.7,7.8c1.7,0.9,3.7,1.8,5.5,1c2.6,2.2,3.2,5.5,5.8,7.7c1.4,1.2,3.2,1.6,4.9,1.9
				c5.1,1.2,10.2,2.6,14.7,5.5c4.4,2.9,8.1,7.3,9.2,12.6c0.3,1.5,0.4,3.2,1.2,4.5c1.2,2.1,4.1,3.5,3.9,5.9c-0.1,0.7-0.3,1.3-0.6,1.9
				c-1.6,3.2-3.1,6.5-4.7,9.7c2.9,1.1,5-2.7,5.9-5.7c3.8,2.2,8,3.7,12.3,4.4c1.9,0.3,3.9,0.4,5.6,1.4c2.5,1.4,3.9,4.2,6.2,5.8
				c4.9,3.3,12.1,0.5,16.8,3.9c3.9,2.8,4.9,9,9.3,10.8c1.3,0.6,2.8,0.6,4.3,0.7c3.9,0.4,7.9,1.7,10.5,4.6c2.6,3,3.4,7.9,0.9,11
				c-1.3,1.6-3.2,2.6-3.7,4.6c-0.4,1.8,0.8,3.6,0.8,5.5c0.1,3.9-4.2,6.2-7.8,7.4c-1.4,0.5-2.8,1-4.3,1.5c-0.5,3.2-2.1,6.5-2.4,9.8
				c-0.1,0.7-0.1,1.4-0.2,2.1c-0.4,4.4-0.8,8.9-0.8,13.3c0,2,0,4,0,5.9c0,0.5,0,1,0,1.5c0,3.8,0,7.8-1.9,11.1
				c-1,1.7-2.6,3.1-3.7,4.8s-1.8,3.9-0.9,5.8c-5.8-1.7-10.5,5.7-16.5,6.5c-1.9,0.3-3.9-0.1-5.8,0.5c-2.9,1-4.3,4.2-5.5,7.1
				c-1,2.5-2.1,5.1-3.1,7.6c-0.4,0.9-0.8,1.9-0.6,2.9c0.2,1.1,1.1,1.9,1.6,3c2,4.2-2.7,8.6-3.1,13.2c-0.1,1.1,0.1,2.3-0.2,3.4
				c-1,4-6.7,4.6-8.7,8.2c-1.6,2.8-0.4,6.5-1.4,9.6c-1.1,3.5-4.9,5.5-8.5,5.6c-3.6,0.1-7-1.3-10.4-2.7c-0.1,1.2-0.3,2.4-0.4,3.7
				c3.4,0.8,5.7,4.9,4.7,8.3c0.2-0.7,0.4-1.3,0.5-2c-1.2,3.2-3.4,8.6-4.6,11.8c-0.3,0.8-0.6,1.7-1.3,2.3c-2,2-5.5,0.3-8.2,1.3
				c-2.5,0.9-3.5,4.6-1.9,6.8c-2.7,0.7-5.3,1.4-8,2.1c-0.2,3-0.3,6.4,1.7,8.7c1,1.1,2.5,2.1,2.4,3.5c-0.2,1.7-2.5,2.2-3.4,3.7
				c-1.5,2.6,1.9,6.8-0.4,8.7c-0.8,0.6-1.9,0.7-2.6,1.3c-1.4,1.3-0.3,3.9,1.4,4.9s3.7,1.3,5.1,2.8c2.3,2.4,0.3,7.3-3,7.4
				c-1.3,5.3-1.3,11,0,16.4c0.3,1.4,0.8,3,0.2,4.3c-0.3,0.7-0.8,1.3-1.3,1.9c-2.4,3-3.5,7-3.1,10.8c-1.6-3.1-4.5-5.4-7.8-6.1
				c-1.3-0.3-2.7-0.4-3.5-1.5c-0.7-1.1-0.4-2.5-0.3-3.8c0.2-2.7-0.7-5.4-2.5-7.3c-1.5-1.6-3.5-2.6-5.1-4c-4.7-4.3-5-11.5-7-17.7
				c-0.4-1.1-0.8-2.3-1.8-3c-1-0.8-2.5-1-3-2.2c-1-2.2,2.3-3.9,2.8-6.3c0.2-0.8,0-1.7-0.2-2.6c-1.1-4.7-2.2-9.6-5.2-13.4
				c-1-1.2-2.2-2.4-2.9-3.8c-1.3-2.4-1-5.4-1.6-8.1c-0.4-1.9-1.3-3.6-1.9-5.5c-0.7-2.3-1-4.7-1.3-7c-1.4-12.3-2.9-24.7-3-37.2
				c-0.2-14.1,1.2-28.6-3.2-41.9c-1.2-3.7-2.9-7.7-1.5-11.3c-2.5,1-4.4-2.3-5.2-4.9c-0.8-2.8-1.7-5.6-2.5-8.4
				c-0.8-2.5-1.9-5.4-4.4-6.1c-0.3-1-2.1-3.8-3-4.3c-2.3-1.6-4.6-3.1-6.8-4.7c-2.5-1.7-6.7-5.8-7-8.8c-0.3-3.1-0.1-6.5-2.1-8.8
				c-2.7-3.2-8.2-2.7-10.4-6.3c-0.8-1.3-1-2.9-1.2-4.5c-1-6.9-3.9-13.4-8.2-18.8c-1.4-1.8-3-3.5-3.8-5.6s-0.3-5,1.6-6.1
				c0.5-0.3,1.2-0.5,1.5-1c0.9-1.5-1.7-2.7-2.6-4.3c-0.9-1.8,0.7-3.7,1.2-5.6c0.6-2.2-0.3-4.5-0.2-6.8c0.2-3.5,2.9-6.3,5.3-8.9
				c2.8-3.1,5.3-6.4,7.5-10c1.9-3,3.6-6.2,4.2-9.8c1.1-6.4-1.9-13.4-7.3-16.8c-1.2,2-2.4,3.9-3.6,5.9c-1.4,0.7-3.1-0.3-4.2-1.6
				c-1-1.3-1.8-2.8-3.3-3.5c-2.4-1.2-5.2,0.4-7.9,0c-3.6-0.6-5.6-4.5-6.8-8.1s-2.5-7.6-5.9-9.1c-3.2-1.4-3.8-8.3-6.5-10.6
				c-0.9-0.8-2.1-1.1-3.3-1.4c-4.1-1.2-8.1-3.1-12-4.9c-2.5-1.2-5.1-2.5-6.8-4.7c-0.6-0.8-1.1-1.8-2-2.4c-1-0.6-2.2-0.6-3.3-0.5
				c-3.8,0.3-7.6,1.1-11.3,2.2c-1.5-6.6-8.9-9.3-15.1-11.5c-6.3-2.3-12.5-5.1-18.3-8.5c1.7-6.2,0.4-13.2-3.5-18.2
				c-1.3-1.7-2.9-3.3-3.3-5.4c-0.4-2.1,0.5-4.4-0.4-6.3c-1.8-4-3.2-7.7-5.6-11.4c-1-4.7-2.7-9.3-4.4-13.8c-1-2.8-2.8-6.2-5.7-6.2
				c-1.2,6.4,4.5,11.9,5.6,18.3c0.3,1.7,0.2,3.5,0.4,5.2c0.8,7.2,6.1,13.2,6.8,20.4c-2.7-2.2-5.3-4.3-8-6.5c-1.2-1-2.4-2-2.9-3.5
				c-0.5-1.6,0.2-3.5-0.3-5.1c-0.7-2.4-3.4-3.4-5.6-4.6c-2.2-1.2-4.3-3.8-3.1-6c0.3-0.5,0.8-0.9,1.1-1.5c1-1.6,0.5-3.8-0.5-5.4
				s-2.3-3.1-2.8-4.9c-0.6-2-0.1-4.1-0.3-6.2c-0.4-4.6-3.8-8.1-6.2-12.1c-4-6.7-5.1-15.2-2.8-22.7c1.1-3.5,1.4-6.7,2.2-10.3
				c1.1-5.2,2.2-10.4,3.2-15.7c0.2-0.8,0.4-1.7,0.9-2.4c1-1.3,2.9-1.6,4.1-2.6c2.4-2,1.7-5.8,1.8-9c0.2-6.5,5.3-12.5,11.5-13.5
				c1.9-0.3,3.9-0.3,5.3-1.6c2.6-2.5,0.5-7-2-9.6c-2.5-2.6-5.6-5.9-4.4-9.4c0.6-1.8,2.2-3.3,1.9-5.1c-2.4-0.2-3.6-3.2-3.1-5.6
				c0.5-2.4,2.1-4.3,3.3-6.4c2.1-3.6,2.7-8.6,0.1-11.7c-5.6-0.5-11.1-0.9-16.7-1.4c-0.1-2.2-0.1-4.4-0.2-6.6
				c-6.2-2.2-12.7-4.5-19.2-3.5c-5,0.7-9.7,3.3-14.8,3.6c-2.4,0.1-5-0.2-7.1,1c-1.1,0.7-1.9,1.8-3,2.4c-2.5,1.5-5.7,0.3-8.6,0.7
				c-3.8,0.5-6.6,3.6-10,5.3C97.8,253,92.5,253,88,255c-2.1,1-4,2.4-6,3.6c-6.3,3.8-13.6,5.5-20.9,5.1c-0.2-2.8,2.7-4.8,5.4-5.3
				s5.6-0.2,8-1.6c3.9-2.2,5.8-8.3,10.3-8c0-1.8-0.1-3.7-0.1-5.5c3.7-0.2,7.3-1.6,10.2-4c-1.5,0.2-3,0.4-4.4,0s-2.7-1.9-2.5-3.4
				c0.2-1.3,1.3-2.2,2.3-3c5.1-4,10.6-8.2,17-8.9c1.4-0.2,2.8-0.2,4-1c1.2-0.8,1.7-2.7,0.7-3.6c-1.6,0.7-3.3-1.3-3-3s1.8-3,3.3-3.9
				c2-1.2,4.1-2.2,6.3-2.8c1.2-0.4,2.6-0.7,3.4-1.7c0.6-0.8,0.8-1.8,1.2-2.7c1.1-2.3,3.6-3.5,6.1-3.7s4.9,0.2,7.4,0.1
				c9.2-0.2,17-6.9,25.5-10.3c11.8-4.7,24.9-3.2,37.4-1.7c6.3,0.8,12.7,1.6,19,2.1C229.5,192.7,242.9,192.8,252.5,187.5z"/>
			<g>
				<path fill="#C08F4C" d="M397,675l12-34l-72-20l34-40l-50-24l28-44l-65.7-12.6c1.2,3.3,3.2,6.6,6.4,7.1c2.6,0.4,5.5-1.2,7.9,0
					c1.4,0.7,2.2,2.3,3.3,3.5c1,1.3,2.7,2.3,4.2,1.6c1.2-2,2.4-3.9,3.6-5.9c5.4,3.4,8.4,10.4,7.3,16.8c-0.6,3.5-2.3,6.8-4.2,9.8
					c-2.2,3.5-4.7,6.9-7.5,10c-2.3,2.6-5,5.4-5.3,8.9c-0.2,2.3,0.7,4.6,0.2,6.8c-0.5,1.9-2.1,3.9-1.2,5.6c0.8,1.6,3.5,2.7,2.6,4.3
					c-0.3,0.5-0.9,0.7-1.5,1c-2,1.1-2.4,3.9-1.6,6.1c0.8,2.2,2.4,3.9,3.8,5.6c4.3,5.3,7.2,11.9,8.2,18.8c0.2,1.5,0.4,3.2,1.2,4.5
					c2.2,3.6,7.7,3.1,10.4,6.3c2,2.3,1.8,5.7,2.1,8.8c0.3,3.1,4.5,7.1,7,8.8c2.3,1.6,4.6,3.1,6.8,4.7c0.8,0.6,2.7,3.4,3,4.3
					c2.5,0.7,3.6,3.6,4.4,6.1c0.8,2.8,1.7,5.6,2.5,8.4c0.8,2.6,2.7,5.9,5.2,4.9c-1.4,3.6,0.3,7.6,1.5,11.3
					c4.1,12.4,3.2,25.9,3.2,39.1L377,697L397,675z"/>
				<path fill="#C08F4C" d="M165,241.2c0.1,2.2,0.1,4.4,0.2,6.6c5.6,0.5,11.1,0.9,16.7,1.4c2.7,3.1,2,8.1-0.1,11.7
					c-1.2,2.1-2.8,4-3.3,6.4c-0.5,2.4,0.7,5.4,3.1,5.6c0.4,1.8-1.3,3.4-1.9,5.1c-1.2,3.5,1.9,6.8,4.4,9.4c2.5,2.6,4.6,7.2,2,9.6
					c-1.4,1.3-3.5,1.3-5.3,1.6c-6.2,1.1-11.3,7-11.5,13.5c-0.1,3.2,0.6,7-1.8,9c-1.3,1.1-3.1,1.3-4.1,2.6c-0.5,0.7-0.7,1.5-0.9,2.4
					c-1.1,5.2-2.2,10.4-3.2,15.7c-0.7,3.6-1.1,6.8-2.2,10.3c-2.3,7.5-1.3,16,2.8,22.7c2.4,3.9,5.8,7.5,6.2,12.1
					c0.2,2.1-0.3,4.2,0.3,6.2c0.5,1.8,1.8,3.3,2.8,4.9c1,1.6,1.5,3.8,0.5,5.4c-0.3,0.5-0.8,0.9-1.1,1.5c-1.3,2.2,0.9,4.8,3.1,6
					c2.2,1.2,4.9,2.2,5.6,4.6c0.5,1.6-0.2,3.5,0.3,5.1c0.4,1.5,1.7,2.6,2.9,3.5c2.7,2.2,5.3,4.3,8,6.5c-0.7-7.2-6-13.2-6.8-20.4
					c-0.2-1.7-0.1-3.5-0.4-5.2c-1-6.4-6.7-12-5.6-18.3c2.9,0,4.6,3.3,5.7,6.2c1.7,4.5,3.3,9.1,4.4,13.8c2.4,3.7,3.8,7.4,5.6,11.4
					c0.9,1.9,0,4.2,0.4,6.3c0.4,2.1,2,3.7,3.3,5.4c3.9,5,5.2,12,3.5,18.2c2.1,1.2,4.3,2.4,6.5,3.5l4-66.4l76-34l-26-24l38-52l-94-16
					l49.9-71.4c-0.1,0-0.2,0-0.4,0c-9.7,5.3-23.1,5.1-34,4.1c-6.4-0.6-12.7-1.4-19-2.1c-12.5-1.6-25.6-3-37.4,1.7
					c-3.7,1.5-7.2,3.5-10.7,5.4l-5.7,41.1C152.2,236.7,158.8,239,165,241.2z"/>
			</g>
			<g>
				<g>
					<g>
						<path fill="#BB9152" d="M427.9,741.2c-0.1,0.3-0.2,0.6-0.3,0.9c0,0.4-0.1,0.7-0.2,1.1C427.5,742.5,427.7,741.9,427.9,741.2z"
							/>
					</g>
					<g>
						<path fill="#BB9152" d="M485.3,666.3c-0.9-1.8-0.2-4.1,0.9-5.8c1.1-1.7,2.6-3.1,3.7-4.8c1.9-3.2,2-7.3,1.9-11.1
							c0-0.5,0-1,0-1.5c0-2,0-4,0-5.9c0.1-4.4,0.5-8.9,0.8-13.3c0.1-0.7,0.1-1.4,0.2-2.1c0.3-3.3,1.9-6.5,2.4-9.8
							c1.4-0.5,2.8-1,4.3-1.5c3.6-1.3,7.9-3.5,7.8-7.4c-0.1-1.9-1.2-3.7-0.8-5.5c0.4-2,2.4-3.1,3.7-4.6c2.5-3.1,1.7-8.1-0.9-11
							c-2.6-3-6.7-4.2-10.5-4.6c-1.4-0.1-2.9-0.2-4.3-0.7c-4.4-1.8-5.4-8-9.3-10.8c-4.8-3.5-12-0.6-16.8-3.9
							c-2.3-1.6-3.7-4.4-6.2-5.8c-1.7-1-3.7-1.1-5.6-1.4c-4.3-0.7-8.5-2.2-12.3-4.4c-0.9,3-3,6.8-5.9,5.7c1.6-3.2,3.1-6.5,4.7-9.7
							c0.3-0.6,0.6-1.2,0.6-1.9c0.2-2.5-2.7-3.8-3.9-5.9c-0.8-1.3-0.9-3-1.2-4.5c-1-5.3-4.7-9.7-9.2-12.6c-2.7-1.7-5.6-3-8.7-3.9
							c-11.2,3.1-22.4,6.1-33.5,9.2c1.3,7.1,6.2,13.4,12.7,16.4c-9,1.4-48.6,2.2-41.3,18.7c4.1,3.3,12.1,0.4,14.2,5.2
							c0.6,1.4,0.4,2.9,0.6,4.4c1.1,6.8,10.1,8.2,17,8c6.5-0.2,13-0.4,19.6-0.7c4.9-0.2,9.8-0.3,14.6-0.9c2,2.2,4,4.5,5.9,6.7
							c3.2-1,6.6,0.4,9.5,1.9c18.9,10.2,14.2,18.8,1.5,29.7c-1.5,7.3-0.1,15.2,3.7,21.6c-5.2,1.1-5.8,8.6-3.6,13.5
							c2.2,4.9,5.8,9.7,4.8,15c-1.8,9-15.4,10.4-19.5,18.6c3.3,2,6.6,4,10,6c-9.4,4.7-12,19.1-4.8,26.8c-6.4,9.4-17,16-28.3,17.5
							c-2.1,7.2-4.2,14.5-6.4,21.7c-3.1,2.1-6.2,4.3-9.3,6.4c-2.5,18.9-1.3,38.2,3.5,56.7c1.5,5.6,3.5,11.5,6.5,16.4
							c1.2,1,2.3,2.3,3,3.7c-0.4-3.8,0.7-7.8,3.1-10.8c0.5-0.6,1-1.2,1.3-1.9c0.5-1.4,0.1-2.9-0.2-4.3c-1.3-5.3-1.3-11,0-16.4
							c3.3-0.1,5.2-5,3-7.4c-1.3-1.4-3.4-1.8-5.1-2.8s-2.8-3.6-1.4-4.9c0.7-0.7,1.9-0.7,2.6-1.3c2.3-1.9-1.2-6.1,0.4-8.7
							c0.9-1.5,3.2-2,3.4-3.7c0.2-1.5-1.4-2.4-2.4-3.5c-2-2.2-1.9-5.6-1.7-8.7c2.7-0.7,5.3-1.4,8-2.1c-1.6-2.2-0.6-5.8,1.9-6.8
							c2.7-1,6.2,0.7,8.2-1.3c0.6-0.6,1-1.5,1.3-2.3c1.1-2.9,3.1-7.7,4.3-11c0.3-3.2-1.8-6.5-4.9-7.2c0.1-1.2,0.3-2.4,0.4-3.7
							c3.3,1.4,6.8,2.8,10.4,2.7c3.6-0.1,7.4-2.1,8.5-5.6c1-3.1-0.2-6.8,1.4-9.6c2-3.6,7.7-4.2,8.7-8.2c0.3-1.1,0.1-2.3,0.2-3.4
							c0.4-4.7,5.2-9,3.1-13.2c-0.5-1-1.4-1.8-1.6-3c-0.2-1,0.2-2,0.6-2.9c1-2.5,2.1-5.1,3.1-7.6c1.2-2.9,2.6-6,5.5-7.1
							c1.8-0.7,3.9-0.2,5.8-0.5C474.8,672,479.5,664.6,485.3,666.3z"/>
					</g>
					<path fill="#C08F4C" d="M507.3,603.1c-0.1-1.9-1.2-3.7-0.8-5.5c0.4-2,2.4-3.1,3.7-4.6c2.5-3.1,1.7-8.1-0.9-11
						c-2.6-3-6.7-4.2-10.5-4.6c-1.4-0.1-2.9-0.2-4.3-0.7c-4.4-1.8-5.4-8-9.3-10.8c-4.8-3.5-12-0.6-16.8-3.9
						c-2.3-1.6-3.7-4.4-6.2-5.8c-1.7-1-3.7-1.1-5.6-1.4c-4.3-0.7-8.5-2.2-12.3-4.4c-0.9,3-3,6.8-5.9,5.7c1.6-3.2,3.1-6.5,4.7-9.7
						c0.3-0.6,0.6-1.2,0.6-1.9c0.2-2.5-2.7-3.8-3.9-5.9c-0.8-1.3-0.9-3-1.2-4.5c-1-5.3-4.7-9.7-9.2-12.6c-2-1.3-4.2-2.3-6.4-3.1
						l-16.2,60.5c1.1,0,2.1-0.1,3.2-0.1c4.9-0.2,9.8-0.3,14.6-0.9c2,2.2,4,4.5,5.9,6.7c3.2-1,6.6,0.4,9.5,1.9c1,0.6,2,1.1,2.9,1.7
						L479,591l-10,36l-24,10.5c0,0.1,0.1,0.1,0.1,0.2c-5.2,1.1-5.8,8.6-3.6,13.5c2.2,4.9,5.8,9.7,4.8,15c-0.6,3.1-2.7,5.3-5.3,7.2
						l4,31.6l7.2,4.3c0-0.8,0-1.5,0.1-2.3c0.4-4.7,5.2-9,3.1-13.2c-0.5-1-1.4-1.8-1.6-3c-0.2-1,0.2-2,0.6-2.9c1-2.5,2.1-5.1,3.1-7.6
						c1.2-2.9,2.6-6,5.5-7.1c1.8-0.7,3.9-0.2,5.8-0.5c6-0.9,10.7-8.2,16.5-6.5c-0.9-1.8-0.2-4.1,0.9-5.8c1.1-1.7,2.6-3.1,3.7-4.8
						c1.9-3.2,2-7.3,1.9-11.1c0-0.5,0-1,0-1.5c0-2,0-4,0-5.9c0.1-4.4,0.5-8.9,0.8-13.3c0.1-0.7,0.1-1.4,0.2-2.1
						c0.3-3.3,1.9-6.5,2.4-9.8c1.4-0.5,2.8-1,4.3-1.5C503.1,609.3,507.4,607.1,507.3,603.1z"/>
				</g>
			</g>
			<g>
				<g>
					<g>
						<path fill="#BB9152" d="M428,204.2c-0.1,0.7-0.2,1.4-0.4,2.1c1.3-0.4,2.5-0.8,3.8-1.3C430.2,205.2,429,204.9,428,204.2z"/>
					</g>
					<g>
						<path fill="#BB9152" d="M604.8,192.7c0.1-3.7-3.2-7.1-2.4-10.7c1.5-0.3,2.9-0.5,4.4-0.8c0.2-3-0.8-6-2.8-8.3
							c4.1-1.4,8.4-1.8,12.7-1.3c-0.5-2.3-1-4.5-1.5-6.8c3.3-0.4,6.6-0.9,9.8-1.3c-1.9-2.3-3.8-4.6-5.7-6.9
							c6.8-4.2,14.8-6.1,22.7-5.4c2,0.2,4.2,0.5,6-0.3s3.3-3.2,2.3-5c-8.8,1.9-18.2,1.4-26.8-1.4c-3.6-1.2-7-2.8-10.7-3.5
							c-2.5-0.5-5.1-0.6-7.6-0.7c-12-0.3-24.1-0.3-36.1,0.2c1.2,1.8,1.9,3.8,2.1,6c-3.5,2.1-7.5-1.7-11.5-3
							c-1.6-0.5-3.3-0.6-4.9-0.6c-13.2-0.4-26.6-1-39.8-1.6c-28.7-1.4-57.5,0-85.9,4.1c1,1.2,1.9,2.4,2.9,3.5
							c-7.4-2.2-15.4-1.9-22.7,0.8c0,1.6,0,3.2,0,4.7c5.5,1.6,11,3.2,16.5,4.7c-5.2,1-10.5,2-15.7,3c-1.2-5.7-8.4-9.1-13.4-6.3
							c0.1,1.1,0.3,2.2,0.4,3.3c1.4-0.5,3,0.6,3.2,2c-3,0-6.1,0-9.1-0.1c1.2-3.4-1-7.7-4.4-8.7c-3.4-1-7.4,1.4-8.2,5
							c3.5-1.7,8.2,2.1,7.3,6c-5.7-0.4-11.3-1.4-16.8-2.8c-0.1,1.3-0.2,2.6-0.4,3.9c-4.1,0.5-8.3,0.2-12.3-0.9c0-1.2,0-2.5,0-3.7
							c2.5,0.8,5.4-0.2,6.9-2.4c-4.4,0-8.8,0.1-13.3,0.1c-0.1,2.2-0.3,4.3-0.4,6.5c-2.9,0.8-6.1,0.6-9-0.6c0.9-0.6,0.6-2.2-0.3-2.8
							s-2-0.6-3.1-0.6c-8.1,0.4-16.1,1.9-23.8,4.3c1.5,1.6,4,1.1,6.2,1.3c2.2,0.2,4.6,2.5,3.3,4.2c4.6,2.6,9.1,5.3,13.7,7.9
							c-0.7-3,2.9-5.3,5.8-5.3s6.1,1,8.9-0.2c1.7-0.7,3.2-2.3,5.1-2.4c2.5-0.1,4.4,2.4,6.9,2.7c4.7,0.5,9.1-7,12.9-4
							c0.2,1.1,0.4,2.3,0.6,3.4c2.5-0.4,5.4-0.7,7.1,1.3c1.7,1.9-0.5,6.1-2.6,4.5c0,1.5-0.1,3.1-0.1,4.6c-4,0-8.1,0.8-11.8,2.3
							c3,3.6-0.8,10.3-5.3,9.3c2.1,2.1,3.5,5,3.9,8c-4.7,0.2-9.5,0.3-14.2,0.5c-4.7,0.2-9.4,0.3-14-0.4c-5-0.8-9.8-2.6-14.3-4.7
							c-1.5-0.7-3.3-1.4-4.6-0.5c-0.8,0.6-1.1,1.5-1.6,2.3c-2.2,3.4-6.9,3.5-10.8,2.7c-3.9-0.8-8-2.2-11.6-0.6
							c0.2-4.3-4.5-7-8.5-8.2c-6.8-2-13.9-2.8-20.9-3.7c-5.2-0.6-10.3-1.2-15.5-1.8c-9.7,5.3-23.1,5.1-34,4.1
							c-6.4-0.6-12.7-1.4-19-2.1c-4.6-0.6-9.2-1.1-13.8-1.4c2.5,0.7,4.9,1.4,7.4,2.1c0.1,4.4-1.7,8.7-4.9,11.7
							c2.4,3.7,6.6,6.2,11,6.4c6.8,6.5-11.3,16.8-6.7,25.1c1.7,3.1,5.7,3.8,9.2,4.1c28.5,2.9,57.1,4.7,85.8,5.3
							c-13.8-2-26.5-10.3-34.1-22c14.3-4.1,29.3-5.9,44.2-5.3c1.1,7.3,8.6,13.1,15.9,12.2c-3.9,1.9-3.2,7.7-1.1,11.5
							c2.1,3.8,5.2,7.7,4.1,11.9c-1.8,7.1-13.4,7.4-15.7,14.3c14.5,4.4,28.3,11.2,40.6,20c-6.5,3.9-9.6,12.7-6.8,19.8
							c6.8-1.9,14-0.1,21,0.8c7,0.9,14.9,0.7,20.1-4.2c5.1-4.9,4.2-15.6-2.7-17c7.4-6.9,24-6.3,23.3-16.5c-0.2-3.1-2.4-5.6-4.6-7.7
							c-2.5-2.4-5.3-4.4-8.1-6.4c0.2,1.1,0.6,2.3,0.3,3.4c-0.4,1.5-1.9,2.3-3.2,2.9c-5.9,2.8-16.8,4.8-16,13.1
							c0.1,0.8,1.8,8.5,2,8.5c-2.6,0-5.2-1.1-7.1-2.9c1.5-4.7,2.9-9.3,4.4-14c-2.5-1.7-5-3.5-7.5-5.2c-5.2-3.6-10.8-7.4-17.1-7.7
							c1.2-1.6,2-3.6,2-5.7c-2.7-1.2-5.4-2.5-8.2-3.7c5.3-0.5,7.7-6.9,11.4-10.8c3.4-3.6,8.2-5.2,12.8-6.7c1.5-0.5,3-1,4.4-1.5
							c0.1-0.9,0.3-1.7,0.5-2.6c4.7-0.6,9.4-1.4,14-2.2c0,0,0,0,0,0c1.4-0.4,2.8-1,3.6-2.1c0.7-1,0.9-2.4,1.5-3.5
							c2.9-4.5,11,0.9,14.7-3c0-1.5,0-2.9,0.1-4.4c-5.5,0.9-11.3-0.2-16-3.2c2.3-3.5,1.3-8.2,2.2-12.4c0.9-4.1,6.5-7.7,8.8-4.2
							c1.4,2.9,2.9,5.8,4.3,8.7c-3.7-0.8-7.7,2-8.3,5.9c6.6,2.2,14.6-2.3,16.4-9.2c4.5,3.7,12.6-0.2,12.7-6.2
							c3.7-0.5,7.1,1.7,9.3,4.9c1.8-2.7,4.5-4.6,7.4-6.3c-1.3,0.2-2.7,0.2-4,0.1c0.8-2.8-0.7-6.1-3.3-7.2
							c6.4-6.8,14.8-11.7,23.8-13.8c1.6-0.4,3.4-0.7,4.7-1.8c1-0.8,1.6-1.9,2.6-2.7c2.3-1.9,5.5-1.5,8.4-1.6
							c13.8-0.5,26.7-13.4,39.6-8.5c-5,2.7-10.8,3.6-16.3,2.6c0.2,2.7-2,5.1-4.5,5.9c-2.5,0.8-5.2,0.4-7.8,0
							c-0.1,2.9,1.8,5.1,4.3,6.5c13-3.9,26.2-5.4,39-1.3c-5.6,3.1-11.3,6.3-16.9,9.4c0.5,1.9,0.9,3.8,1.1,5.8
							c11.2,2.5,22.3,5.6,33.2,9.1c-2.7,1.6-5.4,3.2-8,4.8c0.9,3.3,1.9,6.6,2.8,9.9c3.5,1,7.4,0.6,10.6-1.1c0-5,0-10.1,0-15.1
							c7.2-0.7,14.2-2.9,20.5-6.4c-7-4.3-13.9-8.5-20.9-12.8c8.1-2,16.5-2.5,24.8-1.5c-2.9,5.3-0.5,12.2,4,16.3
							c4.5,4,10.5,5.8,16.3,7.4C593,190,598.9,191.4,604.8,192.7z"/>
					</g>
					<g>
						<path fill="#BB9152" d="M445.3,178.7c0.3-0.2,0.7-0.3,1-0.5c0-0.2,0-0.4,0.1-0.6C446,178,445.7,178.3,445.3,178.7z"/>
					</g>
				</g>
			</g>
			<path fill="#CB9951" d="M330.3,455.5c1.4-1.7,3.4-2.8,5.5-3.1c1-2.5-0.4-5.5-2.5-7c-2.2-1.5-4.9-1.9-7.5-1.8
				c-3.3,0.1-7.4,0.5-9.1-2.4c-0.6-1-0.7-2.2-1.4-3.1c-1-1.3-2.7-1.5-4.3-1.7c-6.9-0.7-13.9-1.4-20.8-2.1c0-0.9,0.1-1.8,0.1-2.7
				c5.6-2.9,12.1-3.4,18.3-2.4c6.2,1,12.1,3.4,17.8,6.1c3.3,1.5,6.5,3.1,9.7,4.8c3.4,1.8,6.7,3.6,10.4,4.5c3.9,0.9,8,0.7,11.9,1.3
				c3.9,0.7,8.1,2.6,9.7,6.4c-3.1-0.5-6.2-1-9.3-1.5c-0.1,1.6-1.9,2.4-3.4,2.7C347.1,455.6,338.6,456.2,330.3,455.5z"/>
			<path fill="#CB9951" d="M1055.8,178.1c-15.2-5-31.9-4.8-47,0.5c0-2.6,0.9-5.1,2.4-7.1c4,1.3,8.6,0,11.4-3.2
				c-1.8-4.2-6.9-5.7-11.3-5.6s-9,1.2-13.3-0.2c-3.5-1.1-6.4-3.8-9.9-4.9c-4.6-1.4-9.6,0.1-14.2,1.7c-2.2,0.7-4.4,1.5-6.6,2.2
				c-11.2,3.8-22.4,7.5-33.2,12.5c-3.4,1.6-7.4,5.5-5.1,8.5c-3.1-0.3-6.5-0.6-9.3,0.9c-2.8,1.5-4.7,5.3-3,8.1c1.9,3.1,7.5,6,4.8,8.4
				c-7.5-1.2-13.6-8.6-13.6-16.5c-5.5,0-10.9,0-16.4,0c-0.9,2-1.1,4.3-0.7,6.4c3.8-0.5,7.6,2.4,8.3,6.3c-18.8-2.6-37.9-2.1-56.5,1.6
				c-2.9,0.6-6,1.3-8.1,3.4c-2.4,2.4-4.2,6.6-7.4,5.9c0.4-2.4,0.2-4.9-0.6-7.2c-2.3,0-4.6,0-6.9,0c1.5,5.3-1.9,11-6.5,13.7
				c-4.6,2.7-10.2,3-15.5,2.8c2-2.5,5.3-3.2,8-4.8c2.7-1.5,5.1-5.1,3.4-7.8c-1.7-2.7-5.6-2-8.8-2.2c-5.5-0.3-10.1-4.1-15.1-6.4
				c-5-2.3-12.1-2.4-14.7,2.5c-1.2-5.7-7.1-9.4-12.7-9.8s-11.2,1.9-16.3,4.4c-15.2,7.5-29.2,17.7-41.2,30c-3.7,3.8-7.5,8.5-7.2,13.9
				c0.5,7.4,10.4,12,16.1,7.3c1,2.4,2,4.9,3.1,7.3c-6.4-1.4-12.6,7-9.5,13c9.5-0.2,19.1-2.2,27.9-5.8c0.4-5.4,5.2-10,10.4-10.2
				c0-2.4,0-4.9,0-7.3c1.3-1.2,3.2-1.8,4.9-1.5c0.2,10.3-4.2,21.4-13.1,25.9c-4.6,2.3-10,2.7-15.1,3.3c-13.6,1.7-26.9,6-39.1,12.5
				c0.3-5-5.4-9.2-9.9-7.3c-2.2-4.7-0.2-10.3-0.6-15.5c-0.4-5.2-6.3-10.7-9.9-7.1c-1.4,1.4-1.7,3.6-2.6,5.4
				c-2.1,4.5-7.1,6.4-11.4,8.6c-4.3,2.2-8.8,6.2-8.1,11.1c5.2-0.6,10.4-1.2,15.6-1.7c0,3.2,0,6.3,0,9.5c7-0.1,13.9,0.8,20.7,2.6
				c-3.7,6.2-10.6,10.3-17.7,10.5c-0.9,5,7.1,5.8,10,9.9c1.3,1.8,1.4,4.2,1,6.4c-1.4,7.6-10.2,12.7-17.2,10
				c-2.2-0.8-4.2-2.3-6.5-2.3c-4.6,0.1-7,5.6-8.1,10.2c-1.9,7.7-3.3,15.4-4.2,23.2c6.2,1.1,12.1,3.2,17.7,6.3
				c3.6-4.3,8.6-7.2,14-8.2c-0.2-6,3.9-11.1,7.8-15.6c3.2-3.7,6.4-7.4,10.1-10.6c8.2-7.2,20.4-11.7,29.5-5.9
				c6,3.8,9.7,11.5,16.6,13.4c2.7,0.7,5.6,0.4,8,1.9c2.4,1.4,3.2,5.8,0.6,6.7c1.8,2.1,5.5,0.1,6.1-2.6c0.5-2.7-0.9-5.4-2.3-7.9
				c-7.7,1.4-15.6-6.3-14.8-14.3c19.7,3.6,22.7,34.9,41.2,42.7c-2.4-6.1-2-14,2.8-18.3c4.9-4.3,14.3-1.8,14.9,4.7
				c-3.7,0.3-6.9,3.6-7.1,7.4c11.7,7.3,26.1,10,39.5,7.3c1.7,1.5,0.8,4.2-0.1,6.3c-4.6,9.7-11.9,21-22.3,19.4
				c-6.1-0.9-10.5-6.2-15.4-9.9c-5-3.7-12.8-5.6-16.6-0.7c-1.5,1.9-2,4.6-3.4,6.6c-2.7,3.9-8.3,4.8-12.7,3
				c-4.3-1.8-7.5-5.7-10.1-9.7c-10.9,2-21.3-11.3-17.1-21.8c-8.9,1.7-17.7,3.4-26.6,5.1c-2.2,0.4-4.4,0.8-6.6,1.3
				c-11.1,2.1-22.3,4.3-33.6,5.1c-3,0.2-5.9,0.3-8.8,1.1c-7.4,2-13.2,8.5-15.3,16.1c-1.7,6.2-4.7,10.6-8.9,15.3
				c-5.7,6.4-11.4,12.8-17.2,19.2c-2.2,2.4-4.4,5-5.2,8.1c-0.9,3.7,0.3,7.7-0.7,11.4c-1,3.6-4,6.3-5.5,9.7
				c-3.9,9.6,5.2,21.8-0.3,30.5c-0.6,0.9-1.3,1.8-1.5,2.9c-0.5,3.1,3.3,4.7,6.1,6c9.1,4.1,13.2,17,8.2,25.8
				c4.4,0.6,9.4,1.6,11.8,5.5c2.1,3.3,1.6,8.1,4.4,10.9c1.4,1.5,3.5,2.1,5.5,2.6c16.5,4.1,34.5,1.5,49.2-7.3c2.2-1.3,4.8-2.7,7-1.5
				c1.1,0.6,1.7,1.7,2.7,2.5c2.7,2.4,6.7,1.8,10.2,1.8c3.6,0,7.9,1.3,8.5,5c0.3,1.9-0.6,4,0.2,5.7c1,2,3.7,2.2,5.3,3.8
				c4.4,4.2-3.1,11.3-2,17.3c0.4,2,1.7,3.7,2.9,5.3c5.9,7.7,10.9,16.1,14.8,25.1c3.2,7.2,5.3,16.6,0,22.3c4.4,4.1,2,13.1-3.8,14.3
				c-1.1,2.3-2.2,3.7-2.2,6.3c0,5.9,4.1,12.2,1.1,17.3c3.4,1.2,6.6,2.9,9.6,5c-0.5,3.4-1.3,6.8-2.4,10.1c1.5,0.8,3.1,1.6,4.6,2.4
				c2.5,9,2.7,17.5,5.2,26.5c4.2,15.4,8.4,30.9,14.6,45.7c0.9-4.1,5.1-6.5,9.1-7.3c4-0.8,8.2-0.5,12.1-1.8c6-2.1,10.4-7.8,16.5-9.5
				c6.2-1.8,14.1,0.5,18.4-4.5c5.3-6.1-0.4-16.6,3.8-23.5c2.3-3.8,7.1-5.3,9.7-9c1.9-2.7,2.3-6.2,2.7-9.6c0.5-4.7,1-9.4,1.5-14.1
				c0.3-2.7,0.6-5.5,1.9-7.9c3.3-6.2,11.3-7.4,16.5-12.1c5.9-5.3,7.2-14.4,6.2-22.4s-3.9-15.8-4.7-23.8c-1.2-12.3,2.6-25,10.3-34.4
				c1.8-2.2,3.1-4.4,4.6-6.9c1.6-2.6,3.2-5.2,5.5-7.1c1.4-1.2,3.1-2,4.4-3.3c3.4-3.4,3.5-8.9,5.7-13.2c2.5-5.1,7.6-8.2,11.6-12.1
				c6.9-6.6,11.2-16.1,11.7-25.9c-10,3-20.4,4.8-30.9,5.4c0.6-1.4-0.8-2.9-2.3-3.4c-1.4-0.5-3.1-0.7-4.1-1.9c-0.6-0.8-0.8-1.8-1-2.7
				c-1.3-5.8-5.4-10.9-10.7-13.4c-2.5-4-4.6-10.3-4-15c-6.5-4.2-9.9-11.8-13-19c-0.8-1.9-1.6-3.8-2.5-5.8c-4.1-9.5-8.2-19-11.9-28.7
				c4.1-1.4,7.5,3.2,9.5,7.1c11.7,23,23.5,45.9,35.2,68.9c14.3-5.2,28.7-10.3,43-15.5c5.5-2,11.2-4,15.8-7.7s8.1-9.4,7.7-15.4
				c-0.6-9.6-10.4-16.6-10.9-26.1c-4.2,0.5-7.6,3.9-11.7,4.6c-6.8,1.3-12.7-4.5-17.3-9.9c-2.8-3.2-5.7-7.1-4.8-11.3
				c5.8,7.4,15.5,11.3,24.6,9.9c3.4-0.5,7.3-1.6,9.9,0.7c1.3,1.2,2,3,3.1,4.4c6.2,7.5,21.9-2.3,26.4,6.4c5.4,0.1,10.7,0.1,16.1,0.2
				c-0.7,8.6,5.7,17.2,13.9,18.9c1.9,0.4,3.9,0.5,5.5,1.7c1.5,1.2,2.2,3.2,2.8,5.1c7.4,23.6,17,46.4,28.6,68.1
				c6.7-8.3,9.4-20,7.1-30.6c-0.4-1.8-0.9-3.7-0.6-5.5c1.1-5.4,8.3-6,12.4-9.6c5.8-5.1,4.5-15.5,10.2-20.7c1.8-1.7,4.1-2.6,6.4-3.4
				c7.2-2.7,14.4-5.5,21.6-8.2c4.3,10.2,10.7,22.1,21.5,22.4c0.2,3.4,0.5,6.7,0.7,10.1c4.8-1.2,9.5,3.1,11.1,7.9
				c1.6,4.8,1.1,10.1,1.4,15.1c0.3,6.6,1.9,13.1,4.7,19c2.1,4.5,4.8,8.6,6.2,13.4c0.5,1.9,0.9,3.9,2,5.5c0.8,1.2,2.1,2,3.3,2.8
				c1.3,0.9,3.1,1.7,4.3,2.9c0.8,0.8,1.1,1.7,2,2.5c0.9,0.7,2,1,2.9,1.7c0.2,0.1,1.8,2,1.7,2c0.7,0,1.4,0,2.1,0
				c0.9-3.8-1.9-7.5-2.2-11.5c-0.1-1.4,0-3-1-3.9c-0.6-0.5-1.5-0.7-2-1.4c-0.5-0.7-0.4-1.7-0.8-2.5c-0.5-0.9-1.4-1.2-2.3-1.6
				c-4.7-2-8.4-6.1-10-11.1c-0.2-0.6-0.4-1.3-0.8-1.8c-0.3-0.4-0.7-0.7-0.9-1.1c-0.3-0.6-0.3-1.3-0.3-2c-0.2-2.1-1.9-2.9-2.7-4.6
				c-1-2.1-1.1-5.2-1.3-7.5c-0.2-2.5-0.1-5.1,0.3-7.6c0.1-0.9,0.8-6.3,1.6-6.5c2.8-0.8,5.5,1.4,7.4,3.6c3.9,4.3,7.3,9,10.7,13.7
				c2.4,3.3,4.8,6.6,7.3,10c0.6-2.8,1.1-5.6,1.7-8.4c7.7,2.6,15.6-6,15.4-14.3s-6-15.4-12.4-20.6c-2.3-1.8-4.8-3.7-5.6-6.5
				c-1.6-5.6,4.1-10.3,5.9-15.9c2.7,1,5.4,1.9,8.1,2.9c6-4.2,11.9-8.4,17.9-12.6c4.2-3,8.5-6,13.5-7.1c3.3-0.8,5.1-2.5,5.3-5.9
				c0.1-1.7-0.4-3.6,0.7-4.9c1.2-1.4,3.4-1.1,4.9-2.1c3-2.2,0.1-6.9-0.8-10.6c-1.3-4.8,1.3-10.2-0.6-14.7c-1.4-3.4-5.1-5.4-6-9
				c-0.6-2.5,0.3-5.3-0.5-7.7c-1.2-3.7-5.4-5.1-9-5.9c1.4-2.7,2.8-5.4,4.2-8.2c-2.8,0.1-5.9-0.3-8.1-2.1c-2.3-1.8-3.4-5.3-1.8-7.7
				c1.6-2.4,5.1-2.6,7.8-1.8c2.8,0.8,5.4,2.2,8.3,2c4.3,2.3,8,5.9,10.5,10.2c3.7,6.3,4.6,14.3,2.6,21.4c4.4,0.3,7.9-5.4,5.8-9.4
				c3.2-0.2,6.3-0.4,9.5-0.7c0.1-6-3.4-11.9-8.7-14.5c-1.8-0.9-4-1.8-4.4-3.8c-0.5-2.3,2-4.4,1.6-6.8c-0.3-2-2.5-3.6-1.9-5.5
				c0.4-1.2,1.8-1.7,2.8-2.4c3.4-2.3,3.4-7.3,3-11.5c3.7,1.5,7.3,3,11,4.5c5.2-1.3,5.3-9.7,4.8-15.2c-1.6,0-3-1.4-3.1-3
				c3.6,1.1,5.7-4.5,4.4-8.1s-3.9-7.1-3.1-10.9c4.8-0.5,8.6,4.1,10.7,8.6c2.1,4.5,3.7,9.6,7.6,12.5c-1.8,5.1,3.1,10.7,8.4,11.1
				c-0.9,7.7,0,15.6,2.4,23c-2.9,0.2-4.9,3.6-4.7,6.6c0.1,3,1.8,5.7,3.4,8.3c-3.4,2.9-7.7,4.8-12.1,5.4c-0.8,3.2-3.7,5.1-6.4,6.8
				c-5.1,3.1-10.1,6.1-15.2,9.2c1,7,2.7,14,5.2,20.6c0.4-3.7,3.3-7,6.9-7.8c-0.8-1.7-1-3.6-0.7-5.5c6.2-1.9,11.9-5.3,16.6-9.9
				c0.4,2.8,2.6,5.3,5.2,6c0-2.3,0-4.5,0-6.8c5.5-0.1,10.2-6.3,8.8-11.8c-0.6-2.3-1.9-4.3-3.1-6.4c-2.8-5.1-4.2-11.1-3.9-17
				c0.1-3,1-6.5,3.6-7.8c2.4-1.2,5.2-0.1,7.8-0.4c2.6-0.3,5.1-3.8,3-5.5c-6.1-1.1-11.1-6.8-11.6-13.2c-2.2,0-4.4,0-6.6,0
				c0.7-5.5-2.1-11.4-6.9-14.1c-1.3-0.7-2.8-1.3-3.7-2.6c-1.7-2.6,0.3-6.3-0.5-9.3c-1.3-4.6-7.8-4.7-11.3-7.9
				c-2.3-2.1-3.1-5.4-5.1-7.7c-4.3-5-12-3.9-18.3-2.5c0,2-0.1,3.9-0.1,5.9c-2.8,1.5-5.7,3.1-8.5,4.6c-1.6-3.5-3.2-7-4.9-10.6
				c2.8-2.3,0.9-6.9-0.3-10.4c-1.2-3.5,0.8-9.2,4-7.7c0.4-5.4,6-9,11.2-9.4s10.3,1.7,15.4,2.9c5.1,1.3,10.9,1.7,15.2-1.5
				c-10.9,3-23.3-1.5-30-10.8c15.1-4.8,31.7-4.3,46.6,1.3c0.7,0.3,1.3,0.5,1.8,1c0.7,0.8,0.9,1.9,1.1,3c0.7,4.8,1.8,9.5,3.2,14.2
				c0.7,2.2,1.4,4.4,2.5,6.5c1,1.9,2.2,3.6,3.4,5.3c1.1,1.6,2.2,3.1,3.3,4.7c4.9,7,11.7,14.8,19.9,13.3c-1.6-6.2-6.7-10.9-8.4-17.1
				c-0.8-3.1-0.7-6.3-1.7-9.3c-1-3-3.6-5.9-6.7-5.5c2.3-0.9,4.2-2.6,5.5-4.7c-3.5-2.1-6-6-6.5-10.1c5.4-1.5,10.8-2.6,16.3-3.3
				c-0.3-6.8-0.6-13.6-0.9-20.4c3-0.7,5.9-1.4,8.9-2.1c-5.8-2.5-11.5-4.9-17.3-7.4c-1.5-0.6-3-1.3-4.2-2.4c-1.3-1.2-2.1-2.8-3.2-4.2
				c-3.7-4.9-10-6.9-16-7.2s-11.9,1.1-17.9,1.8c-12.3,1.4-24.8,0-37.1-1.5c-6.1-0.7-12.3-1.4-18.4-2.2c-2.2-0.3-4.5-0.5-6.4-1.7
				c-1.5-0.9-2.6-2.3-4-3.2c-6.9-4.5-16.1,2.9-23.9,0.5c-2.7-0.8-4.9-2.8-7.5-4.1c-6.7-3.5-14.8-2.2-21.9,0.3
				c-7.1,2.5-13.9,6.1-21.3,7.1c-2,0.3-4.1,0.3-5.9-0.6c-2.4-1.2-3.8-4-6.1-5.6C1073.7,177.8,1062.1,180.2,1055.8,178.1z"/>
			<g>
				<g>
					<g>
						<path fill="#C08F4C" d="M691.1,359c-0.4,0.1-0.8,0.1-1.1,0.2c-2.2,0.4-4.4,0.8-6.6,1.3c-11.1,2.1-22.3,4.3-33.6,5.1
							c-3,0.2-5.9,0.3-8.8,1.1c-7.4,2-13.2,8.5-15.3,16.1c-1.7,6.2-4.7,10.6-8.9,15.3c-5.7,6.4-11.4,12.8-17.2,19.2
							c-2.2,2.4-4.4,5-5.2,8.1c-0.9,3.7,0.3,7.7-0.7,11.4c-1,3.6-4,6.3-5.5,9.7c-3.9,9.6,5.2,21.8-0.3,30.5
							c-0.6,0.9-1.3,1.8-1.5,2.9c0,0.2,0,0.3,0,0.5L691,473l-9.2-20.8L713,441L691.1,359z"/>
					</g>
					<g>
						<path fill="#C08F4C" d="M648.3,323c-2.2-0.8-4.2-2.3-6.5-2.3c-4.6,0.1-7,5.6-8.1,10.2c-1.9,7.7-3.3,15.4-4.2,23.2
							c6.2,1.1,12.1,3.2,17.7,6.3c3.6-4.3,8.6-7.2,14-8.2c-0.2-6,3.9-11.1,7.8-15.6c3.2-3.7,6.4-7.4,10.1-10.6
							c0.8-0.7,1.7-1.4,2.6-2.1l-9.9-37c-3.8,5.8-10.4,9.6-17.3,9.8c-0.9,5,7.1,5.8,10,9.9c1.3,1.8,1.4,4.2,1,6.4
							C664.2,320.6,655.3,325.7,648.3,323z"/>
					</g>
					<g>
						<path fill="#C08F4C" d="M635.9,275.8c5.2-0.6,10.4-1.2,15.6-1.7c0,3.2,0,6.3,0,9.5c6.7-0.1,13.5,0.8,20,2.5l-9.7-36.4
							c-1.4-0.4-2.7-0.2-3.9,1c-1.4,1.4-1.7,3.6-2.6,5.4c-2.1,4.5-7.1,6.4-11.4,8.6S635.2,270.9,635.9,275.8z"/>
					</g>
				</g>
			</g>
			<g>
				<path fill="#C08F4C" d="M833,241l-46,32l-42.9-22.9c-2,6.3-5.8,11.8-11.5,14.6c-4.6,2.3-10,2.7-15.1,3.3
					c-4.4,0.6-8.7,1.4-12.9,2.4L779,311l98.8-44.4l67.7,10L923,229.7L833,241z"/>
				<path fill="#C08F4C" d="M1245.5,316.1c0.6-4.3-1-8.7-3.9-11.8l-8.1,0.5c1.2,2.5,2.7,4.8,4.9,6.4c-1.1,3.1,0.3,6.3,2.7,8.5
					l11.1-2.7c0-0.3-0.1-0.6-0.1-0.9C1249.9,316.2,1247.7,316.1,1245.5,316.1z"/>
				<polygon fill="#C08F4C" points="961,309 990.8,283.3 945.5,276.6 				"/>
				<path fill="#C08F4C" d="M709.1,243.5c1,2.4,2,4.9,3.1,7.3c-6.4-1.4-12.6,7-9.5,13c9.5-0.2,19.1-2.2,27.9-5.8
					c0.4-5,4.5-9.4,9.3-10.1L727,241l-31.4-13.3c-1.7,2.6-2.8,5.4-2.6,8.4C693.5,243.6,703.5,248.1,709.1,243.5z"/>
				<path fill="#C08F4C" d="M1220.2,324.8c2-3.2,1.9-8.7,1.6-12.7c-1.6,0-3-1.4-3.1-3c2.2,0.7,3.9-1.2,4.5-3.7L1199,307l-98-34
					l-22-66l-88.2,76.3l52.2,7.7l102,52l61.1-14.8c0.2-1.8,0.1-3.7-0.1-5.4c2.8,1.1,5.6,2.3,8.3,3.4L1220.2,324.8z"/>
			</g>
			<path fill="#C08F4C" d="M1136.2,181.3c-0.6-0.4-1.2-0.7-1.8-1c-6.7-3.5-14.8-2.2-21.9,0.3c-7.1,2.5-13.9,6.1-21.3,7.1
				c-2,0.3-4.1,0.3-5.9-0.6c-2.4-1.2-3.8-4-6.1-5.6c-5.6-3.8-17.2-1.4-23.5-3.5c-10.5-3.5-21.9-4.5-32.8-2.9L987,267l-154,48
				l-21.3,46.5c0.9-0.1,1.7-0.3,2.5-0.4c1.7,1.5,0.8,4.2-0.1,6.3c-3.1,6.5-7.4,13.7-13,17.3L755,485l-112,40l15.2,4.6
				c4.6-1.5,9.1-3.5,13.3-6c2.2-1.3,4.8-2.7,7-1.5c1.1,0.6,1.7,1.7,2.7,2.5c2.7,2.4,6.7,1.8,10.2,1.8c3.6,0,7.9,1.3,8.5,5
				c0.3,1.9-0.6,4,0.2,5.7c1,2,3.7,2.2,5.3,3.8c1,1,1.4,2.1,1.4,3.4L743,555c0,0,58.9,2.7,108.9,3c1.7-2.1,2.8-4.1,4.2-6.5
				c1.6-2.6,3.2-5.2,5.5-7.1c1.4-1.2,3.1-2,4.4-3.3c3.4-3.4,3.5-8.9,5.7-13.2c2.5-5.1,7.6-8.2,11.6-12.1
				c6.9-6.6,11.2-16.1,11.7-25.9c-10,3-20.4,4.8-30.9,5.4c0.6-1.4-0.8-2.9-2.3-3.4c-1.4-0.5-3.1-0.7-4.1-1.9c-0.6-0.8-0.8-1.8-1-2.7
				c-1.3-5.8-5.4-10.9-10.7-13.4c-2.5-4-4.6-10.3-4-15c-6.5-4.2-9.9-11.8-13-19c-0.8-1.9-1.6-3.8-2.5-5.8c-4.1-9.5-8.2-19-11.9-28.7
				c4.1-1.4,7.5,3.2,9.5,7.1c11.7,23,23.5,45.9,35.2,68.9c14.3-5.2,28.7-10.3,43-15.5c5.5-2,11.2-4,15.8-7.7
				c4.6-3.7,8.1-9.4,7.7-15.4c-0.6-9.6-10.4-16.6-10.9-26.1c-4.2,0.5-7.6,3.9-11.7,4.6c-6.8,1.3-12.7-4.5-17.3-9.9
				c-2.8-3.2-5.7-7.1-4.8-11.3c5.8,7.4,15.5,11.3,24.6,9.9c3.4-0.5,7.3-1.6,9.9,0.7c1.3,1.2,2,3,3.1,4.4c6.2,7.5,21.9-2.3,26.4,6.4
				c5.4,0.1,10.7,0.1,16.1,0.2c-0.3,4.3,1.1,8.6,3.6,12C981.9,386.8,997,344,997,344l144-83L1136.2,181.3z"/>
			<g>
				<g>
					<g>
						<path fill="#BB9152" d="M767.3,611.7c0-8.7,3.1-17.3,8.7-23.9c-12.7-3.6-25.3-7.1-38-10.7c-3.6-1-7.5-2.2-9.9-5.1
							c-2.1-2.6-2.8-6-3.3-9.3c-1.1-6.5-2.2-13.1-3.3-19.6c-13.6-8.7-24.3-21.8-30-36.9c-18.6-0.8-37.1-1.5-55.7-2.3
							c-6-0.2-12.1-0.5-17.6-2.8c-2.8-1.1-5.5-2.8-8.5-2.7c-2.5,0.1-4.7,1.5-7,2.8c0.4,3.6-0.2,7.4-2,10.6c4.4,0.6,9.4,1.6,11.8,5.5
							c2.1,3.3,1.6,8.1,4.4,10.9c1.4,1.5,3.5,2.1,5.5,2.6c16.5,4.1,34.5,1.5,49.2-7.3c2.2-1.3,4.8-2.7,7-1.5
							c1.1,0.6,1.7,1.7,2.7,2.5c2.7,2.4,6.7,1.8,10.2,1.8c3.6,0,7.9,1.3,8.5,5c0.3,1.9-0.6,4,0.2,5.7c1,2,3.7,2.2,5.3,3.8
							c4.4,4.2-3.1,11.3-2,17.3c0.4,2,1.7,3.7,2.9,5.3c5.9,7.7,10.9,16.1,14.8,25.1c3.2,7.2,5.3,16.6,0,22.3
							c4.4,4.1,2,13.1-3.8,14.3c-1.1,2.3-2.2,3.7-2.2,6.3c0,5.9,4.1,12.2,1.1,17.3c3.4,1.2,6.6,2.9,9.6,5c-0.5,3.4-1.3,6.8-2.4,10.1
							c1.5,0.8,3.1,1.6,4.6,2.4c2.5,9,2.7,17.5,5.2,26.5c2.8,10.4,5.7,20.9,9.1,31.1c0.5-2.5,1.8-4.9,3.5-6.7
							c3.8-4,9.2-5.9,14.4-7.7c-9.6-4.2-14.2-17.1-9.4-26.4c-3.7-3.2-6-8-6.1-12.9c-0.2-6.5,3.2-12.6,3.9-19.1
							c0.7-6.5-3.4-14.6-9.9-13.8c8-3.5,17.2-4.3,25.7-2.4c-6.8-1.7-11.9-8.5-11.6-15.5C756.5,614.9,761.8,612.2,767.3,611.7z"/>
					</g>
					<g>
						<path fill="#BB9152" d="M586.4,480c-0.1,0.8,0,1.5,0.4,2.2c0.1-1.2,0.2-2.5,0.3-3.7C586.8,478.9,586.5,479.4,586.4,480z"/>
					</g>
					<g>
						<path fill="#BB9152" d="M746,733.8c0.6,1.5,1.1,2.9,1.7,4.4c0.2-0.9,0.6-1.8,1.1-2.5C747.9,735.1,746.9,734.5,746,733.8z"/>
					</g>
					<g>
						<path fill="#BB9152" d="M594.4,425.4c-0.9,3.7,0.3,7.7-0.7,11.4c-1,3.6-4,6.3-5.5,9.7c-2.3,5.5-0.2,11.8,0.9,17.8
							c26.7-7.8,54.8-11.1,82.6-9.6c-0.5-3.3-1-6.6-1.5-9.9c8.5-3.8,17.7-5.9,27-6.1c-0.8-3.5-0.4-7.2,1.3-10.4
							c10.3-1.5,20.8-2,31.2-1.5c-1-2.5-2-4.9-3-7.4c3.8-1.6,6.5-5.4,6.9-9.4c-15-9.4-34-12.4-51.1-7.9c3.9,0.6,7.3,3.5,8.6,7.2
							c-9.2-1.8-19.2-3.2-27.5,1.2s-12.5,17-5.7,23.3c-19,0.2-37.9-6.6-52.5-18.8c-1.3,0.1-2.6,0.1-3.9,0.1c-0.6,0.7-1.2,1.4-1.8,2
							C597.4,419.7,595.2,422.3,594.4,425.4z"/>
					</g>
				</g>
			</g>
			<path fill="#BB9152" d="M1018.7,191.3c1.1-0.7,2.4-0.8,3.7-0.9c3.6-0.2,7.3-0.4,10.9-0.6c9.8-0.6,20.5-1.6,27.3-8.5
				c0.7-0.7,1.3-1.4,1.9-2.2c-2.5-0.1-4.9-0.3-6.7-1c-15.2-5-31.9-4.8-47,0.5c0-2.6,0.9-5.1,2.4-7.1c4,1.3,8.6,0,11.4-3.2
				c-1.8-4.2-6.9-5.7-11.3-5.6c-4.4,0.1-9,1.2-13.3-0.2c-3.5-1.1-6.4-3.8-9.9-4.9c-4.6-1.4-9.6,0.1-14.2,1.7
				c-2.2,0.7-4.4,1.5-6.6,2.2c-11.2,3.8-22.4,7.5-33.2,12.5c-3.4,1.6-7.4,5.5-5.1,8.5c-3.1-0.3-6.5-0.6-9.3,0.9
				c-2.8,1.5-4.7,5.3-3,8.1c1.9,3.1,7.5,6,4.8,8.4c-7.5-1.2-13.6-8.6-13.6-16.5c-5.5,0-10.9,0-16.4,0c-0.9,2-1.1,4.3-0.7,6.4
				c3.8-0.5,7.6,2.4,8.3,6.3c-18.8-2.6-37.9-2.1-56.5,1.6c-2.9,0.6-6,1.3-8.1,3.4c-2.4,2.4-4.2,6.6-7.4,5.9c0.4-2.4,0.2-4.9-0.6-7.2
				c-2.3,0-4.6,0-6.9,0c1.5,5.3-1.9,11-6.5,13.7c-4.6,2.7-10.2,3-15.5,2.8c2-2.5,5.3-3.2,8-4.8c2.7-1.5,5.1-5.1,3.4-7.8
				c-1.7-2.7-5.6-2-8.8-2.2c-5.5-0.3-10.1-4.1-15.1-6.4c-5-2.3-12.1-2.4-14.7,2.5c-1.2-5.7-7.1-9.4-12.7-9.8s-11.2,1.9-16.3,4.4
				c-15.2,7.5-29.2,17.7-41.2,30c-3.7,3.8-7.5,8.5-7.2,13.9c0.5,7.4,10.4,12,16.1,7.3c1,2.4,2,4.9,3.1,7.3c-6.4-1.4-12.6,7-9.5,13
				c9.5-0.2,19.1-2.2,27.9-5.8c0.4-5.4,5.2-10,10.4-10.2c0-2.4,0-4.9,0-7.3c1.3-1.2,3.2-1.8,4.9-1.5c0.2,10.3-4.2,21.4-13.1,25.9
				c-4.6,2.3-10,2.7-15.1,3.3c-8.1,1-16,2.9-23.7,5.7c-0.1,1.5-0.3,3-0.4,4.6c2.7,0.3,5.4,0.5,8.1,0.8c-2.1,2.6-1,6.7,1.6,8.8
				c2.5,2.2,5.9,2.9,9.2,3.5c11.3,2.2,22.5,4.4,33.8,6.6c-2.4-1.5-4.3-3.7-5.4-6.2c6.1,0.4,12.3,0.9,18.4,1.3
				c1.4-3.1,2.8-6.1,4.2-9.2c7.2-0.5,16.2,0,18.9,6.7c0.7,1.6,0.9,3.5,1.8,5c2.8,4.7,10.6,3.5,14.1,7.8c-0.2-2.6-0.4-5.1-0.5-7.7
				c3.2-0.8,5.2-4.7,4-7.8c11.8-1.6,24.3,2.3,33.2,10.2c2.3,2.1,4.5,4.4,7.3,5.8c2.8,1.4,6.5,1.5,8.7-0.8s1.2-6.9-1.9-7.2
				c2.9-1.3,5.8-2.5,8.7-3.8c-2.3-2.9-4.7-5.7-7-8.6c5.8-1.9,11.9-2.5,18-1.8c-0.6-3.6-7.1-3.8-7.3-7.4c-0.1-2.4,2.7-3.7,5.1-4.4
				c3.9-1,7.7-2.1,11.6-3.1c-3.3-6.1,2.2-14.8,9.1-14.4c5.6,5.2,13,8.5,20.6,9c-0.4-1.8,0-3.7,1.1-5.2c2.7,0.1,5.4,0.2,8.2,0.3
				c-4.4-8.1,3.1-19.8,12.3-19.1c2.2,0.2,4.4,0.9,6.6,0.7c1.8-0.1,3.4-0.9,5.2-1.3c9.4-2.2,17.9,5,25.8,10.6s19.7,9.4,26.1,2.2
				c11.8,4.3,20.3,16.2,20.6,28.8c0,1.3,0.1,2.8,1,3.6c0.7,0.6,1.6,0.7,2.5,0.8c5.8,0.4,13-1.2,14.4-6.8c1-4.2-1.9-8.2-4.7-11.5
				c-3.2-3.8-6.3-7.5-9.5-11.3c-3.8-4.5-8-9.2-13.8-10.2c-0.4-4.1-3.9-7.4-7.7-8.9s-8.1-1.6-12.2-2.1c-10.9-1.1-21.6-4.3-31.3-9.4
				c0.4-1.4,0.9-2.8,1.3-4.3c-7.5-0.7-15.1-0.4-22.6,1c-2.7,0.5-5.4,1.2-7.3,3.1c-1.9,1.9-2.5,5.4-0.6,7.3
				c-5.2,1.7-10.8,2.4-16.2,2.1c-2.4-4.8,3.1-11.2,8.2-9.6c0.4-1.6,0.1-3.3-0.7-4.7c4.4-1.8,8.8-3.6,13.2-5.4c2-0.8,4.1-1.7,6.3-1.4
				c2.5,0.2,4.6,1.8,7,2.4c3.4,0.9,7-0.3,10.4-0.8c9.4-1.4,19.3,2.1,25.7,9c-1-3.8-1.9-7.5-2.9-11.3c2.6-3,7.3-1.1,10.9,0.5
				c9,4,19.2,4.6,29.1,5.1c-1.2-3.2-2.5-6.5-3.7-9.7c2.3,2.7,6.3-1.5,6.3-5C1016.6,197.5,1015.7,193.1,1018.7,191.3z"/>
			<g>
				<g>
					<g>
						<path fill="#BB9152" d="M1031.3,469.7c5.8-5.1,4.5-15.5,10.2-20.7c1.8-1.7,4.1-2.6,6.4-3.4c7.2-2.7,14.4-5.5,21.6-8.2
							c1.9,4.5,4.2,9.4,7.1,13.4c2.7,0.4,5.6,1.4,9.4,3.4c1.1,0.5,2.4,1.1,3.4,0.6c1.4-0.7,1.4-2.6,2.2-3.9c1.8-2.8,6.2-1.3,8.7,0.9
							c2.5,2.2,5.4,5,8.6,4.2c0.3-5.6,2.3-11,5.7-15.4c2.6,0,5.3-0.1,7.9-0.2c2-6.1,10.8-6,16.7-7.6c2.1-0.5,4.4-1.2,5.7-2.9
							c2.9-3.7-0.5-9.2-4.6-11.4c-4.1-2.2-9.1-3.1-12.3-6.5c4.8-3.7,11.5-2.9,17.4-4.3c5.9-1.4,11.6-8.4,7.6-13
							c-1.4-1.6-3.6-2.2-5.6-2.8c-9.3-2.5-18.6-5-28-7.5c11-25.5-42.7-36.7-58.8-38.5c0.5-9.3-16.7-17.5-24.4-19.4
							c-11.8-2.9-19.8,2.6-23.7,13.8c-9.9-7.3-8.9,3.6-15.6,3.7c-3.8,0.1-9.2-7.9-11.1-10.2c-1.1-1.3-2.2-2.7-3.7-3.4
							c-3.8-1.8-6.9,1.9-10.3,1.2c-1.8-0.4-7.4-3.9-7.7-3.9c-4.7-0.1-2-1.3-7.4,1.6c-4.3,2.3-5.9,8.4-11.3,9.9
							c-6.2,1.8-13.7-2.5-20.8-0.2c-2.1,2.3-4.3,4.6-6.4,6.9c0.7-0.8,0.3-1.8-0.9-2.9c-4.4-4-18.9-9.3-20.5-9.3
							c-6.1-0.2-12.4,7.1-8.4,11.7c-6.6-0.2-13.2,0.5-19.7,2.1c-1.5,3.7,1.3,8,5,9.5c3.7,1.5,7.8,0.9,11.8,0.4
							c3.2,14.3,9.1,29.3,25.9,15.7c1.2,2.6,2.4,5.2,3.6,7.8c11.7-5,25.6,8.1,39.8,1.7c-4.7,2.1-8,6.9-8.3,12c3.2,0,6.4,0.1,9.6,0.1
							c-3.6,3-1.4,10.1,3.2,10.6c-3.4,4.3-1.1,11.1,3.3,14.4c4.4,3.3,10.1,4,15.6,4.6c-2.2,4.9,0.7,11.4,5.8,13.1c2,0.7,4.3,0.7,6,2
							c3.4,2.4,2.6,7.6,2.2,11.8c-1.5,16.1,10.5,32.3,26.3,35.5c-5.8,4.5-12.4,11.1-9.9,18c1.1,3,3.6,5,6.6,6.4
							c4.5-7.8,6.1-17.3,4.1-26.2c-0.4-1.8-0.9-3.7-0.6-5.5C1019.9,473.9,1027.2,473.3,1031.3,469.7z"/>
					</g>
					<g>
						<path fill="#BB9152" d="M1115,510.6c-0.2-0.6-0.4-1.3-0.8-1.8c-0.3-0.4-0.7-0.7-0.9-1.1c-0.3-0.6-0.3-1.3-0.3-2
							c-0.2-2-1.7-2.8-2.6-4.3c-1.9-1.4-3.9-2.8-5.8-4.2c0.7,5,2.1,10,4.3,14.5c1.1,2.4,2.5,4.8,3.7,7.2c2.6-0.1,5.2-0.2,7.9-0.3
							C1118,516.6,1116,513.8,1115,510.6z"/>
					</g>
				</g>
			</g>
			<path fill="#CB9951" d="M868.5,681.2c0.2-0.8-0.1-1.7,0.1-2.5c0.4-1.8,2.9-2.1,3.9-3.6c1.7-2.3-0.6-6.3,1.4-8.3
				c0.7-0.7,1.7-0.9,2.5-1.4c4.2-2.6,1.3-10,4.4-13.9c0.7-0.9,1.8-1.6,2.4-2.7c1.2-2.2-0.3-5.1,0.7-7.4c0.6-1.5,2.1-2.4,3-3.7
				c1.2-1.8,1.3-4.1,1.3-6.3c0-5.9-0.3-11.8-0.8-17.7c-0.8-0.6-2,0-2.5,0.9c-0.5,0.9-0.5,2-0.7,3c-0.5,2.2-2.1,4-3.7,5.6
				c-4.2,4.1-8.9,7.4-14.1,10c-1.4,0.7-2.9,1.4-4,2.6c-1.6,1.7-2,4.1-2.3,6.5c-0.6,4.6-0.9,9.2-0.8,13.8c1.4-0.4,2.4,1.8,1.8,3.2
				c-0.6,1.4-2,2.3-2.9,3.5c-1.4,1.9-1.7,4.4-1.6,6.8c0.2,6,2,12,5.1,17.1c1.5-1,3.1-2.1,4.6-3.1C867.3,683,868.3,682.3,868.5,681.2
				z"/>
			<path fill="#CB9951" d="M1139.8,567.3c0,2.7,0.1,5.5,0.1,8.2c0,0.9,0.3,2.4-0.1,3.2c-0.2,0.3-2.4,1.4-2.4,1.3
				c0,0.6,0.1,1.2,0.1,1.9c-1.5,0.4-3-1.7-3.9-2.7c-2.6-2.9-5.3-5.7-7.9-8.6c-4-4.4-8.1-8.9-10.4-14.4c-0.5-1.3-1-2.7-1.5-4
				c-0.6-1.4-1.3-2.7-2.1-4c-2-3.5-4-7.1-6.1-10.6c-0.5-0.8-1-1.6-1.8-2c-0.8-0.4-1.8-0.3-2.6-0.5c-1.8-0.5-2.9-2.5-3.7-4.2
				c-0.7-1.6-3.2-5.1-3.1-6.8c0.1-0.9,1.1-4.5,2.5-2.2c0.2,0.4,0.2,0.8,0.5,1.1c0.5,0.7,1.5,0.6,2.2,0.8c1.1,0.4,1.7,1.5,2.5,2.3
				c1.5,1.6,3.7,2.2,5.7,3.1c6.8,3.3,12.5,10.7,17.2,16.6c0.5,0.6,0.9,1.2,1.6,1.5c0.8,0.3,1.7,0.1,2.5,0.5c2.5,1.3-0.1,5.4,1.1,8
				c1.1-1,2.9,0.2,3.5,1.6c0.6,1.4,0.7,3.1,1.8,4.2c1.1,1.2,2.9,1.4,3.7,2.7C1139.8,565.1,1139.8,566.3,1139.8,567.3z"/>
			<path fill="#CB9951" d="M1149,591.2c-0.4,0.1-0.9,0.2-1.3,0.1c-1.1-0.2-1.8-1.4-2.9-1.5c-0.3,0-0.5,0-0.8-0.2
				c-0.6-0.4-0.3-1.6-0.9-2c-0.3-0.3-0.8-0.2-1.2-0.3c-0.9-0.3-1.1-1.6-2-2.1c-0.3-0.2-0.7-0.3-1-0.5c-0.3-0.2-0.5-0.7-0.3-1
				c0.1-0.2,0.4-0.2,0.6-0.2c0.9-0.1,1.8-0.2,2.7-0.3c-0.2-0.4,0-0.9,0.3-1.1c0.3-0.3,0.8-0.3,1.2-0.4c1.7-0.2,3.3-0.5,5-0.7
				c0,0.8,0.6,1.5,1.3,1.7c0.4,0.1,0.9,0.1,1.3,0.3s0.6,0.8,0.3,1.1c2.4,0.5,4.8,0.7,7.3,0.5c0-0.4,0.1-0.7,0.3-1c1,0,1.9,0,2.9-0.1
				c1,0,2,0,2.8,0.4c0.9,0.5,1.5,1.4,2.5,1.5c0.9,0.1,2-0.4,2.5,0.3c0.2,0.3,0.2,0.6,0.3,0.9c0.2,1,1,2,1.9,2.3
				c0.5,0.2,1,0.3,1.5,0.5s0.8,0.8,0.6,1.3c-0.6,0-1.1,0-1.7,0c0,0.6-0.7,0.8-1.3,0.9c-1.4,0.1-2.8,0.2-4.2,0.2
				c-2.7,0.2-5.4,0.3-8-0.1c-0.8-0.1-1.6-0.3-2.4-0.4C1153.7,591.1,1151.3,590.8,1149,591.2z"/>
			<path fill="#CB9951" d="M1192.1,594.9c-0.9-0.5-1.6-1.4-2.6-1.8c-0.6-0.3-1.3-0.3-2-0.4c-2.9-0.3-5.8-0.5-8.7-0.8
				c-0.1,1.5,0.9,3,2.3,3.5c0.5,0.2,1,0.2,1.5,0.3c0.6,0.2,1.1,0.4,1.7,0.7c2.9,1.4,6.2,2,9.4,1.8c2.5-0.2,4.8-0.8,7.3-1.2
				c6.3-1,12.8-0.3,19.1,0.4c0.7,2-2.8,3.9-2,5.8c0.6,1.4,2.6,1.1,3.9,0.5c1.1-0.5,2.3-1,3.1-1.9c0.7-0.8,1-1.9,1.6-2.7
				c0.9-1.1,2.3-1.7,3.4-2.6s2.1-2.4,1.6-3.7c-1.3-0.8-2.9-0.5-4.3,0.1c-1.4,0.6-2.6,1.5-4.1,1.8c-1.7,0.4-3.5-0.1-5.2-0.4
				c-6-1.2-12.3-1-18.3,0.5C1197.2,595.5,1194.4,596.3,1192.1,594.9z"/>
			<path fill="#CB9951" d="M1192.1,555.3c0.9-1.2,2.5-1.7,3.2-3c1.2-2.3-1-5.3,0.3-7.5c0.3-0.5,0.7-0.8,1-1.2
				c1.6-2.2,0.4-5.2-0.7-7.6c-1.2-2.4-2.3-5.4-0.8-7.6c0.8-1.2,2.2-1.7,3.3-2.7c1.1-0.9,1.8-2.6,1-3.8c-1-1.2-2.9-0.6-4.3-1.3
				c-0.8-0.4-1.4-1.3-2-2c-1.5-1.7-4-2.6-6.2-1.9c-2.3,0.7-3.8,3-4.6,5.3c-0.2,0.6-0.4,1.2-0.8,1.6c-0.3,0.3-0.8,0.4-1.2,0.5
				c-2.5,0.6-4.8,2.2-6.3,4.3c-1,1.4-1.7,3.1-2.9,4.3c-0.6,0.6-1.3,1.1-2.1,1.6c-1.1,0.7-2.2,1.4-3.3,2.2c-2.1,1.4-4.4,2.8-6.9,3.1
				c-1.9,0.2-3.8-0.3-5.6,0.4c-0.2,0.1-0.4,0.2-0.6,0.3c-0.2,0.2-0.3,0.5-0.3,0.8c-0.5,3.9,2.1,7.3,4,10.8c1.8,3.4,2.9,7.1,4.2,10.8
				c0.2,0.6,0.5,1.2,1,1.3c0.3,0.1,0.6,0,0.9,0c1.5,0,2.4,1.7,3.8,2.3c1.7,0.7,3.6-0.5,5.4-0.9c4.8-1.1,9.4,3.8,14.2,2.8
				c0.4-0.1,0.8-0.2,1-0.5c0.2-0.3,0.3-0.6,0.4-0.9c0.3-1.9-0.6-4.2,0.6-5.7c0.6-0.8,1.7-1.2,2.5-2
				C1191.1,557.8,1191.3,556.3,1192.1,555.3z"/>
			<path fill="#CB9951" d="M1224.2,539.4c-0.3,0.3-0.4,0.8-0.4,1.5c0,1.4-1.3,2.6-2.6,2.8c-1.4,0.3-2.7-0.1-4.1-0.3
				c-3.1-0.5-6.4-0.4-9.5,0.3c-0.6,0.1-1.3,0.3-1.7,0.8c-0.7,0.8-0.8,2.1-1.5,2.8c-0.7,0.7-1.8,0.8-2.6,1.5c-2.1,1.8,0.1,5.6-1.1,8
				c-0.5,1-1.6,1.9-1.4,3c0.1,0.5,0.4,0.9,0.6,1.3c0.5,1.2,0.1,2.6-0.1,3.9c-0.3,2.9,0.9,5.8,0.9,8.8c0,1.4-0.3,2.9,0.2,4.3
				s2.3,2.3,3.3,1.3c1.3-1.3-0.4-3.9,0.7-5.4c0.2-0.3,0.5-0.5,0.7-0.7c0.7-1.1-0.2-2.5-0.4-3.7c-0.3-2.2,1.9-4.3,4-3.8
				c-0.6,2.1,0.4,4.3,1.5,6.2c0.6,1.1,1.6,2.2,2.8,2.2c1.2,0,2.1-1.2,2.2-2.5c0.1-1.2-0.4-2.4-0.9-3.5c-0.6-1.3-1.4-2.5-1.7-3.8
				c-0.3-1.4-0.2-3,0.7-4c0.9-1.1,2.5-1.4,3.6-2.3c1-0.8,1.6-2.1,1.2-3.4s-1.8-2-2.9-1.5c-0.6,0.3-0.9,0.9-1.4,1.3
				c-0.6,0.4-1.2,0.6-1.9,0.8c-1.6,0.4-3.2,0.8-4.8,1.3c-0.3,0.1-0.7,0.2-1,0c-0.6-0.3-0.7-1.1-0.6-1.7c0.3-2.2,1.4-4.3,2.5-6.3
				c0.1-0.3,0.3-0.6,0.5-0.8c1-1.1,2.8-0.4,4.2,0.1c2.5,0.7,5.1,0.3,7.7-0.2c1.5-0.3,3-0.6,4.1-1.7c1.1-1.1,2.2-4.4,1.4-5.9
				C1225.4,539,1224.7,538.9,1224.2,539.4z"/>
			<path fill="#CB9951" d="M1154.4,726.6c6.7-7.7,5.3-19.3,4.7-29.6c-0.5-8.7-0.1-17.5,1.1-26.1c0.4-2.7,1-5.6,3.1-7.2
				c1.2-0.9,2.6-1.3,4-1.7c11.1-3,21.9-7.4,31.9-13.2c4.5-2.6,9-5.6,12.1-9.8c1-1.4,1.9-3,3.2-4.2c2-1.9,4.7-2.8,6.5-4.8
				c2.6-2.9,3.6-8.2,7.4-8.3c1,0,2,0.4,3,0.7c6.1,1.8,12.3-2.1,17.5-5.8c0.9-0.7,1.9-1.4,2.4-2.4c0.6-1.2,0.5-2.5,1-3.7
				c0.8-2.2,3.5-3.4,5.6-2.6c-0.8,1.2,0.2,3,1.5,3.5c1.3,0.6,2.8,0.3,4.2,0c4.8-1,9.7-2,14.5-3c1.2,1.6-0.5,3.7-1.7,5.3
				c-2.4,3.4-4.5,9.7-4.3,13.9c0.2,4.7,5.7,6.7,9.2,9.6c3.2,2.8,7.3,5.3,11.4,4.2c-1-2.1-2.1-4.3-1.7-6.6c0.3-1.9,1.6-3.5,2.4-5.3
				c0.8-1.9,1.1-4,1.4-6c0.7-5,1.3-10.1,2-15.1c0.2-1.4,1.4-3.2,2.4-2.2c0.2,0.2,0.3,0.5,0.4,0.8c3.4,11.7,6.8,23.4,10.2,35.1
				c0.7,2.2,1.3,4.5,2.4,6.5c1,1.8,2.4,3.5,3.6,5.2c1.1,1.5,2.1,3.1,3.2,4.8c4.4,7,8.9,14,13.3,21c3.1,4.8,6.3,10.8,4,16.1
				c-1.1,2.6-3.3,4.5-4.5,7c-1.5,3-1.5,6.7-2.6,9.9c-1.9,5.4-6.9,9-11.9,11.5s-10.4,4.5-14.7,8.2c-3.5,3-6,7-9.3,10.1
				c-9.2,8.7-22.7,9.7-35.1,10.2c-0.8,0-1.6,0-2.2-0.5c-0.5-0.5-0.6-1.2-0.7-1.9c-0.4-5.1,1.5-11.3-2.2-14.7
				c-0.8-0.7-1.8-1.2-2.8-1.8c-6.4-3.8-10.5-11.3-17.4-13.9c-9.6-3.6-19.6,3.6-29.6,5.3c-5,0.9-10.3,0.4-15.2,2
				c-1.6,0.5-3.2,1.3-4.8,1.9c-2,0.7-4,1.1-6.1,1.4c-5.7,1-11.4,2.1-17.1,3.1c-1.6,0.3-3.2,0.6-4.8,0.1s-2.9-2-2.8-3.6
				C1152.5,728.6,1153.6,727.6,1154.4,726.6z"/>
			<g>
				<polygon fill="#BB9152" points="1274.6,696.6 1268.2,710.1 1256.3,710.9 1273.4,727.3 1301.1,721.3 1288.4,701.1 1324.7,684.3 
									"/>
				<path fill="#BB9152" d="M1211.4,706.7l-22,19.9c4.5-1.1,9.2-0.8,13.8-1.6c10.1-1.7,20-8.9,29.6-5.3c2.3,0.9,4.3,2.3,6.2,3.9
					l12.4-12.4l4.9-0.3l-7.9-7.5L1211.4,706.7z"/>
			</g>
			<path fill="#C08F4C" d="M1263,693l42-36l-52,14l-43.5-29.8c-2.9,3.1-6.5,5.5-10.2,7.6c-10,5.8-20.8,10.3-31.9,13.2
				c-1.4,0.4-2.9,0.8-4,1.7c-2.1,1.6-2.7,4.5-3.1,7.2c-1.3,8.6-1.6,17.4-1.1,26.1c0.1,2,0.3,4,0.4,6l31.5-18L1263,693z"/>
		</g>
		<g>
			<g>
				<g>
					<g>
						<rect x="109.9" y="78.3" fill="#8E6439" width="1.4" height="823.4"/>
					</g>
				</g>
			</g>
			<g>
				<g>
					<g>
						<rect x="227.8" y="78.3" fill="#8E6439" width="1.4" height="823.4"/>
					</g>
				</g>
			</g>
			<g>
				<g>
					<g>
						<rect x="345.7" y="78.3" fill="#8E6439" width="1.4" height="823.4"/>
					</g>
				</g>
			</g>
			<g>
				<g>
					<g>
						<rect x="463.5" y="78.3" fill="#8E6439" width="1.4" height="823.4"/>
					</g>
				</g>
			</g>
			<g>
				<g>
					<g>
						<rect x="581.4" y="78.3" fill="#8E6439" width="1.4" height="823.4"/>
					</g>
				</g>
			</g>
			<path fill="#8E6439" d="M699.3,888.8c0.5,0.5,1,1.1,1.4,1.8V78.3h-1.4V888.8z"/>
			<g>
				<g>
					<g>
						<rect x="817.2" y="78.3" fill="#8E6439" width="1.4" height="823.4"/>
					</g>
				</g>
			</g>
			<g>
				<g>
					<g>
						<rect x="935.1" y="78.3" fill="#8E6439" width="1.4" height="823.4"/>
					</g>
				</g>
			</g>
			<g>
				<g>
					<g>
						<rect x="1053" y="78.3" fill="#8E6439" width="1.4" height="823.4"/>
					</g>
				</g>
			</g>
			<path fill="#8E6439" d="M1170.9,97.5v804.2h1.4V97.4C1171.8,97.4,1171.3,97.4,1170.9,97.5z"/>
			<g>
				<g>
					<g>
						<rect x="1288.8" y="78.3" fill="#8E6439" width="1.4" height="823.4"/>
					</g>
				</g>
			</g>
		</g>
		<g>
			<g>
				<path fill="#8E6439" d="M353.6,77.2h-61.9c-0.4,0.5-0.7,0.9-1.1,1.4h66.6C356,78.1,354.8,77.6,353.6,77.2z"/>
				<path fill="#8E6439" d="M255.5,77.2h-83.3c-0.8,0.4-1.7,0.9-2.5,1.4h88.6C257.4,78.1,256.5,77.6,255.5,77.2z"/>
				<path fill="#8E6439" d="M128.5,77.2H70.7c-3.9,1.4-6.3,1.6-10.6,0H44.5v1.4h84.2C128.6,78.1,128.5,77.7,128.5,77.2z"/>
				<path fill="#8E6439" d="M1111.3,77.2H978.6c-0.4,0.4-0.8,0.9-1.1,1.4h136.7C1113.3,78.1,1112.3,77.6,1111.3,77.2z"/>
				<path fill="#8E6439" d="M967.1,77.2H763.7c-0.9,0.5-1.7,0.9-2.5,1.4h207.5C968.1,78.1,967.6,77.6,967.1,77.2z"/>
				<path fill="#8E6439" d="M524.8,77.2H376.1c-0.9,0.4-1.8,0.9-2.7,1.4H526C525.7,78.1,525.3,77.6,524.8,77.2z"/>
				<path fill="#8E6439" d="M1317.3,77.2h-68.1c-0.6,0.5-1.2,0.9-1.9,1.4h72.6C1319,78.2,1318.1,77.8,1317.3,77.2z"/>
				<path fill="#8E6439" d="M733.3,77.2H534.6c-0.2,0.3-0.5,0.8-0.8,1.4h200.6C734.1,78.1,733.7,77.6,733.3,77.2z"/>
			</g>
			<rect x="44.5" y="194.9" fill="#8E6439" width="1311" height="1.4"/>
			<path fill="#8E6439" d="M1355.5,312.7H53.2c0,0.1,0,0.2,0.1,0.2c0.1,0.4,0.2,0.7,0.3,1.1h1301.9V312.7z"/>
			<rect x="44.5" y="430.4" fill="#8E6439" width="1311" height="1.4"/>
			<rect x="44.5" y="548.2" fill="#8E6439" width="1311" height="1.4"/>
			<rect x="44.5" y="665.9" fill="#8E6439" width="1311" height="1.4"/>
			<rect x="44.5" y="783.7" fill="#8E6439" width="1311" height="1.4"/>
			<g>
				<path fill="#8E6439" d="M654.6,901.4h-228c0.2,0.5,0.4,1,0.6,1.4h221.8C650.9,902.3,652.8,901.9,654.6,901.4z"/>
				<path fill="#8E6439" d="M411.7,902.6c0.6-0.4,1.1-0.9,1.8-1.2H206.9c1.3,0.4,2.7,0.9,4.1,1.4h200.4
					C411.5,902.7,411.6,902.7,411.7,902.6z"/>
				<path fill="#8E6439" d="M144.5,901.4H78.8c0.9,0.4,1.8,0.9,2.7,1.4h59.1C141.9,902.4,143.2,901.9,144.5,901.4z"/>
				<path fill="#8E6439" d="M993.8,902.4c2.6-1,5.4-0.7,8.2-0.4c0-0.2,0.1-0.4,0.1-0.6H775.4c0.5,0.4,1,0.9,1.5,1.4h216.1
					C993.3,902.7,993.6,902.5,993.8,902.4z"/>
				<path fill="#8E6439" d="M1297.7,901.4h-279.8c-0.1,0.5-0.1,0.9,0,1.4h272.4C1292.8,902.4,1295.3,902,1297.7,901.4z"/>
			</g>
		</g>
		<g>
			<path fill="#F8E7D2" d="M351.2,906.2L51.4,606.4c-0.3,0.3-0.6,0.7-0.9,1.1l298.7,298.7C349.9,906.2,350.5,906.2,351.2,906.2z"/>
			<g>
				<path fill="#F8E7D2" d="M753.8,139.6L51.4,842c0,0.6,0,1.3,0,1.9l702.3-702.3C753.7,141,753.8,140.3,753.8,139.6z"/>
				<path fill="#F8E7D2" d="M821.6,73.8c-0.6,0-1.3,0-1.9,0L757.4,136c0.1,0.6,0.2,1.2,0.2,1.8L821.6,73.8z"/>
			</g>
		</g>
		<g>
			<g>
				<g>
					<g>
						<path fill="#8E6439" d="M78.5,723.5c0-50.5,41.1-91.5,91.5-91.5s91.5,41.1,91.5,91.5S220.4,815,170,815S78.5,773.9,78.5,723.5
							z M80.5,723.5c0,49.4,40.2,89.5,89.5,89.5s89.5-40.2,89.5-89.5S219.3,634,170,634S80.5,674.1,80.5,723.5z"/>
					</g>
				</g>
				<g>
					<g>
						<path fill="#8E6439" d="M84.7,723.5c0-47,38.3-85.3,85.3-85.3c47,0,85.3,38.3,85.3,85.3c0,47-38.3,85.3-85.3,85.3
							C123,808.8,84.7,770.5,84.7,723.5z M86.7,723.5c0,45.9,37.4,83.3,83.3,83.3s83.3-37.4,83.3-83.3s-37.4-83.3-83.3-83.3
							S86.7,677.6,86.7,723.5z"/>
					</g>
				</g>
			</g>
			<g>
				<g>
					<g>
						<g>
							<polygon fill="#A07A55" points="113.4,666.9 170,723.5 181.8,711.7 							"/>
						</g>
						<g>
							<g>
								<path fill="#8E6439" d="M169.3,724.2l-56.6-56.6c-0.4-0.4-0.4-0.9-0.1-1.3c0.3-0.4,0.9-0.5,1.3-0.2l68.4,44.8
									c0.3,0.2,0.4,0.4,0.4,0.7c0,0.3-0.1,0.6-0.3,0.8l-11.8,11.8c-0.2,0.2-0.5,0.3-0.7,0.3S169.5,724.4,169.3,724.2z M121,673
									l49,49l10.2-10.2L121,673z"/>
							</g>
						</g>
					</g>
					<g>
						<g>
							<polygon fill="#F6DEBC" points="113.4,666.9 170,723.5 158.2,735.3 							"/>
						</g>
						<g>
							<g>
								<path fill="#8E6439" d="M158.1,736.3c-0.3,0-0.6-0.2-0.7-0.4l-44.8-68.4c-0.3-0.4-0.2-1,0.2-1.3c0.4-0.3,1-0.3,1.3,0.1
									l56.6,56.6c0.4,0.4,0.4,1,0,1.4L158.9,736c-0.2,0.2-0.4,0.3-0.7,0.3C158.2,736.3,158.1,736.3,158.1,736.3z M119.5,674.5
									l38.8,59.3l10.2-10.2L119.5,674.5z"/>
							</g>
						</g>
					</g>
					<g>
						<g>
							<polygon fill="#F6DEBC" points="226.6,780.1 170,723.5 181.8,711.7 							"/>
						</g>
						<g>
							<g>
								<path fill="#8E6439" d="M225.9,780.8l-56.6-56.6c-0.2-0.2-0.3-0.4-0.3-0.7s0.1-0.5,0.3-0.7l11.8-11.8
									c0.2-0.2,0.5-0.3,0.8-0.3c0.3,0,0.6,0.2,0.7,0.4l44.8,68.4c0.3,0.4,0.2,1-0.2,1.3c-0.2,0.1-0.4,0.2-0.6,0.2
									C226.3,781.1,226.1,781,225.9,780.8z M171.4,723.5l49,49l-38.8-59.3L171.4,723.5z"/>
							</g>
						</g>
					</g>
					<g>
						<g>
							<polygon fill="#A07A55" points="226.6,780.1 170,723.5 158.2,735.3 							"/>
						</g>
						<g>
							<g>
								<path fill="#8E6439" d="M226,780.9l-68.4-44.8c-0.3-0.2-0.4-0.4-0.4-0.7c0-0.3,0.1-0.6,0.3-0.8l11.8-11.8
									c0.4-0.4,1-0.4,1.4,0l56.6,56.6c0.4,0.4,0.4,0.9,0.1,1.3c-0.2,0.2-0.5,0.4-0.8,0.4C226.4,781.1,226.2,781,226,780.9z
									 M159.8,735.1l59.3,38.8l-49-49L159.8,735.1z"/>
							</g>
						</g>
					</g>
					<g>
						<g>
							<polygon fill="#A07A55" points="113.4,780.1 170,723.5 158.2,711.7 							"/>
						</g>
						<g>
							<g>
								<path fill="#8E6439" d="M113.4,781.1c-0.6,0-1-0.4-1-1c0-0.3,0.1-0.5,0.3-0.7l44.7-68.3c0.2-0.3,0.4-0.4,0.7-0.4
									c0.3,0,0.6,0.1,0.8,0.3l11.8,11.8c0.4,0.4,0.4,1,0,1.4l-56.6,56.6C113.9,781,113.7,781.1,113.4,781.1
									C113.4,781.1,113.4,781.1,113.4,781.1z M158.4,713.3l-38.8,59.3l49-49L158.4,713.3z"/>
							</g>
						</g>
					</g>
					<g>
						<g>
							<polygon fill="#F6DEBC" points="113.4,780.1 170,723.5 181.8,735.3 							"/>
						</g>
						<g>
							<g>
								<path fill="#8E6439" d="M112.6,780.7c-0.3-0.4-0.3-1,0.1-1.3l56.6-56.6c0.4-0.4,1-0.4,1.4,0l11.8,11.8
									c0.2,0.2,0.3,0.5,0.3,0.8c0,0.3-0.2,0.6-0.4,0.7L114,780.9c-0.2,0.1-0.4,0.2-0.5,0.2C113.1,781.1,112.8,780.9,112.6,780.7z
									 M170,724.9l-49,49l59.3-38.8L170,724.9z"/>
							</g>
						</g>
					</g>
					<g>
						<g>
							<polygon fill="#F6DEBC" points="226.6,666.9 170,723.5 158.2,711.7 							"/>
						</g>
						<g>
							<g>
								<path fill="#8E6439" d="M169.3,724.2l-11.8-11.8c-0.2-0.2-0.3-0.5-0.3-0.8c0-0.3,0.2-0.6,0.4-0.7l68.4-44.8
									c0.4-0.3,1-0.2,1.3,0.2c0.3,0.4,0.3,1-0.1,1.3l-56.6,56.6c-0.2,0.2-0.5,0.3-0.7,0.3S169.5,724.4,169.3,724.2z M159.8,711.8
									l10.2,10.2l49-49L159.8,711.8z"/>
							</g>
						</g>
					</g>
					<g>
						<g>
							<polygon fill="#A07A55" points="226.6,666.9 170,723.5 181.8,735.3 							"/>
						</g>
						<g>
							<g>
								<path fill="#8E6439" d="M181.1,736l-11.8-11.8c-0.2-0.2-0.3-0.4-0.3-0.7s0.1-0.5,0.3-0.7l56.6-56.6c0.4-0.4,0.9-0.4,1.3-0.1
									c0.4,0.3,0.5,0.9,0.2,1.3l-44.8,68.4c-0.2,0.3-0.4,0.4-0.7,0.4c0,0-0.1,0-0.1,0C181.5,736.3,181.3,736.2,181.1,736z
									 M171.4,723.5l10.2,10.2l38.8-59.3L171.4,723.5z"/>
							</g>
						</g>
					</g>
					<g>
						<g>
							<polygon fill="#A07A55" points="170,620 170,723.5 191.6,723.5 							"/>
						</g>
						<g>
							<g>
								<path fill="#8E6439" d="M169,723.5V620c0-0.5,0.4-0.9,0.9-1c0.5-0.1,1,0.3,1.1,0.8l21.6,103.5c0.1,0.3,0,0.6-0.2,0.8
									c-0.2,0.2-0.5,0.4-0.8,0.4H170C169.4,724.5,169,724,169,723.5z M171,629.7v92.8h19.4L171,629.7z"/>
							</g>
						</g>
					</g>
					<g>
						<g>
							<polygon fill="#F6DEBC" points="170,620 170,723.5 148.4,723.5 							"/>
						</g>
						<g>
							<g>
								<path fill="#8E6439" d="M147.6,724.1c-0.2-0.2-0.3-0.5-0.2-0.8L169,619.8c0.1-0.5,0.6-0.9,1.1-0.8c0.5,0.1,0.9,0.5,0.9,1
									v103.5c0,0.6-0.4,1-1,1h-21.6C148.1,724.5,147.8,724.3,147.6,724.1z M169,629.7l-19.4,92.8H169V629.7z"/>
							</g>
						</g>
					</g>
					<g>
						<g>
							<polygon fill="#F6DEBC" points="170,827 170,723.5 191.6,723.5 							"/>
						</g>
						<g>
							<g>
								<path fill="#8E6439" d="M169.9,828c-0.5-0.1-0.9-0.5-0.9-1V723.5c0-0.6,0.4-1,1-1h21.6c0.3,0,0.6,0.1,0.8,0.4
									c0.2,0.2,0.3,0.5,0.2,0.8L171,827.2c-0.1,0.5-0.5,0.8-1,0.8C170,828,169.9,828,169.9,828z M171,724.5v92.8l19.4-92.8H171z"
									/>
							</g>
						</g>
					</g>
					<g>
						<g>
							<polygon fill="#A07A55" points="170,827 170,723.5 148.4,723.5 							"/>
						</g>
						<g>
							<g>
								<path fill="#8E6439" d="M169,827.2l-21.6-103.5c-0.1-0.3,0-0.6,0.2-0.8c0.2-0.2,0.5-0.4,0.8-0.4H170c0.6,0,1,0.4,1,1V827
									c0,0.5-0.4,0.9-0.9,1c0,0-0.1,0-0.1,0C169.5,828,169.1,827.7,169,827.2z M149.6,724.5l19.4,92.8v-92.8H149.6z"/>
							</g>
						</g>
					</g>
					<g>
						<g>
							<polygon fill="#A07A55" points="66.5,723.5 170,723.5 170,701.9 							"/>
						</g>
						<g>
							<g>
								<path fill="#8E6439" d="M65.5,723.5c0-0.5,0.4-0.9,0.9-1l103.4-21.6c0.3-0.1,0.6,0,0.8,0.2c0.2,0.2,0.4,0.5,0.4,0.8v21.6
									c0,0.6-0.4,1-1,1H66.5c0,0,0,0,0,0C65.9,724.5,65.5,724,65.5,723.5z M169,703.1l-92.8,19.4H169V703.1z"/>
							</g>
						</g>
					</g>
					<g>
						<g>
							<polygon fill="#F6DEBC" points="66.5,723.5 170,723.5 170,745.1 							"/>
						</g>
						<g>
							<g>
								<path fill="#8E6439" d="M169.8,746.1L66.3,724.5c-0.5-0.1-0.8-0.6-0.8-1.1s0.5-0.9,1-0.9H170c0.6,0,1,0.4,1,1v21.6
									c0,0.3-0.1,0.6-0.4,0.8c-0.2,0.1-0.4,0.2-0.6,0.2C169.9,746.1,169.9,746.1,169.8,746.1z M76.2,724.5l92.8,19.4v-19.4H76.2z"
									/>
							</g>
						</g>
					</g>
					<g>
						<g>
							<polygon fill="#F6DEBC" points="273.5,723.5 170,723.5 170,701.9 							"/>
						</g>
						<g>
							<g>
								<path fill="#8E6439" d="M169,723.5v-21.6c0-0.3,0.1-0.6,0.4-0.8c0.2-0.2,0.5-0.3,0.8-0.2l103.5,21.6
									c0.5,0.1,0.8,0.6,0.8,1.1s-0.5,0.9-1,0.9H170C169.4,724.5,169,724,169,723.5z M171,703.1v19.4h92.8L171,703.1z"/>
							</g>
						</g>
					</g>
					<g>
						<g>
							<polygon fill="#A07A55" points="273.5,723.5 170,723.5 170,745.1 							"/>
						</g>
						<g>
							<g>
								<path fill="#8E6439" d="M169.4,745.9c-0.2-0.2-0.4-0.5-0.4-0.8v-21.6c0-0.6,0.4-1,1-1h103.5c0.5,0,0.9,0.4,1,0.9
									s-0.3,1-0.8,1.1l-103.5,21.6c-0.1,0-0.1,0-0.2,0C169.8,746.1,169.5,746,169.4,745.9z M171,724.5v19.4l92.8-19.4H171z"/>
							</g>
						</g>
					</g>
				</g>
				<g>
					<circle fill="#A07A55" cx="170" cy="723.5" r="28.7"/>
					<path fill="#8E6439" d="M140.3,723.5c0-16.4,13.3-29.7,29.7-29.7c16.4,0,29.7,13.3,29.7,29.7c0,16.4-13.3,29.7-29.7,29.7
						C153.6,753.2,140.3,739.8,140.3,723.5z M142.3,723.5c0,15.3,12.4,27.7,27.7,27.7s27.7-12.4,27.7-27.7s-12.4-27.7-27.7-27.7
						S142.3,708.2,142.3,723.5z"/>
				</g>
				<g>
					<g>
						<circle fill="#F6DEBC" cx="170" cy="723.5" r="24.2"/>
					</g>
					<g>
						<g>
							<path fill="#8E6439" d="M144.8,723.5c0-13.9,11.3-25.2,25.2-25.2s25.2,11.3,25.2,25.2s-11.3,25.2-25.2,25.2
								S144.8,737.4,144.8,723.5z M146.8,723.5c0,12.8,10.4,23.2,23.2,23.2c12.8,0,23.2-10.4,23.2-23.2c0-12.8-10.4-23.2-23.2-23.2
								C157.2,700.3,146.8,710.7,146.8,723.5z"/>
						</g>
					</g>
				</g>
			</g>
		</g>
	</g>
</g>
</svg>
