<?xml version="1.0" encoding="utf-8"?>
<svg id="master-artboard" viewBox="0 0 1400 870.8766479492188" version="1.1" xmlns="http://www.w3.org/2000/svg" x="0px" y="0px" style="enable-background:new 0 0 1400 980;" width="1400px" height="870.8766479492188px" xmlns:xlink="http://www.w3.org/1999/xlink"><rect id="ee-background" x="0" y="0" width="1400" height="980" style="fill: white; fill-opacity: 0; pointer-events: none;"/>

<g transform="matrix(1, 0, 0, 1, -2.842170943040401e-14, -109.12332916259766)">
		<defs>
			<path d="M 0 0 H 1400 V 980 H 0 V 0 Z" id="SVGID_1_"/>
		</defs>
		<clipPath id="SVGID_2_">
			<use style="overflow:visible;" xlink:href="#SVGID_1_"/>
		</clipPath>
		<path d="M 0 0 H 1400 V 980 H 0 V 0 Z" class="st0" style="clip-path: url('#SVGID_2_'); fill: rgb(253, 218, 115);"/>
		
			<linearGradient id="SVGID_3_" gradientUnits="userSpaceOnUse" x1="-6899.9961" y1="-9343.543" x2="-6899.9961" y2="-10129.1826" gradientTransform="matrix(-1 0 0 0.7066 -6199.9961 7157.2803)">
			<stop offset="0" style="stop-color:#FFFFFF;stop-opacity:0"/>
			<stop offset="1" style="stop-color:#D4A600"/>
		</linearGradient>
		<path d="M 0 0 H 1400 V 555.099976 H 0 V 0 Z" class="st1" style="opacity: 0.4; clip-path: url('#SVGID_2_'); fill: url('#SVGID_3_');"/>
		<path class="st2" d="M-42.5,363l76-26.5l26,13.3L160.6,323l94.8,58l174-44.5l76-27.5l30-62l30,13l58,39l71,15l115-41l64,41&#10;&#9;&#9;&#9;l66,22.5l64,30.5l82-30.5c0,0,69.7-45.5,73.8-43.5s90.2,21,90.2,21l72-37l121.1,70v230.9H-42.5V363z" style="opacity: 0.4; clip-path: url('#SVGID_2_'); fill: rgb(234, 195, 101);"/>
		<path class="st3" d="M494,502c4-1,42-37,42-37l-10-10l16-10l-14-6l21-13l-6-9c0,0,13-22,15-18s15,23,15,23l-9,2l9,7l-9,4l21,25&#10;&#9;&#9;&#9;l17-21l-13-7l36-13l-18-10l18-16l-6-7l14-16l17,20l-10,2l25,24l-13,3l43,39l42-43l-12-7l22-18l-17-6l17-9l-12-5l27-20h-12l12-46&#10;&#9;&#9;&#9;l29,34c0,0-13,1-13,4s38,38,38,38l-19-3l32,26h-26l33,25l43-13c0,0-19-7-16-7s24-18,24-18l-16-2l26-30l-13-4l27-33l14-33l31,43&#10;&#9;&#9;&#9;l-15,1l17.5,16.2l8.5,7.8l13,23l-16-2l23,18l52,13l51-50l-16-10l26-15l-15-5l31-29h-11l31-39l28,42l-18-2l26,27l-12.2,2l29.2,30&#10;&#9;&#9;&#9;l-23-1l46,30l-17,2l24,20l20-23l-18-1l18-21h-11l19-21l-14-5l28-26l-13-4l30-37l31,36l-17-2l28,37l-16-5l16,28l-14-3l24,30l-16-4&#10;&#9;&#9;&#9;l39,27l47,22l-5,133.9H413.5L494,502z" style="clip-path: url('#SVGID_2_'); fill: rgb(234, 195, 101);"/>
		
		
		
		
		
		
		
		
		
		
		
	<path d="M 1202 483.3999938964844 L 1236.199951171875 452.70001220703125 L 1250.4000244140625 488.3999938964844 L 1270.300048828125 470.5 L 1270.300048828125 483.3999938964844 L 1313.0999755859375 519.2999877929688 L 1330.199951171875 483.3999938964844 L 1358.699951171875 494.1000061035156 L 1372.9000244140625 447.29998779296875 L 1400 483.29998779296875 L 1400 577.9000244140625 L 1273.199951171875 577.9000244140625 Z" class="st4" style="clip-path: url('#SVGID_2_'); fill: rgb(154, 160, 127);"/><path d="M 1261 511.6000061035156 L 1285 490 L 1295 515.0999755859375 L 1309 502.5 L 1309 511.6000061035156 L 1339 536.7999877929688 L 1351 511.6000061035156 L 1371 519.0999755859375 L 1381 486.29998779296875 L 1400 511.5 L 1400 577.9000244140625 L 1311 577.9000244140625 Z" class="st5" style="clip-path: url('#SVGID_2_'); fill: rgb(184, 188, 159);"/><path class="st3" d="M609.4,524.4c-2.7-0.7-28.2-24.9-28.2-24.9l6.7-6.7l-10.8-6.7l9.4-4l-14.1-8.7l4-6.1c0,0-8.7-14.8-10.1-12.1&#10;&#9;&#9;&#9;c-1.3,2.7-10.1,15.5-10.1,15.5l6.1,1.3l-6.1,4.7l6.1,2.7l-14.1,16.8l-11.4-14.1l8.7-4.7l-24.2-8.7l12.1-6.7l-12.1-10.8l4-4.7&#10;&#9;&#9;&#9;l-9.4-10.8l-11.4,13.5l6.7,1.3l-16.8,16.1l8.7,2l-28.9,26.2l-28.2-28.9l8.1-4.7l-14.8-12.1l11.4-4l-11.4-6.1l8.1-3.4l-18.2-13.5&#10;&#9;&#9;&#9;h8.1l-8.1-30.9l-19.5,22.9c0,0,8.7,0.7,8.7,2.7c0,2-25.6,25.6-25.6,25.6l12.8-2L384,457.9h17.5l-22.2,16.8l-28.9-8.7&#10;&#9;&#9;&#9;c0,0,12.8-4.7,10.8-4.7c-2,0-16.1-12.1-16.1-12.1l10.8-1.3l-17.5-20.2l8.7-2.7l-18.2-22.2l-9.4-22.2l-20.8,28.9l10.1,0.7&#10;&#9;&#9;&#9;L296.9,421l-5.7,5.3l-8.7,15.5l10.8-1.3l-15.5,12.1l-35,8.7l-34.3-33.6l10.8-6.7l-17.5-10.1l10.1-3.4L191,387.9h7.4l-20.8-26.2&#10;&#9;&#9;&#9;l-18.8,28.2l12.1-1.3l-17.5,18.2l8.2,1.3l-19.6,20.2l15.5-0.7l-30.9,20.2l11.4,1.3l-16.1,13.5l-13.5-15.5l12.1-0.7l-12.1-14.1h7.4&#10;&#9;&#9;&#9;l-12.8-14.1l9.4-3.4l-18.8-17.5l8.7-2.7l-20.2-24.9L61.2,394l11.4-1.3l-18.8,24.9l10.8-3.4L53.8,433l9.4-2l-16.1,20.2l10.8-2.7&#10;&#9;&#9;&#9;l-26.2,18.2L0,481.4l3.4,90.1h660.1L609.4,524.4z" style="clip-path: url('#SVGID_2_'); fill: rgb(234, 195, 101);"/><path d="M 0 575.7000122070312 L 1110.4000244140625 575.7000122070312 L 1110.4000244140625 458.8999938964844 L 1041.5 462.70001220703125 L 1021.9000244140625 448.6000061035156 L 1014.9000244140625 475.29998779296875 L 994.5 461.29998779296875 L 981.2000122070312 473.20001220703125 L 970 438.79998779296875 L 941.2000122070312 473.20001220703125 L 911 465.5 L 920.2000122070312 499.8999938964844 L 904 497.1000061035156 L 908.9000244140625 536.2999877929688 L 889.2999877929688 518.0999755859375 L 876.7000122070312 549 L 863.2999877929688 535.5999755859375 L 859.7999877929688 551.7999877929688 L 838.0999755859375 539.0999755859375 L 831.0999755859375 551.7999877929688 L 815.5999755859375 532.0999755859375 L 806.5 548.2999877929688 L 796 538.4000244140625 L 787.9000244140625 547.5999755859375 L 770.7000122070312 518.0999755859375 L 763 548.2999877929688 L 746.9000244140625 531.4000244140625 L 739.9000244140625 540.5 L 729.4000244140625 523.7000122070312 L 703.4000244140625 528.5999755859375 L 695.4000244140625 485.1000061035156 L 662.7000122070312 507.29998779296875 L 645.2000122070312 497.1000061035156 L 637.5 513.2000122070312 L 626.9000244140625 495.6000061035156 L 610.0999755859375 502 L 603.0999755859375 478.5 L 571.5 483 L 565.0999755859375 443.70001220703125 L 540.7000122070312 462.70001220703125 L 523.7999877929688 452.20001220703125 L 521.7000122070312 485.1000061035156 L 489.3999938964844 483.70001220703125 L 493.70001220703125 499.8999938964844 L 462.1000061035156 484.3999938964844 L 459.29998779296875 500.6000061035156 L 434.70001220703125 478.5 L 419.29998779296875 489.29998779296875 L 402.5 458.5 L 388.3999938964844 478.5 L 361.1000061035156 459.20001220703125 L 367.3999938964844 507.29998779296875 L 349.1000061035156 500.6000061035156 L 343.5 519.5 L 326.70001220703125 507.29998779296875 L 322.5 534.2000122070312 L 307.79998779296875 524.4000244140625 L 304.20001220703125 553.9000244140625 L 279 523 L 257.8999938964844 540.5 L 248.8000030517578 523.7000122070312 L 239.89999389648438 538.4000244140625 L 226.1999969482422 510.3999938964844 L 210.1999969482422 527.2000122070312 L 208.10000610351562 497.79998779296875 L 159 503.3999938964844 L 154.8000030517578 473.20001220703125 L 133.10000610351562 516 L 119 507.29998779296875 L 112 516.7000122070312 L 104.30000305175781 497.1000061035156 L 84.69999694824219 524.4000244140625 L 72 486.5 L 55.20000076293945 496.29998779296875 L 51.400001525878906 457.79998779296875 L 32.099998474121094 462 L 40.5 400.20001220703125 L 22.899999618530273 417.79998779296875 L 0.699999988079071 382 Z" class="st4" style="clip-path: url('#SVGID_2_'); fill: rgb(154, 160, 127);"/><path d="M 0 577.9000244140625 L 945.0999755859375 577.9000244140625 L 945.0999755859375 478.5 L 886.5 481.70001220703125 L 869.7999877929688 469.79998779296875 L 863.7999877929688 492.3999938964844 L 846.5 480.5 L 835.0999755859375 490.70001220703125 L 825.5999755859375 461.3999938964844 L 801.0999755859375 490.70001220703125 L 775.4000244140625 484.1000061035156 L 783.2000122070312 513.2999877929688 L 769.5 511 L 773.5999755859375 544.4000244140625 L 756.9000244140625 528.9000244140625 L 746.2000122070312 555.0999755859375 L 734.7999877929688 543.7999877929688 L 731.7999877929688 557.5 L 713.2999877929688 546.7999877929688 L 707.4000244140625 557.5 L 694.2000122070312 540.7999877929688 L 686.5 554.5 L 677.5 546.2000122070312 L 670.5999755859375 553.9000244140625 L 656 528.9000244140625 L 649.4000244140625 554.5 L 635.7000122070312 540.2000122070312 L 629.7000122070312 548 L 620.7999877929688 533.5999755859375 L 598.7000122070312 537.7999877929688 L 591.9000244140625 500.79998779296875 L 564.0999755859375 519.7000122070312 L 549.0999755859375 511 L 542.5999755859375 524.7000122070312 L 533.5999755859375 509.79998779296875 L 519.2999877929688 515.0999755859375 L 513.2999877929688 495.1000061035156 L 486.3999938964844 499 L 481 465.6000061035156 L 460.20001220703125 481.70001220703125 L 445.79998779296875 472.70001220703125 L 444.1000061035156 500.79998779296875 L 416.6000061035156 499.6000061035156 L 420.20001220703125 513.2999877929688 L 393.29998779296875 500.20001220703125 L 390.8999938964844 513.9000244140625 L 370 495.1000061035156 L 356.8999938964844 504.3999938964844 L 342.5 478.1000061035156 L 330.6000061035156 495.1000061035156 L 307.29998779296875 478.70001220703125 L 312.70001220703125 519.7000122070312 L 297.20001220703125 513.9000244140625 L 292.3999938964844 530.0999755859375 L 278.1000061035156 519.7000122070312 L 274.5 542.5999755859375 L 261.8999938964844 534.2000122070312 L 259 559.2999877929688 L 237.5 533 L 219.5 548 L 211.8000030517578 533.5999755859375 L 204.1999969482422 546.2000122070312 L 192.5 522.2999877929688 L 178.89999389648438 536.5999755859375 L 177.1999969482422 511.5 L 135.39999389648438 516.2999877929688 L 131.8000030517578 490.70001220703125 L 113.30000305175781 527.0999755859375 L 101.30000305175781 519.7000122070312 L 95.4000015258789 527.7000122070312 L 88.80000305175781 511 L 72.0999984741211 534.2000122070312 L 61.29999923706055 502 L 47 510.3999938964844 L 43.70000076293945 477.5 L 27.299999237060547 481.1000061035156 L 34.5 428.6000061035156 L 19.5 443.5 L 0.6000000238418579 413 Z" class="st5" style="clip-path: url('#SVGID_2_'); fill: rgb(184, 188, 159);"/><g class="st6" style="clip-path: url('#SVGID_2_');">
			<path d="M 963.2000122070312 268.5 L 757.5999755859375 577.9000244140625 L 1100.4000244140625 577.9000244140625 Z" class="st19" style="fill: rgb(117, 117, 93);"/>
			
			<path d="M 963.2000122070312 268.5 L 917.0999755859375 577.9000244140625 L 734.5 577.9000244140625 Z" class="st17" style="fill: rgb(154, 160, 127);"/>
			
		<path d="M 963.2000122070312 268.5 L 1208 383.79998779296875 L 1360 577.9000244140625 L 1192 577.9000244140625 Z" class="st16" style="fill: rgb(136, 138, 113);"/><path d="M 963.2000122070312 268.5 L 1009.4000244140625 577.9000244140625 L 1192 577.9000244140625 Z" class="st17" style="fill: rgb(154, 160, 127);"/></g></g>
<g transform="matrix(0.2398149222135544, 0.23613834381103518, -0.23613834381103518, 0.2398149222135544, 1080.729125976563, -133.40926668078168)"><g transform="matrix(1, 0, 0, 1, 5.684341886080802e-14, 0)"><path class="st1" d="M949,200c3.7-11.6-40.9-25.5-86,21.2c-45.2,46.7-80.9,117.1-81.7,122.6C780.5,349.3,938.7,231.8,949,200z" style="fill: rgb(252, 175, 23);" transform="matrix(1, 0, 0, 1, 1.8758328224066645e-12, 4.547473508864641e-13)"/><path class="st2" d="M939.9,168.6c0,0-3.5-29.5,12.4-44.8c15.9-15.3,17.1,0,28.9-16.5c11.8-16.5,25.9-21.8,35.9-11.8&#10;&#9;&#9;c10,10-5.3,10.6,4.1,27.1c9.4,16.5-1.8,29.5-15.3,30c-13.6,0.6-12.4,27.1-31.8,28.9c0,0,15.9-7.7,15.9-21.2s1.2-17.1,17.1-17.7&#10;&#9;&#9;c15.9-0.5,2.9-8.2,2.4-21.2c-0.6-13-5.9-26.5-17.7-13.6c-11.8,13-19.4,18.3-28.3,20c-8.8,1.8-21.2,21.8-15.3,43" style="fill: rgb(48, 83, 13);" transform="matrix(1, 0, 0, 1, 1.8758328224066645e-12, 4.547473508864641e-13)"/><path class="st4" d="M873.3,281.7c0,0-91.9,77.2-101.3,77.8c-9.4,0.6,20-84.3,80.1-143.8c60.1-59.5,86-43,101.9-23.6&#10;&#9;&#9;c15.9,19.4-34.8,60.1-34.8,60.1s53.6-15.3,47.7-58.3c-5.9-43-75.4-47.1-107.2-15.3c-31.8,31.8-122,169.7-103.1,192.7&#10;&#9;&#9;C775.5,394.2,873.3,281.7,873.3,281.7z" style="fill: rgb(107, 45, 4);" transform="matrix(1, 0, 0, 1, 1.8758328224066645e-12, 4.547473508864641e-13)"/><path class="st4" d="M887.7,200.4c0,0,23.6,5.5,29.1,34.6C916.7,235,892.4,211.4,887.7,200.4z" style="fill: rgb(107, 45, 4);" transform="matrix(1, 0, 0, 1, 1.8758328224066645e-12, 4.547473508864641e-13)"/><path class="st4" d="M853.1,234.5c0,0,19.6-0.6,29.9,21C883,255.6,859.1,242.2,853.1,234.5z" style="fill: rgb(107, 45, 4);" transform="matrix(1, 0, 0, 1, 1.8758328224066645e-12, 4.547473508864641e-13)"/><path class="st4" d="M820.1,267.5c0,0,19.6-0.6,29.9,21C850,288.6,826.1,275.2,820.1,267.5z" style="fill: rgb(107, 45, 4);" transform="matrix(1, 0, 0, 1, 1.8758328224066645e-12, 4.547473508864641e-13)"/><path class="st10" d="M952.9,165.9c0,0-0.6-17.4,10.3-23.9c10.9-6.5,12.4-10,23.9-20.6c11.5-10.6,13.3-9.1,15.9,0.3&#10;&#9;&#9;c2.7,9.4,7.4,13.6,7.4,15.9c0,2.4-9.4-5.9-17.1,3.2c-7.7,9.1-8.5,15.9-10.3,23.9C981.2,172.7,975,182.1,952.9,165.9z" style="fill: rgb(141, 198, 63);" transform="matrix(1, 0, 0, 1, 1.8758328224066645e-12, 4.547473508864641e-13)"/></g></g><g transform="matrix(0.04605528339743614, -0.19953887164592743, 0.19953887164592743, 0.04605528339743614, 1083.271408763264, 246.34869111881898)"><g transform="matrix(1, 0, 0, 1, 5.684341886080802e-14, 0)"><path class="st3" d="M865.1,490.9c-18.1,6.8-45.4,1.2-41.8,22.4c3.5,21.2,27.7,16.5,24.7,28.9c-2.9,12.4-23,17.1-14.7,29.5&#10;&#9;&#9;c8.2,12.4,24.2-0.6,29.5,12.4c5.3,13,18.9,31.2,33,13c14.1-18.3,31.8-13,53.6-12.4c21.8,0.6,40.1-18.9,42.4-42.4&#10;&#9;&#9;c0,0,13,14.7,21.8,8.8c8.8-5.9-3.5-22.4-3.5-22.4s18.9-31.2-38.3-38.3c0,0,14.7-24.2,0-34.8c-14.7-10.6-25.3,8.8-25.3,8.8&#10;&#9;&#9;s-13.6-24.2-50.7-19.4C858.6,449.6,874.5,487.3,865.1,490.9z" style="fill: rgb(99, 146, 44);" transform="matrix(1, 0, 0, 1, 1.8758328224066645e-12, 4.547473508864641e-13)"/><path class="st2" d="M895.1,624c0,0-41.8,25.3-53-14.7c0,0-34.8,14.1-39.5-20.6s14.7-48.3,14.7-48.3s-34.8-25.3-10.6-53&#10;&#9;&#9;s47.7-17.7,47.7-17.7s-8.2-33.6,33-49.5c41.2-15.9,61.9,15.3,61.9,15.3s18.3-17.7,36.5,1.2c18.3,18.9,7.1,37.1,7.1,37.1&#10;&#9;&#9;s59.5-2.9,38.9,53c0,0,23,49.5-30,43.6c0,0-12.4,40.1-57.2,27.1c0,0,48.3-1.8,51.8-41.2c0,0,16.5,9.4,25.3-0.6&#10;&#9;&#9;c8.8-10-2.4-27.1-2.4-27.1s21.2-43.6-35.9-43c0,0,9.4-21.2-5.3-38.9c-14.7-17.7-30,4.7-30,4.7s-15.9-29.5-56.6-20.6&#10;&#9;&#9;c-40.7,8.8-26.5,52.4-26.5,52.4s-20.6-13.6-48.3,11.2s16.5,47.1,16.5,47.1s-26.5,26.5-14.1,50.1c12.4,23.6,34.2-0.6,34.2-0.6&#10;&#9;&#9;S846.2,624.6,895.1,624z" style="fill: rgb(48, 83, 13);" transform="matrix(1, 0, 0, 1, 1.8758328224066645e-12, 4.547473508864641e-13)"/><path class="st2" d="M937,592.2c0,0-15.3,18.9,23,48.9c38.3,30,61.9,71.3,24.2,83.1c-37.7,11.8-57.2-10-56-44.2&#10;&#9;&#9;c1.2-34.2-35.9-65.4-35.9-65.4s11.8-1.8,30.6,25.9c18.9,27.7,17.1,40.7,20,61.9c2.9,21.2,33.6,18.3,40.7,0&#10;&#9;&#9;c7.1-18.3-13.6-34.8-28.3-50.1C940.5,637,914.6,611.6,937,592.2z" style="fill: rgb(48, 83, 13);" transform="matrix(1, 0, 0, 1, 1.8758328224066645e-12, 4.547473508864641e-13)"/><path class="st2" d="M941.1,567.3c0,0,50.3-18.1,14.1-56.6C955.2,510.7,978,536.6,941.1,567.3z" style="fill: rgb(48, 83, 13);" transform="matrix(1, 0, 0, 1, 1.8758328224066645e-12, 4.547473508864641e-13)"/><path class="st2" d="M888.5,588.5c0,0-32.2,4.7-29.9-29.1C858.6,559.4,861.8,576.7,888.5,588.5z" style="fill: rgb(48, 83, 13);" transform="matrix(1, 0, 0, 1, 1.8758328224066645e-12, 4.547473508864641e-13)"/><path class="st2" d="M934,490.3c0,0-30.6-29.9-57.3,1.6C876.7,491.8,901,473.8,934,490.3z" style="fill: rgb(48, 83, 13);" transform="matrix(1, 0, 0, 1, 1.8758328224066645e-12, 4.547473508864641e-13)"/><path class="st2" d="M869.4,500.3c0,0-25.1,3.9-23.6,33.8C845.8,534.1,854.5,509.7,869.4,500.3z" style="fill: rgb(48, 83, 13);" transform="matrix(1, 0, 0, 1, 1.8758328224066645e-12, 4.547473508864641e-13)"/><path class="st10" d="M921.7,604.6c1.1-10.1-23-5.3-15.3,5.3c7.7,10.6,26.5,28.3,38.9,55.4c12.4,27.1,0,44.2,21.2,45.4&#10;&#9;&#9;c21.2,1.2,15.9-14.7,3.5-32.4c-12.4-17.7-19.4-23.6-33-39.5C923.4,622.8,920.5,615.2,921.7,604.6z" style="fill: rgb(141, 198, 63);" transform="matrix(1, 0, 0, 1, 1.8758328224066645e-12, 4.547473508864641e-13)"/></g></g></svg>