<?xml version="1.0" encoding="utf-8"?>
<svg id="master-artboard" viewBox="0 0 527.1153564453125 980" version="1.1" xmlns="http://www.w3.org/2000/svg" x="0px" y="0px" enable-background="new 0 0 1400 980" width="527.1153564453125px" height="980px"><rect id="ee-background" x="0" y="0" width="527.1153564453125" height="980" style="fill: white; fill-opacity: 0; pointer-events: none;"/>
<path d="M 0 0 H 1400 V 980 H 0 V 0 Z" fill="#A0DAE2" transform="matrix(1, 0, 0, 1, -272.9807481765747, 0)"/><path fill="#F7F3F0" d="M637.5,375.5c-5.7-1.9-11.7-3.1-17.6-4.5c-15-3.6-29.6-8.9-43.5-15.7c-3.4-1.7-6.9-3.5-9.7-6.1&#10;&#9;&#9;c-3.9-3.7-6.2-8.9-9.7-13c-11.5-13.7-36.8-11.1-45.4,4.5c-3.5-21.3-27.4-36.9-48.4-31.4c5.3-22.5-2.9-47.6-20.5-62.6&#10;&#9;&#9;c-17.5-15-43.6-19.3-65-10.7c-9.3-48.5-67.5-80.9-113.6-63.2c-34.8,13.3-56.5,47.1-77.4,77.9c-2.9,4.3-6.2,8.8-11.1,10.7&#10;&#9;&#9;c-13.8,5.2-23.9-13.1-36.6-20.6c-23.8-14.1-56.6,12-80.8-1.3c-8.2-4.5-13.7-12.8-22-17c-11.4-5.7-24.9-2.3-36.3,4.2v192.7&#10;&#9;&#9;c245.6,0.8,491.2-1.5,736.7-6.8c-27.4-8.5-54.9-17-80.9-29.1C649.8,380.6,643.8,377.6,637.5,375.5z" transform="matrix(1, 0, 0, 1, -272.9807481765747, 0)"/><path fill="#85B6BD" d="M0,554.8c221.4,28.8,445.8,29.5,669.2,30.1c243.6,0.7,487.2,1.3,730.8,2V292.2&#10;&#9;&#9;c-43.1,11.2-86.1,22.5-129.2,33.7c-59.6,15.6-119.2,31.1-179.7,42.7c-21.1,4-42.2,7.6-63.4,10.9c-57.7,9.1-115.8,16.3-174,21.8&#10;&#9;&#9;c-34,3.2-68,5.8-102,8.3c-61.7,4.7-123.4,9.3-185.3,10.8c-119.5,2.8-240.2-6.4-357.7,15.4c-41.8,7.8-83,19.4-125.3,23.3&#10;&#9;&#9;c-27.7,2.5-55.6,1.6-83.4-0.5V554.8z" transform="matrix(1, 0, 0, 1, -272.9807481765747, 0)"/><path fill="#8DC0C8" d="M1400,402.6c-144.9,32.2-295.8,32.2-444.1,21.3c-157.3-11.6-313.3-35.4-469.2-59.1&#10;&#9;&#9;c-117.7-17.9-235.5-35.8-353.2-53.7c-37.4-5.7-74.9-11.4-111.4-21.3c-7.3-2-14.7-4.1-22.1-5.9V980h1400V402.6z" transform="matrix(1, 0, 0, 1, -272.9807481765747, 0)"/><path d="M 0 449 H 1400 V 980 H 0 V 449 Z" fill="#6D9D6A" transform="matrix(1, 0, 0, 1, -272.9807481765747, 0)"/><path fill="#7D8A7D" d="M691.1,449c273.7,7.5,312.1,48.3,412.6,112.2H729.8c0,0-25.9-103.6-310.6-112.2H691.1z" transform="matrix(1, 0, 0, 1, -272.9807481765747, 0)"/><path fill="#383F58" d="M701.2,449c234.4,7.5,267.3,48.3,353.4,112.2H760.1c0,0-47.9-103.6-291.8-112.2H701.2z" transform="matrix(1, 0, 0, 1, -272.9807481765747, 0)"/><path fill="#E4E0DE" d="M684.3,455.9c-12.6-2.6-25.6-5-39.1-6.9h-30.9c11.6,1.8,24.4,4.1,38.1,6.9H684.3z" transform="matrix(1, 0, 0, 1, -272.9807481765747, 0)"/><path fill="#E4E0DE" d="M789.5,487.5c-11.3-4.5-23.2-8.9-35.8-13h-29.5c12.3,3.9,24.8,8.2,37.5,13H789.5z" transform="matrix(1, 0, 0, 1, -272.9807481765747, 0)"/><path fill="#E4E0DE" d="M836.6,508.7c-11.5-5.8-24.2-11.6-37.9-17.4h-27.5c13,5.2,26.2,11,39.2,17.4H836.6z" transform="matrix(1, 0, 0, 1, -272.9807481765747, 0)"/><path fill="#E4E0DE" d="M740,470.1c-14-4.3-28.8-8.3-44.4-11.8h-31.7c14.5,3.2,29.9,7.1,45.9,11.8H740z" transform="matrix(1, 0, 0, 1, -272.9807481765747, 0)"/><path d="M 0 543.099976 H 1400 V 979.999969 H 0 V 543.099976 Z" fill="#729C3F" transform="matrix(1, 0, 0, 1, -272.9807481765747, 0)"/><path fill="#408349" d="M493,524.9c-5.7-5.3-14.9-1.9-21.6,2.2c-6.6,4-14.7,8.7-21.7,5.2c-4.5-2.3-8.5-7.9-13.2-6.2&#10;&#9;&#9;c-4.8,1.7-4.4,8.7-7.5,12.8c-2.6,3.3-7.5,4.1-11.5,3c-4.1-1.1-7.5-3.8-10.7-6.5c-3.9-3.2-8.1-6.7-13.1-7.4&#10;&#9;&#9;c-7.8-1-15.6,6.6-14.7,14.4c-4.1-2.9-9.9-1.9-13.9,0.9s-6.8,7.2-9.4,11.4c-1.4,2.2-2.7,4.4-4.1,6.5c-2.6,4.2-5.3,9.4-3,13.8&#10;&#9;&#9;c32.1,0.5,64.2,1,96.3,1.5c18.1,0.3,36.3,0.6,54.3-1.6c5.3-0.6,10.8-1.6,15.1-4.8c4.3-3.2,6.8-9.4,4.3-14.1&#10;&#9;&#9;c-3.3-6.1-12.4-6.4-16.9-11.6C496.8,539.1,498.3,529.8,493,524.9z" transform="matrix(1, 0, 0, 1, -272.9807481765747, 0)"/><path fill="#ECE8E6" d="M759.5,636.5c-21.1,25-38.2,47.8-48.5,62.2h31.4c12.4-22.9,26.6-43.6,41.2-62.2H759.5z" transform="matrix(1, 0, 0, 1, -272.9807481765747, 0)"/><path fill="#ECE8E6" d="M792.5,625.7c9.6-11.5,19.3-22.1,28.7-31.6h-23.3c-10.2,10.5-20,21.1-29.1,31.6H792.5z" transform="matrix(1, 0, 0, 1, -272.9807481765747, 0)"/><path d="M 0 672.200012 H 1400 V 980 H 0 V 672.200012 Z" fill="#7D8A7D" transform="matrix(1, 0, 0, 1, -272.9807481765747, 0)"/><path fill="#20263A" d="M354.1,672.2C412,722.3,535.4,844.5,543.9,980H1400V672.2H354.1z" transform="matrix(1, 0, 0, 1, -272.9807481765747, 0)"/><path d="M 491.100006 913.5 A 176.600006 31.5 0 0 1 314.5 945 A 176.600006 31.5 0 0 1 137.899994 913.5 A 176.600006 31.5 0 0 1 314.5 882 A 176.600006 31.5 0 0 1 491.100006 913.5 Z" fill="#6C726B" transform="matrix(1, 0, 0, 1, -272.9807481765747, 0)"/><g transform="matrix(1, 0, 0, 1, -272.9807481765747, 0)">
			<path fill="#240D0E" d="M355.7,82.7c0,0,13.5,16.2,19.9,20.3c6.4,4.1-2.8,13.5-7.1,29.7s-2.1,41.2,2.1,47.3&#10;&#9;&#9;&#9;&#9;c4.3,6.1-14.2,50.7-9.9,62.1c4.3,11.5-11.4,42.5,12.1,50.7c0,0,9.2,4.7,16.3-3.4c0,0-0.8,15.4-18.5,16.9s-31.2-5.4-33.4-7.4&#10;&#9;&#9;&#9;&#9;c-2.1-2-33.4-18.2-36.2-35.8c-2.8-17.6-8.5-54.7-7.8-66.2c0.7-11.5,8.5-68.9,11.4-72.9C307.4,119.8,331.5,81.3,355.7,82.7z"/>
			<path fill="#C63527" d="M373.1,226.4c0,0,1.2-0.4,0.5,9.6c-0.6,10.1-3.7,36.1-8.9,39.5l-4.2-1.7c0,0-4.5-23.5-4.5-24.4&#10;&#9;&#9;&#9;&#9;c0-1,5.3-18.5,5.3-18.5L373.1,226.4z"/>
			<path fill="#E79771" d="M309.9,189.1c0,0,7.3,30.4,10.5,32.5c3.1,2.1,23.1-2.1,28.3-1c5.2,1,85.1,36.7,85.1,36.7&#10;&#9;&#9;&#9;&#9;s20.7-9,59.4-14.8c30.1-4.5,71.7-15.6,71.7-15.6s6.3-14.7,13.6-18.9c5.2-3,9.8-12.2,12.1-17.4c0.7-1.5,2.8-1.5,3.4,0.1&#10;&#9;&#9;&#9;&#9;c1.1,2.8,1.9,6.9,0.2,11c-3.1,7.3-6.3,15.7-6.3,15.7s14.7-6.3,17.8,0s-1,29.4-9.4,32.5s-32.5,1-32.5,1s-113.1,39.8-125.7,39.8&#10;&#9;&#9;&#9;&#9;s-93.6-24.1-93.6-24.1s-2.1,44.1-1,61.9c1,17.8,2.1,59.8,8.4,69.3c6.3,9.4,38.8,188.9,42,233c3.1,44.1-16.8,199.5-16.8,216.3&#10;&#9;&#9;&#9;&#9;s-3.1,35.7-3.1,35.7l-25,0.8c0,0,1-43.2,1-55.8c0-12.6-8.9-90.9-6.8-129.8c2.1-38.8,10.9-63.1,10.9-63.1L292.1,506&#10;&#9;&#9;&#9;&#9;c0,0-18.9,117.5-25.2,143.8c-6.3,26.2-31.8,128-40.2,169c-8.4,40.9-10.5,57.7-10.5,57.7l-26.6-1.1c0,0,1.4-32.5,4.6-47.2&#10;&#9;&#9;&#9;&#9;c3.1-14.7,5.2-126,19.2-170c25.6-80.2-2.1-67.2,6.3-156.4c8.4-89.2,33.6-90.3,35.7-118.6s-12.9-100.7-12.9-100.7L199.1,369&#10;&#9;&#9;&#9;&#9;c0,0,1.3,7.8,0.3,30.9c-1,23.1-3.8,81-3.8,81s7.3,13.6,8.4,28.3c1,14.7-2.1,24.1-2.1,24.1s-6.3-1-6.3-8.4s-5.2-11.5-5.2-11.5&#10;&#9;&#9;&#9;&#9;s-3.1,23.1,0,36.7s-13.6-4.2-15.7-26.2c-2.1-22,5.2-38.8,5.2-43s-10.5-100.8-10.5-114.4c0-13.6,49.3-120.7,63-132.2&#10;&#9;&#9;&#9;&#9;c7.8-6.6,20.2-10.2,29.3-11.9c6.8-1.3,11.8-7.2,12-14.2l0.8-23.9L309.9,189.1z"/>
			<path fill="#C88363" d="M344.2,220.5c-7.9,0.5-21.3,2.8-23.8,1.1c-3.1-2.1-10.5-32.5-10.5-32.5l-35.6-5l-0.8,23.9&#10;&#9;&#9;&#9;&#9;c-0.2,7-5.2,12.9-12,14.2c-9.1,1.8-21.5,5.3-29.3,11.9c-2.5,2.1-6.2,7.5-10.6,14.9h122.5V220.5z"/>
			<g>
				<path fill="#D18967" d="M218.6,545.4c2.9,50.7,14.3,63.1-5.3,112.8c-16,40.6-16.1,155.3-19.2,170c-2.5,11.5-3.9,33.8-4.4,43&#10;&#9;&#9;&#9;&#9;&#9;l11.3,0.6c0,0,6.3-68,10.7-79.4c4.4-11.3,6.9-28.4,6.9-49.8s-1.6-66.8,1-71.2c2.5-4.4,17-16.4,18.9-30.2&#10;&#9;&#9;&#9;&#9;&#9;c1.9-13.9-0.6-18.3-1.3-35.3c-0.6-17,30.2-24.6,30.2-24.6l15.1-18.1c1-6.2,2-12.1,3-17.8H218.6z"/>
				<path fill="#D18967" d="M311,545.4l43,89.7c0,0-8.8,24.3-10.9,63.1c-2.1,38.8,6.8,117.2,6.8,129.8c0,8.3-0.4,33.3-0.7,45.2&#10;&#9;&#9;&#9;&#9;&#9;l11.7-1.8c0,0,3.2-102.2,1.9-114.8c-1.3-12.6-9.5-20.8-11.3-35.9c-1.9-15.1,10.1-61.1,16.4-69.9c6.3-8.8,6.9-14.5,0-19.5&#10;&#9;&#9;&#9;&#9;&#9;s-12-29-13.2-41.6c-1.3-12.6,25.2-30.9,25.2-30.9l3.8-2.3c-0.6-3.6-1.2-7.2-1.8-10.9H311z"/>
			</g>
			<path fill="#D18967" d="M190.3,550.1c-3.1-13.6,0-36.7,0-36.7s5.2,4.2,5.2,11.5s6.3,8.4,6.3,8.4s3.1-9.4,2.1-24.1&#10;&#9;&#9;&#9;&#9;c-1-14.7-8.4-28.3-8.4-28.3s2.8-57.9,3.8-81c0.1-2.1,0.2-4,0.2-5.9l-15.8,2.1c0,0,1.3,53.6,2.5,65.5c1.3,12,4.4,25.8,4.4,29&#10;&#9;&#9;&#9;&#9;c0,3.2-7.6,18.3-6.9,27.7c0.4,6.5,0.3,22.8,2.2,34C189.3,556,191.6,556,190.3,550.1z"/>
			<g>
				<path fill="#D18967" d="M596.4,250c5.4-2,9-12.2,10.1-20.9c-6.3,6.4-16.9,12-23.9,13.3c-10.1,1.9-34,4.4-34,4.4&#10;&#9;&#9;&#9;&#9;&#9;s-44.7,16.4-75,20.2c-30.2,3.8-31.5,10.7-42.2,13.9c-10.7,3.2-42.2-5.7-56.7-15.8c-14.5-10.1-10.1-32.1-10.1-32.1&#10;&#9;&#9;&#9;&#9;&#9;s-8.9,16.6-18.2,34.4c12.2,3.6,80.3,23.5,91.7,23.5c12.6,0,125.7-39.8,125.7-39.8S588,253.1,596.4,250z"/>
			</g>
			<path fill="#D18967" d="M351.9,397.9c-3.4-5.1-5.3-19.8-6.5-35c-19.5,3.1-46.5,7.4-50.1,7.4c-5.7,0-25.8,12-27.7,12.6&#10;&#9;&#9;&#9;&#9;c-1.9,0.6-1.3,36.5-1.3,38.4c0,1.9,42.2,22.1,52.9,13.9c10.7-8.2-2.5-20.2,10.1-27.1c7.6-4.2,18.5-2.2,25.9,0.1&#10;&#9;&#9;&#9;&#9;C353.8,402.7,352.6,399.1,351.9,397.9z"/>
			<path fill="#F9A77B" d="M265.2,175.7c0,0,34.6,28.8,60.1,31c4,0.3,8-1.2,10.7-4.1c5.8-6.3,15.5-20,16.4-41.4&#10;&#9;&#9;&#9;&#9;c1.3-30.7,0-46,0-61.3S330.6,58.9,314,58.9s-62.6,16.6-65.2,30.7S238.3,144.4,265.2,175.7z"/>
			<path fill="#E79771" d="M301.2,167.7c0.7-2.8,0.4-5.7,0.6-8.6c0.5-8.1,5.3-15.6,11.9-20.2c2.2-1.6,4.6-2.8,6.7-4.5&#10;&#9;&#9;&#9;&#9;c1.8-1.5,3.3-3.3,5-4.9c7.2-6.7,17.7-9.7,27.3-7.8c-0.2-8.2-0.4-15.1-0.4-22c0-7.6-5.3-17.7-12.7-25.9&#10;&#9;&#9;&#9;&#9;c-19.5,3.5-38.4,10.4-55.6,20.2c-6,3.4-11.9,7.2-16.7,12.2c-11.3,11.5-15.8,27.8-16.5,44.1c3,8.6,7.6,17.3,14.4,25.3&#10;&#9;&#9;&#9;&#9;c0,0,34.6,28.8,60.1,31c0.8,0.1,1.6,0,2.4,0c-0.1-0.1-0.3-0.2-0.4-0.3c-4.3-2.6-9.7-2.6-14.5-4.3c-5.7-2-10.5-6.3-13-11.8&#10;&#9;&#9;&#9;&#9;c-2.5-5.4-2.7-11.9-0.5-17.5C299.9,171.1,300.7,169.5,301.2,167.7z"/>
			<path fill="#DD8B65" d="M341.6,135.8c0,0,0.7,9.7,10.1,19.3c0,0-1.9,6.2-7.9,8c0,0,5.2-3.8,4.8-6.9&#10;&#9;&#9;&#9;&#9;C348.2,153.2,340.1,143.5,341.6,135.8z"/>
			<path fill="#120022" d="M364.2,126.5c-2.9-3.8-17.9-3.2-20-1.7c-0.6,0.4-1,1.3-1.3,2.3H336c-0.3-1-0.8-1.8-1.5-2.2&#10;&#9;&#9;&#9;&#9;c-2.4-1.5-19.6-2.1-22.9,1.8c-3.4,3.9-5.7,11.5-1.8,16.9c3.3,4.7,8.9,6.3,16.8,3.6c3.4-1.2,5.7-3.7,7.4-6.2&#10;&#9;&#9;&#9;&#9;c2.4-3.7,3.3-8.2,2.4-12.4h6.1c-0.7,4.1,0.1,8.4,2.3,11.9c1.4,2.3,3.4,4.5,6.2,5.6c6.9,2.6,13.6,1.7,14.7-3.5&#10;&#9;&#9;&#9;&#9;S367.1,130.2,364.2,126.5z"/>
			<path fill="#F15A29" d="M263.3,218.9c0,0,33,15.2,62,1.3c0,0,19.8-4,28.3-1.3c8.6,2.6,19.6,7.5,19.6,7.5s-15.6,26.1-8.4,49.2&#10;&#9;&#9;&#9;&#9;l-15.2-3.3c0,0,6.6,8.9,13.7,20.1c9.6,15.4-9.7,21.4-10.4,26.7s1.3,52.7,10.5,65.9c9.2,13.2-25,22.4-50.7,18.5&#10;&#9;&#9;&#9;&#9;c-25.7-4-58-14.5-69.9-12.5c-11.9,2,6.6-41.5,4.6-52.7c-2-11.2-6.6-50.7-6.6-50.7l-0.7,5.3c0,0-11.9-15.8-36.2-21.1&#10;&#9;&#9;&#9;&#9;c0,0,17.8-23.7,21.7-33.6S240.8,216.9,263.3,218.9z"/>
			<path fill="#002C4E" d="M228.2,425.4c0,0,99.7-9.8,138.1,7.7c0,0,8.6,63.3,15.6,91.3c7,27.9,7,27.9,7,27.9s-44.3,18.6-72.2,19.8&#10;&#9;&#9;&#9;&#9;l-24.5-38.4l-8.2,40.8l-69.9-4.7C214.2,569.9,195.8,477,228.2,425.4z"/>
			<path fill="#321C1D" d="M367.9,70.3c0,0-11.6,39.6-40.8,59.4l4.7-21c0,0,2.3,12.8-22.1,27.9c-24.5,15.1-25.6,57.1-10.5,69.9&#10;&#9;&#9;&#9;&#9;c15.1,12.8,23.3,29.1,17.5,44.3c-5.8,15.1-41.9,32.6-40.8,45.4c1.2,12.8,22.1,17.5,26.8,9.3c0,0-9.3,22.1-27.9,17.5&#10;&#9;&#9;&#9;&#9;S248,306.7,248,306.7s-4.7,18.6,3.5,22.1c0,0-16.3-1.2-22.1-17.5c-5.8-16.3,1.2-38.4,3.5-52.4s-4.7-16.3-8.2-39.6&#10;&#9;&#9;&#9;&#9;c-3.5-23.3,22.1-9.3,22.1-30.3s-23.3-44.3-23.3-76.9s41.9-61.7,57.1-66.4s18.6-14,33.8-3.5S367.9,70.3,367.9,70.3z"/>
		</g><path fill="#002C4E" d="M344.5,218.4c0,0-19,6.9-23.1,26.3l-20.7,0.8C300.7,245.5,308,197.7,344.5,218.4z" transform="matrix(1, 0, 0, 1, -272.9807481765747, 0)"/><path fill="#008ABD" d="M177.2,268.4c0,0-14.1,103.5-3.8,140.5c10.2,37.1,125.2,19.2,134.8,12.8s20.3-156.4,10.8-196.4&#10;&#9;&#9;&#9;c0,0-9.5-9.7-57.4-3.1S190,226.3,177.2,268.4z" transform="matrix(1, 0, 0, 1, -272.9807481765747, 0)"/><path fill="#00AEEF" d="M319,225.4c0,0-21-5.8-27.9,0c-7,5.8-17.5,46.6-23.3,48.9c-5.8,2.3-96.7,12.8-101.3,2.3&#10;&#9;&#9;&#9;s15.1-51.2,19.8-52.4c4.7-1.2,14-5.8,36.1-8.2S310.8,211.4,319,225.4z" transform="matrix(1, 0, 0, 1, -272.9807481765747, 0)"/><path fill="#1C1A1F" d="M327.3,344l11.4-17.6l6.2,6.2c0,0-6.8,11.1-17,22.3L327.3,344z" transform="matrix(1, 0, 0, 1, -272.9807481765747, 0)"/><path fill="#002C4E" d="M349.6,272.3c0,0-8.7,49.5-10.8,51.9c-2,2.4,0.8,13.4,6.1,10.9c5.3-2.4,16.5-51,17.7-59.9L349.6,272.3z" transform="matrix(1, 0, 0, 1, -272.9807481765747, 0)"/><path fill="#1C1A1F" d="M318.2,350.5c1.2-0.8,9.7-8.5,9.7-8.5l1.2,13l-16.2,33.6L318.2,350.5z" transform="matrix(1, 0, 0, 1, -272.9807481765747, 0)"/><path fill="#0075A1" d="M317.1,227.7c0,0-20-6-25.2,1.3s-10.7,40.5-13.2,64.4s-10.7,124.1-6.8,127.1c3.8,3,30.3,2.6,33.7-3.4&#10;&#9;&#9;&#9;s10.7-72.1,12.8-104.1C320.5,281.1,321.8,240.1,317.1,227.7z" transform="matrix(1, 0, 0, 1, -272.9807481765747, 0)"/><path fill="#CF372E" d="M345.4,176.7c0,0-11.1,1.5-21.1-1.6c0,0,3.9,10.6,10.6,11.3C341.6,187,340.1,182.1,345.4,176.7z" transform="matrix(1, 0, 0, 1, -272.9807481765747, 0)"/><path fill="#FFFFFF" d="M326.6,176.1c0,0,10.2,2.5,16,1.2c0,0-0.3,2.6-1.4,3.1s-11.2,0-12.7-1C327,178.3,326.6,176.1,326.6,176.1z&#10;&#9;&#9;&#9;" transform="matrix(1, 0, 0, 1, -272.9807481765747, 0)"/><path fill="#EF4136" d="M346.3,859.4l39,3.4c0,0,6,15.8,9.8,20.3c3.9,4.5,30,10.3,36,14c6,3.8,10.3,13.6,10.3,18.8&#10;&#9;&#9;&#9;c0,5.3-33.8,8.6-36.4,9c-2.6,0.4-65.1-1.9-65.1-1.9s-2.1-21.8,2.1-36.2C346.3,872.6,346.3,859.4,346.3,859.4z" transform="matrix(1, 0, 0, 1, -272.9807481765747, 0)"/><path fill="#FFFFFF" d="M418.7,892.5c0,0,5.1,7.8,3.8,17.2c0,0,10.8,0.1,16-3.2C438.6,906.4,438.8,894.3,418.7,892.5z" transform="matrix(1, 0, 0, 1, -272.9807481765747, 0)"/><path fill="#FFFFFF" d="M441.3,916c0-2.5-1-6.1-2.7-9.6c-9.3,2.5-35.7,6.5-39.3,6.5c-3.9,0-46.4-3.2-60-4.2&#10;&#9;&#9;&#9;c-0.1,8.1,0.5,14.4,0.5,14.4s62.5,2.3,65.1,1.9C407.5,924.6,441.3,921.3,441.3,916z" transform="matrix(1, 0, 0, 1, -272.9807481765747, 0)"/><path d="M 309.79998779296875 567.4000244140625 L 391.6000061035156 545.0999755859375 L 395.1000061035156 560.2999877929688 L 315.3999938964844 581.0999755859375 Z" fill="#00375C" transform="matrix(1, 0, 0, 1, -272.9807481765747, 0)"/><path d="M 211.6999969482422 567 L 286.20001220703125 572.0999755859375 L 285.1000061035156 584.0999755859375 L 211.10000610351562 579.2000122070312 Z" fill="#00375C" transform="matrix(1, 0, 0, 1, -272.9807481765747, 0)"/><path d="M 278.20001220703125 458.79998779296875 L 335 449.8999938964844 L 344.6000061035156 492 L 322.29998779296875 516.9000244140625 L 292.1000061035156 506 Z" fill="#00375C" transform="matrix(1, 0, 0, 1, -272.9807481765747, 0)"/><path d="M 545.0999755859375 230.39999389648438 L 553 255.6999969482422 L 563.0999755859375 252.5 L 555.9000244140625 227.5 Z" fill="#1C1A1F" transform="matrix(1, 0, 0, 1, -272.9807481765747, 0)"/><path d="M 563.599976 241 A 9 9 0 0 1 554.599976 250 A 9 9 0 0 1 545.599976 241 A 9 9 0 0 1 554.599976 232 A 9 9 0 0 1 563.599976 241 Z" fill="#39373C" transform="matrix(1, 0, 0, 1, -272.9807481765747, 0)"/><path d="M 561.199975 241 A 6.6 6.6 0 0 1 554.599976 247.6 A 6.6 6.6 0 0 1 547.999976 241 A 6.6 6.6 0 0 1 554.599976 234.4 A 6.6 6.6 0 0 1 561.199975 241 Z" fill="#FFFFFF" transform="matrix(1, 0, 0, 1, -272.9807481765747, 0)"/><path fill="#422426" d="M359.1,73.4c0,0-13.9,32-24.2,45.2l3.2-20.6c0,0-11,19.6-31,29.9c-19.9,10.3-28.8,48-28.8,48&#10;&#9;&#9;&#9;s-6-29.2,14.6-48.7c0,0-23.5,11.4-22.8,53.4c0,0-14.6-37.7,12.5-62.6c0,0-16.4,10.7-22.4,24.5c0,0,4.3-27.4,25.3-39.5&#10;&#9;&#9;&#9;c21-12.1,34.5-34.5,34.5-34.5s-4.6,19.6-11.7,27.4c0,0,25.3-18.9,29.5-28.1c0,0-11,27.4-16.7,31.7l21-16.7l1.8,7.5L359.1,73.4z" transform="matrix(1, 0, 0, 1, -272.9807481765747, 0)"/><path fill="#422426" d="M262.1,77.8c6.8-2.7,13.1-6.8,18.2-12c-4.1,7.4-9,14.4-14.6,20.7c7.5-3.2,15.1-6.4,21.9-11&#10;&#9;&#9;&#9;s12.8-10.6,16-18.2c-0.3,3.9-1.1,7.7-2.4,11.3c5-3,9.3-7.4,12.1-12.6c0.3,5.6-2.3,11.1-6,15.3c-3.7,4.2-8.6,7.3-13.4,10.1&#10;&#9;&#9;&#9;c-9.5,5.4-19.5,10.1-28.4,16.4s-16.7,14.9-19.8,25.4c0-5.4-0.1-10.9-0.1-16.3c-4,3.6-5.6,9.2-6.3,14.5&#10;&#9;&#9;&#9;c-1.5,11.8,0.8,24.1,6.6,34.5c-6.2-3.5-10.6-9.5-13.2-16.1s-3.3-13.8-3.4-20.8c-0.2-14.5,3-30.1,13.6-39.9&#10;&#9;&#9;&#9;c-2.8,5.8-4.4,12.2-4.8,18.6c4.4-3.8,6.3-9.8,10.6-13.6C252.3,80.8,257.4,79.6,262.1,77.8z" transform="matrix(1, 0, 0, 1, -272.9807481765747, 0)"/><path d="M 379.4 886.599976 A 8.4 8.2 0 0 1 371 894.799975 A 8.4 8.2 0 0 1 362.6 886.599976 A 8.4 8.2 0 0 1 371 878.399976 A 8.4 8.2 0 0 1 379.4 886.599976 Z" fill="#FFFFFF" transform="matrix(1, 0, 0, 1, -272.9807481765747, 0)"/><path fill="#FFFFFF" d="M394,875.5c-0.6-0.6-1.7-0.7-2.4-0.2l-5.5,3.7c-0.8,0.5-0.9,1.5-0.4,2.2l0,0c0.6,0.7,1.7,0.8,2.5,0.3&#10;&#9;&#9;&#9;&#9;l5.5-3.7C394.5,877.2,394.6,876.1,394,875.5z" transform="matrix(1, 0, 0, 1, -272.9807481765747, 0)"/><path fill="#FFFFFF" d="M397.5,880.9c-0.6-0.6-1.7-0.7-2.4-0.2l-5.5,3.7c-0.8,0.5-0.9,1.5-0.4,2.2l0,0c0.6,0.7,1.7,0.8,2.5,0.3&#10;&#9;&#9;&#9;&#9;l5.5-3.7C398,882.6,398.1,881.6,397.5,880.9z" transform="matrix(1, 0, 0, 1, -272.9807481765747, 0)"/><path fill="#FFFFFF" d="M401.1,884.1c-0.8-0.5-1.9-0.3-2.4,0.4l-4.1,4.9c-0.6,0.7-0.4,1.7,0.3,2.2l0,0c0.8,0.5,1.9,0.4,2.5-0.3&#10;&#9;&#9;&#9;&#9;l4.1-4.9C402.1,885.6,401.9,884.6,401.1,884.1z" transform="matrix(1, 0, 0, 1, -272.9807481765747, 0)"/><path fill="#FFFFFF" d="M405.7,886.3c-0.9-0.3-1.9,0.1-2.2,0.9l-2.7,5.6c-0.4,0.8,0,1.7,0.9,2l0,0c0.9,0.4,2,0,2.4-0.8l2.6-5.6&#10;&#9;&#9;&#9;&#9;C407.1,887.5,406.7,886.6,405.7,886.3z" transform="matrix(1, 0, 0, 1, -272.9807481765747, 0)"/><path fill="#FFFFFF" d="M411,888.2c-0.9-0.3-1.9,0.1-2.2,0.9l-2.7,5.6c-0.4,0.8,0,1.7,0.9,2l0,0c0.9,0.4,2,0,2.4-0.8l2.6-5.6&#10;&#9;&#9;&#9;&#9;C412.5,889.4,412,888.5,411,888.2z" transform="matrix(1, 0, 0, 1, -272.9807481765747, 0)"/>
<path fill="#6D796D" d="M588.4,543.1c-48.2,29.7-118.9,82.5-158,155.6h646.3c0,0-2.1-81.6,70.2-155.6H588.4z" transform="matrix(1, 0, 0, 1, -272.9807481765747, 0)"/><path fill="#31374E" d="M612.9,543.1c-42.3,29.7-104.3,82.5-138.7,155.6h567.2c0,0-1.9-81.6,61.6-155.6H612.9z" transform="matrix(1, 0, 0, 1, -272.9807481765747, 0)"/></svg>