<svg xmlns="http://www.w3.org/2000/svg" viewBox="0 0 1400 980"><defs><style>.cls-1{fill:#bf7d65;}.cls-2{fill:#c48270;}.cls-3,.cls-4{fill:#a05c4a;}.cls-3{opacity:0.4;}.cls-5{fill:#58595b;}.cls-6{fill:#f1f2f2;}.cls-7{fill:#4d4e4f;}.cls-8{fill:#f9d595;}.cls-9{fill:#734f47;}.cls-10{fill:#343642;}.cls-11{fill:#3f4354;}.cls-12{fill:#1f1d1e;opacity:0.2;}.cls-13{fill:#8d5139;}.cls-14{fill:#4a3b3c;}.cls-15{fill:#d1d3d4;}.cls-16{fill:#3f3132;}.cls-17{fill:#f15951;}.cls-18{fill:#e5bf83;}.cls-19{fill:#cea972;}.cls-20{fill:#5e493a;}.cls-21{fill:#fdeec9;}.cls-22{fill:#c03c4f;}.cls-23{fill:#8b5e3c;}.cls-24{fill:#594a42;}.cls-25{fill:#232725;}</style></defs><title>EEZY</title><g id="BACKGROUND"><rect class="cls-1" width="1400" height="980"/><path class="cls-2" d="M767.94,243.54a27.64,27.64,0,0,0-15.1,5.37,41.09,41.09,0,0,0-37.33-20c-1.26.06-2.5.19-3.73.36A46.48,46.48,0,0,0,631,200.58a65.65,65.65,0,0,0-121.28-5.81,45.49,45.49,0,0,0-80.9,24.77c-.88,0-1.78,0-2.68,0a30.08,30.08,0,0,0-26.84,19.88,36.17,36.17,0,1,0,7.38,63.22,41.1,41.1,0,0,0,76.66-11.48,41.42,41.42,0,0,0,4.81.05A41,41,0,0,0,502.2,288a41.09,41.09,0,0,0,74.62,6.9A27.77,27.77,0,0,0,616.37,302a41.1,41.1,0,0,0,73.74-1.46,41.09,41.09,0,0,0,61.58-7.78,27.78,27.78,0,1,0,16.24-49.23Z"/><path class="cls-2" d="M158.81,101.52a15.15,15.15,0,0,0-8.27,2.94,22.52,22.52,0,0,0-20.46-11c-.69,0-1.37.1-2,.2A25.48,25.48,0,0,0,83.74,78a36,36,0,0,0-66.48-3.19A24.92,24.92,0,0,0,0,65.5v69.42a22.41,22.41,0,0,0,2.81-7.31,22.46,22.46,0,0,0,10.35-1.74,22.52,22.52,0,0,0,40.9,3.78,15.22,15.22,0,0,0,21.68,3.9,22.53,22.53,0,0,0,40.42-.8,22.52,22.52,0,0,0,33.75-4.26,15.23,15.23,0,1,0,8.9-27Z"/><path class="cls-2" d="M1391.63,48.92a53.6,53.6,0,0,0-45.93,30.8A37.15,37.15,0,0,0,1279.62,100c-.72,0-1.45,0-2.19,0a24.57,24.57,0,0,0-21.92,16.24,29.55,29.55,0,1,0,6,51.64,33.57,33.57,0,0,0,62.62-9.38,33.46,33.46,0,0,0,15.43-2.59,33.55,33.55,0,0,0,60.42,6.51V49.16A54,54,0,0,0,1391.63,48.92Z"/><path class="cls-3" d="M1156.35,684.57a71.33,71.33,0,0,0,8.55-2.06,97.94,97.94,0,0,1-18.26-9.73C1147.75,676.81,1151.72,680.93,1156.35,684.57Z"/><path class="cls-3" d="M1188.15,667c-3.86,1-7.92,1.92-12,2.65q3,1.54,6.16,3Q1185.34,669.91,1188.15,667Z"/><path class="cls-3" d="M1149,714.46l1.23-.43c-1.44-.56-2.87-1.16-4.3-1.8C1147,713,1148,713.73,1149,714.46Z"/><path class="cls-3" d="M1169.62,666.1a113,113,0,0,0,12.75-8.62,60,60,0,0,1-20.62,3.72Q1165.53,663.74,1169.62,666.1Z"/><path class="cls-3" d="M1168.11,718.95a84.87,84.87,0,0,1-9.57-2.13q-2.36.45-4.8.77,4.09,2.56,8.55,4.88C1164.29,721.37,1166.22,720.18,1168.11,718.95Z"/><path class="cls-3" d="M1162.79,671.43a80.39,80.39,0,0,0,10.13,8,47.42,47.42,0,0,0,4.85-2.68c1.24-1,2.45-2.11,3.65-3.19a131.69,131.69,0,0,1-15.57-2.36C1164.82,671.26,1163.79,671.36,1162.79,671.43Z"/><path class="cls-3" d="M1154.49,693c-1.1-.26-2.19-.53-3.27-.82.56.58,1.14,1.16,1.72,1.73Z"/><path class="cls-3" d="M1161.77,670.43l.3-.15-.6-.15Z"/><path class="cls-3" d="M1172.92,732.84l-.87-.2c-1.87.59-3.74,1.14-5.62,1.64q1.24.85,2.52,1.66Q1171,734.43,1172.92,732.84Z"/><path class="cls-3" d="M1176.95,712.33h-.22l.13.08Z"/><path class="cls-3" d="M1206.63,726q-7.12,4.43-14.18,8.24l1.53.44c-.83,0-1.64,0-2.46.06-4.34,2.31-8.67,4.42-13,6.3a96.34,96.34,0,0,0,9.51,3.67A77.86,77.86,0,0,0,1206.63,726Z"/><path class="cls-3" d="M1204.49,562.93l.42-.31-.28,0Z"/><path class="cls-3" d="M1120.19,589.85c.92,1,1.88,2,2.85,3.06,9.42,9.21,26.16,10.4,41.5,7.09-7.56,4-16.62,7-26.76,5.84.39.41.81.8,1.23,1.19q2.95,2.24,6.08,4.41c11.83,6.63,28.55,7.05,44.08,3.71-7.56,4-16.35,7.16-26.09,7.43q1.53.85,3.1,1.68a78.4,78.4,0,0,0,22.5-4.72,108.65,108.65,0,0,0,23.52-28.15c-10,8.4-21.74,11.27-32.47,12,14.93-5.3,28.89-14.44,35.32-26.31-16.45,10.93-36.48,14.82-58.53,14.72q9-4.31,17.33-8.92c-11-.3-21-3.7-29.75-8.07a55.89,55.89,0,0,1-17.36-2.1c2.27,6.16,9,10.75,16.4,15.39-12.74-3.29-23.18-8.69-31-16.56C1113.57,580.54,1115.42,583.48,1120.19,589.85Z"/><path class="cls-3" d="M1068,507.48a33.67,33.67,0,0,1-10.14,4.08q-5.11,2.6-10.39,5.14,6.53,0,12.86-.32A41.54,41.54,0,0,0,1068,507.48Z"/><path class="cls-3" d="M1186.83,768.85q-2.58.78-5.16,1.47c1.42.37,2.84.72,4.28,1A16.87,16.87,0,0,0,1186.83,768.85Z"/><path class="cls-3" d="M1159.91,700.27a44.54,44.54,0,0,0,11.45,5,140.8,140.8,0,0,0,23.14-14.09A104.79,104.79,0,0,1,1159.91,700.27Z"/><path class="cls-3" d="M1137.36,605.78l.35.26-.12-.23Z"/><path class="cls-3" d="M1150.8,652.9a54.87,54.87,0,0,0,6.11,1.93c7.54-4.78,14.15-9.6,18.87-14.48a157.87,157.87,0,0,1-28.17,4.41,181.68,181.68,0,0,0,27.26-14.83c-17.25-.23-32.93-3.54-45.91-12.17,5.32,9.83,16.88,17.4,29.24,21.78-8.89-.62-18.62-3-26.88-9.95A89.94,89.94,0,0,0,1150.8,652.9Z"/><path class="cls-3" d="M1358.83,508.51l.63-1-1.89-1c-1.13.79-2.27,1.54-3.42,2.25C1355.69,508.68,1357.26,508.61,1358.83,508.51Z"/><path class="cls-3" d="M1206.23,779c-9.6,7.71-21.57,12.34-35.16,14.89a93.31,93.31,0,0,0,14.72,5.42,119.75,119.75,0,0,1-27.47-3.66q-5.82.55-11.91.74c2.42-.68,4.8-1.42,7.12-2.22a56.56,56.56,0,0,1-17.26-9.24c-.22,11.59,7.46,22.51,22.05,28.43h21.27C1197.21,806.16,1206.5,793,1206.23,779Z"/><path class="cls-3" d="M1361.44,504.24c.26-.44.53-.88.78-1.33-.59.5-1.19,1-1.79,1.45Z"/><path class="cls-3" d="M1343.52,514q5.19.93,10.55,1.52,1.23-1.7,2.41-3.43A45.85,45.85,0,0,1,1344,513.8Z"/><path class="cls-3" d="M1312.09,480.84c1.39-.2,2.76-.44,4.12-.69l-.72-.54c-.67-.62-1.34-1.25-2-1.92a63.38,63.38,0,0,0,9.56.33,124,124,0,0,1-16.6-1.83A63.45,63.45,0,0,0,1312.09,480.84Zm1.1-3.18.19.37-.56-.42Z"/><path class="cls-3" d="M1183.37,656.66c5-4.11,9.09-8.65,10.32-13.11A118.59,118.59,0,0,1,1168,656.69,88.69,88.69,0,0,0,1183.37,656.66Z"/><path class="cls-3" d="M1342.85,494.8l-1.27.29a138.57,138.57,0,0,1-22.69,5.8c6.15,4.14,13.59,6.39,21.94,7.33a86.22,86.22,0,0,0,15.82-12.58,96.14,96.14,0,0,1-11.83-1.75c-.74.28-1.48.57-2.22.84Z"/><path class="cls-3" d="M1135.43,456.78c-15.24,14.89-42.31,16.82-67.12,11.48,12.22,6.42,26.88,11.27,43.29,9.44-.64.66-1.31,1.29-2,1.92q-4.77,3.63-9.83,7.13a67.76,67.76,0,0,1-16.57,6.45,72.38,72.38,0,0,0,17.48,16A106.43,106.43,0,0,0,1125.84,497c-5.52,10.21-15.21,18.9-26.72,25.7q3.07,1.84,6.46,3.46a64.15,64.15,0,0,0,16.45-10,136.9,136.9,0,0,1-8.75,13.35c4.52,1.76,9.31,3.33,14.29,4.77a59.27,59.27,0,0,1-19.11,1.38q-1.8,2.17-3.7,4.28a78.81,78.81,0,0,0,22.82,9.73,74.25,74.25,0,0,1-23.48,2.17c9.85,9.21,25.14,10.5,42.55,8.71-7,4.29-15.74,5.92-26.77,4.18,9.63,4.37,22.46,7.16,36.81,9.2-3.43.42-6.78.72-10,.85,17.5,3.08,35.73,2.09,48.94-5.31q3.78-2.62,7.34-5.33c.5-.47,1-.94,1.48-1.43-12.25,1.37-23.2-2.25-32.33-7.05,18.53,4,38.75,2.55,50.13-8.57,1.17-1.22,2.33-2.45,3.44-3.69,5.77-7.69,8-11.25,9.69-22.1-9.38,9.51-22,16-37.39,20,9-5.61,17.07-11.15,19.81-18.59-10.31,3.21-22.78,3-36.18,1.41,17.33-2.46,32.83-5.84,44.46-11.12-13.32,2.1-23.91.13-32.34-5.05,21,2.16,39.5.61,51.4-10.52a89.69,89.69,0,0,1-28.36-2.62c14.49-3.87,26.91-9.79,36.38-18.59-13.21,2.3-25.58,2.82-36.38,0,23.73-6.86,43.94-16.14,54.16-32.34-7.13,4.69-18.8,6.7-31.53,8.08,14-7.9,25.48-17.05,33-28.16-.08-.5-.17-1-.25-1.53.25.25.51.49.76.74a55.18,55.18,0,0,0,6.95-15.1C1284.07,423,1294.6,435,1309.1,445q6.25,2.26,13.05,4c-12-7.51-22.85-14.93-26.52-24.9,13.81,4.29,30.5,4.07,48.44,1.89-23.21-3.3-44-7.81-59.54-14.88,17.84,2.81,32,.18,43.3-6.77-28.16,2.9-52.9.81-68.82-14.09a120.09,120.09,0,0,0,38-3.5c-19.4-5.18-36-13.1-48.71-24.9,17.69,3.08,34.25,3.77,48.71,0-31.77-9.18-58.84-21.61-72.53-43.3,9.55,6.28,25.17,9,42.22,10.82-27-15.24-47-34-54.12-59-7.11,25-27.08,43.76-54.12,59,17-1.85,32.67-4.54,42.22-10.82-13.69,21.69-40.76,34.12-72.53,43.3,14.47,3.77,31,3.08,48.71,0-12.69,11.79-29.31,19.71-48.71,24.9a120.09,120.09,0,0,0,38,3.5c-15.93,14.9-40.66,17-68.82,14.09,11.28,6.95,25.46,9.58,43.3,6.77C1125,418.23,1104.24,422.74,1081,426c17.94,2.18,34.63,2.4,48.44-1.89-3.67,10-14.54,17.39-26.52,24.9,20.61-5.32,37.5-14.06,50.06-26.79-2.27,14.53-5.25,19.29-13,29.59C1138.56,453.51,1137,455.15,1135.43,456.78ZM1111.72,478l.19-.37.37,0Z"/><path class="cls-3" d="M1065.38,495.86a138.7,138.7,0,0,1-36.89-3.11,105.48,105.48,0,0,0,29.28,10.59A66.87,66.87,0,0,0,1065.38,495.86Z"/><path class="cls-3" d="M1335.6,474c1.15-.56,2.29-1.14,3.39-1.76.79-.55,1.55-1.1,2.33-1.65a103.18,103.18,0,0,1-14.77.22Q1330.95,472.48,1335.6,474Z"/><path class="cls-3" d="M1336.71,531.06a65.64,65.64,0,0,1-11.43-8.79l-1-.58a62,62,0,0,0,1.41,6.74A81.51,81.51,0,0,0,1336.71,531.06Z"/><path class="cls-3" d="M1163.94,789.91a65.71,65.71,0,0,0,14-8.62,112.33,112.33,0,0,1-25.62-4.78C1153.61,781.43,1157.87,786,1163.94,789.91Z"/><path class="cls-3" d="M1166.55,756.42a135.8,135.8,0,0,1-15.47-6.77q-3.47.62-6.92,1a72,72,0,0,0,12.33,9.35Q1161.65,758.39,1166.55,756.42Z"/><path class="cls-3" d="M1164.19,746.41l-.51.16a100,100,0,0,0,9.54,6.91q3.3-1.59,6.43-3.38A107.34,107.34,0,0,1,1164.19,746.41Z"/><path class="cls-3" d="M1082.73,507.48a39.43,39.43,0,0,0,4.19,5.46q2.95-.64,5.84-1.4A33.49,33.49,0,0,1,1082.73,507.48Z"/><path class="cls-3" d="M1148.56,748.34q-6.29-3.34-12.63-7.3a61.44,61.44,0,0,0,8.09,9.42Q1146.33,749.43,1148.56,748.34Z"/><path class="cls-3" d="M1002.42,713.25l.9,0c.48-.35,1-.69,1.43-1Q1003.59,712.76,1002.42,713.25Z"/><path class="cls-3" d="M990.44,754q4.4,1.5,8.77,2.7a68.45,68.45,0,0,0,8.81-7.49q-4.19.34-8.42.5Q995,752,990.44,754Z"/><path class="cls-3" d="M1010,642.81c.25-.29.51-.57.75-.86-1.33-.14-2.65-.28-4-.45C1007.84,641.95,1008.92,642.38,1010,642.81Z"/><path class="cls-3" d="M975.65,676.7a135.28,135.28,0,0,1-27.78-4.45,133.67,133.67,0,0,0,10,9.33,48.87,48.87,0,0,0,9.23,4.52c8.93-5.27,16.92-10.57,22.15-16a127.94,127.94,0,0,1-19.79,3.36C973.13,675.5,975.65,676.7,975.65,676.7Z"/><path class="cls-3" d="M984.13,731c1,.4,2,.78,3.08,1.16a65.83,65.83,0,0,0,6.17-5.35A56,56,0,0,1,984.13,731Z"/><path class="cls-3" d="M983.47,749.37c1.44-1.08,2.86-2.17,4.23-3.32q-3.34,1.11-6.73,2C981.8,748.48,982.63,748.93,983.47,749.37Z"/><path class="cls-3" d="M998.95,692.76a65.79,65.79,0,0,1-18.83,2.95l-2.17.18q5,3,10.25,5.88c.93-.49,1.83-1,2.7-1.55Q995.15,696.65,998.95,692.76Z"/><path class="cls-3" d="M986.3,690.16c7.33-4.53,16-11.07,17.79-17.38a100,100,0,0,1-33.38,14.53A75.54,75.54,0,0,0,986.3,690.16Z"/><path class="cls-3" d="M986.38,718.25q3,1,6.18,2a110.08,110.08,0,0,0,12.2-8A89.26,89.26,0,0,1,986.38,718.25Z"/><path class="cls-3" d="M955,712.56a76.61,76.61,0,0,0,7.34,6.34q1.53-.79,3-1.6A65.12,65.12,0,0,1,955,712.56Z"/><path class="cls-3" d="M971,712.35l1.75.74,1.28-.77C973,712.36,972,712.37,971,712.35Z"/><path class="cls-3" d="M976.58,738.9a123.94,123.94,0,0,1-15-3.94q4.3,3.59,9,6.77Q973.69,740.42,976.58,738.9Z"/><path class="cls-3" d="M974.4,719.86a84.91,84.91,0,0,1-10.78,0,87.2,87.2,0,0,0,13.26,8,142.15,142.15,0,0,0,12.95-6.1A87.53,87.53,0,0,1,974.4,719.86Z"/><path class="cls-3" d="M968.81,758.49a105,105,0,0,0,11.91-7.14q-3.45-.72-6.93-1.71a116.65,116.65,0,0,1-19,2A102,102,0,0,0,968.81,758.49Z"/><path class="cls-3" d="M949.49,748.21q6-1.25,11.53-3a202,202,0,0,1-31-16.12A75.72,75.72,0,0,0,949.49,748.21Z"/><path class="cls-3" d="M943.45,477.86c-7.57,7.08-17.64,10.51-29.3,11.63a83.12,83.12,0,0,1-20.91-.06q-2.17-.17-4.37-.4c8.95,5.51,20.19,7.59,34.34,5.37a115.07,115.07,0,0,1-18.59,6.34,106.34,106.34,0,0,0,15.7,5.46q-3.68.91-7.35,1.52a32.59,32.59,0,0,1-7.66,8.46,48.9,48.9,0,0,0,6.27,1.84,73.26,73.26,0,0,0,21.5-14.82c-1.21,7.77-2.69,12-5.4,16.47a139.3,139.3,0,0,0,14.85-.8,38.88,38.88,0,0,1-18.07,5.55l-1.66,2.25-.93,1a210,210,0,0,0,32.36,6.78c-12.92,1.57-24.94,1.73-34.88-1.36,2.64,7.18,10.47,12.52,19.1,17.93-11.54-3-21.46-7.46-29.56-13.61a44.64,44.64,0,0,1-4.89,1.83c1.55,5.23,3.77,8.51,7.74,13.79,1.07,1.2,2.19,2.38,3.32,3.56,11,10.72,30.47,12.11,48.33,8.26-8.8,4.63-19.35,8.12-31.17,6.8.46.48.94.93,1.43,1.38q3.44,2.61,7.08,5.14c13.78,7.73,33.25,8.22,51.34,4.32-8.8,4.63-19,8.34-30.39,8.65q8,4.44,16.71,8.6c-21.26.09-40.57-3.65-56.43-14.2,6.2,11.45,19.66,20.26,34.06,25.37-10.35-.72-21.68-3.49-31.31-11.59a104.76,104.76,0,0,0,22.68,27.14c11.71,4.51,26,5.63,39.78,4.21a72.1,72.1,0,0,1-27,5.45A174.65,174.65,0,0,0,987,650.78a152.2,152.2,0,0,1-27.16-4.25A84.71,84.71,0,0,0,972.64,657c9.61.28,19.17-.95,27.29-4.07a89.94,89.94,0,0,0,19.47-23.3c-8.27,6.95-18,9.33-26.88,9.95,12.36-4.39,23.92-12,29.24-21.78-13.62,9.05-30.2,12.26-48.45,12.19q7.47-3.57,14.35-7.38c-9.74-.27-18.53-3.46-26.09-7.43,15.53,3.35,32.25,2.93,44.08-3.71q3.13-2.17,6.08-4.41c.42-.39.83-.78,1.23-1.19C1002.81,607,993.74,604,986.19,600c15.34,3.31,32.08,2.11,41.5-7.09,1-1,1.93-2,2.85-3.06,4.77-6.36,6.62-9.31,8-18.29-7.77,7.87-18.21,13.27-31,16.56,7.41-4.64,14.13-9.23,16.4-15.39-8.54,2.65-18.85,2.52-29.95,1.17,14.35-2,27.17-4.83,36.81-9.2-11,1.74-19.79.11-26.77-4.18,17.41,1.79,32.7.5,42.55-8.71a74.24,74.24,0,0,1-23.48-2.17c10.56-2.82,19.78-7,27.19-12.87q-1.54-.75-3-1.63c-8.71,1.08-16.89,1-24.2-.89a161,161,0,0,0,16.42-5.63q-.91-1-1.79-2c-6.12-8.16-8.49-11.94-10.29-23.46,7.35,7.45,16.57,13.17,27.46,17.35q1.58-1.08,3.06-2.24a52.2,52.2,0,0,1-6.4-5.45c-3.09.53-6.36.94-9.72,1.31q3.72-2.1,7.12-4.35a20.47,20.47,0,0,1-2.85-5.13,55.29,55.29,0,0,0,7.67,1.76q3.1-2.32,5.85-4.81a123,123,0,0,1-22.31-7.25c13,2.05,23.62.43,32.2-4.15.23-.36.46-.71.69-1.07-21.73,2.08-40.77.25-53.13-11.31a95.24,95.24,0,0,0,30.11-2.78c-15.39-4.11-28.57-10.39-38.63-19.74,14,2.45,27.16,3,38.63,0-25.19-7.28-46.66-17.14-57.52-34.34,7.57,5,20,7.12,33.48,8.58-21.44-12.09-37.29-26.93-42.92-46.79-5.64,19.86-21.48,34.7-42.92,46.79,13.52-1.47,25.91-3.6,33.48-8.58-10.85,17.2-32.32,27.06-57.52,34.34,11.47,3,24.61,2.45,38.63,0-10.06,9.35-23.24,15.63-38.63,19.74A95.24,95.24,0,0,0,943.45,477.86Z"/><path class="cls-3" d="M1121.33,560q1.13.22,2.28.4c.9-.44,1.79-.89,2.66-1.35C1124.63,559.45,1123,559.76,1121.33,560Z"/><path class="cls-3" d="M1013.37,605.78l-.23,0-.12.23Z"/><path class="cls-3" d="M1014.46,784.87c-7.43,6-16.58,9.7-26.94,11.89l.6.17-1.19,0a130.57,130.57,0,0,1-22,2.38,99.44,99.44,0,0,0,9.68-3.24c-17.36-1.86-32.57-6.52-44.17-15.85-.26,13.51,8.7,26.24,25.72,33.13h36.21C1007,807.4,1014.69,796.47,1014.46,784.87Z"/><path class="cls-3" d="M931.72,571.58l.4.3-.14-.27Z"/><path class="cls-3" d="M968.18,672.77q6.56-3,12.49-6.41a116.31,116.31,0,0,1-38.14-16.74C945,658.46,959.19,667.69,968.18,672.77Z"/><path class="cls-3" d="M984.16,664.28q2.47-1.51,4.82-3.09A54.7,54.7,0,0,1,977.18,660C979.43,661.41,981.76,662.85,984.16,664.28Z"/><path class="cls-3" d="M1014.8,741c-14.34,8.93-28.49,15.73-42.34,18.83A123,123,0,0,0,986.62,764C998.14,758.58,1008,750.92,1014.8,741Z"/><path class="cls-3" d="M961.46,707.84a67.21,67.21,0,0,0,20.09-3.21,100,100,0,0,1-39.79-9.05A133.34,133.34,0,0,0,961.46,707.84Z"/><path class="cls-3" d="M957.44,772.68q-4.16-1-8.29-2.25a16.65,16.65,0,0,0,1.17,3.11Q953.91,773.22,957.44,772.68Z"/><path class="cls-3" d="M998.4,776.51c-13.9,4.2-28,6.08-42.54,4.26,5.52,5.23,13.8,9.78,23.34,13.29C989.2,789.39,996.63,783.29,998.4,776.51Z"/><path class="cls-3" d="M730.8,718.86a182.8,182.8,0,0,0,26.12-10.69q-7.84-1.44-15.74-3.68a99.63,99.63,0,0,1-15-.32c1.76-.89,3.48-1.8,5.18-2.72-21.41-7.24-43.15-18.41-65.11-32.09C681.55,691.4,704.22,707.89,730.8,718.86Z"/><path class="cls-3" d="M742.59,665.25q5.69,3,11.7,5.52c6.08-3.65,13.33-8.64,17.95-13.95-2.5,0-5-.13-7.41-.27A117.31,117.31,0,0,1,742.59,665.25Z"/><path class="cls-3" d="M776.5,649.61q-2.92,2-5.92,3.75l3.52,1.08A16.15,16.15,0,0,0,776.5,649.61Z"/><path class="cls-3" d="M767.52,675.85c1.24-1.18,2.46-2.38,3.64-3.6-2.69.72-5.48,1.36-8.3,1.93Q765.17,675,767.52,675.85Z"/><path class="cls-3" d="M658.62,433.11q1.85,2.32,3.91,4.53a48.88,48.88,0,0,0,22.07,1.62,139.59,139.59,0,0,1-14.75-5.75C666.22,433.55,662.47,433.41,658.62,433.11Z"/><path class="cls-3" d="M747.56,612.18q11.8,7.25,24.62,13.81a106.59,106.59,0,0,0,18.6-21C777.6,609.71,763,612.81,747.56,612.18Z"/><path class="cls-3" d="M674.55,458.48a45.4,45.4,0,0,1-5.88,6.38q1.41,1.88,2.88,3.72a85.13,85.13,0,0,0,11.71-6.6A85.62,85.62,0,0,1,674.55,458.48Z"/><path class="cls-3" d="M736.82,352.58c-10.51,19-30.68,30.32-54.61,38.72a136.44,136.44,0,0,0,41.07-2.83A123,123,0,0,1,711.41,394q2.94-.46,5.93-1.05c-8.19,8.66-18.38,15.07-30.11,19.77a86.45,86.45,0,0,0,19,6.83c.79,0,1.57-.07,2.35-.14l-.54.55c19.83,4.37,42.65,3.38,64.31-1.28-15.06,7.91-32.56,14.26-52,14.79q13.72,7.59,28.58,14.7c-22.5.09-43.72-2.33-63.06-8.46a108.8,108.8,0,0,1-14.94,5.81q3.5,2.88,7.33,5.51l.32-.11c0,.09-.07.17-.1.26,3.38,2.31,6.93,4.47,10.61,6.49a72.79,72.79,0,0,0,8.75-8.51,74.26,74.26,0,0,1-2.4,11.77,152.37,152.37,0,0,0,15.23,6.34,118.89,118.89,0,0,1-16.7-2.3,74.1,74.1,0,0,1-6.74,11.74c-1.22,1.55-2.49,3.08-3.77,4.6l-.4.42q6.07,6.28,12.84,12.14c20,7.71,44.43,9.63,68,7.2-13.89,5.46-29.53,9.48-46.22,9.32a298.66,298.66,0,0,0,45.89,25.07,260.26,260.26,0,0,1-46.44-7.27c12.33,12.74,32.38,25.19,54.1,37.6-30-4.74-58-15-83.64-32.32,6.22,22.44,56.65,46.32,56.65,46.32a231.32,231.32,0,0,1-47.5-7.62,228.63,228.63,0,0,0,17.12,16,91.75,91.75,0,0,0,27.44,11.32q8.33-4,16-8.27c-11.35-.31-21.58-4-30.39-8.65,18.09,3.9,37.56,3.41,51.34-4.32q3.64-2.52,7.08-5.14c.49-.45,1-.9,1.43-1.38-11.82,1.32-22.37-2.17-31.17-6.8,17.86,3.85,37.36,2.46,48.33-8.26,1.13-1.18,2.25-2.36,3.32-3.56,5.56-7.41,7.71-10.84,9.34-21.3-9,9.17-21.21,15.46-36.05,19.29,8.63-5.41,16.46-10.75,19.1-17.93-9.94,3.09-22,2.93-34.88,1.36,16.71-2.37,31.65-5.63,42.87-10.72-12.84,2-23.06.13-31.18-4.87,20.28,2.09,38.09.58,49.56-10.14a86.48,86.48,0,0,1-27.34-2.52c11.5-3.07,21.65-7.49,30-13.69a45.26,45.26,0,0,1-7.29-2.65,69.47,69.47,0,0,1-22.68-1.58c4.68-1.35,9.2-2.81,13.55-4.4a34.32,34.32,0,0,1-2.61-2.6c-1.28-1.52-2.55-3.05-3.77-4.6-6.32-9.59-8.76-14-10.61-27.55,9.84,11.35,22.93,19.28,38.81,24.29l.64-.42A112.23,112.23,0,0,1,824,464.48l-3.5.4c.83-.47,1.63-.94,2.44-1.42-3.89-3.8-6.92-7.89-8.44-12.59,6.7,2.37,14.24,3.26,22.32,3.17,1.53-1.22,3-2.47,4.41-3.75-13.76-2.81-26-6.46-35.81-11.51,14.59,2.62,26.2.17,35.43-6.3-23,2.7-43.28.76-56.31-13.12a86.83,86.83,0,0,0,31.07-3.26c-15.87-4.83-29.48-12.2-39.86-23.19,14.47,2.87,28,3.51,39.86,0-26-8.55-48.14-20.13-59.34-40.33,7.81,5.85,20.6,8.36,34.54,10.08-22.12-14.2-38.47-31.62-44.28-54.95-5.81,23.32-22.16,40.75-44.28,54.95C716.22,360.94,729,358.43,736.82,352.58Z"/><path class="cls-3" d="M749.86,686.83a212.63,212.63,0,0,1-29.59-7.48c4.49,3.75,9.2,7.29,14.08,10.67A72.76,72.76,0,0,0,749.86,686.83Z"/><path class="cls-3" d="M789,729.12c-2,1.25-4,2.46-6,3.63l3,.39C787,731.84,788,730.5,789,729.12Z"/><path class="cls-3" d="M658,448.95c1,1.69,2,3.37,3.07,5q2.33-.1,4.59-.33a77.91,77.91,0,0,1-6.87-4.88Z"/><path class="cls-3" d="M794.33,599.32a45.48,45.48,0,0,1-4.67,3.43l2.74-.23C793.06,601.46,793.71,600.4,794.33,599.32Z"/><path class="cls-3" d="M742.6,599.71a148.45,148.45,0,0,0,36.5,3.55c7.73-4.78,14.2-10.76,18-17.73C781.71,595.75,763.09,599.57,742.6,599.71Z"/><path class="cls-3" d="M755.21,702.72q3,1.6,6.12,3.12a129.79,129.79,0,0,0,15.94-10.27A103.77,103.77,0,0,1,755.21,702.72Z"/><path class="cls-3" d="M762.86,813.3c17-6.89,26-19.62,25.72-33.13-14.53,11.67-34.69,16-57.68,16.76,10.37-2.9,19.9-7,27-11.93-36.11-1.93-67.73-9.68-90.94-28.33-.44,23.1,14.88,44.87,44,56.65h51.91Z"/><path class="cls-3" d="M786.91,571.88l.4-.3-.27,0Z"/><path class="cls-3" d="M686.31,612c16.7,12.68,36.59,23.5,58.85,32.38q7.26-3.9,13.76-8.26a72.1,72.1,0,0,1-27-5.45c13.22,1.36,26.88.37,38.3-3.68C741,629.24,713.08,624,686.31,612Z"/><path class="cls-3" d="M753.95,647.76l2.93,1c.83-.76,1.62-1.52,2.36-2.28C757.5,647,755.73,647.38,753.95,647.76Z"/><path class="cls-3" d="M708.95,641a136.84,136.84,0,0,0,28.74,21.53c4.18-2.55,8.12-5.11,11.66-7.69A119,119,0,0,1,708.95,641Z"/><path class="cls-3" d="M764,712.56a71.16,71.16,0,0,1-27.38,8.61q5.38,2,10.95,3.74A79.87,79.87,0,0,0,764,712.56Z"/><path class="cls-3" d="M721.2,766.12c16.93-2.43,32.86-7.88,46-16.34a185.94,185.94,0,0,1-20.69-.51,95.43,95.43,0,0,1-18.32,3.62c3.21-1.41,6.3-2.93,9.3-4.54a231.7,231.7,0,0,1-35.83-7.55l-2.52-.24C701.78,749.91,709.82,758.6,721.2,766.12Z"/><path class="cls-3" d="M769.88,770.43A130.45,130.45,0,0,1,739.53,776a184.35,184.35,0,0,0,20.27,7.59C765,779.63,768.64,775.17,769.88,770.43Z"/><path class="cls-3" d="M385.19,574.42q2.92.7,6,1.15c1.15-1.14,2.3-2.29,3.42-3.45C391.52,572.94,388.37,573.71,385.19,574.42Z"/><path class="cls-3" d="M375.61,647.27c.58-.5,1.17-1,1.74-1.51l-1.78-1.15-1.05.52A17.07,17.07,0,0,0,375.61,647.27Z"/><path class="cls-3" d="M358.86,596.84q1.45-.49,2.87-1a47.24,47.24,0,0,1-6.27-4.44C356.52,593.24,357.67,595.05,358.86,596.84Z"/><path class="cls-3" d="M389.64,622.62Q397.73,617.55,405,612a182.39,182.39,0,0,1-23.1,8.57A71.72,71.72,0,0,0,389.64,622.62Z"/><path class="cls-3" d="M384.33,811.62A79.35,79.35,0,0,0,408,795.49c-16.67-1.7-31.45-5.86-43.17-14l-3.33.57C362.52,793.88,370.36,804.8,384.33,811.62Z"/><path class="cls-3" d="M353.92,579.3a50.93,50.93,0,0,0,14,14,79.22,79.22,0,0,0,9.58-5.18l.08-.07a83.68,83.68,0,0,1-21.68-8.88Z"/><path class="cls-3" d="M421.37,774.81a119.07,119.07,0,0,1-24.88-2.1q-5.54,2.22-11.41,4c5.27,6.35,14.5,11.9,25.47,16.11.79-.9,1.54-1.81,2.26-2.74A37.38,37.38,0,0,1,411,778a52.72,52.72,0,0,0,6.39,5.29A53.5,53.5,0,0,0,421.37,774.81Z"/><path class="cls-3" d="M412.35,684.74a121,121,0,0,0,12.7-15.37q-11.26,7-22.44,13.09A72.1,72.1,0,0,0,412.35,684.74Z"/><path class="cls-3" d="M362.74,562.61l.42.31-.14-.28Z"/><path class="cls-3" d="M377.26,562.17a48.31,48.31,0,0,1-14,.51c.48.5,1,1,1.48,1.43,1.48,1.12,3,2.23,4.52,3.33C371.88,565.8,374.58,564,377.26,562.17Z"/><path class="cls-3" d="M352.25,523.34c-.79-.2-1.58-.42-2.35-.66.2.53.42,1,.67,1.56Z"/><path class="cls-3" d="M342,543.37c1.11,1.25,2.27,2.47,3.44,3.69a29.65,29.65,0,0,0,2.25,2c5.1-3.35,9.87-6.71,14.22-10.08a88.45,88.45,0,0,1-13.41-5.75q-6,.87-12.29,1.49A63.16,63.16,0,0,0,342,543.37Z"/><path class="cls-3" d="M341.61,513a109.63,109.63,0,0,0,18.09,6.11q7.21-4.23,13.95-8.75c-1.41,0-2.81,0-4.21-.06C361.83,513.66,352.66,514.73,341.61,513Z"/><path class="cls-3" d="M335,532.09q3.29-1.55,6.49-3.15a63.86,63.86,0,0,1-9.19-7.68A48.32,48.32,0,0,0,335,532.09Z"/><path class="cls-3" d="M424.1,763.16a50.34,50.34,0,0,0,.29-6.49q-3.32,2.67-6.86,5Q420.78,762.51,424.1,763.16Z"/><path class="cls-3" d="M326.63,451l1.64,1-2.49-.28a84.12,84.12,0,0,1-13.13,8.09,92.71,92.71,0,0,0,13.05,7.3l.5-.1-.22.24a177.15,177.15,0,0,0,24.92,9c-10.53,2.74-22.54,2.32-35.37.17l-.47.32c9.4,8.53,21.62,14.31,35.83,18.11a89.69,89.69,0,0,1-28.36,2.62c7.87,7.36,18.63,10.52,31.09,11.2A138.92,138.92,0,0,1,327.43,501c20.78,2.14,42.2.89,60.7-4.7a31.26,31.26,0,0,1-10-7.57,63,63,0,0,0,24-2.69c-12.26-4-22.76-10.05-30.78-19.1,11.17,2.37,21.64,2.89,30.78,0-1.77-.62-3.52-1.27-5.24-1.94a119.46,119.46,0,0,1-16.2,2.2c3.69-1.31,7.34-2.76,10.92-4.35-9.67-4.16-18.29-9.19-25.12-15.72-7.83.69-15.86,1-24.05,1q8.9-4.25,17.36-8.69a49,49,0,0,1-3.48-5.69,27.12,27.12,0,0,0,6.95,3.87q3.92-2.08,7.76-4.2a109.27,109.27,0,0,1-37.25-8A101.53,101.53,0,0,1,314.58,442c10.77-1.42,20.64-3.48,26.67-8.3A53.13,53.13,0,0,1,326.63,451Z"/><path class="cls-3" d="M361.45,422.61a64.66,64.66,0,0,1-12.68-25.82,64.38,64.38,0,0,1-11.89,24.8A162,162,0,0,0,361.45,422.61Z"/><path class="cls-3" d="M378.4,743.82a92.62,92.62,0,0,0,9.28,6.11,33,33,0,0,0,4.05-7.77c-.91-.38-1.81-.75-2.72-1.15Q383.72,742.53,378.4,743.82Z"/><path class="cls-3" d="M377.81,694.56a141,141,0,0,0,13.2,8q2.77-1.88,5.43-3.88a105.38,105.38,0,0,1-16.95-4.86Z"/><path class="cls-3" d="M363.83,537.47a111.21,111.21,0,0,0,10.37-9.32q-8.55,2.18-17.56,3.77A65.35,65.35,0,0,0,363.83,537.47Z"/><path class="cls-3" d="M383.81,557.37c6.22-4.83,11.87-10.11,15.67-15.49a27.47,27.47,0,0,1-2-2.11l-1.22-1.56a196.29,196.29,0,0,1-35.78,17.23A65.26,65.26,0,0,0,383.81,557.37Z"/><path class="cls-3" d="M192.56,670.34l.17.13.06-.06Z"/><path class="cls-3" d="M203.56,562.83c-1.69-.13-3.34-.35-5-.64a263,263,0,0,1-31.11-6.28,244,244,0,0,0,18.27,17c1,.65,2.06,1.27,3.11,1.87a52.23,52.23,0,0,0,14.77-5.37q3.78-2.62,7.34-5.33l.51-.49C208.89,563.41,206.24,563.15,203.56,562.83Z"/><path class="cls-3" d="M199.41,645.09l1.38.93a13.91,13.91,0,0,0,1-2.47C201,644.07,200.19,644.58,199.41,645.09Z"/><path class="cls-3" d="M180.55,629.5h0c.41.4.83.79,1.25,1.19l.44-.29C181.66,630.1,181.09,629.81,180.55,629.5Z"/><path class="cls-3" d="M223.09,577.08a77.26,77.26,0,0,1-12.57,6.74q3.16.91,6.42,1.65A40.54,40.54,0,0,0,223.09,577.08Z"/><path class="cls-3" d="M231.4,513.36l.88.42c.61-.26,1.22-.52,1.82-.79C233.18,513.13,232.28,513.25,231.4,513.36Z"/><path class="cls-3" d="M268.28,455.85q1.63-1.36,3.13-2.8-3.39-1.77-6.56-3.79c-2.68.61-5.52,1.12-8.48,1.57A56.33,56.33,0,0,0,268.28,455.85Z"/><path class="cls-3" d="M234.73,542c5-6.77,7.07-10.53,8.65-20.71a68.83,68.83,0,0,1-19.94,13.82Q228.93,538.54,234.73,542Z"/><path class="cls-3" d="M296.74,443.87c.36.57.74,1.14,1.13,1.7l2.14.12A27.53,27.53,0,0,1,296.74,443.87Z"/><path class="cls-3" d="M157.73,276a66.29,66.29,0,0,1-9.58,4.86,142.34,142.34,0,0,1-17.91,11.81c13.95-1.51,26.73-3.72,34.54-8.86a58.27,58.27,0,0,1-15,15.7c9.31,1.87,19.11,3.49,29.27,4.94-14,1.7-27.39,2.48-39.78,1.66a136.19,136.19,0,0,1-16.63,7.47,68.9,68.9,0,0,0,7.94,7.5,144.24,144.24,0,0,0,14.69-1.84,70.71,70.71,0,0,1-8.36,6.65c4.18,3,8.69,5.88,13.33,8.79A188.7,188.7,0,0,1,132,329a109,109,0,0,1-26.56,10.63,98.26,98.26,0,0,0,31.07,2.87,43.36,43.36,0,0,1-18.93,10c20.63,12.44,50.49,13.38,78.2,7.41-16.06,8.44-35.32,14.81-56.88,12.4.84.87,1.72,1.7,2.61,2.52q6.27,4.77,12.92,9.37c21.92,12.29,51.74,14.55,80.9,10.21-.49-.53-1-1.07-1.47-1.6-6.32-8.42-8.76-12.32-10.61-24.21,10.28,10.42,24.1,17.57,41,21.92-9.81-6.15-18.7-12.22-21.7-20.37,11.3,3.51,25,3.33,39.63,1.55-19-2.7-36-6.39-48.71-12.18,14.59,2.3,26.2.15,35.43-5.54-23,2.37-43.28.66-56.31-11.53a98.26,98.26,0,0,0,31.07-2.87c-15.87-4.24-29.48-10.72-39.86-20.37,14.47,2.52,28,3.09,39.86,0-26-7.51-48.14-17.68-59.34-35.43,7.81,5.14,20.6,7.34,34.54,8.86-22.12-12.47-38.47-27.78-44.28-48.27-3.52,12.39-10.89,22.89-21.06,32Q155.59,276.22,157.73,276Z"/><path class="cls-3" d="M237.83,397.07c-13.59,6-28.74,10.37-45.17,10.82q14.64,8.1,30.5,15.69c-38.79.16-74-6.66-103-25.91,11.31,20.89,35.88,37,62.15,46.3-18.89-1.31-39.57-6.38-57.14-21.15a191.16,191.16,0,0,0,41.38,49.53c21.37,8.22,47.42,10.28,72.59,7.69-14.82,5.82-31.52,10.12-49.33,9.95a303.8,303.8,0,0,0,31.91,18.64c12.6-.64,23.48-3.79,31.41-11.21a89.69,89.69,0,0,1-28.36-2.62c14.49-3.87,26.91-9.79,36.38-18.59-13.21,2.3-25.58,2.82-36.38,0,13.19-3.81,25.29-8.38,35.2-14.46a114.66,114.66,0,0,1-7.7-10.36q-2.4.31-4.86.57,1.92-1.08,3.78-2.2-1.36-2.14-2.62-4.33a51.83,51.83,0,0,0,4.33,3.27c2-1.23,3.93-2.49,5.79-3.79a50.32,50.32,0,0,1-13.24-15.14,86.91,86.91,0,0,0,20.24,9.84,77.48,77.48,0,0,0,13-13.4,54.36,54.36,0,0,1-11.88-4.81q-4.14-2.87-8-5.84c-.55-.51-1.1-1-1.62-1.57,11.29,1.26,21.56-1.35,30.49-5.34.08-.25.17-.5.24-.76.05.19.13.38.18.57,1.54-.7,3-1.43,4.5-2.2C272.35,410.61,250.34,409.07,237.83,397.07Zm18.73,16.84.3,0,.16.3Z"/><path class="cls-3" d="M108.9,318.21l-3.46,1a62.52,62.52,0,0,0,8,1.51Q111.14,319.52,108.9,318.21Z"/><path class="cls-3" d="M304.15,434.33a88.79,88.79,0,0,0,21-8,116.46,116.46,0,0,1-25.9,2.69Q301.52,431.74,304.15,434.33Z"/><path class="cls-3" d="M138,372.21l.74.55-.25-.49Z"/><path class="cls-3" d="M192.5,621c1.44-.44,2.85-.92,4.23-1.45q3.76-3.25,7.15-6.71a187.3,187.3,0,0,1-47.56-14.34A243.56,243.56,0,0,0,192.5,621Z"/><path class="cls-3" d="M203.94,521.75a159.72,159.72,0,0,0,23.33-6,268.88,268.88,0,0,1-38-6.74A128.91,128.91,0,0,0,203.94,521.75Z"/><path class="cls-3" d="M205.33,557.3c9.81-1,18.7-4.15,24.93-10.24l.94-1q-10.82-2.44-21.29-5.88c-1.29.38-2.59.75-3.91,1.09l2.48-1.57a209.21,209.21,0,0,1-50.75-25.1C162.28,531,189,548.15,205.33,557.3Z"/><path class="cls-3" d="M218.83,532.13a24.35,24.35,0,0,0,7-9.45,62.84,62.84,0,0,1-17.15,2.52Q213.51,528.68,218.83,532.13Z"/><path class="cls-3" d="M158.46,685.41A74.29,74.29,0,0,0,175,681.85a409.61,409.61,0,0,1-40-22.16A133.11,133.11,0,0,0,158.46,685.41Z"/><path class="cls-4" d="M1400,344.23V330.78a259.34,259.34,0,0,1-31.42,11C1378.25,344.35,1388.81,345,1400,344.23Z"/><path class="cls-4" d="M1400,371.78V355.67a142.52,142.52,0,0,1-31.42,12.17A129.2,129.2,0,0,0,1400,371.78Z"/><path class="cls-4" d="M1400,377.71c-16.37,9.89-38.72,11.06-63.64,8.5,11.78,7.25,26.6,10,45.23,7.07-16.28,7.38-37.94,12.1-62.19,15.55,18.74,2.27,36.18,2.5,50.6-2-3.83,10.41-15.18,18.16-27.7,26,21.53-5.56,39.17-14.69,52.29-28-2.37,15.18-5.48,20.15-13.55,30.9-1.55,1.74-3.18,3.45-4.81,5.16-15.92,15.55-44.2,17.57-70.11,12,12.77,6.71,28.08,11.77,45.21,9.86-.67.69-1.37,1.35-2.07,2q-5,3.79-10.27,7.45c-1.1.62-2.24,1.2-3.39,1.76-20.55-6.64-37.75-15.6-46.91-30.12,7.13,4.69,18.8,6.7,31.53,8.08-20.19-11.38-35.11-25.36-40.42-44.06-5.31,18.7-20.23,32.68-40.42,44.06,12.73-1.38,24.4-3.39,31.53-8.08-10.22,16.2-30.44,25.48-54.16,32.34,10.8,2.82,23.17,2.3,36.38,0-9.47,8.81-21.89,14.72-36.38,18.59a89.69,89.69,0,0,0,28.36,2.62c-11.9,11.13-30.37,12.69-51.4,10.52,8.42,5.19,19,7.15,32.34,5.05-11.64,5.28-27.13,8.65-44.46,11.12,13.4,1.63,25.87,1.79,36.18-1.41-2.74,7.44-10.86,13-19.81,18.59,15.39-4,28-10.5,37.39-20-1.69,10.85-3.92,14.41-9.69,22.1-1.11,1.25-2.27,2.47-3.44,3.69-11.38,11.12-31.6,12.56-50.13,8.57,9.13,4.8,20.07,8.42,32.33,7.05-.48.5-1,1-1.48,1.43q-3.56,2.71-7.34,5.33c-13.2,7.4-31.44,8.39-48.94,5.31,3.25-.14,6.61-.44,10-.85-14.35-2-27.17-4.83-36.81-9.2,11,1.74,19.79.11,26.77-4.18-17.41,1.79-32.7.5-42.55-8.71a74.25,74.25,0,0,0,23.48-2.17c-12-3.2-22.27-8.1-30.12-15.39,10.93,1.91,21.17,2.33,30.12,0-19.64-5.68-36.38-13.36-44.84-26.77,5.9,3.88,15.56,5.55,26.1,6.69-16.72-9.42-29.07-21-33.46-36.47-4.39,15.48-16.74,27.05-33.46,36.47,10.54-1.14,20.2-2.81,26.1-6.69-8.46,13.41-25.2,21.09-44.84,26.77,8.94,2.33,19.18,1.91,30.12,0-7.84,7.29-18.12,12.19-30.12,15.39a74.24,74.24,0,0,0,23.48,2.17c-9.85,9.21-25.14,10.5-42.55,8.71,7,4.29,15.74,5.92,26.77,4.18-9.63,4.37-22.46,7.16-36.81,9.2,11.09,1.35,21.41,1.48,29.95-1.17-2.27,6.16-9,10.75-16.4,15.39,12.74-3.29,23.18-8.69,31-16.56-1.4,9-3.25,11.93-8,18.29-.92,1-1.88,2-2.85,3.06-9.42,9.21-26.16,10.4-41.5,7.09,7.56,4,16.62,7,26.76,5.84-.4.41-.81.8-1.23,1.19q-2.95,2.24-6.08,4.41c-11.83,6.63-28.55,7.05-44.08,3.71,7.56,4,16.35,7.16,26.09,7.43q-6.89,3.81-14.35,7.38c18.25.08,34.83-3.14,48.45-12.19-5.32,9.83-16.88,17.4-29.24,21.78,8.89-.62,18.62-3,26.88-9.95a89.94,89.94,0,0,1-19.47,23.3c-8.12,3.12-17.68,4.36-27.29,4.07a84.71,84.71,0,0,1-12.84-10.44A152.2,152.2,0,0,0,987,650.78a174.65,174.65,0,0,1-26.84-14.66,72.1,72.1,0,0,0,27-5.45c-13.79,1.42-28.07.29-39.78-4.21a104.76,104.76,0,0,1-22.68-27.14c9.63,8.09,21,10.87,31.31,11.59C941.61,605.8,928.15,597,922,585.53c15.86,10.54,35.17,14.28,56.43,14.2q-8.7-4.16-16.71-8.6c11.35-.31,21.58-4,30.39-8.65-18.09,3.9-37.56,3.41-51.34-4.32q-3.64-2.52-7.08-5.14c-.49-.45-1-.9-1.43-1.38,11.82,1.32,22.37-2.17,31.17-6.8-17.87,3.85-37.36,2.46-48.33-8.26-1.13-1.18-2.25-2.36-3.32-3.56-5.56-7.41-7.71-10.84-9.34-21.3,9,9.17,21.21,15.46,36,19.29-8.63-5.41-16.46-10.75-19.1-17.93,9.94,3.09,22,2.93,34.88,1.36-16.71-2.37-31.65-5.63-42.87-10.72,12.84,2,23.06.13,31.18-4.87-20.28,2.09-38.09.58-49.56-10.14a86.48,86.48,0,0,0,27.34-2.52c-14-3.73-25.94-9.44-35.08-17.93,12.73,2.22,24.66,2.72,35.08,0-22.88-6.61-42.37-15.56-52.22-31.18,6.88,4.52,18.13,6.46,30.4,7.79-19.47-11-33.86-24.45-39-42.48-5.12,18-19.5,31.51-39,42.48,12.27-1.33,23.52-3.27,30.4-7.79-9.86,15.62-29.35,24.57-52.22,31.18,10.42,2.72,22.34,2.22,35.08,0-9.13,8.49-21.11,14.19-35.08,17.93a86.48,86.48,0,0,0,27.34,2.52c-11.47,10.73-29.28,12.23-49.56,10.14,8.12,5,18.33,6.89,31.18,4.87-11.22,5.09-26.16,8.34-42.87,10.72,12.92,1.57,24.94,1.73,34.88-1.36-2.64,7.18-10.47,12.52-19.1,17.93,14.84-3.83,27-10.13,36.05-19.29-1.63,10.46-3.78,13.89-9.34,21.3-1.07,1.2-2.19,2.38-3.32,3.56-11,10.72-30.47,12.11-48.33,8.26,8.8,4.63,19.35,8.12,31.17,6.8-.46.48-.94.93-1.43,1.38q-3.43,2.61-7.08,5.14c-13.78,7.73-33.25,8.22-51.34,4.32,8.8,4.63,19,8.34,30.39,8.65q-7.71,4.26-16,8.27a91.75,91.75,0,0,1-27.44-11.32,228.63,228.63,0,0,1-17.12-16,231.32,231.32,0,0,0,47.5,7.62s-50.43-23.88-56.65-46.32c25.59,17.34,53.65,27.58,83.64,32.32-21.73-12.4-41.77-24.86-54.1-37.6a260.26,260.26,0,0,0,46.44,7.27,298.66,298.66,0,0,1-45.89-25.07c16.69.16,32.33-3.86,46.22-9.32-23.58,2.43-48,.5-68-7.2a179.13,179.13,0,0,1-38.78-46.41C673.6,461.26,693,466,710.67,467.23c-24.61-8.73-47.64-23.81-58.23-43.38,27.12,18,60.14,24.43,96.49,24.27q-14.87-7.11-28.58-14.7c19.4-.53,36.91-6.88,52-14.79-30.94,6.67-64.23,5.83-87.79-7.38q-6.23-4.31-12.1-8.78c-.83-.77-1.66-1.54-2.44-2.36,20.2,2.26,38.25-3.71,53.3-11.62-30.55,6.58-63.88,4.2-82.65-14.13-1.93-2-3.84-4-5.68-6.09-9.51-12.67-13.18-18.54-16-36.43,15.47,15.67,36.27,26.44,61.64,33-14.76-9.25-28.14-18.39-32.65-30.66,17,5.28,37.55,5,59.64,2.33-28.58-4.06-54.12-9.62-73.31-18.33,22,3.46,39.42.22,53.31-8.33-34.67,3.57-65.13,1-84.74-17.35a147.87,147.87,0,0,0,46.75-4.31c-23.89-6.38-44.36-16.13-60-30.66,21.77,3.8,42.17,4.64,60,0-39.12-11.31-72.45-26.61-89.3-53.31,11.76,7.74,31,11.05,52,13.33-33.29-18.77-57.89-41.8-66.64-72.64-8.75,30.83-33.35,53.87-66.64,72.64,21-2.28,40.22-5.59,52-13.33-16.85,26.7-50.18,42-89.3,53.31,17.81,4.64,38.2,3.8,60,0-15.62,14.52-36.09,24.27-60,30.66a147.87,147.87,0,0,0,46.75,4.31c-19.61,18.34-50.07,20.91-84.74,17.35,13.89,8.55,31.35,11.79,53.31,8.33-19.19,8.71-44.73,14.27-73.31,18.33,22.09,2.68,42.64,3,59.64-2.33-4.52,12.27-17.9,21.41-32.65,30.66,25.37-6.55,46.17-17.31,61.64-33-2.79,17.89-6.46,23.76-16,36.43-1.83,2.05-3.74,4.07-5.68,6.09-18.76,18.33-52.1,20.71-82.65,14.13,15,7.91,33.1,13.88,53.3,11.62-.79.82-1.61,1.59-2.44,2.36q-5.87,4.47-12.1,8.78c-23.56,13.21-56.86,14-87.79,7.38,15.06,7.91,32.56,14.26,52,14.79q-13.72,7.59-28.58,14.7c36.35.15,69.37-6.25,96.49-24.27-10.59,19.58-33.62,34.65-58.23,43.38,17.7-1.23,37.07-6,53.54-19.82a179.13,179.13,0,0,1-38.78,46.41c-20,7.71-44.43,9.63-68,7.2a138.92,138.92,0,0,0,26.21,7.58c-12.46-.68-23.22-3.84-31.09-11.2a89.69,89.69,0,0,0,28.36-2.62C336.42,490.93,324,485,314.53,476.2c13.21,2.3,25.58,2.82,36.38,0-23.73-6.86-43.94-16.14-54.16-32.34,7.13,4.69,18.8,6.7,31.53,8.08-20.19-11.38-35.11-25.36-40.42-44.06-5.31,18.7-20.23,32.68-40.42,44.06,12.73-1.38,24.4-3.39,31.53-8.08-10.22,16.2-30.44,25.48-54.16,32.34,10.8,2.82,23.17,2.3,36.38,0-9.47,8.81-21.89,14.72-36.38,18.59a89.69,89.69,0,0,0,28.36,2.62c-7.94,7.42-18.81,10.57-31.41,11.21A303.8,303.8,0,0,1,189.83,490c17.81.17,34.5-4.12,49.33-9.95-25.16,2.59-51.22.54-72.59-7.69a191.16,191.16,0,0,1-41.38-49.53c17.57,14.77,38.25,19.84,57.14,21.15-26.27-9.32-50.84-25.41-62.15-46.3,28.94,19.24,64.19,26.07,103,25.91q-15.87-7.59-30.5-15.69c20.7-.57,39.39-7.35,55.46-15.79-33,7.11-68.55,6.22-93.69-7.88q-6.65-4.6-12.92-9.37c-.89-.82-1.77-1.65-2.61-2.52,21.56,2.41,40.82-4,56.88-12.4-32.6,7-68.18,4.49-88.2-15.08-2.06-2.15-4.1-4.3-6.06-6.5-10.15-13.52-14.07-19.79-17-38.88,16.51,16.73,38.71,28.21,65.79,35.2-15.75-9.87-30-19.62-34.85-32.72,18.14,5.64,40.08,5.35,63.65,2.49-30.5-4.33-57.76-10.27-78.23-19.56,23.44,3.69,42.07.24,56.9-8.89-37,3.81-69.51,1.07-90.44-18.51a157.81,157.81,0,0,0,49.9-4.6c-25.49-6.81-47.34-17.22-64-32.72,23.24,4.05,45,5,64,0-41.74-12.07-77.32-28.4-95.3-56.9C34.44,171.53,55,175.07,77.36,177.5c-35.53-20-61.78-44.61-71.12-77.52A95,95,0,0,1,0,116.13V813.32H182.62a88.66,88.66,0,0,1-27.41-17c22-.76,41.46-4.79,56.08-15.1l2.94.36c-.86,13-10.07,25.05-26.62,31.75H710.95c-29.1-11.77-44.43-33.54-44-56.65,23.2,18.65,54.82,26.4,90.94,28.33-7.1,4.92-16.63,9-27,11.93,23-.71,43.15-5.08,57.68-16.76.26,13.51-8.7,26.24-25.72,33.13H956.17c-17-6.89-26-19.62-25.72-33.13,11.6,9.32,26.81,14,44.17,15.85a99.44,99.44,0,0,1-9.68,3.24,130.57,130.57,0,0,0,22-2.38l1.19,0-.6-.17c10.35-2.18,19.51-5.92,26.94-11.89.22,11.6-7.47,22.53-22.08,28.44h166c-14.61-5.91-22.31-16.84-22.08-28.44a56.56,56.56,0,0,0,17.26,9.24c-2.32.8-4.69,1.54-7.12,2.22q6.1-.19,11.91-.74a119.75,119.75,0,0,0,27.47,3.66,93.31,93.31,0,0,1-14.72-5.42c13.59-2.54,25.56-7.17,35.16-14.89.27,14-9,27.22-26.68,34.36H1400ZM1013,606l.12-.23.23,0Zm-81-34.42.14.27-.4-.3ZM669.59,400.05l.24.46-.69-.52Zm-248.07.46.24-.46.45-.06Zm-283-28.23.25.49-.74-.55ZM234.09,513c-.59.27-1.2.53-1.82.79l-.88-.42C232.28,513.25,233.18,513.13,234.09,513Zm-6.82,2.73a159.72,159.72,0,0,1-23.33,6A128.91,128.91,0,0,1,189.24,509,268.88,268.88,0,0,0,227.27,515.72Zm-1.47,7a24.35,24.35,0,0,1-7,9.45q-5.31-3.45-10.17-6.93A62.84,62.84,0,0,0,225.81,522.69ZM175,681.85a74.29,74.29,0,0,1-16.52,3.56A133.11,133.11,0,0,1,135,659.7,409.61,409.61,0,0,0,175,681.85Zm.85,55c-1.41,1-2.84,2-4.3,3a30.07,30.07,0,0,1-1.61-4.43l.57-.12Q173.15,736.08,175.83,736.82Zm-40.15,16a108.91,108.91,0,0,0,15.53,10.38c-4.69.91-9.47,1.58-14.31,2A53.54,53.54,0,0,1,135.68,752.86Zm19.38,43.3a62.11,62.11,0,0,1-15.72-22.77,111.9,111.9,0,0,0,35.69,0q7.23,2.34,14.92,4.07C182.93,785.37,169.85,791.95,155.06,796.17Zm26.42-42.78a52.14,52.14,0,0,1-6.66-7.79,147.19,147.19,0,0,0,13.94-5.52q5.3,1.19,10.62,2.15A95,95,0,0,1,181.47,753.39ZM184,703c-2.26-1.26-4.49-2.55-6.66-3.9a106.06,106.06,0,0,0,22.6-6.72l.73.26A138.58,138.58,0,0,1,184,703Zm-3.47-73.46h0c.55.31,1.11.6,1.66.9l-.44.29C181.35,630.3,180.93,629.91,180.52,629.5Zm12,40.84.23.07-.06.06ZM200.79,646l-1.38-.93c.79-.51,1.57-1,2.35-1.54A13.91,13.91,0,0,1,200.79,646Zm-4.06-26.49c-1.37.53-2.79,1-4.23,1.45a243.56,243.56,0,0,1-36.18-22.5,187.3,187.3,0,0,0,47.56,14.34Q200.48,616.28,196.73,619.53Zm-29.24-63.62a263,263,0,0,0,31.11,6.28c1.63.29,3.28.51,5,.64,2.68.32,5.33.58,7.93.79l-.51.49q-3.56,2.71-7.34,5.33a52.23,52.23,0,0,1-14.77,5.37c-1.05-.61-2.09-1.22-3.11-1.87A244,244,0,0,1,167.48,555.91Zm49.46,29.57q-3.26-.75-6.42-1.65a77.26,77.26,0,0,0,12.57-6.74A40.54,40.54,0,0,1,216.95,585.48Zm13.31-38.42c-6.23,6.09-15.12,9.26-24.93,10.24-16.36-9.16-43.05-26.29-47.6-42.69a209.21,209.21,0,0,0,50.75,25.1L206,541.28c1.33-.34,2.63-.71,3.91-1.09q10.46,3.45,21.29,5.88Zm4.48-5.08q-5.8-3.44-11.29-6.89a68.83,68.83,0,0,0,19.94-13.82C241.8,531.45,239.74,535.21,234.73,542ZM391,702.58a141,141,0,0,1-13.2-8l1.68-.73a105.38,105.38,0,0,0,16.95,4.86Q393.78,700.69,391,702.58Zm.72,39.57a33,33,0,0,1-4.05,7.77,92.62,92.62,0,0,1-9.28-6.11q5.32-1.29,10.61-2.81C389.92,741.4,390.83,741.78,391.74,742.15Zm-2.09-119.53a71.72,71.72,0,0,1-7.69-2A182.39,182.39,0,0,0,405,612Q397.74,617.55,389.64,622.62Zm-4.45-48.2c3.18-.71,6.33-1.48,9.4-2.3-1.12,1.16-2.27,2.31-3.42,3.45Q388.11,575.12,385.19,574.42Zm18.54-41c-2.27,8.2-10.46,16.6-19.92,23.95a65.26,65.26,0,0,1-23.31-1.94A195.58,195.58,0,0,0,403.73,533.42Zm-26.47,28.74c-2.69,1.87-5.39,3.63-8,5.28-1.53-1.1-3-2.21-4.52-3.33-.5-.47-1-.94-1.48-1.43A48.31,48.31,0,0,0,377.26,562.17Zm-14.11.76-.42-.31.28,0Zm.67-25.46a65.35,65.35,0,0,1-7.19-5.55q9-1.59,17.56-3.77A111.21,111.21,0,0,1,363.83,537.47Zm5.62-27.17c1.4,0,2.8.07,4.21.06q-6.73,4.52-13.95,8.75A109.63,109.63,0,0,1,341.61,513C352.66,514.73,361.83,513.66,369.44,510.29Zm-17.2,13.05-1.68.9c-.25-.51-.48-1-.67-1.56C350.67,522.93,351.45,523.14,352.25,523.34Zm-19.93-2.07a63.86,63.86,0,0,0,9.19,7.68q-3.2,1.6-6.49,3.15A48.32,48.32,0,0,1,332.32,521.27Zm13.13,25.79c-1.17-1.22-2.33-2.45-3.44-3.69a63.16,63.16,0,0,1-5.79-8.67q6.24-.61,12.29-1.49A88.45,88.45,0,0,0,361.92,539c-4.35,3.38-9.12,6.74-14.22,10.08A29.65,29.65,0,0,1,345.45,547.06Zm10.43,32.07A83.68,83.68,0,0,0,377.55,588l-.08.07a79.22,79.22,0,0,1-9.58,5.18,50.93,50.93,0,0,1-14-14Zm21.48,66.63c-.58.51-1.16,1-1.74,1.51a17.07,17.07,0,0,1-1.09-2.14l1.05-.52Zm-21.89-54.38a47.24,47.24,0,0,0,6.27,4.44q-1.42.53-2.87,1C357.67,595.05,356.52,593.24,355.46,591.38Zm28.87,220.24c-14-6.82-21.81-17.74-22.79-29.54l3.33-.57c11.73,8.11,26.5,12.27,43.17,14A79.35,79.35,0,0,1,384.33,811.62Zm26.23-18.81c-11-4.21-20.2-9.76-25.47-16.11q5.87-1.79,11.41-4a119.07,119.07,0,0,0,24.88,2.1A56.06,56.06,0,0,1,410.55,792.82Zm13.54-29.66q-3.32-.65-6.57-1.45,3.54-2.38,6.86-5A50.34,50.34,0,0,1,424.1,763.16Zm-11.74-78.41a72.1,72.1,0,0,1-9.74-2.28q11.18-6.05,22.44-13.09A121,121,0,0,1,412.35,684.74ZM787,571.62l.27,0-.4.3ZM770.18,627c-11.42,4.05-25.08,5-38.3,3.68a72.1,72.1,0,0,0,27,5.45q-6.49,4.37-13.76,8.26C722.9,635.51,703,624.68,686.31,612,713.08,624,741,629.24,770.18,627Zm2.06,29.82c-4.61,5.3-11.87,10.29-17.95,13.95q-6-2.57-11.7-5.52a117.31,117.31,0,0,0,22.24-8.7C767.27,656.69,769.73,656.78,772.23,656.82Zm-1.66-3.45q3-1.77,5.92-3.75a16.15,16.15,0,0,1-2.4,4.83Zm.58,18.88c-1.18,1.22-2.4,2.42-3.64,3.6q-2.35-.81-4.66-1.67C765.67,673.61,768.46,673,771.15,672.25Zm-21.3,14.58A72.76,72.76,0,0,1,734.35,690c-4.88-3.38-9.59-6.92-14.08-10.67A212.63,212.63,0,0,0,749.86,686.83ZM708.95,641a119,119,0,0,0,40.4,13.84c-3.54,2.58-7.49,5.14-11.66,7.69A136.84,136.84,0,0,1,708.95,641Zm45,6.71c1.78-.38,3.55-.78,5.28-1.23-.74.76-1.53,1.52-2.36,2.28ZM666.3,669.37c22,13.68,43.7,24.84,65.11,32.09-1.7.92-3.42,1.83-5.18,2.72a99.63,99.63,0,0,0,15,.32q7.9,2.23,15.74,3.68a182.8,182.8,0,0,1-26.12,10.69C704.22,707.89,681.55,691.4,666.3,669.37ZM764,712.56a79.87,79.87,0,0,1-16.43,12.36q-5.56-1.73-10.95-3.74A71.16,71.16,0,0,0,764,712.56Zm-64.91,28,2.52.24a231.7,231.7,0,0,0,35.83,7.55c-3,1.61-6.09,3.14-9.3,4.54a95.43,95.43,0,0,0,18.32-3.62,185.94,185.94,0,0,0,20.69.51c-13.12,8.45-29.06,13.9-46,16.34C709.82,758.6,701.78,749.91,699.12,740.56Zm60.69,43A184.35,184.35,0,0,1,739.53,776a130.45,130.45,0,0,0,30.35-5.59C768.64,775.17,765,779.63,759.8,783.61Zm1.53-77.77q-3.1-1.52-6.12-3.12a103.77,103.77,0,0,0,22.06-7.15A129.79,129.79,0,0,1,761.33,705.84Zm24.61,27.3-3-.39c2-1.18,4-2.38,6-3.63C788,730.5,787,731.84,785.94,733.14ZM772.18,626q-12.84-6.55-24.62-13.81c15.47.63,30-2.47,43.22-7.18A106.59,106.59,0,0,1,772.18,626Zm20.22-23.48-2.74.23a45.48,45.48,0,0,0,4.67-3.43C793.71,600.4,793.06,601.46,792.4,602.51Zm-13.3.75a148.45,148.45,0,0,1-36.5-3.55c20.48-.15,39.1-4,54.47-14.18C793.3,592.5,786.83,598.49,779.1,603.27ZM976.58,738.9q-2.9,1.51-6,2.83-4.7-3.2-9-6.77A123.94,123.94,0,0,0,976.58,738.9ZM955,712.56a65.12,65.12,0,0,0,10.37,4.73q-1.5.81-3,1.6A76.61,76.61,0,0,1,955,712.56Zm18.79,37.07q3.48,1,6.93,1.71a105,105,0,0,1-11.91,7.14,102,102,0,0,1-14.05-6.9A116.65,116.65,0,0,0,973.79,749.63Zm3.09-21.81a87.2,87.2,0,0,1-13.26-8,84.91,84.91,0,0,0,10.78,0,87.53,87.53,0,0,0,15.43,1.86A142.15,142.15,0,0,1,976.89,727.82ZM971,712.35c1,0,2,0,3,0l-1.28.77Zm16.25,19.82c-1-.38-2.06-.76-3.08-1.16a56,56,0,0,0,9.25-4.19A65.83,65.83,0,0,1,987.21,732.16ZM987.7,746c-1.37,1.14-2.79,2.24-4.23,3.32-.84-.43-1.67-.88-2.5-1.33Q984.35,747.15,987.7,746Zm4.85-25.82q-3.13-.95-6.18-2a89.26,89.26,0,0,0,18.38-6A110.08,110.08,0,0,1,992.55,720.22ZM978,695.9l2.17-.18a65.79,65.79,0,0,0,18.83-2.95q-3.8,3.88-8,7.46c-.87.55-1.78,1.06-2.7,1.55Q982.92,698.94,978,695.9Zm26.14-23.12c-1.75,6.31-10.47,12.85-17.79,17.38a75.54,75.54,0,0,1-15.58-2.85A100,100,0,0,0,1004.09,672.78Zm-37,13.32a48.87,48.87,0,0,1-9.23-4.52,133.67,133.67,0,0,1-10-9.33,135.28,135.28,0,0,0,27.78,4.45s-2.52-1.2-6.18-3.21a127.94,127.94,0,0,0,19.79-3.36C984,675.53,976,680.83,967.11,686.1ZM989,661.19q-2.35,1.58-4.82,3.09c-2.4-1.43-4.74-2.87-7-4.31A54.7,54.7,0,0,0,989,661.19Zm-8.32,5.16q-5.93,3.4-12.49,6.41c-9-5.07-23.2-14.3-25.65-23.15A116.31,116.31,0,0,0,980.67,666.36Zm.88,38.27a67.21,67.21,0,0,1-20.09,3.21,133.34,133.34,0,0,1-19.7-12.27A100,100,0,0,0,981.55,704.62Zm-51.49,24.5a202,202,0,0,0,31,16.12q-5.56,1.73-11.53,3A75.72,75.72,0,0,1,930.06,729.12Zm19.1,41.31q4.13,1.25,8.29,2.25-3.53.53-7.12.86A16.65,16.65,0,0,1,949.15,770.43Zm30,23.62c-9.54-3.51-17.82-8.06-23.34-13.29,14.51,1.83,28.65-.06,42.54-4.26C996.63,783.29,989.2,789.39,979.2,794.06Zm7.42-30a123,123,0,0,1-14.16-4.15c13.85-3.11,28-9.9,42.34-18.83C1008,750.92,998.14,758.58,986.62,764Zm218-201.38.28,0-.42.31ZM1129,617.76c13,8.63,28.66,11.94,45.91,12.17a181.68,181.68,0,0,1-27.26,14.83,157.87,157.87,0,0,0,28.17-4.41c-4.73,4.88-11.33,9.7-18.87,14.48a54.87,54.87,0,0,1-6.11-1.93,89.94,89.94,0,0,1-19.47-23.3c8.27,6.95,18,9.33,26.88,9.95C1145.85,635.16,1134.29,627.59,1129,617.76Zm8.38-12,.23,0,.12.23Zm34,99.52a44.54,44.54,0,0,1-11.45-5,104.79,104.79,0,0,0,34.59-9.06A140.8,140.8,0,0,1,1171.35,705.3Zm5.59,7-.09.07-.13-.08Zm-30.31-39.55a97.94,97.94,0,0,0,18.26,9.73,71.33,71.33,0,0,1-8.55,2.06C1151.72,680.93,1147.75,676.81,1146.64,672.78Zm3.64,41.25-1.23.43c-1-.73-2.07-1.47-3.07-2.23C1147.4,712.88,1148.83,713.47,1150.27,714Zm25.91-44.36c4.06-.73,8.11-1.62,12-2.65q-2.8,2.9-5.81,5.65Q1179.19,671.22,1176.18,669.67Zm5.24,3.83c-1.2,1.08-2.41,2.15-3.65,3.19a47.42,47.42,0,0,1-4.85,2.68,80.39,80.39,0,0,1-10.13-8c1-.08,2-.18,3.06-.28A131.69,131.69,0,0,0,1181.42,673.51Zm-11.8-7.41q-4.09-2.36-7.88-4.91a60,60,0,0,0,20.62-3.72A113,113,0,0,1,1169.62,666.1Zm-7.55,4.17-.3.15-.3-.3ZM1154.49,693l-1.55.91c-.58-.57-1.15-1.15-1.72-1.73C1152.3,692.5,1153.39,692.77,1154.49,693Zm4,23.79a84.87,84.87,0,0,0,9.57,2.13c-1.89,1.23-3.82,2.42-5.81,3.52q-4.45-2.32-8.55-4.88Q1156.18,717.27,1158.54,716.82ZM1172,732.64l.87.2q-1.94,1.59-4,3.1-1.28-.8-2.52-1.66C1168.31,733.78,1170.18,733.23,1172,732.64Zm11.32-76a88.69,88.69,0,0,1-15.33,0,118.59,118.59,0,0,0,25.65-13.14C1192.46,648,1188.34,652.55,1183.37,656.66ZM1135.93,741q6.34,4,12.63,7.3-2.24,1.09-4.54,2.12A61.44,61.44,0,0,1,1135.93,741Zm15.15,8.61a135.8,135.8,0,0,0,15.47,6.77q-4.89,2-10.05,3.53a72,72,0,0,1-12.33-9.35Q1147.61,750.26,1151.08,749.65Zm12.85,40.26c-6.06-3.92-10.33-8.48-11.61-13.4a112.33,112.33,0,0,0,25.62,4.78A65.71,65.71,0,0,1,1163.94,789.91Zm9.28-36.42a100,100,0,0,1-9.54-6.91l.51-.16a107.34,107.34,0,0,0,15.46,3.7Q1176.52,751.9,1173.22,753.48Zm12.73,17.86c-1.44-.31-2.87-.66-4.28-1q2.59-.69,5.16-1.47A16.87,16.87,0,0,1,1185.95,771.35Zm2.11-26.63a96.34,96.34,0,0,1-9.51-3.67c4.31-1.88,8.64-4,13-6.3.81,0,1.63,0,2.46-.06l-1.53-.44q7.06-3.8,14.18-8.24A77.86,77.86,0,0,1,1188.05,744.71Zm24.14-153.33a108.65,108.65,0,0,1-23.52,28.15,78.4,78.4,0,0,1-22.5,4.72q-1.56-.84-3.1-1.68c9.74-.27,18.53-3.46,26.09-7.43-15.53,3.35-32.25,2.93-44.08-3.71Q1142,609.26,1139,607c-.42-.39-.83-.78-1.23-1.19C1147.92,607,1157,604,1164.54,600c-15.34,3.31-32.08,2.11-41.5-7.09-1-1-1.93-2-2.85-3.06-4.77-6.36-6.62-9.31-8-18.29,7.77,7.87,18.21,13.27,31,16.56-7.41-4.64-14.13-9.23-16.4-15.39a55.89,55.89,0,0,0,17.36,2.1c8.73,4.37,18.73,7.76,29.75,8.07q-8.32,4.6-17.33,8.92c22,.09,42.08-3.79,58.53-14.72-6.43,11.88-20.39,21-35.32,26.31C1190.45,602.65,1202.2,599.78,1212.19,591.38Zm139.46-128.65.38-.05-.59.44Zm-39.57,18.11a63.45,63.45,0,0,1-5.62-4.64,120.6,120.6,0,0,0,18.37,1.9A90,90,0,0,1,1312.09,480.84Zm19.56,59.4c-4.1-5.75-5.95-9.7-7.39-19a66.53,66.53,0,0,0,15.28,11.43Q1335.75,536.57,1331.65,540.24Zm12.81-12.81a19.24,19.24,0,0,1-2.62-4.75,50.45,50.45,0,0,0,5.56,1.37Q1346,525.76,1344.46,527.43Zm7-8.39c-4.21-1.08-8.16-2.28-11.84-3.61,1.47-.49,2.94-1,4.41-1.63a45.85,45.85,0,0,0,12.48-1.73Q1354.06,515.63,1351.43,519Zm7.4-10.53c-1.58.1-3.14.17-4.68.21a66.15,66.15,0,0,0,8.07-5.81Q1360.59,505.75,1358.83,508.51Zm-18-.29c-8.35-.94-15.79-3.2-21.94-7.33a138.57,138.57,0,0,0,22.69-5.8l1.27-.29-.25-.07a110.16,110.16,0,0,0,23.61-11.81C1360.85,492.82,1351.74,501.37,1340.83,508.22Z"/><rect class="cls-5" y="832.47" width="1400" height="147.53"/><rect class="cls-6" x="6.24" y="813.2" width="1393.76" height="19.26"/></g><g id="OBJECT"><ellipse class="cls-7" cx="986.87" cy="865.35" rx="174.63" ry="23.19"/><polygon class="cls-8" points="971.39 657.4 919.58 657.4 925.74 812.4 965.23 812.4 971.39 657.4"/><rect class="cls-9" x="888.7" y="260.33" width="195.9" height="271.67" rx="24.5" ry="24.5"/><circle class="cls-8" cx="1140.02" cy="188.05" r="36.47"/><path class="cls-10" d="M914.49,518.48V638h61.94V563.53a10,10,0,0,1,10-10h0a10,10,0,0,1,10,10V638h61.94V518.48Z"/><rect class="cls-11" x="908.73" y="638" width="73.45" height="19.4" rx="5.73" ry="5.73"/><polygon class="cls-12" points="919.9 665.57 971.07 665.57 971.39 657.4 919.58 657.4 919.9 665.57"/><rect class="cls-11" x="990.53" y="638" width="73.45" height="19.4" rx="5.73" ry="5.73"/><polygon class="cls-13" points="971.39 866.13 919.51 866.13 921.24 812.6 969.66 812.6 971.39 866.13"/><rect class="cls-14" x="911.45" y="864.25" width="68.01" height="9.35" rx="2.67" ry="2.67"/><path class="cls-6" d="M915.25,864.25h60.41l.22,0a3.9,3.9,0,0,0,.61-2.08V849.11a28.33,28.33,0,0,0-28.33-28.33h-5.4a28.33,28.33,0,0,0-28.33,28.33v13.08a3.9,3.9,0,0,0,.61,2.08Z"/><path class="cls-15" d="M975.29,864.25C970.62,851,959,841.66,945.45,841.66s-25.16,9.37-29.83,22.59Z"/><path class="cls-16" d="M911.45,870.8v.88a3.8,3.8,0,0,0,3.8,3.8h60.41a3.8,3.8,0,0,0,3.8-3.8v-.88Z"/><path class="cls-17" d="M1042.84,317.94a137.83,137.83,0,0,1-46.45,12.52V332a8.71,8.71,0,0,1-4.35,7.6c-7.74,4.38-15.62-1.1-15.62-8.42v-.68A137.83,137.83,0,0,1,930,317.94,11,11,0,0,0,914.49,328V518.48h143.84V328A11,11,0,0,0,1042.84,317.94Z"/><rect class="cls-12" x="914.49" y="518.48" width="143.84" height="9.33"/><path class="cls-18" d="M986.41,341.13a10,10,0,0,0,10-10v-9.65c-3.29.31-6.62.47-10,.47h0c-3.37,0-6.7-.16-10-.47v9.66A10,10,0,0,0,986.41,341.13Z"/><path class="cls-19" d="M986.41,327.74h0c3.37,0,6.7-.16,10-.47v-5.78c-3.29.31-6.62.47-10,.47h0c-3.37,0-6.7-.16-10-.47v5.78C979.71,327.57,983,327.74,986.41,327.74Z"/><polygon class="cls-20" points="923.29 784.63 924.49 812.6 966.41 812.6 967.61 784.63 923.29 784.63"/><polygon class="cls-21" points="966.33 784.63 967.15 764.13 923.83 764.13 924.64 784.63 966.33 784.63"/><polygon class="cls-12" points="924.43 779.46 924.64 784.63 966.33 784.63 966.54 779.46 924.43 779.46"/><polygon class="cls-8" points="1053.2 657.4 1001.38 657.4 1007.55 812.4 1047.04 812.4 1053.2 657.4"/><polygon class="cls-12" points="1001.71 665.57 1052.88 665.57 1053.2 657.4 1001.38 657.4 1001.71 665.57"/><polygon class="cls-13" points="1053.2 866.13 1001.32 866.13 1003.05 812.6 1051.47 812.6 1053.2 866.13"/><rect class="cls-14" x="993.26" y="864.25" width="68.01" height="9.35" rx="2.67" ry="2.67"/><path class="cls-6" d="M997.05,864.25h60.41l.22,0a3.9,3.9,0,0,0,.61-2.08V849.11A28.33,28.33,0,0,0,1030,820.78h-5.4a28.33,28.33,0,0,0-28.33,28.33v13.08a3.9,3.9,0,0,0,.61,2.08Z"/><path class="cls-15" d="M1057.09,864.25c-4.67-13.22-16.25-22.59-29.83-22.59s-25.16,9.37-29.83,22.59Z"/><path class="cls-16" d="M993.26,870.8v.88a3.8,3.8,0,0,0,3.8,3.8h60.41a3.8,3.8,0,0,0,3.8-3.8v-.88Z"/><polygon class="cls-20" points="1005.1 784.63 1006.3 812.6 1048.22 812.6 1049.42 784.63 1005.1 784.63"/><polygon class="cls-21" points="1048.14 784.63 1048.95 764.13 1005.63 764.13 1006.45 784.63 1048.14 784.63"/><polygon class="cls-12" points="1006.24 779.46 1006.45 784.63 1048.14 784.63 1048.35 779.46 1006.24 779.46"/><path class="cls-17" d="M1100.93,319.15a103.59,103.59,0,0,1-42.61,8.9v35.16A138.57,138.57,0,0,0,1118.1,350c.9-.44,1.8-.89,2.68-1.34Z"/><path class="cls-18" d="M1130.33,195.5a11,11,0,0,1,13.35,7.88l5.16,20a36.32,36.32,0,0,1-3.85.73l-5.1-19.81a7.05,7.05,0,0,0-8.59-5.07h0a7.05,7.05,0,0,0-5.07,8.59l3.93,15.28a36.19,36.19,0,0,1-4.43-1.55l-3.28-12.76A11,11,0,0,1,1130.33,195.5Z"/><path class="cls-8" d="M1168.55,210.74A36.39,36.39,0,0,1,1140,224.51a36.86,36.86,0,0,1-3.9-.21c10.61,25.8,9.55,49.49-3.1,68.57-7.42,11.19-18.63,20.18-32.08,26.28l19.85,29.52c17.25-8.83,31.57-21.35,41.53-36.37C1181.48,283.4,1183.68,247.37,1168.55,210.74Z"/><path class="cls-12" d="M1169.73,213.69c-.38-1-.77-2-1.18-3A36.39,36.39,0,0,1,1140,224.51a36.86,36.86,0,0,1-3.9-.21,106.64,106.64,0,0,1,3.82,10.91A36.48,36.48,0,0,0,1169.73,213.69Z"/><path class="cls-12" d="M1058.33,363.21V328c2.75,0,5.48-.11,8.18-.31a12.76,12.76,0,0,1,.28,2.63V363Q1062.58,363.2,1058.33,363.21Z"/><circle class="cls-8" cx="704.65" cy="345.72" r="39"/><rect class="cls-17" x="849.99" y="328.22" width="64.49" height="35"/><rect class="cls-12" x="906.02" y="328.22" width="8.47" height="35"/><path class="cls-8" d="M740.77,314.42V290.66a10.79,10.79,0,0,0-10.36-10.9,10.56,10.56,0,0,0-10.75,10.55v37.92h19.45v35H850v-35H754.58A13.81,13.81,0,0,1,740.77,314.42Z"/><path class="cls-12" d="M748.32,355.39a38.81,38.81,0,0,0-6.54-21.62,39,39,0,0,1-2.28,29.45h8A39.17,39.17,0,0,0,748.32,355.39Z"/><path class="cls-22" d="M1067.89,461.56a8.47,8.47,0,0,1-6-2.49l-7.73-7.73a117.55,117.55,0,0,1-34.65-83.66V323.61a8.5,8.5,0,0,1,17,0v44.06a100.66,100.66,0,0,0,29.68,71.64l7.73,7.73a8.5,8.5,0,0,1-6,14.51Z"/><path class="cls-22" d="M906.21,461.56a8.5,8.5,0,0,1-6-14.51l7.73-7.73a100.65,100.65,0,0,0,29.68-71.64V323.61a8.5,8.5,0,0,1,17,0v44.06A117.54,117.54,0,0,1,920,451.34l-7.73,7.73A8.47,8.47,0,0,1,906.21,461.56Z"/><path class="cls-14" d="M880.91,173.11a62.13,62.13,0,0,1,2.51-17.47h-2.12a9.42,9.42,0,0,0-9.42,9.42v26.5a8.69,8.69,0,0,0,8.69,8.69h.35Z"/><path class="cls-16" d="M883.41,155.64h-2.12c-.25,0-.49,0-.73,0a62.13,62.13,0,0,0-2.5,17.43v26.78l.64.16.32.06.48.07.27,0c.26,0,.52,0,.78,0h.35V173.11A62.13,62.13,0,0,1,883.41,155.64Z"/><path class="cls-14" d="M1091.94,173.11a62.13,62.13,0,0,0-2.51-17.47h2.12a9.42,9.42,0,0,1,9.42,9.42v26.5a8.69,8.69,0,0,1-8.69,8.69h-.35Z"/><path class="cls-16" d="M1089.43,155.64h2.12c.25,0,.49,0,.73,0a62.13,62.13,0,0,1,2.5,17.43v26.78l-.64.16-.32.06-.48.07-.27,0c-.26,0-.52,0-.78,0h-.35V173.11A62.13,62.13,0,0,0,1089.43,155.64Z"/><path class="cls-8" d="M986.41,322h0a105.5,105.5,0,0,1-105.5-105.5V173.11A62.15,62.15,0,0,1,943.06,111h86.7a62.15,62.15,0,0,1,62.15,62.15v43.35A105.5,105.5,0,0,1,986.41,322Z"/><path class="cls-18" d="M1096.5,206.28h-4.59v10.18a105.69,105.69,0,0,1-3.32,26.35,13.06,13.06,0,0,0,12.39-13v-19A4.48,4.48,0,0,0,1096.5,206.28Z"/><path class="cls-19" d="M1094.78,206.28h-2.88v10.18a105.69,105.69,0,0,1-3.32,26.35,13,13,0,0,0,3-.52,105.7,105.7,0,0,0,3.19-25.83Z"/><path class="cls-18" d="M876.34,206.28h4.59v10.18a105.69,105.69,0,0,0,3.32,26.35,13.06,13.06,0,0,1-12.39-13v-19A4.48,4.48,0,0,1,876.34,206.28Z"/><path class="cls-19" d="M878.06,206.28h2.88v10.18a105.69,105.69,0,0,0,3.32,26.35,13,13,0,0,1-3-.52,105.7,105.7,0,0,1-3.19-25.83Z"/><path class="cls-14" d="M935.83,163.3a45.8,45.8,0,1,0,45.8,45.8A45.8,45.8,0,0,0,935.83,163.3Zm0,87a41.24,41.24,0,1,1,41.24-41.24A41.24,41.24,0,0,1,935.83,250.34Z"/><path class="cls-14" d="M1037,163.3a45.8,45.8,0,1,0,45.8,45.8A45.8,45.8,0,0,0,1037,163.3Zm0,87a41.24,41.24,0,1,1,41.24-41.24A41.24,41.24,0,0,1,1037,250.34Z"/><path class="cls-23" d="M991.7,200.26H981.6a3,3,0,0,0,0,6H991.7a3,3,0,0,0,0-6Z"/><path class="cls-23" d="M877,203.27a3,3,0,0,0,3,3h13.1v-6H880A3,3,0,0,0,877,203.27Z"/><path class="cls-23" d="M1092.78,200.26h-13.1v6h13.1a3,3,0,1,0,0-6Z"/><path class="cls-24" d="M995.52,287H977.29a18.23,18.23,0,0,1-18.23-18.23h54.7A18.23,18.23,0,0,1,995.52,287Z"/><path class="cls-25" d="M962.5,206.68a2.34,2.34,0,1,1-1.72-1.72,7.34,7.34,0,1,0,1.72,1.72Z"/><path class="cls-25" d="M1022.24,206.68a2.34,2.34,0,1,1-1.72-1.72,7.34,7.34,0,1,0,1.72,1.72Z"/><path class="cls-14" d="M1101,155.64H880.91V137.51a33,33,0,0,1,33-33H1084a17,17,0,0,1,17,17Z"/><path class="cls-16" d="M1101,155.64V121.52a17,17,0,0,0-.54-4.26h-183a23.79,23.79,0,0,0-23.79,23.79v14.59Z"/><path class="cls-18" d="M995.27,240.73v.42a8.82,8.82,0,0,1-5.89,8.43,9.29,9.29,0,0,1-2.92.47h-.09a9.28,9.28,0,0,1-2.92-.47,8.82,8.82,0,0,1-5.89-8.43v-.42H974a12.36,12.36,0,0,0,12.36,12.36h.09a12.36,12.36,0,0,0,12.36-12.36Z"/><path class="cls-18" d="M909.46,193.59a3,3,0,0,0,2.53-1.37,28.53,28.53,0,0,1,47.69,0,3,3,0,0,0,2.53,1.37h0a3,3,0,0,0,2.55-4.66,34.58,34.58,0,0,0-57.84,0,3,3,0,0,0,2.55,4.66Z"/><path class="cls-18" d="M1010.61,193.59a3,3,0,0,0,2.53-1.37,28.53,28.53,0,0,1,47.69,0,3,3,0,0,0,2.53,1.37h0a3,3,0,0,0,2.55-4.66,34.58,34.58,0,0,0-57.84,0,3,3,0,0,0,2.55,4.66Z"/></g></svg>