<?xml version="1.0" encoding="utf-8"?>
<!-- Generator: Adobe Illustrator 18.0.0, SVG Export Plug-In . SVG Version: 6.00 Build 0)  -->
<!DOCTYPE svg PUBLIC "-//W3C//DTD SVG 1.1//EN" "http://www.w3.org/Graphics/SVG/1.1/DTD/svg11.dtd">
<svg version="1.1" id="Layer_1" xmlns="http://www.w3.org/2000/svg" xmlns:xlink="http://www.w3.org/1999/xlink" x="0px" y="0px"
	 viewBox="0 0 1400 980" enable-background="new 0 0 1400 980" xml:space="preserve">
<g>
	<rect fill="#D7EACA" width="1400" height="980"/>
	<path fill="#C2E3CA" d="M0,197.7c77.6-22.3,162.9-18.7,237.5,12.4c41,17.1,78.9,41.9,121.6,54.2c88.4,25.3,182.4-6.6,266.8-43.3
		c84.3-36.7,170.7-79.4,262.6-76c75.1,2.7,146.6,36.4,221.7,38.3c15.6,0.4,31.3-0.6,46.3-4.8c30.5-8.5,55.9-29.4,84.6-42.7
		c43.7-20.3,93.7-22.2,141.7-18.3c5.7,0.5,11.5,1,17.2,1.1V0H0V197.7z"/>
	<path fill="#B7AEAE" d="M1400,611.1c-72.6-82.2-146.4-163.3-221.6-243c-22.2-23.5-46.1-48-77.4-56.3
		c-60.4-16.1-116.5,32.4-164.7,72.2C828,473.5,699.4,535.1,568.5,586.2c-9.3,3.7-19.3,7.7-24.9,16c-4.5,6.6-5.5,15-6.3,22.9
		c-5.2,51.8-5,109.8,29.7,148.6c30.8,34.5,80.2,43.9,125.9,51.3c124.8,20.3,249.6,40.6,374.5,60.1c110.1,17.2,222,33.7,332.6,25.7
		V611.1z"/>
	<path fill="#C6BEBE" d="M1178.4,368.1c-22.2-23.5-46.1-48-77.4-56.3c-60.4-16.1-116.5,32.4-164.7,72.2c-45.3,37.5-94.1,70-145.2,99
		c48.9-9.9,97.2-34,147.5-34c-0.1,21.5-0.2,43-0.2,64.6c15.2-8.6,31.8-17.5,49.2-15.4c22.5,2.7,38.5,22.5,52,40.9
		c10.1,13.8,20.2,27.6,30.4,41.4c4.1,5.5,8.8,11.5,15.5,12.6c11.4,1.9,19.5-10.7,23.4-21.6c6.6-18.4,10.9-37.7,12.6-57.2
		c1.3-14.9,4.5-34.1,19.2-36.8c6-1.1,12,1.3,17.6,3.8c30.7,13.5,60,30.2,87.2,49.9c6.2,4.5,15.5,8.8,20.4,3c2.1-2.6,2.4-6.2,4.1-9
		c4.4-7.2,15.4-5.8,22.7-1.6c7.3,4.2,14.3,10.4,22.7,10c4.4-0.2,8-2,10.8-4.8C1277.5,474.5,1228.2,421,1178.4,368.1z"/>
	<path fill="#A99898" d="M1056.3,761.4c-158.3-98.9-313.2-203.1-464.5-312.3c-86.4-62.4-172-126.7-266.6-175.9
		c-20.2-10.5-41.7-20.5-64.4-20c-22.2,0.5-42.8,11.1-62.1,22.2C123,319.4,55.4,377.3,0,445.2v420.7c53.6,2.9,107.3,2.8,161,2.7
		c294.4-0.6,588.8-1.2,883.2-1.8c20.8,0,44.9-1.6,57.2-18.4c11-14.9,7.6-36.6-2.9-51.8C1088.1,781.4,1072,771.2,1056.3,761.4z"/>
	<path fill="#938585" d="M805.7,598.5c-2.1,6.9-4.1,13.8-6.2,20.6C757,582.7,710.4,551,660.7,525c2.1,16,0.1,32.5-5.6,47.6
		c-49.8-35.4-103.1-65.8-158.9-90.7c-15.7-7-35.8-13-48.6-1.5c-19.3,17.5-4,60-28.5,69c-12.1,4.4-24.7-4.2-34.7-12.3
		c-39.5-32-79-63.9-118.5-95.9c-4.3-3.5-8.9-7.1-14.4-7.8c-5-0.6-10.1,1.4-14.4,4.1c-24.1,15.1-37.3,53.9-65.4,49.3
		c-26.7-4.4-33-46.1-59.4-52.2c-7.9-1.8-16.1,0-23.8,2.5C54.9,447.7,26.5,469.2,0,493v328.6c13.7,4.4,27.7,8,41.9,10.9
		c44.6,9,90.4,9.7,135.9,10.4c268.9,3.9,544,7,798.7-79.4c15.3-5.2,32.9-14.8,38.2-28.4C944.3,690.7,874.7,645.1,805.7,598.5z"/>
	<path fill="#95B73D" d="M856.5,687.1c-20.8-21.4-45.7-44.5-75.5-42.7c-5.8,0.3-11.7,1.6-17.1-0.5c-11.7-4.6-12.4-20.5-18.1-31.6
		c-6.7-12.9-22.8-20.1-36.9-16.4c-14.1,3.7-24.6,17.8-24.1,32.4c-17.6-15.1-43.2-20.5-65.4-13.8c-10.9,3.3-21.7,9.3-32.9,7.3
		c-18.5-3.3-29.1-27-47.8-27.7c-23.1-0.9-32.4,32.1-54,40.2c-29.1,11-59.9-28.4-88.9-17.2c-6.4,2.5-11.9,7.2-18.6,8.5
		c-19.6,3.8-39-23.2-56.2-13c-8.4,4.9-10.3,16.2-16.9,23.4c-7.9,8.7-21.6,9.9-32.7,6c-11.1-3.9-20.2-11.8-29-19.6
		c-20.7-18.2-41.4-36.5-62-54.7c-4.3-3.8-8.7-7.6-14.1-9.3c-16.2-4.9-30.8,11.4-37.9,26.8c-7.1,15.4-13.9,33.7-29.9,39.1
		c-23.9,7.9-45.8-19.7-71-20.6C17.1,603.1,8,607,0,613.2v236.7c40.6,12.8,86.6,0.1,128.6-11.8c196.3-56.1,398.6-91.6,602.3-105.7
		c40.2-2.8,80.8-4.8,119.3-16.8c6-1.9,12.8-4.9,14.4-11C866.2,698,861.2,691.9,856.5,687.1z"/>
	<path fill="#89A63D" d="M979.6,669.4c-13.3-1.5-27.2-2.2-38.8-8.9c-10.4-6-19.4-16.9-31.5-16.3c-11.5,0.6-20,11.9-31.4,13.4
		c-14.5,2-26.4-12.1-40.8-14.5c-18.9-3.2-38.2,14-56,6.9c-12-4.8-19.8-19.8-32.8-19.3c-11.1,0.4-18.3,12.4-28.9,15.7
		c-20.9,6.6-37.6-21.8-59.5-23.3c-19.9-1.3-37.8,20.3-56.8,14.1c-12.7-4.1-19.7-19.6-32.8-22.4c-12.2-2.7-23.9,6.8-36.4,7.6
		c-37.2,2.2-43.8-64.7-80.7-69.5c-17.1-2.2-32.4,10.8-42.4,24.8c-10,14-17.7,30.3-31.6,40.6c-14.8,10.9-35.7,13-52.4,5.1
		c-12.1-5.8-22-16.3-35-19.6c-23.6-6-45.5,13.5-61.4,31.9c-15.9,18.4-35.3,39.3-59.5,37.1c-12.3-1.1-23.4-8.3-35.7-9.4
		c-16.3-1.5-32.4,7.8-48.6,5.3c-26.2-4-43-37-69.4-35.6c-6.4,0.3-12.1,2.7-17.2,6.2v217.3c250.8-2.9,496.2-84.7,747.4-92.7
		c114.2-3.6,232.9,7.3,338.6-36.2c6.3-2.6,13.7-9.2,9.7-14.7C1061.3,689.4,1021.1,674.3,979.6,669.4z"/>
	<path fill="#656669" d="M1400,764.4c-188.4-60.6-432.9-97.2-700-97.2S188.4,703.9,0,764.4V980h1400V764.4z"/>
	<path fill="#6C6D71" d="M700,667.3c-267.1,0-511.6,36.6-700,97.2v39.7c73.4-28.6,151.8-44.5,230.6-46.1c52-1.1,104.4,3.9,156-2.9
		c62-8.1,120.5-32.9,181.7-46.2c83.5-18.1,170.6-14.1,254.6,1.8c32.1,6.1,64.1,13.9,96.8,14.1c37.2,0.2,73.5-9.4,109.9-17
		c23.2-4.8,46.6-8.8,70.1-11.9C976.1,677.5,841.2,667.3,700,667.3z"/>
	<path fill="#FFFFFF" d="M556.7,751.1c-65.4,20.8-124.9,44.6-178.4,69.3h121.9c63.2-28.6,125.2-51.3,184.1-69.3H556.7z"/>
	<path fill="#FFFFFF" d="M761.1,701.4c-28.2,4.8-55.6,10.3-82.3,16.4h132c29.9-6.6,58.4-12,85.1-16.4H761.1z"/>
	<path fill="#FFFFFF" d="M968.7,691.1c19.5-2.3,37.4-4.1,53.6-5.4c-17.3-2-34.9-3.9-52.6-5.6c-47.9,1.7-94.1,5.5-138.7,11H968.7z"/>
	<path fill="#FFFFFF" d="M201.4,917.6c-35.7,23-65.4,44.4-88.8,62.4h117.9c29.7-22.5,59.7-43.2,89.9-62.4H201.4z"/>
	<path fill="#56585B" d="M1095.4,736.4c-74.1,21.1-160.3,7.8-222.8,52.9c-35.9,26-57.2,67-85.2,101.4c-30.4,37.4-69.1,67.1-112,89.2
		H1400V764.4c-70.6-22.7-149-42-233.5-57.3C1143.4,718.5,1120.1,729.4,1095.4,736.4z"/>
	<path fill="#484A4D" d="M941.9,980H1400V764.4c-32.3-10.4-66.3-20.1-101.8-29C1185.8,751.4,999.8,804.5,941.9,980z"/>
	<path fill="#89A63D" d="M1040.9,980H1400V764.4c-13.2-4.2-26.6-8.3-40.3-12.3C1249.6,773.1,1096.8,829.4,1040.9,980z"/>
	<g>
		<g>
			<path fill="#EE6C23" d="M756.7,292.5c-12.5,0-22.7,10.2-22.7,22.7v62.8c0,12.5,10.2,22.7,22.7,22.7h22.7V292.5H756.7z"/>
			<path fill="#EE6C23" d="M979.7,292.5c12.5,0,22.7,10.2,22.7,22.7v62.8c0,12.5-10.2,22.7-22.7,22.7H957V292.5H979.7z"/>
			<path fill="#F7941E" d="M937.5,191.6H797.6c-16.7,0-30.2,13.5-30.2,30.2v184.1c0,16.7,13.5,30.2,30.2,30.2h139.9
				c16.7,0,30.2-13.5,30.2-30.2V221.8C967.7,205.1,954.2,191.6,937.5,191.6z"/>
			<path fill="#EFBA81" d="M903.3,220.8l-7.9-1.4l-4.3-31.8l-23.3,8l-23.3-8l-4.3,31.8l-7.9,1.4c0,0-9.2,31-9.2,41.4s44.7,0,44.7,0
				s44.7,10.4,44.7,0S903.3,220.8,903.3,220.8z"/>
			<polygon fill="#FCBB7F" points="951.1,314.6 961,363.3 965,515.1 948.1,538 953.1,564.9 978.9,564.9 991.9,543 993.8,349.4 
				975,286.7 			"/>
			<path fill="#FCBB7F" d="M736.7,227h-45.4l-46.9-79c-2.5-4.2-3.8-9.1-3.8-14v0c0-5.4-1.6-10.6-4.6-15.1
				c-6.2-9.3-16.4-26-16.4-34.4l-3.7,1.7c-4.3,1.9-6.7,6.6-5.6,11.2l3.6,16.1h-21.2c-3.1,0-5.6,2.5-5.6,5.6v25.6
				c0,2.8,2.1,5.1,4.8,5.5l24.6,3.4l52.1,106.8h72.1L736.7,227z"/>
			<g>
				<g>
					<g>
						<rect x="807.2" y="856.4" fill="#E8B580" width="27.3" height="40.7"/>
						<rect x="900.2" y="856.4" fill="#E8B580" width="27.3" height="40.7"/>
					</g>
				</g>
				<path fill="#087791" d="M793.2,480.4v385.2h55.6V585.5c0-10.2,8.3-18.5,18.5-18.5c10.2,0,18.5,8.3,18.5,18.5v280.2h55.6V480.4
					H793.2z"/>
				<path fill="#006075" d="M793.2,530.1c19.6-5.5,30.6-35.8,30.6-35.8l-30.6-0.5V530.1z"/>
				<path fill="#006075" d="M941.5,493.7l-35.1,0.6c0,0,12.7,34.9,35.1,36.6V493.7z"/>
				<path fill="#006075" d="M861.8,467.2v74.4c10.3,0,18.6-8.3,18.6-18.6v-55.8H861.8z"/>
				<g>
					<rect x="789.4" y="856.4" fill="#0C8BA9" width="62.4" height="17.8"/>
					<rect x="882.9" y="856.4" fill="#0C8BA9" width="62.4" height="17.8"/>
				</g>
				<path fill="#3C2415" d="M806.3,891.4h31.2c0,0,12.9,15.1,13.8,30.3s0,19.1,0,19.1h-73.4c0,0-5.3-13.4,2.2-22.3
					S806.3,891.4,806.3,891.4z"/>
				<path fill="#3C2415" d="M929.9,891.4h-31.2c0,0-12.9,15.1-13.8,30.3s0,19.1,0,19.1h73.4c0,0,5.3-13.4-2.2-22.3
					S929.9,891.4,929.9,891.4z"/>
				<path fill="#C35E39" d="M776.7,924.8c-2.2,7.8,1.1,16,1.1,16h73.4c0,0,0.8-3.5,0.2-16H776.7z"/>
				<path fill="#C35E39" d="M884.8,924.8c-0.6,12.6,0.2,16,0.2,16h73.4c0,0,3.3-8.2,1.1-16H884.8z"/>
			</g>
			<path fill="#EF4445" d="M903.6,220.8c0,0.1,0,0.3,0,0.4c0,18.6-15.9,33.8-35.6,33.8c-19.7,0-35.6-15.1-35.6-33.8
				c0-0.1,0-0.3,0-0.4h-41.9v276.4h155V220.8H903.6z"/>
			<polygon fill="#EF4445" points="945.5,220.8 990.9,302.6 949.1,324.5 938.4,301.8 			"/>
			<polygon fill="#EF4445" points="790.5,220.8 728.7,220.8 728.7,276.4 796.8,276.4 			"/>
			<polygon fill="#FCBB7F" points="924.5,116.1 920.1,107.8 911.6,109.8 914.6,98.4 912.3,69 888,55.7 868.1,54.6 848.1,55.7 
				823.8,69 821.6,98.4 824.5,109.8 816.1,107.8 811.6,116.1 816.1,136.5 823,140.4 822.7,144.3 839.8,193 849.8,199.6 868.1,203.5 
				886.3,199.6 896.3,193 913.5,144.3 913.1,140.4 920.1,136.5 			"/>
			<path fill="#E69F65" d="M871.5,115.2c0,0,7.7,25.7,8.6,27.5s-8.9,10.2-8.9,10.2s4.4-6.3,4-11.2
				C874.8,136.7,871.5,115.2,871.5,115.2z"/>
			<path fill="#003A49" d="M792.3,202.3h-8.1c-3.5,0-6.4,2.9-6.4,6.4v161.1c0,3.5,2.9,6.4,6.4,6.4h8.1c3.5,0,6.4-2.9,6.4-6.4V208.7
				C798.7,205.2,795.8,202.3,792.3,202.3z"/>
			<path fill="#003A49" d="M948.5,202.3h-8.1c-3.5,0-6.4,2.9-6.4,6.4v161.1c0,3.5,2.9,6.4,6.4,6.4h8.1c3.5,0,6.4-2.9,6.4-6.4V208.7
				C954.9,205.2,952.1,202.3,948.5,202.3z"/>
			<rect x="785.6" y="406" fill="#003A49" width="164.8" height="14.9"/>
			<path fill="#1E120A" d="M825.4,134.9l0.7-22.4l3.9-14.6l0.3-22.4l22.4,3.8l19.4,3.1l32.1-7.2l1,24.7l2.6,13l1.4,23.4l7.1-29.1
				l1.8-26V68.3c0,0,9.3-3.1,11.9-4.9c2.6-1.8,9.7-17.7,9.7-17.7s-8.4,4-11.9,4s-18.1-4-18.1-4l-19-6.6l-28.7-1.3l-16.3,1.3
				l-7.5,6.2h-11l-7.9,8.4l-4.4,20.7l2.2,24.7L825.4,134.9z"/>
			<path fill="#EF4136" d="M849.8,166.8c1,7.2,8.9,12.8,18.4,12.8c9.6,0,17.5-5.6,18.4-12.8H849.8z"/>
			<g>
				<polygon fill="#1E120A" points="859.4,106.2 818.1,106.2 818.1,113.4 822.5,113.4 829.3,137.3 858,137.3 865,116.2 868.8,116.2 
					868.8,106.2 				"/>
				<path fill="#002D4F" d="M831.2,113.8h25.5c3,0,5.2,2.9,4.3,5.8l-3.7,12.2c-0.6,1.9-2.3,3.2-4.3,3.2h-18.2c-2,0-3.7-1.3-4.3-3.2
					l-3.6-12.2C826,116.7,828.2,113.8,831.2,113.8z"/>
				<polygon fill="#1E120A" points="878.2,106.2 919.6,106.2 919.6,113.4 915.2,113.4 908.4,137.3 879.7,137.3 872.7,116.2 
					868.8,116.2 868.8,106.2 				"/>
				<path fill="#002D4F" d="M906.5,113.8H881c-3,0-5.2,2.9-4.3,5.8l3.7,12.2c0.6,1.9,2.3,3.2,4.3,3.2h18.2c2,0,3.7-1.3,4.3-3.2
					l3.6-12.2C911.6,116.7,909.5,113.8,906.5,113.8z"/>
			</g>
			<path fill="#FFFFFF" d="M852.7,167.2c0,0,0.7,2.5,2.4,3.6c1.7,1.1,13.2,0.9,13.2,0.9s11.5,0.1,13.2-0.9c1.7-1.1,2.4-3.6,2.4-3.6
				H852.7z"/>
		</g>
		<rect x="960.6" y="495.8" fill="#003A49" width="33.5" height="19.1"/>
		<rect x="992.2" y="492" fill="#003A49" width="5.3" height="26.7"/>
	</g>
	<path fill="#FFFFFF" d="M356,145.8c-29.7,0.1-61.9,6.2-87.4-9.1c-15.1-9-27.7-25.4-45.2-25.1c-10.7,0.2-20.5,6.8-31.2,7.1
		c-17.3,0.4-30.1-15.4-45-24.2c-16.8-9.8-38.5-10.7-56-2.2c-4,1.9-8.3,4.4-12.6,3.5c-2.9-0.6-5.3-2.6-7.6-4.5
		c-18-14.7-41.1-25.9-64.1-22.1c-2.3,0.4-4.5,0.9-6.7,1.5v188.6c18.9-0.7,37.8-1.4,56.8-2.1c6.2-0.2,12.8-0.6,18.1-4
		c4.8-3.2,7.7-8.4,10.5-13.5c6.8-12.6,13.5-25.1,20.3-37.7c3.6-6.7,8.1-14.1,15.6-15.3c11.5-1.9,18.6,11.5,26.6,20
		c15.4,16.5,45.3,15.8,59.9-1.4c4.4-5.2,7.4-11.5,12.2-16.4c4.7-4.9,12.1-8.4,18.3-5.7c5.6,2.3,8.8,8.8,14.6,10.5
		c8.5,2.5,16.4-6.6,25.3-6.4c10.8,0.2,16.5,13.1,26.2,17.8c11.8,5.6,25.5-2.4,34.5-11.9c8.9-9.5,16.5-21.3,28.6-26
		c8.4-3.3,17.9-2.7,26.9-2c17.7,1.3,35.4,2.7,53.2,4C419.8,153.3,387.8,145.7,356,145.8z"/>
	<path fill="#FFFFFF" d="M1400,208.3c-17.8-16.2-45.2-22.5-67.3-12.3c-10.4-23.4-33.6-41.6-59.2-42.2s-51.2,19-53.8,44.4
		c-11.1-9.3-26.9-12.6-40.8-8.4c-13.9,4.2-25.3,15.6-29.5,29.5c-1,3.5-1.9,7.4-4.8,9.6c-2.8,2.1-6.6,1.8-10.1,1.3
		c-16.4-2.5-35.5-8.1-47.7,3.1c-6,5.6-8.9,14.6-16.1,18.5c-4.5,2.5-9.9,2.5-15,2.5c-20.1-0.1-40.1-0.3-60.2-0.4
		c-1.7,8.4,9.1,13.9,17.6,13.6c8.6-0.2,17.9-2.8,25.1,1.8c10.9,7,13.3,28.3,26.1,26c4.7-0.8,7.9-5,11.5-8.2
		c13.7-12.2,34.6-10,52.7-7.2c4.9,0.8,9.9,1.6,14,4.4c4.5,3.1,7.2,8.2,9.9,13.1c9.7,17.5,22.4,34.1,39.8,43.9
		c17.5,9.8,40.5,11.4,57,0c4.8-3.3,9.1-7.7,14.8-8.6c6.2-1.1,12.2,2.2,17.8,4.9c17.7,8.7,43.2,11.5,53.4-5.3
		c6.3-10.3,4.4-24.9,13.2-33.1c7.1-6.7,18.4-6.2,27.8-3.6c7.9,2.2,15.6,5.6,23.6,6.4V208.3z"/>
</g>
</svg>
